<?xml version="1.0" encoding="UTF-8" standalone="no"?><svg xmlns="http://www.w3.org/2000/svg" xmlns:xlink="http://www.w3.org/1999/xlink" clip-rule="evenodd" stroke-miterlimit="10" viewBox="0 0 1024 768"><desc>SVG generated by Keynote</desc><defs></defs><g transform="matrix(1.00, 0.00, -0.00, -1.00, 0.0, 768.0)"><g><clipPath id="clip0x7ff6abcced60"><path d="M 0.0 768.0 L 1024.0 768.0 L 1024.0 0.0 L 0.0 0.0 Z M 0.0 768.0 "></path></clipPath><g clip-path="url(#clip0x7ff6abcced60)"><image xlink:href="../../2454F38C-308E-4D93-86A7-ACF877EF01F7/assets/D54D7AAA5FD1EC733BC359F041C689F1.jpeg" width="2048.00" height="1536.00" transform="matrix(0.50, 0.00, -0.00, -0.50, 0.0, 768.0)"></image></g></g><text xml:space="preserve" font-family="Chalkduster,Chalkduster" font-size="20.0" fill="#FEFFFE" transform="matrix(1.00, 0.00, -0.00, -1.00, 359.0, 21.6)">b</text><text xml:space="preserve" font-family="Chalkduster,Chalkduster" font-size="20.0" fill="#FEFFFE" transform="matrix(1.00, 0.00, -0.00, -1.00, 370.0, 21.6)">y</text><text xml:space="preserve" font-family="Chalkduster,Chalkduster" font-size="20.0" fill="#FEFFFE" transform="matrix(1.00, 0.00, -0.00, -1.00, 382.2, 21.6)"> </text><text xml:space="preserve" font-family="Chalkduster,Chalkduster" font-size="20.0" fill="#FEFFFE" transform="matrix(1.00, 0.00, -0.00, -1.00, 392.1, 21.6)">C</text><text xml:space="preserve" font-family="Chalkduster,Chalkduster" font-size="20.0" fill="#FEFFFE" transform="matrix(1.00, 0.00, -0.00, -1.00, 408.4, 21.6)">a</text><text xml:space="preserve" font-family="Chalkduster,Chalkduster" font-size="20.0" fill="#FEFFFE" transform="matrix(1.00, 0.00, -0.00, -1.00, 421.1, 21.6)">r</text><text xml:space="preserve" font-family="Chalkduster,Chalkduster" font-size="20.0" fill="#FEFFFE" transform="matrix(1.00, 0.00, -0.00, -1.00, 432.1, 21.6)">l</text><text xml:space="preserve" font-family="Chalkduster,Chalkduster" font-size="20.0" fill="#FEFFFE" transform="matrix(1.00, 0.00, -0.00, -1.00, 440.7, 21.6)">o</text><text xml:space="preserve" font-family="Chalkduster,Chalkduster" font-size="20.0" fill="#FEFFFE" transform="matrix(1.00, 0.00, -0.00, -1.00, 455.1, 21.6)"> </text><text xml:space="preserve" font-family="Chalkduster,Chalkduster" font-size="20.0" fill="#FEFFFE" transform="matrix(1.00, 0.00, -0.00, -1.00, 463.7, 21.6)">A</text><text xml:space="preserve" font-family="Chalkduster,Chalkduster" font-size="20.0" fill="#FEFFFE" transform="matrix(1.00, 0.00, -0.00, -1.00, 478.5, 21.6)">l</text><text xml:space="preserve" font-family="Chalkduster,Chalkduster" font-size="20.0" fill="#FEFFFE" transform="matrix(1.00, 0.00, -0.00, -1.00, 487.9, 21.6)">b</text><text xml:space="preserve" font-family="Chalkduster,Chalkduster" font-size="20.0" fill="#FEFFFE" transform="matrix(1.00, 0.00, -0.00, -1.00, 499.5, 21.6)">e</text><text xml:space="preserve" font-family="Chalkduster,Chalkduster" font-size="20.0" fill="#FEFFFE" transform="matrix(1.00, 0.00, -0.00, -1.00, 511.7, 21.6)">r</text><text xml:space="preserve" font-family="Chalkduster,Chalkduster" font-size="20.0" fill="#FEFFFE" transform="matrix(1.00, 0.00, -0.00, -1.00, 522.2, 21.6)">t</text><text xml:space="preserve" font-family="Chalkduster,Chalkduster" font-size="20.0" fill="#FEFFFE" transform="matrix(1.00, 0.00, -0.00, -1.00, 530.5, 21.6)">o</text><text xml:space="preserve" font-family="Chalkduster,Chalkduster" font-size="20.0" fill="#FEFFFE" transform="matrix(1.00, 0.00, -0.00, -1.00, 544.9, 21.6)"> </text><text xml:space="preserve" font-family="Chalkduster,Chalkduster" font-size="20.0" fill="#FEFFFE" transform="matrix(1.00, 0.00, -0.00, -1.00, 554.8, 21.6)">D</text><text xml:space="preserve" font-family="Chalkduster,Chalkduster" font-size="20.0" fill="#FEFFFE" transform="matrix(1.00, 0.00, -0.00, -1.00, 568.6, 21.6)">e</text><text xml:space="preserve" font-family="Chalkduster,Chalkduster" font-size="20.0" fill="#FEFFFE" transform="matrix(1.00, 0.00, -0.00, -1.00, 580.4, 21.6)">g</text><text xml:space="preserve" font-family="Chalkduster,Chalkduster" font-size="20.0" fill="#FEFFFE" transform="matrix(1.00, 0.00, -0.00, -1.00, 594.9, 21.6)">l</text><text xml:space="preserve" font-family="Chalkduster,Chalkduster" font-size="20.0" fill="#FEFFFE" transform="matrix(1.00, 0.00, -0.00, -1.00, 604.5, 21.6)">i</text><text xml:space="preserve" font-family="Chalkduster,Chalkduster" font-size="20.0" fill="#FEFFFE" transform="matrix(1.00, 0.00, -0.00, -1.00, 612.4, 21.6)"> </text><text xml:space="preserve" font-family="Chalkduster,Chalkduster" font-size="20.0" fill="#FEFFFE" transform="matrix(1.00, 0.00, -0.00, -1.00, 620.9, 21.6)">A</text><text xml:space="preserve" font-family="Chalkduster,Chalkduster" font-size="20.0" fill="#FEFFFE" transform="matrix(1.00, 0.00, -0.00, -1.00, 635.5, 21.6)">t</text><text xml:space="preserve" font-family="Chalkduster,Chalkduster" font-size="20.0" fill="#FEFFFE" transform="matrix(1.00, 0.00, -0.00, -1.00, 643.8, 21.6)">t</text><text xml:space="preserve" font-family="Chalkduster,Chalkduster" font-size="20.0" fill="#FEFFFE" transform="matrix(1.00, 0.00, -0.00, -1.00, 653.1, 21.6)">i</text><text xml:space="preserve" font-family="Chalkduster,Chalkduster" font-size="20.0" fill="#FEFFFE" transform="matrix(1.00, 0.00, -0.00, -1.00, 661.0, 21.6)"> </text><text xml:space="preserve" font-family="Chalkduster,Chalkduster" font-size="20.0" fill="#FEFFFE" transform="matrix(1.00, 0.00, -0.00, -1.00, 670.9, 21.6)">(</text><text xml:space="preserve" font-family="Chalkduster,Chalkduster" font-size="20.0" fill="#FEFFFE" transform="matrix(1.00, 0.00, -0.00, -1.00, 679.6, 21.6)">@</text><text xml:space="preserve" font-family="Chalkduster,Chalkduster" font-size="20.0" fill="#FEFFFE" transform="matrix(1.00, 0.00, -0.00, -1.00, 696.4, 21.6)">l</text><text xml:space="preserve" font-family="Chalkduster,Chalkduster" font-size="20.0" fill="#FEFFFE" transform="matrix(1.00, 0.00, -0.00, -1.00, 705.0, 21.6)">o</text><text xml:space="preserve" font-family="Chalkduster,Chalkduster" font-size="20.0" fill="#FEFFFE" transform="matrix(1.00, 0.00, -0.00, -1.00, 719.5, 21.6)">r</text><text xml:space="preserve" font-family="Chalkduster,Chalkduster" font-size="20.0" fill="#FEFFFE" transform="matrix(1.00, 0.00, -0.00, -1.00, 730.2, 21.6)">d</text><text xml:space="preserve" font-family="Chalkduster,Chalkduster" font-size="20.0" fill="#FEFFFE" transform="matrix(1.00, 0.00, -0.00, -1.00, 745.8, 21.6)">K</text><text xml:space="preserve" font-family="Chalkduster,Chalkduster" font-size="20.0" fill="#FEFFFE" transform="matrix(1.00, 0.00, -0.00, -1.00, 759.0, 21.6)">a</text><text xml:space="preserve" font-family="Chalkduster,Chalkduster" font-size="20.0" fill="#FEFFFE" transform="matrix(1.00, 0.00, -0.00, -1.00, 772.1, 21.6)">d</text><text xml:space="preserve" font-family="Chalkduster,Chalkduster" font-size="20.0" fill="#FEFFFE" transform="matrix(1.00, 0.00, -0.00, -1.00, 787.7, 21.6)">a</text><text xml:space="preserve" font-family="Chalkduster,Chalkduster" font-size="20.0" fill="#FEFFFE" transform="matrix(1.00, 0.00, -0.00, -1.00, 801.5, 21.6)">)</text><text xml:space="preserve" font-family="Chalkduster,Chalkduster" font-size="20.0" fill="#FEFFFE" transform="matrix(1.00, 0.00, -0.00, -1.00, 811.6, 21.6)"> </text><image xlink:href="../../2454F38C-308E-4D93-86A7-ACF877EF01F7/assets/6AAA538A2569BEA3BCD2D4F395995DA8.png" width="88.00" height="31.00" transform="matrix(1.09, 0.00, -0.00, -1.10, 252.0, 47.0)"></image><text xml:space="preserve" font-family="Chalkduster,Chalkduster" font-size="60.0" fill="#FEFFFE" transform="matrix(1.00, 0.00, -0.00, -1.00, 145.7, 630.8)">G</text><text xml:space="preserve" font-family="Chalkduster,Chalkduster" font-size="60.0" fill="#FEFFFE" transform="matrix(1.00, 0.00, -0.00, -1.00, 212.3, 630.8)">i</text><text xml:space="preserve" font-family="Chalkduster,Chalkduster" font-size="60.0" fill="#FEFFFE" transform="matrix(1.00, 0.00, -0.00, -1.00, 236.6, 630.8)">t</text><text xml:space="preserve" font-family="Chalkduster,Chalkduster" font-size="60.0" fill="#FEFFFE" transform="matrix(1.00, 0.00, -0.00, -1.00, 264.1, 630.8)">:</text><text xml:space="preserve" font-family="Chalkduster,Chalkduster" font-size="60.0" fill="#FEFFFE" transform="matrix(1.00, 0.00, -0.00, -1.00, 283.8, 630.8)"> </text><text xml:space="preserve" font-family="Chalkduster,Chalkduster" font-size="60.0" fill="#FEFFFE" transform="matrix(1.00, 0.00, -0.00, -1.00, 313.7, 630.8)">e</text><text xml:space="preserve" font-family="Chalkduster,Chalkduster" font-size="60.0" fill="#FEFFFE" transform="matrix(1.00, 0.00, -0.00, -1.00, 352.3, 630.8)">s</text><text xml:space="preserve" font-family="Chalkduster,Chalkduster" font-size="60.0" fill="#FEFFFE" transform="matrix(1.00, 0.00, -0.00, -1.00, 382.6, 630.8)">e</text><text xml:space="preserve" font-family="Chalkduster,Chalkduster" font-size="60.0" fill="#FEFFFE" transform="matrix(1.00, 0.00, -0.00, -1.00, 419.7, 630.8)">m</text><text xml:space="preserve" font-family="Chalkduster,Chalkduster" font-size="60.0" fill="#FEFFFE" transform="matrix(1.00, 0.00, -0.00, -1.00, 480.5, 630.8)">p</text><text xml:space="preserve" font-family="Chalkduster,Chalkduster" font-size="60.0" fill="#FEFFFE" transform="matrix(1.00, 0.00, -0.00, -1.00, 518.8, 630.8)">i</text><text xml:space="preserve" font-family="Chalkduster,Chalkduster" font-size="60.0" fill="#FEFFFE" transform="matrix(1.00, 0.00, -0.00, -1.00, 542.5, 630.8)">o</text><text xml:space="preserve" font-family="Chalkduster,Chalkduster" font-size="60.0" fill="#FEFFFE" transform="matrix(1.00, 0.00, -0.00, -1.00, 585.6, 630.8)"> </text><text xml:space="preserve" font-family="Chalkduster,Chalkduster" font-size="60.0" fill="#FEFFFE" transform="matrix(1.00, 0.00, -0.00, -1.00, 615.4, 630.8)">d</text><text xml:space="preserve" font-family="Chalkduster,Chalkduster" font-size="60.0" fill="#FEFFFE" transform="matrix(1.00, 0.00, -0.00, -1.00, 664.8, 630.8)">i</text><text xml:space="preserve" font-family="Chalkduster,Chalkduster" font-size="60.0" fill="#FEFFFE" transform="matrix(1.00, 0.00, -0.00, -1.00, 688.5, 630.8)"> </text><text xml:space="preserve" font-family="Chalkduster,Chalkduster" font-size="60.0" fill="#FEFFFE" transform="matrix(1.00, 0.00, -0.00, -1.00, 708.3, 630.8)">“</text><text xml:space="preserve" font-family="Chalkduster,Chalkduster" font-size="60.0" fill="#FEFFFE" transform="matrix(1.00, 0.00, -0.00, -1.00, 737.5, 630.8)">l</text><text xml:space="preserve" font-family="Chalkduster,Chalkduster" font-size="60.0" fill="#FEFFFE" transform="matrix(1.00, 0.00, -0.00, -1.00, 763.3, 630.8)">o</text><text xml:space="preserve" font-family="Chalkduster,Chalkduster" font-size="60.0" fill="#FEFFFE" transform="matrix(1.00, 0.00, -0.00, -1.00, 807.4, 630.8)">g</text><text xml:space="preserve" font-family="Chalkduster,Chalkduster" font-size="60.0" fill="#FEFFFE" transform="matrix(1.00, 0.00, -0.00, -1.00, 848.3, 630.8)">”</text><text xml:space="preserve" font-family="Chalkduster,Chalkduster" font-size="29.0" fill="#FEFFFE" transform="matrix(1.00, 0.00, -0.00, -1.00, 108.1, 486.4)">C</text><text xml:space="preserve" font-family="Chalkduster,Chalkduster" font-size="29.0" fill="#FEFFFE" transform="matrix(1.00, 0.00, -0.00, -1.00, 131.6, 486.4)">o</text><text xml:space="preserve" font-family="Chalkduster,Chalkduster" font-size="29.0" fill="#FEFFFE" transform="matrix(1.00, 0.00, -0.00, -1.00, 153.3, 486.4)">m</text><text xml:space="preserve" font-family="Chalkduster,Chalkduster" font-size="29.0" fill="#FEFFFE" transform="matrix(1.00, 0.00, -0.00, -1.00, 183.6, 486.4)">m</text><text xml:space="preserve" font-family="Chalkduster,Chalkduster" font-size="29.0" fill="#FEFFFE" transform="matrix(1.00, 0.00, -0.00, -1.00, 213.4, 486.4)">i</text><text xml:space="preserve" font-family="Chalkduster,Chalkduster" font-size="29.0" fill="#FEFFFE" transform="matrix(1.00, 0.00, -0.00, -1.00, 225.2, 486.4)">t</text><text xml:space="preserve" font-family="Chalkduster,Chalkduster" font-size="29.0" fill="#FEFFFE" transform="matrix(1.00, 0.00, -0.00, -1.00, 238.4, 486.4)"> </text><text xml:space="preserve" font-family="Chalkduster,Chalkduster" font-size="29.0" fill="#FEFFFE" transform="matrix(1.00, 0.00, -0.00, -1.00, 252.8, 486.4)">I</text><text xml:space="preserve" font-family="Chalkduster,Chalkduster" font-size="29.0" fill="#FEFFFE" transform="matrix(1.00, 0.00, -0.00, -1.00, 270.1, 486.4)">D</text><text xml:space="preserve" font-family="Chalkduster,Chalkduster" font-size="29.0" fill="#FEFFFE" transform="matrix(1.00, 0.00, -0.00, -1.00, 290.4, 486.4)">:</text><text xml:space="preserve" font-family=".HelveticaNeueDeskInterface-Regular,.Helvetica Neue DeskInterface" font-size="29.0" fill="#FEFFFE" transform="matrix(1.00, 0.00, -0.00, -1.00, 299.9, 486.4)"> </text><text xml:space="preserve" font-family="Chalkduster,Chalkduster" font-size="29.0" fill="#FEFFFE" transform="matrix(1.00, 0.00, -0.00, -1.00, 155.2, 443.4)">“</text><text xml:space="preserve" font-family="Chalkduster,Chalkduster" font-size="29.0" fill="#FEFFFE" transform="matrix(1.00, 0.00, -0.00, -1.00, 169.3, 443.4)">h</text><text xml:space="preserve" font-family="Chalkduster,Chalkduster" font-size="29.0" fill="#FEFFFE" transform="matrix(1.00, 0.00, -0.00, -1.00, 187.2, 443.4)">a</text><text xml:space="preserve" font-family="Chalkduster,Chalkduster" font-size="29.0" fill="#FEFFFE" transform="matrix(1.00, 0.00, -0.00, -1.00, 207.6, 443.4)">s</text><text xml:space="preserve" font-family="Chalkduster,Chalkduster" font-size="29.0" fill="#FEFFFE" transform="matrix(1.00, 0.00, -0.00, -1.00, 222.5, 443.4)">h</text><text xml:space="preserve" font-family="Chalkduster,Chalkduster" font-size="29.0" fill="#FEFFFE" transform="matrix(1.00, 0.00, -0.00, -1.00, 238.2, 443.4)">”</text><path d="M 328.4 493.8 C 328.0 494.0 327.2 493.5 326.9 493.7 M 328.4 493.8 C 327.8 492.4 326.3 492.0 324.4 491.4 C 322.2 490.8 324.2 492.5 323.8 493.0 C 320.9 492.9 321.1 492.0 321.8 490.7 C 320.5 491.4 317.6 489.1 317.9 490.9 C 322.5 491.9 314.6 490.7 318.2 492.4 C 318.6 492.8 317.4 493.0 316.9 492.9 C 318.1 493.9 315.7 494.2 317.7 495.2 C 317.7 496.3 317.4 495.8 318.6 496.9 C 319.1 497.1 318.9 496.7 318.9 496.4 C 319.4 495.2 320.4 497.5 321.6 496.9 C 322.2 498.8 323.6 497.0 322.9 496.2 C 323.8 496.6 324.6 498.5 325.9 497.5 C 326.2 498.5 329.0 498.5 327.6 497.1 C 326.6 496.2 328.0 496.0 328.2 495.7 C 327.9 495.2 326.2 495.4 326.1 495.1 C 326.6 494.9 328.8 494.7 326.6 494.3 C 327.4 493.9 326.4 493.3 328.4 493.8 C 328.4 493.8 328.4 493.8 328.4 493.8 Z M 320.8 491.3 C 320.9 490.8 321.5 491.4 320.8 491.3 C 320.8 491.3 320.8 491.3 320.8 491.3 Z M 324.9 498.2 C 324.9 497.8 325.6 498.4 324.9 498.2 C 324.9 498.2 324.9 498.2 324.9 498.2 Z M 319.3 496.5 C 319.4 496.1 320.0 496.7 319.3 496.5 C 319.3 496.5 319.3 496.5 319.3 496.5 Z M 322.8 492.0 C 323.9 492.6 321.6 492.4 321.5 491.9 C 321.8 492.0 322.5 491.5 322.8 492.0 C 322.8 492.0 322.8 492.0 322.8 492.0 Z M 322.4 494.5 C 322.5 494.4 323.0 494.4 322.9 494.9 C 322.6 494.9 322.3 494.7 322.4 494.5 C 322.4 494.5 322.4 494.5 322.4 494.5 Z M 316.7 491.5 C 316.9 491.3 317.4 491.4 317.2 491.8 C 316.9 491.9 316.6 491.6 316.7 491.5 C 316.7 491.5 316.7 491.5 316.7 491.5 Z M 323.9 493.4 C 324.2 493.6 324.2 494.0 323.8 494.0 C 323.7 493.7 322.9 493.5 323.9 493.4 C 323.9 493.4 323.9 493.4 323.9 493.4 Z M 326.1 492.4 C 327.1 492.8 324.9 493.0 325.0 492.8 C 324.7 492.4 325.6 491.9 326.1 492.4 C 326.1 492.4 326.1 492.4 326.1 492.4 Z M 324.4 494.1 C 325.2 494.5 323.9 494.4 324.4 494.1 C 324.4 494.1 324.4 494.1 324.4 494.1 Z M 316.9 494.9 C 317.7 495.2 316.5 495.1 316.9 494.9 C 316.9 494.9 316.9 494.9 316.9 494.9 Z M 321.1 497.1 C 321.9 497.5 320.6 497.4 321.1 497.1 C 321.1 497.1 321.1 497.1 321.1 497.1 Z M 320.3 492.4 C 318.9 492.0 320.4 491.2 320.3 492.4 C 320.3 492.4 320.3 492.4 320.3 492.4 Z M 328.5 492.8 C 327.0 492.4 328.5 491.6 328.5 492.8 C 328.5 492.8 328.5 492.8 328.5 492.8 Z M 393.6 507.0 C 395.0 507.0 390.0 504.5 391.7 506.6 C 391.9 508.1 388.4 507.3 389.6 506.1 C 388.6 505.8 388.6 505.7 387.9 506.2 C 387.9 505.1 385.5 504.1 384.5 504.5 C 383.8 505.2 386.2 504.9 384.6 505.6 C 381.4 505.2 384.6 506.6 383.1 507.5 C 383.0 507.5 383.1 506.9 382.7 507.2 C 382.4 508.2 384.0 509.3 383.0 510.0 C 383.5 509.9 385.5 511.6 384.8 510.4 C 384.7 509.3 387.0 512.2 387.1 510.5 C 387.7 511.4 388.7 510.5 389.2 511.6 C 389.7 511.9 389.9 511.0 389.9 510.8 C 390.0 510.0 390.2 512.7 391.3 511.5 C 391.3 511.9 393.9 512.3 392.1 511.3 C 392.6 511.5 395.4 512.5 394.2 510.6 C 392.4 509.5 396.6 509.5 394.3 508.9 C 392.5 508.4 392.1 508.6 393.6 508.1 C 394.0 508.3 396.1 508.6 394.5 507.5 C 394.1 507.7 393.3 507.3 393.6 507.0 C 393.6 507.0 393.6 507.0 393.6 507.0 Z M 393.5 509.3 C 392.4 509.1 393.5 508.7 393.5 509.3 C 393.5 509.3 393.5 509.3 393.5 509.3 Z M 389.0 511.9 C 387.9 511.7 389.0 511.3 389.0 511.9 C 389.0 511.9 389.0 511.9 389.0 511.9 Z M 390.4 505.9 C 389.8 506.3 390.0 504.6 390.4 505.9 C 390.4 505.9 390.4 505.9 390.4 505.9 Z M 391.0 511.0 C 390.9 511.0 391.2 510.8 391.4 510.8 C 391.4 510.9 391.1 511.0 391.0 511.0 C 391.0 511.0 391.0 511.0 391.0 511.0 Z M 388.6 505.5 C 386.9 505.9 388.6 504.2 388.6 505.5 C 388.6 505.5 388.6 505.5 388.6 505.5 Z M 385.2 506.3 C 384.7 507.9 383.7 505.7 385.2 506.3 C 385.2 506.3 385.2 506.3 385.2 506.3 Z M 386.7 510.2 C 387.0 510.0 386.9 510.5 386.7 510.2 C 386.7 510.2 386.7 510.2 386.7 510.2 Z M 393.4 511.9 C 393.7 511.6 393.6 512.2 393.4 511.9 C 393.4 511.9 393.4 511.9 393.4 511.9 Z M 384.7 509.7 C 385.0 509.1 385.2 510.1 384.7 509.7 C 384.7 509.7 384.7 509.7 384.7 509.7 Z M 390.0 506.5 C 391.7 505.5 391.3 508.7 390.0 506.5 C 390.0 506.5 390.0 506.5 390.0 506.5 Z M 392.6 506.9 C 393.6 506.8 392.2 507.6 391.8 507.3 C 391.9 507.2 392.4 506.9 392.6 506.9 C 392.6 506.9 392.6 506.9 392.6 506.9 Z M 388.5 506.3 C 389.6 505.9 389.3 506.8 388.5 506.3 C 388.5 506.3 388.5 506.3 388.5 506.3 Z M 391.1 506.1 C 391.5 506.4 390.6 506.2 391.1 506.1 C 391.1 506.1 391.1 506.1 391.1 506.1 Z M 386.8 504.6 C 387.3 504.8 386.4 504.7 386.8 504.6 C 386.8 504.6 386.8 504.6 386.8 504.6 Z M 393.9 506.5 C 394.3 506.7 393.5 506.6 393.9 506.5 C 393.9 506.5 393.9 506.5 393.9 506.5 Z M 387.0 505.5 C 386.8 506.0 387.9 507.5 385.6 506.0 C 385.3 505.5 386.5 504.9 387.0 505.5 C 387.0 505.5 387.0 505.5 387.0 505.5 Z M 330.8 494.4 C 327.4 491.8 327.6 495.1 327.3 495.6 C 326.6 496.4 327.0 497.0 327.7 497.7 C 328.1 499.8 329.3 496.0 329.5 498.0 C 329.9 500.9 331.1 496.0 331.0 498.9 C 330.7 499.5 332.3 499.3 332.2 499.1 C 332.6 500.5 334.2 498.4 334.2 498.2 C 334.7 498.7 334.2 501.1 336.1 499.6 C 337.4 499.2 337.5 501.7 337.5 500.0 C 338.0 502.1 338.2 499.6 338.9 500.4 C 339.3 501.5 339.3 498.8 340.0 501.0 C 340.8 499.6 339.2 502.0 342.4 501.5 C 341.0 501.0 344.1 500.5 343.3 501.4 C 342.1 502.3 344.8 501.3 346.0 502.3 C 346.4 501.8 348.3 500.7 347.7 502.2 C 348.7 504.3 349.4 501.4 349.7 503.0 C 350.0 503.7 350.4 502.4 350.7 502.6 C 351.0 503.8 351.6 503.1 353.2 503.8 C 356.9 505.2 354.4 501.1 355.9 501.0 C 356.3 500.5 355.0 496.4 355.2 499.4 C 355.1 498.5 351.4 500.7 353.6 498.0 C 352.2 499.0 354.1 496.9 351.4 497.8 C 354.2 500.6 347.6 497.9 350.9 497.5 C 350.5 496.8 349.2 496.6 350.0 497.3 C 350.0 499.3 348.0 496.0 348.8 498.6 C 347.0 497.5 347.0 499.8 346.8 498.2 C 346.9 495.5 346.7 498.8 345.9 497.9 C 343.6 497.4 346.0 494.8 344.2 496.5 C 342.2 494.7 343.4 497.5 342.6 497.6 C 342.0 499.3 340.5 495.8 342.3 495.9 C 341.2 496.7 342.3 495.0 341.0 495.9 C 341.5 497.7 340.1 493.9 340.1 495.3 C 339.1 495.5 339.3 496.6 339.1 496.6 C 337.7 496.3 338.4 494.8 337.9 495.9 C 337.4 496.5 337.2 494.2 336.9 494.7 C 338.3 495.1 335.4 496.2 335.4 495.3 C 336.3 495.4 335.4 493.1 334.6 494.2 C 334.5 497.9 333.5 493.0 332.6 494.2 C 332.8 496.2 329.4 493.7 331.0 493.1 C 330.9 493.3 330.8 494.4 330.8 494.4 M 336.4 494.9 C 337.6 495.3 335.1 495.0 336.4 494.9 M 336.5 494.4 C 336.9 495.2 335.5 493.7 336.6 494.2 C 336.6 494.2 336.4 494.3 336.5 494.4 M 341.4 495.4 C 341.1 495.9 340.8 494.9 341.4 495.4 M 342.1 496.8 C 342.8 497.5 341.0 496.6 342.1 496.8 M 353.0 498.7 C 351.2 501.4 352.2 496.8 353.0 498.7 M 345.9 496.6 C 344.5 496.7 346.7 495.4 345.9 496.6 M 345.4 497.2 C 344.7 497.6 345.4 496.5 345.4 497.2 M 350.9 498.2 C 351.0 498.3 351.0 498.3 350.9 498.2 C 350.9 498.2 350.9 498.2 350.9 498.2 Z M 354.1 499.0 C 354.1 499.0 354.1 499.0 354.1 499.0 C 354.1 499.0 354.1 499.0 354.1 499.0 Z M 347.7 497.9 C 346.9 497.0 349.4 498.0 347.7 497.9 C 347.7 497.9 347.7 497.9 347.7 497.9 Z M 351.6 503.1 C 351.5 503.2 351.5 503.2 351.6 503.1 C 351.6 503.1 351.6 503.1 351.6 503.1 Z M 335.2 496.1 C 335.2 496.1 335.2 496.1 335.2 496.1 C 335.2 496.1 335.2 496.1 335.2 496.1 Z M 331.8 494.2 C 331.8 494.6 331.2 493.7 331.8 494.2 C 331.8 494.2 331.8 494.2 331.8 494.2 Z M 328.2 496.9 C 328.1 497.0 328.1 497.0 328.2 496.9 C 328.2 496.9 328.2 496.9 328.2 496.9 Z M 333.7 497.4 C 333.6 497.4 333.6 497.4 333.7 497.4 C 333.7 497.4 333.7 497.4 333.7 497.4 Z M 334.7 495.3 C 334.4 493.5 336.0 496.0 334.7 495.3 C 334.7 495.3 334.7 495.3 334.7 495.3 Z M 345.6 501.7 C 345.8 501.0 346.4 502.1 345.6 501.7 C 345.6 501.7 345.6 501.7 345.6 501.7 Z M 342.1 497.5 C 342.3 497.1 342.6 497.7 342.1 497.5 C 342.1 497.5 342.1 497.5 342.1 497.5 Z M 340.5 494.8 C 340.8 494.5 341.0 495.1 340.5 494.8 C 340.5 494.8 340.5 494.8 340.5 494.8 Z M 332.0 493.8 C 332.1 493.7 332.1 493.7 332.0 493.8 C 332.0 493.8 332.0 493.8 332.0 493.8 Z M 333.0 495.3 C 332.5 493.6 334.2 496.4 333.0 495.3 C 333.0 495.3 333.0 495.3 333.0 495.3 Z M 331.4 495.4 C 331.8 496.1 330.3 494.9 331.4 495.4 M 331.8 497.9 C 333.0 497.5 330.2 500.4 331.8 497.9 C 331.8 497.9 331.8 497.9 331.8 497.9 Z M 337.3 499.7 C 337.3 499.7 337.3 499.7 337.3 499.7 C 337.3 499.7 337.3 499.7 337.3 499.7 Z M 337.6 495.1 C 338.6 495.4 336.9 495.3 337.6 495.1 C 337.6 495.1 337.6 495.1 337.6 495.1 Z M 329.2 493.0 C 330.2 493.3 328.5 493.2 329.2 493.0 C 329.2 493.0 329.2 493.0 329.2 493.0 Z M 340.8 498.9 C 342.5 499.0 339.7 499.5 340.8 498.9 C 340.8 498.9 340.8 498.9 340.8 498.9 Z M 347.1 498.4 C 347.1 498.4 347.1 498.4 347.1 498.4 C 347.1 498.4 347.1 498.4 347.1 498.4 Z M 348.3 498.0 C 348.3 498.0 348.3 498.0 348.3 498.0 C 348.3 498.0 348.3 498.0 348.3 498.0 Z M 352.5 500.5 C 352.5 500.6 352.5 500.6 352.5 500.5 C 352.5 500.5 352.5 500.5 352.5 500.5 Z M 349.4 497.4 C 349.4 497.5 349.4 497.5 349.4 497.4 C 349.4 497.4 349.4 497.4 349.4 497.4 Z M 352.5 498.5 C 352.5 498.6 352.5 498.6 352.5 498.5 C 352.5 498.5 352.5 498.5 352.5 498.5 Z M 352.3 497.1 C 352.4 497.2 352.4 497.2 352.3 497.1 C 352.3 497.1 352.3 497.1 352.3 497.1 Z M 343.9 502.2 C 344.0 502.3 344.0 502.3 343.9 502.2 C 343.9 502.2 343.9 502.2 343.9 502.2 Z M 333.8 493.6 C 333.9 493.8 333.9 493.8 333.8 493.6 C 333.8 493.6 333.8 493.6 333.8 493.6 Z M 352.1 499.0 C 352.1 499.1 352.1 499.1 352.1 499.0 C 352.1 499.0 352.1 499.0 352.1 499.0 Z M 344.2 498.6 C 343.9 499.9 343.9 496.8 344.4 498.6 C 344.3 498.7 344.2 498.4 344.2 498.6 M 344.8 501.0 C 344.7 501.0 344.7 501.0 344.8 501.0 C 344.8 501.0 344.8 501.0 344.8 501.0 Z M 341.1 501.0 C 341.1 501.1 341.1 501.1 341.1 501.0 C 341.1 501.0 341.1 501.0 341.1 501.0 Z M 348.9 497.1 C 348.9 496.3 349.7 497.8 348.8 497.1 M 352.0 502.7 C 352.0 502.0 352.8 503.5 351.9 502.8 M 328.0 493.2 C 327.8 493.8 327.4 492.8 328.0 493.2 M 340.2 501.5 C 339.9 502.1 339.6 501.1 340.2 501.5 M 342.2 500.3 C 342.2 499.5 342.9 501.0 342.0 500.3 M 349.6 502.2 C 349.7 502.2 349.7 502.2 349.6 502.2 C 349.6 502.2 349.6 502.2 349.6 502.2 Z M 339.1 495.6 C 339.1 495.6 339.1 495.6 339.1 495.6 C 339.1 495.6 339.1 495.6 339.1 495.6 Z M 343.0 498.0 C 342.6 496.9 343.6 498.8 343.0 498.0 M 337.5 497.0 C 336.9 495.6 338.7 497.7 337.5 497.0 M 353.8 503.4 C 353.1 501.7 354.3 504.4 353.8 503.4 M 349.9 498.7 C 349.3 497.1 350.4 499.7 349.9 498.7 M 339.8 496.4 C 339.9 495.6 340.6 497.0 339.8 496.4 M 330.3 493.6 C 329.4 493.3 331.6 493.2 330.3 493.6 M 347.3 501.8 C 347.4 501.8 347.4 501.8 347.3 501.8 C 347.3 501.8 347.3 501.8 347.3 501.8 Z M 332.0 499.9 C 332.0 499.9 332.0 499.9 332.0 499.9 C 332.0 499.9 332.0 499.9 332.0 499.9 Z M 356.0 498.8 C 356.0 498.9 356.0 498.9 356.0 498.8 C 356.0 498.8 356.0 498.8 356.0 498.8 Z M 349.2 499.3 C 349.2 499.4 349.2 499.4 349.2 499.3 C 349.2 499.3 349.2 499.3 349.2 499.3 Z M 354.2 498.2 C 354.3 498.4 354.3 498.4 354.2 498.2 C 354.2 498.2 354.2 498.2 354.2 498.2 Z M 346.0 499.8 C 346.0 499.9 346.0 499.9 346.0 499.8 C 346.0 499.8 346.0 499.8 346.0 499.8 Z M 346.2 495.9 C 346.2 496.0 346.2 496.0 346.2 495.9 C 346.2 495.9 346.2 495.9 346.2 495.9 Z M 342.6 496.9 C 342.7 496.9 342.7 496.9 342.6 496.9 C 342.6 496.9 342.6 496.9 342.6 496.9 Z M 347.6 496.5 C 349.6 496.7 346.4 497.6 347.6 496.5 C 347.6 496.5 347.6 496.5 347.6 496.5 Z M 343.5 499.6 C 343.5 499.6 343.5 499.6 343.5 499.6 C 343.5 499.6 343.5 499.6 343.5 499.6 Z M 343.8 496.9 C 345.2 496.1 344.0 498.8 343.8 496.9 M 338.6 494.9 C 339.1 494.4 338.6 495.8 338.6 494.9 M 335.5 499.3 C 335.4 499.4 335.4 499.4 335.5 499.3 C 335.5 499.3 335.5 499.3 335.5 499.3 Z M 336.1 499.1 C 336.1 499.1 336.1 499.1 336.1 499.1 C 336.1 499.1 336.1 499.1 336.1 499.1 Z M 337.4 494.4 C 337.4 494.4 337.4 494.4 337.4 494.4 C 337.4 494.4 337.4 494.4 337.4 494.4 Z M 335.9 500.5 C 335.9 500.6 335.9 500.6 335.9 500.5 C 335.9 500.5 335.9 500.5 335.9 500.5 Z M 345.4 495.9 C 345.5 495.9 345.5 495.9 345.4 495.9 C 345.4 495.9 345.4 495.9 345.4 495.9 Z M 355.3 497.9 C 355.3 497.9 355.3 497.9 355.3 497.9 C 355.3 497.9 355.3 497.9 355.3 497.9 Z M 329.7 497.6 C 329.7 497.7 329.7 497.7 329.7 497.6 C 329.7 497.6 329.7 497.6 329.7 497.6 Z M 346.2 497.6 C 346.2 497.6 346.2 497.6 346.2 497.6 C 346.2 497.6 346.2 497.6 346.2 497.6 Z M 334.1 498.8 C 334.1 498.9 334.1 498.9 334.1 498.8 C 334.1 498.8 334.1 498.8 334.1 498.8 Z M 345.6 497.1 C 345.6 497.2 345.6 497.2 345.6 497.1 C 345.6 497.1 345.6 497.1 345.6 497.1 Z M 347.0 502.0 C 347.0 502.0 347.0 502.0 347.0 502.0 C 347.0 502.0 347.0 502.0 347.0 502.0 Z M 348.9 503.3 C 348.9 503.3 348.9 503.3 348.9 503.3 C 348.9 503.3 348.9 503.3 348.9 503.3 Z M 347.4 499.3 C 347.4 499.4 347.4 499.4 347.4 499.3 C 347.4 499.3 347.4 499.3 347.4 499.3 Z M 333.8 497.1 C 330.2 495.0 336.9 497.1 333.8 497.1 M 348.0 499.8 C 345.3 498.9 350.4 498.8 348.0 499.8 C 348.3 499.5 348.0 499.8 348.0 499.8 M 357.1 498.4 C 355.7 499.6 355.4 500.9 355.6 502.4 C 356.0 503.3 356.5 500.5 356.1 502.8 C 354.7 503.0 355.9 506.5 356.5 503.4 C 358.2 503.4 356.3 505.4 357.6 504.4 C 359.4 504.5 358.3 505.2 359.8 505.3 C 360.9 503.8 360.4 506.3 361.1 504.8 C 360.0 506.4 362.6 504.7 362.5 505.4 C 361.0 506.2 367.3 506.5 364.1 505.3 C 365.6 504.8 365.1 506.1 365.5 506.4 C 366.3 505.5 367.5 507.7 368.5 506.9 C 368.4 506.6 368.0 506.4 368.0 506.1 C 367.9 505.4 368.9 506.4 368.7 506.4 C 369.4 506.1 371.7 505.5 369.1 506.8 C 368.8 507.6 371.0 506.8 370.8 507.6 C 372.8 508.0 371.6 506.0 372.2 507.5 C 373.7 507.8 374.7 508.0 374.7 507.8 C 375.6 508.2 375.5 509.2 376.5 508.4 C 377.9 510.6 378.5 505.2 378.4 508.9 C 379.1 508.1 379.0 510.5 379.4 508.3 C 378.6 509.2 382.0 510.7 380.8 508.8 C 381.4 508.3 383.0 511.6 383.2 509.3 C 384.3 507.8 384.5 506.2 383.1 504.3 C 383.0 505.6 381.5 502.6 382.4 505.0 C 383.7 506.1 379.4 505.2 380.5 504.6 C 381.3 502.1 378.1 505.8 377.6 503.8 C 378.1 504.9 374.5 504.7 376.0 503.0 C 375.4 502.7 375.0 503.6 374.5 502.3 C 376.6 502.9 373.3 504.2 373.7 503.0 C 374.2 502.4 371.2 501.1 371.3 502.3 C 371.8 505.2 370.6 501.6 369.9 502.5 C 368.1 502.7 370.6 500.3 368.9 502.0 C 368.7 501.6 366.4 501.1 368.0 500.8 C 368.4 501.2 366.0 503.5 366.2 501.1 C 368.9 500.4 363.6 499.9 364.3 500.7 C 367.7 502.8 360.0 501.3 363.2 500.7 C 361.8 499.1 363.8 500.3 361.6 500.4 C 361.7 501.2 360.0 501.5 360.7 500.2 C 360.8 497.9 359.5 502.9 358.8 499.7 C 358.9 498.4 356.1 500.1 357.4 498.9 C 357.4 498.7 357.1 498.4 357.1 498.4 M 357.8 498.8 C 357.4 499.2 357.4 498.1 357.8 498.8 M 357.4 499.2 C 357.4 499.2 357.4 499.2 357.4 499.2 C 357.4 499.2 357.4 499.2 357.4 499.2 Z M 361.3 500.4 C 361.3 500.3 361.3 500.3 361.3 500.4 C 361.3 500.4 361.3 500.4 361.3 500.4 Z M 363.3 506.5 C 363.3 506.4 363.3 506.4 363.3 506.5 C 363.3 506.5 363.3 506.5 363.3 506.5 Z M 363.9 501.1 C 363.9 501.1 363.9 501.1 363.9 501.1 C 363.9 501.1 363.9 501.1 363.9 501.1 Z M 359.8 500.5 C 359.8 500.4 359.8 500.4 359.8 500.5 C 359.8 500.5 359.8 500.5 359.8 500.5 Z M 363.8 500.2 C 363.9 501.1 363.0 499.5 363.9 500.1 C 363.9 500.2 363.8 500.2 363.8 500.2 M 367.4 500.7 C 367.4 500.8 367.4 500.8 367.4 500.7 M 373.7 508.6 C 373.7 508.7 373.7 508.7 373.7 508.6 M 375.7 502.4 C 375.7 502.5 375.7 502.5 375.7 502.4 M 370.6 502.2 C 371.7 502.3 370.8 502.7 370.6 502.2 M 378.4 503.4 C 377.1 502.6 379.9 503.3 378.4 503.4 M 379.8 503.2 C 379.9 503.3 379.9 503.3 379.8 503.2 M 373.7 502.2 C 373.6 502.3 373.6 502.3 373.7 502.2 C 373.7 502.2 373.7 502.2 373.7 502.2 Z M 370.3 501.8 C 369.0 501.1 371.8 501.3 370.3 501.8 M 361.9 499.7 C 362.8 499.5 361.7 500.8 361.9 499.7 M 360.3 499.9 C 360.2 499.9 360.2 499.9 360.3 499.9 C 360.3 499.9 360.3 499.9 360.3 499.9 Z M 376.2 502.9 C 376.2 502.9 376.2 502.9 376.2 502.9 C 376.2 502.9 376.2 502.9 376.2 502.9 Z M 377.8 503.1 C 377.7 503.1 377.7 503.1 377.8 503.1 C 377.8 503.1 377.8 503.1 377.8 503.1 Z M 379.1 509.6 C 379.0 509.6 379.0 509.6 379.1 509.6 C 379.1 509.6 379.1 509.6 379.1 509.6 Z M 360.9 502.6 C 360.0 501.9 362.4 500.8 361.8 502.3 C 361.8 502.9 361.0 502.5 360.9 502.6 M 368.9 503.4 C 368.7 505.5 368.4 500.4 368.9 503.4 M 379.7 504.6 C 380.2 507.2 378.7 502.6 379.7 504.6 M 381.9 504.6 C 382.4 505.2 377.9 504.0 381.2 504.1 C 381.6 503.8 381.7 504.3 381.9 504.6 M 367.2 501.7 C 367.3 502.8 365.7 500.8 367.2 501.7 M 372.9 506.4 C 373.5 505.8 375.0 505.4 374.2 506.5 C 373.8 508.1 372.1 506.8 372.9 506.4 M 357.8 500.0 C 359.1 498.4 357.5 501.6 357.8 500.0 M 361.8 501.1 C 361.9 501.0 361.9 501.0 361.8 501.1 C 361.8 501.1 361.8 501.1 361.8 501.1 Z M 363.5 501.1 C 363.5 501.3 363.5 501.3 363.5 501.1 M 358.8 498.6 C 358.9 498.8 358.9 498.8 358.8 498.6 M 373.2 504.5 C 373.3 504.7 373.3 504.7 373.2 504.5 M 370.3 502.6 C 371.4 504.7 369.3 502.8 370.3 502.6 M 365.7 505.2 C 366.0 506.2 364.7 505.1 365.7 505.2 M 372.9 502.5 C 373.7 504.4 371.1 503.8 372.9 502.5 M 369.5 502.3 C 369.6 502.3 369.6 502.3 369.5 502.3 C 369.5 502.3 369.5 502.3 369.5 502.3 Z M 373.3 506.6 C 373.2 506.7 373.2 506.7 373.3 506.6 C 373.3 506.6 373.3 506.6 373.3 506.6 Z M 373.7 506.7 C 373.7 506.7 373.7 506.7 373.7 506.7 C 373.7 506.7 373.7 506.7 373.7 506.7 Z M 374.3 502.6 C 374.3 502.6 374.3 502.6 374.3 502.6 C 374.3 502.6 374.3 502.6 374.3 502.6 Z M 359.2 504.5 C 360.2 504.8 358.2 504.6 359.2 504.5 C 359.2 504.5 359.2 504.5 359.2 504.5 Z M 365.1 500.5 C 366.6 502.3 363.6 501.5 365.1 500.5 C 365.1 500.5 365.1 500.5 365.1 500.5 Z M 366.7 503.2 C 366.7 503.3 366.7 503.3 366.7 503.2 C 366.7 503.2 366.7 503.2 366.7 503.2 Z M 372.5 501.3 C 372.4 501.4 372.4 501.4 372.5 501.3 C 372.5 501.3 372.5 501.3 372.5 501.3 Z M 359.7 504.8 C 359.6 504.9 359.6 504.9 359.7 504.8 C 359.7 504.8 359.7 504.8 359.7 504.8 Z M 377.3 504.2 C 377.3 504.2 377.3 504.2 377.3 504.2 C 377.3 504.2 377.3 504.2 377.3 504.2 Z M 370.2 506.3 C 370.7 505.7 370.2 506.8 370.2 506.3 C 370.2 506.3 370.2 506.3 370.2 506.3 Z M 371.9 506.6 C 371.9 506.6 371.9 506.6 371.9 506.6 C 371.9 506.6 371.9 506.6 371.9 506.6 Z M 380.2 503.2 C 380.2 503.2 380.2 503.2 380.2 503.2 C 380.2 503.2 380.2 503.2 380.2 503.2 Z M 375.7 509.1 C 375.8 509.1 375.8 509.1 375.7 509.1 C 375.7 509.1 375.7 509.1 375.7 509.1 Z M 377.5 507.4 C 377.5 507.4 377.5 507.4 377.5 507.4 C 377.5 507.4 377.5 507.4 377.5 507.4 Z M 374.0 502.9 C 375.7 503.0 373.4 503.6 374.0 502.9 C 374.0 502.9 374.0 502.9 374.0 502.9 Z M 381.7 507.7 C 381.7 507.9 381.7 507.9 381.7 507.7 C 381.7 507.7 381.7 507.7 381.7 507.7 Z M 383.0 505.6 C 383.0 505.7 383.0 505.7 383.0 505.6 C 383.0 505.6 383.0 505.6 383.0 505.6 Z M 383.7 504.5 C 383.7 504.6 383.7 504.6 383.7 504.5 C 383.7 504.5 383.7 504.5 383.7 504.5 Z M 362.9 503.6 C 362.9 503.5 362.9 503.5 362.9 503.6 C 362.9 503.6 362.9 503.6 362.9 503.6 Z M 363.1 499.7 C 363.1 499.6 363.1 499.6 363.1 499.7 C 363.1 499.7 363.1 499.7 363.1 499.7 Z M 365.4 500.0 C 365.3 499.9 365.3 499.9 365.4 500.0 C 365.4 500.0 365.4 500.0 365.4 500.0 Z M 362.1 505.8 C 362.0 505.7 362.0 505.7 362.1 505.8 C 362.1 505.8 362.1 505.8 362.1 505.8 Z M 371.1 504.3 C 371.1 504.3 371.1 504.3 371.1 504.3 C 371.1 504.3 371.1 504.3 371.1 504.3 Z M 371.6 506.0 C 371.5 505.9 371.5 505.9 371.6 506.0 C 371.6 506.0 371.6 506.0 371.6 506.0 Z M 369.2 507.6 C 369.2 507.6 369.2 507.6 369.2 507.6 C 369.2 507.6 369.2 507.6 369.2 507.6 Z M 371.9 507.5 C 371.9 507.4 371.9 507.4 371.9 507.5 C 371.9 507.5 371.9 507.5 371.9 507.5 Z M 356.6 503.9 C 356.6 503.9 356.6 503.9 356.6 503.9 C 356.6 503.9 356.6 503.9 356.6 503.9 Z M 357.0 501.0 C 357.0 501.0 357.0 501.0 357.0 501.0 C 357.0 501.0 357.0 501.0 357.0 501.0 Z M 371.8 502.3 C 372.3 501.8 372.4 503.3 371.8 502.3 M 368.5 502.0 C 368.5 502.0 368.5 502.0 368.5 502.0 C 368.5 502.0 368.5 502.0 368.5 502.0 Z M 377.1 503.5 C 377.3 504.8 375.7 502.6 377.1 503.5 C 377.1 503.5 377.1 503.5 377.1 503.5 Z M 374.4 508.0 C 374.4 508.0 374.4 508.0 374.4 508.0 C 374.4 508.0 374.4 508.0 374.4 508.0 Z M 375.4 507.7 C 375.4 507.8 375.4 507.8 375.4 507.7 C 375.4 507.7 375.4 507.7 375.4 507.7 Z M 380.6 505.6 C 380.7 505.7 380.7 505.7 380.6 505.6 M 368.3 500.9 C 368.7 501.5 368.6 501.4 368.3 500.9 M 378.2 503.8 C 378.1 503.8 378.1 503.8 378.2 503.8 C 378.2 503.8 378.2 503.8 378.2 503.8 Z M 381.8 505.1 C 381.7 505.2 381.7 505.2 381.8 505.1 C 381.8 505.1 381.8 505.1 381.8 505.1 Z M 365.9 501.2 C 365.7 502.6 365.3 502.2 365.9 501.2 M 359.5 500.3 C 359.5 500.4 359.5 500.4 359.5 500.3 C 359.5 500.3 359.5 500.3 359.5 500.3 Z M 359.5 500.3 " fill="#FEFFFE"></path><path d="M 390.4 524.3 C 390.1 524.9 388.3 525.1 389.7 524.2 C 389.8 524.2 390.5 524.1 390.4 524.3 Z M 393.4 523.3 C 393.2 523.4 393.0 523.4 392.8 523.3 C 392.3 522.9 394.2 523.1 393.4 523.3 Z M 388.8 524.2 C 388.7 524.3 387.7 524.7 387.9 524.4 C 388.0 524.2 388.8 524.2 388.8 524.2 Z M 395.8 521.2 C 395.8 521.5 394.8 521.8 394.6 521.7 C 394.0 521.6 395.7 520.7 395.8 521.2 Z M 389.4 515.1 C 389.4 515.0 389.4 514.9 389.4 514.9 C 389.4 514.9 389.4 515.0 389.4 515.1 Z M 410.1 517.0 C 409.9 517.1 409.5 517.0 409.5 516.8 C 409.5 516.5 410.7 516.7 410.1 517.0 Z M 392.6 497.2 C 392.6 497.2 392.3 497.6 392.2 497.4 C 392.1 497.2 392.4 497.1 392.6 497.2 Z M 392.3 497.2 C 392.0 497.2 392.0 496.8 392.2 496.9 C 392.4 497.0 392.5 497.1 392.3 497.2 Z M 405.9 504.0 C 406.0 504.0 406.1 504.1 405.9 504.1 C 405.8 504.1 405.7 503.8 405.9 504.0 Z M 405.3 503.9 C 405.0 504.0 405.0 503.5 405.2 503.6 C 405.5 503.8 405.6 503.9 405.3 503.9 Z M 403.9 500.7 C 404.0 500.8 404.1 500.8 404.0 500.8 C 403.8 500.8 403.7 500.6 403.9 500.7 Z M 390.3 504.4 C 390.2 504.2 390.5 503.7 390.7 503.8 C 391.0 503.9 390.4 504.6 390.3 504.4 Z M 390.3 503.6 C 390.1 503.6 390.1 503.2 390.3 503.4 C 390.4 503.5 390.5 503.6 390.3 503.6 Z M 390.3 506.0 C 390.5 506.0 390.4 506.7 390.3 506.8 C 390.2 506.9 390.1 507.2 389.9 507.3 C 389.9 507.4 389.9 505.9 390.3 506.0 Z M 389.5 510.8 C 389.4 510.8 389.4 510.7 389.5 510.5 C 389.7 510.3 389.7 510.8 389.5 510.8 Z M 389.9 508.1 C 389.8 508.0 389.8 508.0 389.9 507.8 C 390.1 507.6 390.1 508.1 389.9 508.1 Z M 401.7 519.9 C 401.8 520.0 401.0 520.2 400.9 520.1 C 400.9 520.1 401.2 520.0 401.0 520.0 C 400.7 520.0 401.0 519.3 401.7 519.9 Z M 395.1 522.7 C 394.9 522.7 394.8 522.6 394.9 522.4 C 394.9 522.4 395.5 522.4 395.1 522.7 Z M 400.4 519.3 C 400.4 519.4 400.2 519.5 400.2 519.4 C 400.1 519.3 400.3 519.3 400.4 519.3 Z M 400.8 519.0 C 400.7 519.1 400.2 519.0 400.2 518.8 C 400.3 518.4 401.4 518.7 400.8 519.0 Z M 402.7 519.9 C 402.5 519.9 402.5 519.9 402.6 519.8 C 402.7 519.7 402.7 519.9 402.7 519.9 Z M 398.9 521.6 C 398.7 521.6 398.7 521.6 398.8 521.5 C 398.9 521.4 398.9 521.6 398.9 521.6 Z M 404.4 518.8 C 404.4 518.8 404.0 519.2 403.7 518.8 C 403.3 518.3 404.3 518.8 404.4 518.8 Z M 406.9 517.3 C 406.7 517.3 406.7 517.1 406.9 517.1 C 407.1 517.1 407.1 517.2 406.9 517.3 Z M 407.6 516.0 C 407.9 516.0 408.2 516.2 407.7 516.3 C 407.3 516.4 407.2 516.0 407.6 516.0 Z M 407.1 516.4 C 407.1 516.3 407.3 516.3 407.3 516.3 C 407.4 516.4 407.2 516.5 407.1 516.4 Z M 405.1 517.8 C 404.9 518.1 404.5 517.9 404.8 517.7 C 405.2 517.5 405.2 517.6 405.1 517.8 Z M 387.6 517.3 C 387.6 517.5 387.4 517.4 387.3 517.2 C 387.2 517.1 387.6 517.1 387.6 517.3 Z M 390.9 507.3 C 390.7 507.4 390.7 507.2 390.8 507.0 C 390.9 506.8 391.0 507.2 390.9 507.3 Z M 392.8 500.9 C 392.6 501.0 392.6 500.9 392.7 500.6 C 392.8 500.4 392.9 500.8 392.8 500.9 Z M 390.3 509.9 C 390.2 509.9 389.8 509.1 390.4 508.9 C 390.9 508.6 390.7 509.7 390.3 509.9 Z M 394.1 517.4 C 394.2 517.5 394.0 517.4 394.0 517.4 C 394.1 517.2 394.1 517.2 394.1 517.4 Z M 391.4 508.6 C 391.4 508.7 391.1 508.7 391.1 508.5 C 391.0 508.4 391.3 508.4 391.4 508.6 Z M 392.1 502.0 C 391.9 502.2 391.5 502.0 391.5 501.8 C 391.1 501.2 391.7 500.9 392.1 500.5 C 392.4 500.3 392.2 501.8 392.1 502.0 Z M 388.3 519.1 C 388.4 518.9 388.4 518.8 388.5 518.7 C 388.4 518.6 388.4 518.5 388.5 518.4 C 388.6 517.7 388.1 517.2 388.0 516.8 C 387.9 515.7 389.2 515.7 389.4 515.1 C 389.3 515.2 389.3 515.4 389.4 515.5 C 389.7 515.8 390.0 513.5 390.0 513.4 C 390.1 511.4 389.3 513.6 388.7 513.5 C 388.4 513.4 389.4 512.3 389.5 512.2 C 389.9 511.6 389.2 511.4 389.6 510.9 C 389.8 510.7 391.4 510.3 391.3 510.0 C 391.1 509.8 391.4 509.2 391.5 509.0 C 391.6 508.7 391.6 508.0 391.0 508.3 C 390.6 508.4 390.2 508.4 390.7 508.0 C 391.0 507.7 392.4 505.7 391.3 505.5 C 391.2 505.5 390.7 505.9 390.7 506.0 C 390.6 505.3 391.4 503.4 391.1 502.9 C 390.3 501.6 391.6 503.3 392.0 502.9 C 392.6 502.1 393.1 501.7 393.1 500.5 C 393.1 500.3 393.3 499.2 392.6 499.6 C 392.2 499.9 392.0 499.5 391.7 500.1 C 391.3 499.3 392.4 499.1 392.3 498.9 C 392.0 498.6 391.7 499.0 391.9 498.5 C 392.1 497.8 391.9 498.1 392.5 498.1 C 392.6 498.1 392.9 497.5 392.9 497.5 C 392.9 497.5 393.0 497.6 393.0 497.6 C 393.1 497.0 392.2 496.0 392.5 495.9 C 392.7 495.8 393.4 496.2 393.6 496.3 C 393.6 496.2 393.6 496.2 393.7 496.2 C 393.6 495.9 393.3 495.3 393.4 495.2 C 393.5 495.2 394.4 495.8 394.2 495.5 C 394.0 495.2 394.6 494.1 394.9 494.1 C 395.2 494.1 396.5 494.1 396.7 493.9 C 396.8 493.7 397.3 494.2 397.5 494.3 C 397.7 494.4 397.7 495.0 397.7 495.1 C 397.8 495.3 398.2 495.6 398.2 495.6 C 398.2 495.6 398.5 495.6 398.8 495.9 C 399.2 496.2 399.2 496.6 399.5 497.1 C 399.8 497.6 400.3 497.5 400.7 497.8 C 401.1 498.1 400.9 499.1 401.1 499.5 C 401.4 499.9 401.9 499.4 402.3 499.7 C 402.8 500.1 402.9 500.4 402.7 500.4 C 402.5 500.3 402.5 500.6 402.6 500.7 C 402.7 500.8 403.1 501.4 403.3 501.5 C 403.6 501.5 402.7 500.0 404.3 501.5 C 405.0 502.2 405.1 503.3 404.9 503.1 C 404.3 502.6 404.8 504.5 405.0 504.3 C 405.3 504.0 406.5 505.3 406.6 504.6 C 406.6 504.4 408.1 505.4 408.2 505.7 C 408.3 506.0 409.1 506.4 408.9 507.0 C 408.8 507.3 410.0 507.4 410.2 507.6 C 410.4 507.8 411.4 508.8 411.5 509.1 C 411.6 509.4 411.1 509.0 410.9 508.8 C 410.6 508.5 410.5 508.0 410.3 507.9 C 410.0 507.7 410.3 508.3 410.5 508.6 C 410.7 508.9 410.6 509.2 410.8 509.4 C 410.9 509.5 411.1 509.7 411.3 509.9 C 411.4 510.0 411.5 510.0 411.5 509.9 C 411.7 509.8 411.6 509.6 411.7 509.5 C 411.8 509.5 412.1 509.6 412.4 509.9 C 412.7 510.2 413.0 510.5 413.3 511.0 C 413.6 511.5 413.8 511.5 414.2 511.7 C 414.5 512.0 414.7 512.3 414.6 512.4 C 414.6 512.5 414.1 512.2 414.0 512.3 C 413.9 512.3 414.1 512.9 414.2 513.1 C 415.0 513.9 413.7 514.0 414.4 514.9 C 414.8 515.3 414.1 515.1 413.6 515.1 C 413.6 515.3 413.6 515.3 413.2 515.6 C 413.2 515.7 412.5 515.8 412.2 516.0 C 412.0 516.1 410.8 516.7 411.5 516.1 C 411.5 516.1 411.6 516.0 411.6 516.0 C 411.6 516.0 411.6 516.0 411.6 516.0 C 411.6 516.0 411.8 515.3 411.8 515.3 C 411.8 515.3 411.6 516.0 411.6 516.0 C 411.3 515.8 411.1 515.7 411.0 515.6 C 410.9 515.6 410.9 515.7 410.9 515.8 C 410.8 515.8 410.8 515.8 410.8 515.9 C 410.8 515.9 410.8 515.9 410.8 515.9 C 410.9 516.1 410.9 516.1 410.7 516.1 C 410.2 516.5 409.1 516.5 408.6 516.5 C 409.4 515.0 407.4 515.7 406.7 516.1 C 406.1 516.5 406.6 517.8 406.9 517.7 C 406.4 517.9 406.3 517.7 406.0 517.4 C 406.0 517.4 405.2 516.8 405.2 516.8 C 403.9 516.7 404.6 517.7 404.3 518.0 C 404.1 518.2 403.7 518.4 403.4 518.6 C 403.1 518.8 403.5 518.9 403.4 519.1 C 403.2 519.8 402.0 519.0 401.6 519.1 C 401.9 518.9 402.2 518.7 402.4 518.4 C 402.1 518.8 401.6 518.2 401.5 518.2 C 401.1 518.2 400.6 518.5 400.3 518.6 C 399.6 518.9 399.0 519.2 398.4 519.5 C 398.6 519.6 399.9 520.0 399.9 520.0 C 399.7 520.1 399.0 520.1 399.4 520.5 C 400.1 521.2 398.3 521.3 398.1 521.4 C 397.2 521.6 396.6 522.7 395.4 522.1 C 395.4 522.1 396.6 521.4 396.5 521.3 C 396.0 520.7 395.5 520.4 394.7 520.9 C 394.5 521.0 393.5 522.0 393.5 522.0 C 393.5 521.9 395.3 523.2 394.1 523.0 C 393.8 523.0 394.2 522.5 393.8 522.5 C 393.4 522.5 392.9 522.8 392.5 522.9 C 392.4 522.9 391.7 522.9 391.6 523.0 C 391.5 523.2 391.6 523.6 391.4 523.8 C 391.2 524.0 390.8 523.9 390.8 523.6 C 390.8 523.6 390.8 523.6 390.7 523.5 C 390.7 523.6 390.6 523.5 390.5 523.3 C 390.5 523.4 390.3 523.5 390.1 523.4 C 390.0 523.3 390.3 523.2 390.5 523.2 C 390.5 523.1 390.5 523.0 390.5 522.9 C 390.1 523.1 389.8 523.3 389.8 523.3 C 389.3 523.9 389.4 524.1 388.3 523.7 C 387.5 523.4 387.4 521.2 387.9 520.0 C 387.9 519.7 388.0 519.4 388.3 519.1 Z M 411.5 510.7 C 411.5 510.7 411.5 510.6 411.4 510.6 C 411.4 510.7 411.2 510.8 411.2 510.9 C 411.4 511.2 411.3 510.7 411.5 510.9 C 411.7 511.2 411.8 511.1 411.5 510.7 Z M 410.7 513.6 C 410.9 513.7 410.9 513.6 410.8 513.4 C 410.7 513.4 410.7 513.5 410.7 513.6 Z M 411.0 514.9 C 411.4 514.7 410.6 514.4 410.0 514.7 C 410.5 514.9 410.8 515.0 411.0 514.9 Z M 410.2 515.8 C 410.2 515.7 410.2 515.7 410.2 515.6 C 410.2 515.4 409.9 515.7 409.9 515.6 C 409.9 515.4 410.2 515.1 409.9 515.1 C 409.8 515.1 409.7 515.1 409.6 515.0 C 409.6 515.1 409.6 515.1 409.6 515.2 C 409.4 515.5 409.9 515.9 410.2 515.8 Z M 409.4 510.1 C 409.6 510.1 409.5 510.0 409.4 509.9 C 409.2 509.8 409.2 510.0 409.4 510.1 Z M 408.4 507.5 C 408.4 507.7 408.6 507.8 408.6 507.5 C 408.6 507.3 408.3 507.2 408.4 507.5 Z M 404.5 510.2 C 404.6 510.1 404.5 510.1 404.4 510.0 C 404.2 509.9 404.3 510.2 404.5 510.2 Z M 403.8 512.5 C 403.7 512.7 403.9 512.9 404.0 512.8 C 404.0 512.6 403.9 512.4 403.8 512.5 Z M 405.3 507.1 C 405.1 507.0 405.1 507.2 405.3 507.3 C 405.4 507.3 405.5 507.2 405.3 507.1 Z M 405.1 510.5 C 405.0 510.2 404.9 510.2 404.8 510.3 C 404.7 510.3 404.7 510.5 404.9 510.7 C 405.1 510.8 405.2 510.8 405.1 510.5 Z M 404.9 512.5 C 404.2 512.7 404.3 513.0 405.0 512.6 C 405.7 512.3 405.2 512.4 404.9 512.5 Z M 407.5 505.6 C 407.5 505.7 407.9 505.8 407.9 505.8 C 407.9 505.8 407.3 505.1 407.5 505.6 Z M 403.5 517.9 C 403.7 517.9 403.8 517.6 403.5 517.7 C 403.1 517.7 403.3 518.0 403.5 517.9 Z M 402.5 516.7 C 402.9 517.1 403.4 517.1 403.4 517.1 C 403.3 517.1 403.3 516.6 403.5 516.5 C 403.8 516.2 404.5 516.5 404.8 516.1 C 405.2 515.6 404.2 515.8 404.0 515.9 C 404.1 515.9 404.2 515.7 404.2 515.6 C 404.0 515.5 403.9 515.5 403.8 515.6 C 403.6 515.8 402.1 516.2 402.5 516.7 Z M 403.8 511.0 C 404.0 511.1 404.3 511.0 404.1 510.7 C 404.0 510.4 403.8 510.2 403.7 510.3 C 403.6 510.3 403.6 510.8 403.8 511.0 Z M 403.9 509.1 C 404.2 509.1 404.1 509.0 403.9 508.9 C 403.6 508.7 403.7 509.2 403.9 509.1 Z M 402.2 500.8 C 402.0 500.8 402.3 501.1 402.4 501.0 C 402.5 500.9 402.4 500.8 402.2 500.8 Z M 401.7 503.8 C 401.2 503.6 401.5 504.1 401.6 504.2 C 401.8 504.2 402.0 504.0 401.7 503.8 Z M 403.1 506.0 C 402.9 505.9 403.0 506.2 403.2 506.2 C 403.3 506.2 403.2 506.1 403.1 506.0 Z M 403.0 507.2 C 402.9 507.1 402.8 507.4 403.1 507.4 C 403.3 507.5 403.2 507.3 403.0 507.2 Z M 400.1 516.7 C 400.1 516.7 400.1 516.2 399.8 516.6 C 399.5 516.9 399.5 516.9 400.1 516.7 Z M 401.7 513.4 C 402.0 513.3 402.3 513.0 402.2 512.0 C 402.1 511.0 401.8 511.3 401.5 511.9 C 401.3 512.4 401.2 510.7 400.7 511.8 C 400.5 512.3 401.3 513.6 401.7 513.4 Z M 401.3 506.9 C 401.5 507.6 402.4 507.6 402.0 507.1 C 401.5 506.6 401.1 506.3 401.3 506.9 Z M 401.3 506.5 C 401.4 506.5 401.4 506.4 401.2 506.3 C 401.1 506.2 401.1 506.4 401.3 506.5 Z M 398.8 520.8 C 399.9 520.2 398.3 519.9 398.3 519.9 C 397.0 520.0 397.7 521.5 398.8 520.8 Z M 393.4 498.2 C 393.4 498.2 393.4 498.3 393.4 498.3 C 393.4 498.3 393.4 498.4 393.4 498.4 C 393.5 498.6 393.8 498.2 393.8 498.2 C 393.7 498.1 393.5 498.1 393.4 498.2 Z M 391.8 504.3 C 391.9 504.1 391.9 503.9 391.8 503.7 C 391.2 503.7 390.8 505.5 391.9 505.0 C 392.1 504.9 393.2 503.9 392.7 503.7 C 392.5 503.6 391.7 504.9 391.8 504.3 Z M 393.0 502.6 C 392.8 503.3 393.9 502.1 393.5 502.2 C 393.2 502.2 393.1 502.3 393.0 502.6 Z M 395.9 497.4 C 395.7 496.4 394.2 496.2 394.6 497.9 C 395.1 499.6 395.7 499.9 395.6 499.0 C 395.6 498.2 396.2 499.0 395.9 497.4 Z M 394.2 505.5 C 393.2 505.1 393.4 505.6 394.1 506.0 C 394.3 506.2 394.8 505.7 394.2 505.5 Z M 393.9 507.8 C 393.7 508.0 393.7 508.0 393.9 507.9 C 394.2 507.7 394.0 507.5 393.9 507.8 Z M 397.7 496.1 C 397.6 495.7 397.3 495.4 397.5 495.4 C 397.8 495.5 397.7 495.4 397.5 495.1 C 397.4 494.8 397.2 495.3 397.2 495.5 C 397.2 495.8 397.8 496.5 397.7 496.1 Z M 399.5 505.5 C 399.3 505.4 399.3 505.7 399.5 505.7 C 399.6 505.7 399.6 505.7 399.5 505.5 Z M 398.8 514.3 C 398.8 514.3 398.8 514.0 398.6 514.2 C 398.4 514.4 398.4 514.4 398.8 514.3 Z M 397.0 521.0 C 397.2 520.9 396.7 520.7 396.9 520.4 C 396.9 520.3 397.1 520.5 397.1 520.6 C 397.1 520.5 397.1 519.6 396.7 520.1 C 396.5 520.3 396.4 521.4 397.0 521.0 Z M 398.7 507.8 C 398.9 508.3 399.5 506.9 399.7 507.2 C 400.0 507.5 400.0 507.3 399.8 506.9 C 399.5 506.6 398.4 507.4 398.7 507.8 Z M 399.2 504.1 C 399.2 504.4 399.8 505.1 399.7 504.7 C 399.6 504.3 399.3 504.0 399.5 504.0 C 399.8 504.1 399.7 504.0 399.5 503.7 C 399.4 503.4 399.2 503.9 399.2 504.1 Z M 400.3 498.0 C 400.3 498.2 400.7 498.5 400.6 498.2 C 400.5 498.0 400.2 497.9 400.3 498.0 Z M 396.3 514.8 C 396.5 514.6 396.4 514.4 396.1 514.6 C 395.8 514.8 396.1 515.0 396.3 514.8 Z M 399.1 498.4 C 399.4 498.8 399.3 498.2 399.5 498.5 C 399.7 498.7 399.8 498.6 399.5 498.2 C 399.3 497.9 398.9 497.9 399.1 498.4 Z M 394.2 520.1 C 394.3 520.0 394.2 519.7 394.1 519.8 C 393.9 520.0 394.1 520.2 394.2 520.1 Z M 393.8 517.6 C 393.9 517.6 394.0 517.6 394.1 517.6 C 395.8 516.9 393.0 517.1 393.8 517.6 Z M 394.8 514.2 C 394.8 514.7 395.1 514.2 395.1 514.2 C 395.0 514.0 394.9 514.1 394.8 514.2 Z M 395.6 510.4 C 395.4 510.2 395.3 510.6 395.6 510.6 C 395.8 510.6 395.7 510.5 395.6 510.4 Z M 392.3 522.6 C 392.5 522.6 392.5 522.4 392.3 522.4 C 392.1 522.4 392.0 522.6 392.3 522.6 Z M 394.1 513.0 C 394.2 513.1 394.3 513.1 394.2 512.9 C 394.2 512.7 394.1 512.9 394.1 513.0 Z M 396.5 501.4 C 396.6 501.5 396.7 501.6 396.8 501.7 C 397.0 501.7 397.2 501.0 397.5 501.0 C 397.5 501.0 397.5 501.0 397.5 501.0 C 397.5 501.0 397.5 501.0 397.6 501.0 C 397.7 501.1 397.8 501.2 397.6 501.2 C 397.7 501.3 397.7 501.5 397.7 501.6 C 398.0 501.4 398.2 501.2 398.0 501.0 C 397.9 500.7 397.4 500.5 396.9 500.5 C 396.8 500.6 396.7 500.8 396.7 500.9 C 396.7 500.9 396.7 500.9 396.7 500.9 C 397.0 501.1 397.0 501.3 396.8 501.3 C 396.7 501.3 396.6 501.2 396.6 501.1 C 396.5 501.2 396.5 501.3 396.5 501.4 Z M 393.9 511.4 C 394.0 511.8 394.1 511.6 394.3 511.2 C 394.4 511.0 393.8 511.1 393.9 511.4 Z M 392.0 522.0 C 392.0 521.9 391.9 521.8 391.9 521.7 C 391.9 521.8 391.8 521.8 391.8 521.9 C 391.7 522.1 391.6 522.3 391.5 522.5 C 391.8 522.5 392.0 522.5 392.0 522.0 Z M 391.6 518.5 C 391.6 518.6 391.3 520.0 391.6 519.8 C 392.2 519.5 392.6 520.2 392.6 519.2 C 392.6 518.7 391.9 518.1 391.9 517.6 C 391.9 515.0 391.1 518.1 390.8 518.7 C 390.8 518.9 391.5 518.3 391.6 518.5 Z M 391.5 515.1 C 391.3 515.0 391.0 515.3 391.0 515.4 C 390.9 516.0 391.8 515.3 391.5 515.1 Z M 389.7 521.9 C 389.7 521.9 389.8 521.9 389.9 521.9 C 389.8 521.9 389.8 521.8 389.7 521.8 C 389.7 521.8 389.7 521.9 389.7 521.9 Z M 389.1 523.6 C 389.9 523.1 388.6 522.9 388.3 522.9 C 387.7 523.1 388.6 523.8 389.1 523.6 Z M 390.0 516.7 C 390.1 516.2 388.8 515.3 388.7 516.2 C 388.6 517.1 389.7 517.8 390.0 516.7 Z M 389.2 511.2 C 389.4 511.4 389.0 511.9 388.9 511.6 C 388.8 511.4 389.2 511.1 389.2 511.2 Z M 386.8 518.7 C 387.0 518.5 387.0 518.7 387.0 518.7 C 386.7 518.8 386.7 518.8 386.8 518.7 Z M 388.0 518.2 C 387.9 518.4 387.8 518.7 387.6 518.8 C 387.6 519.0 387.5 518.5 387.5 518.4 C 387.6 518.2 388.0 518.2 388.0 518.2 Z M 389.0 514.1 C 388.8 514.3 388.9 513.9 388.9 513.8 C 389.0 513.7 389.2 514.0 389.0 514.1 Z M 388.5 515.0 C 388.6 514.9 388.7 515.0 388.6 515.2 C 388.6 515.4 388.4 515.2 388.5 515.0 Z M 389.7 513.5 C 389.7 513.9 389.7 514.6 389.3 514.4 C 389.1 514.4 389.6 512.6 389.7 513.5 Z M 389.7 513.5 " fill="#FEFFFE"></path><image xlink:href="1F17AAFA63EA0C1CE33E9BD2290E422C.png" width="352.00" height="433.00" transform="matrix(1.07, 0.00, -0.00, -1.07, 423.0, 542.0)"></image></g></svg>