<?xml version="1.0" encoding="UTF-8" standalone="no"?><svg xmlns="http://www.w3.org/2000/svg" xmlns:xlink="http://www.w3.org/1999/xlink" clip-rule="evenodd" stroke-miterlimit="10" viewBox="0 0 1024 768"><desc>SVG generated by Keynote</desc><defs></defs><g transform="matrix(1.00, 0.00, -0.00, -1.00, 0.0, 768.0)"><g><clipPath id="clip0x7ff6abc501c0"><path d="M 0.0 768.0 L 1024.0 768.0 L 1024.0 0.0 L 0.0 0.0 Z M 0.0 768.0 "></path></clipPath><g clip-path="url(#clip0x7ff6abc501c0)"><image xlink:href="../../2454F38C-308E-4D93-86A7-ACF877EF01F7/assets/D54D7AAA5FD1EC733BC359F041C689F1.jpeg" width="2048.00" height="1536.00" transform="matrix(0.50, 0.00, -0.00, -0.50, 0.0, 768.0)"></image></g></g><text xml:space="preserve" font-family="Chalkduster,Chalkduster" font-size="20.0" fill="#FEFFFE" transform="matrix(1.00, 0.00, -0.00, -1.00, 359.0, 21.6)">b</text><text xml:space="preserve" font-family="Chalkduster,Chalkduster" font-size="20.0" fill="#FEFFFE" transform="matrix(1.00, 0.00, -0.00, -1.00, 370.0, 21.6)">y</text><text xml:space="preserve" font-family="Chalkduster,Chalkduster" font-size="20.0" fill="#FEFFFE" transform="matrix(1.00, 0.00, -0.00, -1.00, 382.2, 21.6)"> </text><text xml:space="preserve" font-family="Chalkduster,Chalkduster" font-size="20.0" fill="#FEFFFE" transform="matrix(1.00, 0.00, -0.00, -1.00, 392.1, 21.6)">C</text><text xml:space="preserve" font-family="Chalkduster,Chalkduster" font-size="20.0" fill="#FEFFFE" transform="matrix(1.00, 0.00, -0.00, -1.00, 408.4, 21.6)">a</text><text xml:space="preserve" font-family="Chalkduster,Chalkduster" font-size="20.0" fill="#FEFFFE" transform="matrix(1.00, 0.00, -0.00, -1.00, 421.1, 21.6)">r</text><text xml:space="preserve" font-family="Chalkduster,Chalkduster" font-size="20.0" fill="#FEFFFE" transform="matrix(1.00, 0.00, -0.00, -1.00, 432.1, 21.6)">l</text><text xml:space="preserve" font-family="Chalkduster,Chalkduster" font-size="20.0" fill="#FEFFFE" transform="matrix(1.00, 0.00, -0.00, -1.00, 440.7, 21.6)">o</text><text xml:space="preserve" font-family="Chalkduster,Chalkduster" font-size="20.0" fill="#FEFFFE" transform="matrix(1.00, 0.00, -0.00, -1.00, 455.1, 21.6)"> </text><text xml:space="preserve" font-family="Chalkduster,Chalkduster" font-size="20.0" fill="#FEFFFE" transform="matrix(1.00, 0.00, -0.00, -1.00, 463.7, 21.6)">A</text><text xml:space="preserve" font-family="Chalkduster,Chalkduster" font-size="20.0" fill="#FEFFFE" transform="matrix(1.00, 0.00, -0.00, -1.00, 478.5, 21.6)">l</text><text xml:space="preserve" font-family="Chalkduster,Chalkduster" font-size="20.0" fill="#FEFFFE" transform="matrix(1.00, 0.00, -0.00, -1.00, 487.9, 21.6)">b</text><text xml:space="preserve" font-family="Chalkduster,Chalkduster" font-size="20.0" fill="#FEFFFE" transform="matrix(1.00, 0.00, -0.00, -1.00, 499.5, 21.6)">e</text><text xml:space="preserve" font-family="Chalkduster,Chalkduster" font-size="20.0" fill="#FEFFFE" transform="matrix(1.00, 0.00, -0.00, -1.00, 511.7, 21.6)">r</text><text xml:space="preserve" font-family="Chalkduster,Chalkduster" font-size="20.0" fill="#FEFFFE" transform="matrix(1.00, 0.00, -0.00, -1.00, 522.2, 21.6)">t</text><text xml:space="preserve" font-family="Chalkduster,Chalkduster" font-size="20.0" fill="#FEFFFE" transform="matrix(1.00, 0.00, -0.00, -1.00, 530.5, 21.6)">o</text><text xml:space="preserve" font-family="Chalkduster,Chalkduster" font-size="20.0" fill="#FEFFFE" transform="matrix(1.00, 0.00, -0.00, -1.00, 544.9, 21.6)"> </text><text xml:space="preserve" font-family="Chalkduster,Chalkduster" font-size="20.0" fill="#FEFFFE" transform="matrix(1.00, 0.00, -0.00, -1.00, 554.8, 21.6)">D</text><text xml:space="preserve" font-family="Chalkduster,Chalkduster" font-size="20.0" fill="#FEFFFE" transform="matrix(1.00, 0.00, -0.00, -1.00, 568.6, 21.6)">e</text><text xml:space="preserve" font-family="Chalkduster,Chalkduster" font-size="20.0" fill="#FEFFFE" transform="matrix(1.00, 0.00, -0.00, -1.00, 580.4, 21.6)">g</text><text xml:space="preserve" font-family="Chalkduster,Chalkduster" font-size="20.0" fill="#FEFFFE" transform="matrix(1.00, 0.00, -0.00, -1.00, 594.9, 21.6)">l</text><text xml:space="preserve" font-family="Chalkduster,Chalkduster" font-size="20.0" fill="#FEFFFE" transform="matrix(1.00, 0.00, -0.00, -1.00, 604.5, 21.6)">i</text><text xml:space="preserve" font-family="Chalkduster,Chalkduster" font-size="20.0" fill="#FEFFFE" transform="matrix(1.00, 0.00, -0.00, -1.00, 612.4, 21.6)"> </text><text xml:space="preserve" font-family="Chalkduster,Chalkduster" font-size="20.0" fill="#FEFFFE" transform="matrix(1.00, 0.00, -0.00, -1.00, 620.9, 21.6)">A</text><text xml:space="preserve" font-family="Chalkduster,Chalkduster" font-size="20.0" fill="#FEFFFE" transform="matrix(1.00, 0.00, -0.00, -1.00, 635.5, 21.6)">t</text><text xml:space="preserve" font-family="Chalkduster,Chalkduster" font-size="20.0" fill="#FEFFFE" transform="matrix(1.00, 0.00, -0.00, -1.00, 643.8, 21.6)">t</text><text xml:space="preserve" font-family="Chalkduster,Chalkduster" font-size="20.0" fill="#FEFFFE" transform="matrix(1.00, 0.00, -0.00, -1.00, 653.1, 21.6)">i</text><text xml:space="preserve" font-family="Chalkduster,Chalkduster" font-size="20.0" fill="#FEFFFE" transform="matrix(1.00, 0.00, -0.00, -1.00, 661.0, 21.6)"> </text><text xml:space="preserve" font-family="Chalkduster,Chalkduster" font-size="20.0" fill="#FEFFFE" transform="matrix(1.00, 0.00, -0.00, -1.00, 670.9, 21.6)">(</text><text xml:space="preserve" font-family="Chalkduster,Chalkduster" font-size="20.0" fill="#FEFFFE" transform="matrix(1.00, 0.00, -0.00, -1.00, 679.6, 21.6)">@</text><text xml:space="preserve" font-family="Chalkduster,Chalkduster" font-size="20.0" fill="#FEFFFE" transform="matrix(1.00, 0.00, -0.00, -1.00, 696.4, 21.6)">l</text><text xml:space="preserve" font-family="Chalkduster,Chalkduster" font-size="20.0" fill="#FEFFFE" transform="matrix(1.00, 0.00, -0.00, -1.00, 705.0, 21.6)">o</text><text xml:space="preserve" font-family="Chalkduster,Chalkduster" font-size="20.0" fill="#FEFFFE" transform="matrix(1.00, 0.00, -0.00, -1.00, 719.5, 21.6)">r</text><text xml:space="preserve" font-family="Chalkduster,Chalkduster" font-size="20.0" fill="#FEFFFE" transform="matrix(1.00, 0.00, -0.00, -1.00, 730.2, 21.6)">d</text><text xml:space="preserve" font-family="Chalkduster,Chalkduster" font-size="20.0" fill="#FEFFFE" transform="matrix(1.00, 0.00, -0.00, -1.00, 745.8, 21.6)">K</text><text xml:space="preserve" font-family="Chalkduster,Chalkduster" font-size="20.0" fill="#FEFFFE" transform="matrix(1.00, 0.00, -0.00, -1.00, 759.0, 21.6)">a</text><text xml:space="preserve" font-family="Chalkduster,Chalkduster" font-size="20.0" fill="#FEFFFE" transform="matrix(1.00, 0.00, -0.00, -1.00, 772.1, 21.6)">d</text><text xml:space="preserve" font-family="Chalkduster,Chalkduster" font-size="20.0" fill="#FEFFFE" transform="matrix(1.00, 0.00, -0.00, -1.00, 787.7, 21.6)">a</text><text xml:space="preserve" font-family="Chalkduster,Chalkduster" font-size="20.0" fill="#FEFFFE" transform="matrix(1.00, 0.00, -0.00, -1.00, 801.5, 21.6)">)</text><text xml:space="preserve" font-family="Chalkduster,Chalkduster" font-size="20.0" fill="#FEFFFE" transform="matrix(1.00, 0.00, -0.00, -1.00, 811.6, 21.6)"> </text><image xlink:href="../../2454F38C-308E-4D93-86A7-ACF877EF01F7/assets/6AAA538A2569BEA3BCD2D4F395995DA8.png" width="88.00" height="31.00" transform="matrix(1.09, 0.00, -0.00, -1.10, 252.0, 47.0)"></image><text xml:space="preserve" font-family="Chalkduster,Chalkduster" font-size="50.1" fill="#FEFFFE" transform="matrix(1.00, 0.00, -0.00, -1.00, 42.8, 639.8)">U</text><text xml:space="preserve" font-family="Chalkduster,Chalkduster" font-size="50.1" fill="#FEFFFE" transform="matrix(1.00, 0.00, -0.00, -1.00, 78.5, 639.8)">f</text><text xml:space="preserve" font-family="Chalkduster,Chalkduster" font-size="50.1" fill="#FEFFFE" transform="matrix(1.00, 0.00, -0.00, -1.00, 103.6, 639.8)">f</text><text xml:space="preserve" font-family="Chalkduster,Chalkduster" font-size="50.1" fill="#FEFFFE" transform="matrix(1.00, 0.00, -0.00, -1.00, 128.7, 639.8)">f</text><text xml:space="preserve" font-family="Chalkduster,Chalkduster" font-size="50.1" fill="#FEFFFE" transform="matrix(1.00, 0.00, -0.00, -1.00, 155.4, 639.8)">…</text><text xml:space="preserve" font-family="Chalkduster,Chalkduster" font-size="50.1" fill="#FEFFFE" transform="matrix(1.00, 0.00, -0.00, -1.00, 205.1, 639.8)"> </text><text xml:space="preserve" font-family="Chalkduster,Chalkduster" font-size="50.1" fill="#FEFFFE" transform="matrix(1.00, 0.00, -0.00, -1.00, 230.0, 639.8)">n</text><text xml:space="preserve" font-family="Chalkduster,Chalkduster" font-size="50.1" fill="#FEFFFE" transform="matrix(1.00, 0.00, -0.00, -1.00, 265.7, 639.8)">o</text><text xml:space="preserve" font-family="Chalkduster,Chalkduster" font-size="50.1" fill="#FEFFFE" transform="matrix(1.00, 0.00, -0.00, -1.00, 302.9, 639.8)">n</text><text xml:space="preserve" font-family="Chalkduster,Chalkduster" font-size="50.1" fill="#FEFFFE" transform="matrix(1.00, 0.00, -0.00, -1.00, 339.6, 639.8)"> </text><text xml:space="preserve" font-family="Chalkduster,Chalkduster" font-size="50.1" fill="#FEFFFE" transform="matrix(1.00, 0.00, -0.00, -1.00, 364.5, 639.8)">v</text><text xml:space="preserve" font-family="Chalkduster,Chalkduster" font-size="50.1" fill="#FEFFFE" transform="matrix(1.00, 0.00, -0.00, -1.00, 395.7, 639.8)">o</text><text xml:space="preserve" font-family="Chalkduster,Chalkduster" font-size="50.1" fill="#FEFFFE" transform="matrix(1.00, 0.00, -0.00, -1.00, 432.4, 639.8)">g</text><text xml:space="preserve" font-family="Chalkduster,Chalkduster" font-size="50.1" fill="#FEFFFE" transform="matrix(1.00, 0.00, -0.00, -1.00, 468.6, 639.8)">l</text><text xml:space="preserve" font-family="Chalkduster,Chalkduster" font-size="50.1" fill="#FEFFFE" transform="matrix(1.00, 0.00, -0.00, -1.00, 492.7, 639.8)">i</text><text xml:space="preserve" font-family="Chalkduster,Chalkduster" font-size="50.1" fill="#FEFFFE" transform="matrix(1.00, 0.00, -0.00, -1.00, 512.4, 639.8)">o</text><text xml:space="preserve" font-family="Chalkduster,Chalkduster" font-size="50.1" fill="#FEFFFE" transform="matrix(1.00, 0.00, -0.00, -1.00, 548.4, 639.8)"> </text><text xml:space="preserve" font-family="Chalkduster,Chalkduster" font-size="50.1" fill="#FEFFFE" transform="matrix(1.00, 0.00, -0.00, -1.00, 573.3, 639.8)">s</text><text xml:space="preserve" font-family="Chalkduster,Chalkduster" font-size="50.1" fill="#FEFFFE" transform="matrix(1.00, 0.00, -0.00, -1.00, 598.6, 639.8)">e</text><text xml:space="preserve" font-family="Chalkduster,Chalkduster" font-size="50.1" fill="#FEFFFE" transform="matrix(1.00, 0.00, -0.00, -1.00, 630.1, 639.8)">n</text><text xml:space="preserve" font-family="Chalkduster,Chalkduster" font-size="50.1" fill="#FEFFFE" transform="matrix(1.00, 0.00, -0.00, -1.00, 665.0, 639.8)">t</text><text xml:space="preserve" font-family="Chalkduster,Chalkduster" font-size="50.1" fill="#FEFFFE" transform="matrix(1.00, 0.00, -0.00, -1.00, 688.1, 639.8)">i</text><text xml:space="preserve" font-family="Chalkduster,Chalkduster" font-size="50.1" fill="#FEFFFE" transform="matrix(1.00, 0.00, -0.00, -1.00, 707.9, 639.8)">r</text><text xml:space="preserve" font-family="Chalkduster,Chalkduster" font-size="50.1" fill="#FEFFFE" transform="matrix(1.00, 0.00, -0.00, -1.00, 734.2, 639.8)"> </text><text xml:space="preserve" font-family="Chalkduster,Chalkduster" font-size="50.1" fill="#FEFFFE" transform="matrix(1.00, 0.00, -0.00, -1.00, 759.1, 639.8)">p</text><text xml:space="preserve" font-family="Chalkduster,Chalkduster" font-size="50.1" fill="#FEFFFE" transform="matrix(1.00, 0.00, -0.00, -1.00, 790.0, 639.8)">a</text><text xml:space="preserve" font-family="Chalkduster,Chalkduster" font-size="50.1" fill="#FEFFFE" transform="matrix(1.00, 0.00, -0.00, -1.00, 821.9, 639.8)">r</text><text xml:space="preserve" font-family="Chalkduster,Chalkduster" font-size="50.1" fill="#FEFFFE" transform="matrix(1.00, 0.00, -0.00, -1.00, 849.5, 639.8)">l</text><text xml:space="preserve" font-family="Chalkduster,Chalkduster" font-size="50.1" fill="#FEFFFE" transform="matrix(1.00, 0.00, -0.00, -1.00, 871.9, 639.8)">a</text><text xml:space="preserve" font-family="Chalkduster,Chalkduster" font-size="50.1" fill="#FEFFFE" transform="matrix(1.00, 0.00, -0.00, -1.00, 903.8, 639.8)">r</text><text xml:space="preserve" font-family="Chalkduster,Chalkduster" font-size="50.1" fill="#FEFFFE" transform="matrix(1.00, 0.00, -0.00, -1.00, 929.1, 639.8)">e</text><text xml:space="preserve" font-family="Chalkduster,Chalkduster" font-size="50.1" fill="#FEFFFE" transform="matrix(1.00, 0.00, -0.00, -1.00, 960.2, 639.8)"> </text><text xml:space="preserve" font-family="Chalkduster,Chalkduster" font-size="50.1" fill="#FEFFFE" transform="matrix(1.00, 0.00, -0.00, -1.00, 106.4, 575.8)">d</text><text xml:space="preserve" font-family="Chalkduster,Chalkduster" font-size="50.1" fill="#FEFFFE" transform="matrix(1.00, 0.00, -0.00, -1.00, 147.6, 575.8)">i</text><text xml:space="preserve" font-family="Chalkduster,Chalkduster" font-size="50.1" fill="#FEFFFE" transform="matrix(1.00, 0.00, -0.00, -1.00, 167.3, 575.8)"> </text><text xml:space="preserve" font-family="Chalkduster,Chalkduster" font-size="50.1" fill="#FEFFFE" transform="matrix(1.00, 0.00, -0.00, -1.00, 183.8, 575.8)">“</text><text xml:space="preserve" font-family="Chalkduster,Chalkduster" font-size="50.1" fill="#FEFFFE" transform="matrix(1.00, 0.00, -0.00, -1.00, 208.2, 575.8)">m</text><text xml:space="preserve" font-family="Chalkduster,Chalkduster" font-size="50.1" fill="#FEFFFE" transform="matrix(1.00, 0.00, -0.00, -1.00, 260.0, 575.8)">e</text><text xml:space="preserve" font-family="Chalkduster,Chalkduster" font-size="50.1" fill="#FEFFFE" transform="matrix(1.00, 0.00, -0.00, -1.00, 290.6, 575.8)">t</text><text xml:space="preserve" font-family="Chalkduster,Chalkduster" font-size="50.1" fill="#FEFFFE" transform="matrix(1.00, 0.00, -0.00, -1.00, 311.2, 575.8)">o</text><text xml:space="preserve" font-family="Chalkduster,Chalkduster" font-size="50.1" fill="#FEFFFE" transform="matrix(1.00, 0.00, -0.00, -1.00, 349.7, 575.8)">d</text><text xml:space="preserve" font-family="Chalkduster,Chalkduster" font-size="50.1" fill="#FEFFFE" transform="matrix(1.00, 0.00, -0.00, -1.00, 388.8, 575.8)">o</text><text xml:space="preserve" font-family="Chalkduster,Chalkduster" font-size="50.1" fill="#FEFFFE" transform="matrix(1.00, 0.00, -0.00, -1.00, 426.8, 575.8)">l</text><text xml:space="preserve" font-family="Chalkduster,Chalkduster" font-size="50.1" fill="#FEFFFE" transform="matrix(1.00, 0.00, -0.00, -1.00, 448.4, 575.8)">o</text><text xml:space="preserve" font-family="Chalkduster,Chalkduster" font-size="50.1" fill="#FEFFFE" transform="matrix(1.00, 0.00, -0.00, -1.00, 485.1, 575.8)">g</text><text xml:space="preserve" font-family="Chalkduster,Chalkduster" font-size="50.1" fill="#FEFFFE" transform="matrix(1.00, 0.00, -0.00, -1.00, 521.0, 575.8)">i</text><text xml:space="preserve" font-family="Chalkduster,Chalkduster" font-size="50.1" fill="#FEFFFE" transform="matrix(1.00, 0.00, -0.00, -1.00, 540.8, 575.8)">e</text><text xml:space="preserve" font-family="Chalkduster,Chalkduster" font-size="50.1" fill="#FEFFFE" transform="matrix(1.00, 0.00, -0.00, -1.00, 568.8, 575.8)">”</text><text xml:space="preserve" font-family="Chalkduster,Chalkduster" font-size="50.1" fill="#FEFFFE" transform="matrix(1.00, 0.00, -0.00, -1.00, 594.0, 575.8)">…</text><text xml:space="preserve" font-family="Chalkduster,Chalkduster" font-size="50.1" fill="#FEFFFE" transform="matrix(1.00, 0.00, -0.00, -1.00, 643.7, 575.8)">.</text><text xml:space="preserve" font-family="Chalkduster,Chalkduster" font-size="50.1" fill="#FEFFFE" transform="matrix(1.00, 0.00, -0.00, -1.00, 658.0, 575.8)"> </text><text xml:space="preserve" font-family="Chalkduster,Chalkduster" font-size="50.1" fill="#FEFFFE" transform="matrix(1.00, 0.00, -0.00, -1.00, 682.9, 575.8)">n</text><text xml:space="preserve" font-family="Chalkduster,Chalkduster" font-size="50.1" fill="#FEFFFE" transform="matrix(1.00, 0.00, -0.00, -1.00, 719.6, 575.8)">a</text><text xml:space="preserve" font-family="Chalkduster,Chalkduster" font-size="50.1" fill="#FEFFFE" transform="matrix(1.00, 0.00, -0.00, -1.00, 754.1, 575.8)">h</text><text xml:space="preserve" font-family="Chalkduster,Chalkduster" font-size="50.1" fill="#FEFFFE" transform="matrix(1.00, 0.00, -0.00, -1.00, 785.0, 575.8)">h</text><text xml:space="preserve" font-family="Chalkduster,Chalkduster" font-size="50.1" fill="#FEFFFE" transform="matrix(1.00, 0.00, -0.00, -1.00, 815.9, 575.8)">h</text><text xml:space="preserve" font-family="Chalkduster,Chalkduster" font-size="50.1" fill="#FEFFFE" transform="matrix(1.00, 0.00, -0.00, -1.00, 846.8, 575.8)">…</text><image xlink:href="C5BABDCA2DE26683FF42B587DB0BAE1F.jpeg" width="430.00" height="286.00" transform="matrix(1.17, 0.00, -0.00, -1.17, 289.0, 467.0)"></image></g></svg>