<?xml version="1.0" encoding="UTF-8" standalone="no"?><svg xmlns="http://www.w3.org/2000/svg" xmlns:xlink="http://www.w3.org/1999/xlink" clip-rule="evenodd" stroke-miterlimit="10" viewBox="0 0 1024 768"><desc>SVG generated by Keynote</desc><defs></defs><g transform="matrix(1.00, 0.00, -0.00, -1.00, 0.0, 768.0)"><g><clipPath id="clip0x7ff6abc472b0"><path d="M 0.0 768.0 L 1024.0 768.0 L 1024.0 0.0 L 0.0 0.0 Z M 0.0 768.0 "></path></clipPath><g clip-path="url(#clip0x7ff6abc472b0)"><image xlink:href="../../2454F38C-308E-4D93-86A7-ACF877EF01F7/assets/D54D7AAA5FD1EC733BC359F041C689F1.jpeg" width="2048.00" height="1536.00" transform="matrix(0.50, 0.00, -0.00, -0.50, 0.0, 768.0)"></image></g></g><text xml:space="preserve" font-family="Chalkduster,Chalkduster" font-size="20.0" fill="#FEFFFE" transform="matrix(1.00, 0.00, -0.00, -1.00, 359.0, 21.6)">b</text><text xml:space="preserve" font-family="Chalkduster,Chalkduster" font-size="20.0" fill="#FEFFFE" transform="matrix(1.00, 0.00, -0.00, -1.00, 370.0, 21.6)">y</text><text xml:space="preserve" font-family="Chalkduster,Chalkduster" font-size="20.0" fill="#FEFFFE" transform="matrix(1.00, 0.00, -0.00, -1.00, 382.2, 21.6)"> </text><text xml:space="preserve" font-family="Chalkduster,Chalkduster" font-size="20.0" fill="#FEFFFE" transform="matrix(1.00, 0.00, -0.00, -1.00, 392.1, 21.6)">C</text><text xml:space="preserve" font-family="Chalkduster,Chalkduster" font-size="20.0" fill="#FEFFFE" transform="matrix(1.00, 0.00, -0.00, -1.00, 408.4, 21.6)">a</text><text xml:space="preserve" font-family="Chalkduster,Chalkduster" font-size="20.0" fill="#FEFFFE" transform="matrix(1.00, 0.00, -0.00, -1.00, 421.1, 21.6)">r</text><text xml:space="preserve" font-family="Chalkduster,Chalkduster" font-size="20.0" fill="#FEFFFE" transform="matrix(1.00, 0.00, -0.00, -1.00, 432.1, 21.6)">l</text><text xml:space="preserve" font-family="Chalkduster,Chalkduster" font-size="20.0" fill="#FEFFFE" transform="matrix(1.00, 0.00, -0.00, -1.00, 440.7, 21.6)">o</text><text xml:space="preserve" font-family="Chalkduster,Chalkduster" font-size="20.0" fill="#FEFFFE" transform="matrix(1.00, 0.00, -0.00, -1.00, 455.1, 21.6)"> </text><text xml:space="preserve" font-family="Chalkduster,Chalkduster" font-size="20.0" fill="#FEFFFE" transform="matrix(1.00, 0.00, -0.00, -1.00, 463.7, 21.6)">A</text><text xml:space="preserve" font-family="Chalkduster,Chalkduster" font-size="20.0" fill="#FEFFFE" transform="matrix(1.00, 0.00, -0.00, -1.00, 478.5, 21.6)">l</text><text xml:space="preserve" font-family="Chalkduster,Chalkduster" font-size="20.0" fill="#FEFFFE" transform="matrix(1.00, 0.00, -0.00, -1.00, 487.9, 21.6)">b</text><text xml:space="preserve" font-family="Chalkduster,Chalkduster" font-size="20.0" fill="#FEFFFE" transform="matrix(1.00, 0.00, -0.00, -1.00, 499.5, 21.6)">e</text><text xml:space="preserve" font-family="Chalkduster,Chalkduster" font-size="20.0" fill="#FEFFFE" transform="matrix(1.00, 0.00, -0.00, -1.00, 511.7, 21.6)">r</text><text xml:space="preserve" font-family="Chalkduster,Chalkduster" font-size="20.0" fill="#FEFFFE" transform="matrix(1.00, 0.00, -0.00, -1.00, 522.2, 21.6)">t</text><text xml:space="preserve" font-family="Chalkduster,Chalkduster" font-size="20.0" fill="#FEFFFE" transform="matrix(1.00, 0.00, -0.00, -1.00, 530.5, 21.6)">o</text><text xml:space="preserve" font-family="Chalkduster,Chalkduster" font-size="20.0" fill="#FEFFFE" transform="matrix(1.00, 0.00, -0.00, -1.00, 544.9, 21.6)"> </text><text xml:space="preserve" font-family="Chalkduster,Chalkduster" font-size="20.0" fill="#FEFFFE" transform="matrix(1.00, 0.00, -0.00, -1.00, 554.8, 21.6)">D</text><text xml:space="preserve" font-family="Chalkduster,Chalkduster" font-size="20.0" fill="#FEFFFE" transform="matrix(1.00, 0.00, -0.00, -1.00, 568.6, 21.6)">e</text><text xml:space="preserve" font-family="Chalkduster,Chalkduster" font-size="20.0" fill="#FEFFFE" transform="matrix(1.00, 0.00, -0.00, -1.00, 580.4, 21.6)">g</text><text xml:space="preserve" font-family="Chalkduster,Chalkduster" font-size="20.0" fill="#FEFFFE" transform="matrix(1.00, 0.00, -0.00, -1.00, 594.9, 21.6)">l</text><text xml:space="preserve" font-family="Chalkduster,Chalkduster" font-size="20.0" fill="#FEFFFE" transform="matrix(1.00, 0.00, -0.00, -1.00, 604.5, 21.6)">i</text><text xml:space="preserve" font-family="Chalkduster,Chalkduster" font-size="20.0" fill="#FEFFFE" transform="matrix(1.00, 0.00, -0.00, -1.00, 612.4, 21.6)"> </text><text xml:space="preserve" font-family="Chalkduster,Chalkduster" font-size="20.0" fill="#FEFFFE" transform="matrix(1.00, 0.00, -0.00, -1.00, 620.9, 21.6)">A</text><text xml:space="preserve" font-family="Chalkduster,Chalkduster" font-size="20.0" fill="#FEFFFE" transform="matrix(1.00, 0.00, -0.00, -1.00, 635.5, 21.6)">t</text><text xml:space="preserve" font-family="Chalkduster,Chalkduster" font-size="20.0" fill="#FEFFFE" transform="matrix(1.00, 0.00, -0.00, -1.00, 643.8, 21.6)">t</text><text xml:space="preserve" font-family="Chalkduster,Chalkduster" font-size="20.0" fill="#FEFFFE" transform="matrix(1.00, 0.00, -0.00, -1.00, 653.1, 21.6)">i</text><text xml:space="preserve" font-family="Chalkduster,Chalkduster" font-size="20.0" fill="#FEFFFE" transform="matrix(1.00, 0.00, -0.00, -1.00, 661.0, 21.6)"> </text><text xml:space="preserve" font-family="Chalkduster,Chalkduster" font-size="20.0" fill="#FEFFFE" transform="matrix(1.00, 0.00, -0.00, -1.00, 670.9, 21.6)">(</text><text xml:space="preserve" font-family="Chalkduster,Chalkduster" font-size="20.0" fill="#FEFFFE" transform="matrix(1.00, 0.00, -0.00, -1.00, 679.6, 21.6)">@</text><text xml:space="preserve" font-family="Chalkduster,Chalkduster" font-size="20.0" fill="#FEFFFE" transform="matrix(1.00, 0.00, -0.00, -1.00, 696.4, 21.6)">l</text><text xml:space="preserve" font-family="Chalkduster,Chalkduster" font-size="20.0" fill="#FEFFFE" transform="matrix(1.00, 0.00, -0.00, -1.00, 705.0, 21.6)">o</text><text xml:space="preserve" font-family="Chalkduster,Chalkduster" font-size="20.0" fill="#FEFFFE" transform="matrix(1.00, 0.00, -0.00, -1.00, 719.5, 21.6)">r</text><text xml:space="preserve" font-family="Chalkduster,Chalkduster" font-size="20.0" fill="#FEFFFE" transform="matrix(1.00, 0.00, -0.00, -1.00, 730.2, 21.6)">d</text><text xml:space="preserve" font-family="Chalkduster,Chalkduster" font-size="20.0" fill="#FEFFFE" transform="matrix(1.00, 0.00, -0.00, -1.00, 745.8, 21.6)">K</text><text xml:space="preserve" font-family="Chalkduster,Chalkduster" font-size="20.0" fill="#FEFFFE" transform="matrix(1.00, 0.00, -0.00, -1.00, 759.0, 21.6)">a</text><text xml:space="preserve" font-family="Chalkduster,Chalkduster" font-size="20.0" fill="#FEFFFE" transform="matrix(1.00, 0.00, -0.00, -1.00, 772.1, 21.6)">d</text><text xml:space="preserve" font-family="Chalkduster,Chalkduster" font-size="20.0" fill="#FEFFFE" transform="matrix(1.00, 0.00, -0.00, -1.00, 787.7, 21.6)">a</text><text xml:space="preserve" font-family="Chalkduster,Chalkduster" font-size="20.0" fill="#FEFFFE" transform="matrix(1.00, 0.00, -0.00, -1.00, 801.5, 21.6)">)</text><text xml:space="preserve" font-family="Chalkduster,Chalkduster" font-size="20.0" fill="#FEFFFE" transform="matrix(1.00, 0.00, -0.00, -1.00, 811.6, 21.6)"> </text><image xlink:href="../../2454F38C-308E-4D93-86A7-ACF877EF01F7/assets/6AAA538A2569BEA3BCD2D4F395995DA8.png" width="88.00" height="31.00" transform="matrix(1.09, 0.00, -0.00, -1.10, 252.0, 47.0)"></image><text xml:space="preserve" font-family="Chalkduster,Chalkduster" font-size="60.0" fill="#FEFFFE" transform="matrix(1.00, 0.00, -0.00, -1.00, 136.0, 669.8)">C</text><text xml:space="preserve" font-family="Chalkduster,Chalkduster" font-size="60.0" fill="#FEFFFE" transform="matrix(1.00, 0.00, -0.00, -1.00, 184.6, 669.8)">’</text><text xml:space="preserve" font-family="Chalkduster,Chalkduster" font-size="60.0" fill="#FEFFFE" transform="matrix(1.00, 0.00, -0.00, -1.00, 203.8, 669.8)">è</text><text xml:space="preserve" font-family="Chalkduster,Chalkduster" font-size="60.0" fill="#FEFFFE" transform="matrix(1.00, 0.00, -0.00, -1.00, 243.2, 669.8)"> </text><text xml:space="preserve" font-family="Chalkduster,Chalkduster" font-size="60.0" fill="#FEFFFE" transform="matrix(1.00, 0.00, -0.00, -1.00, 273.0, 669.8)">o</text><text xml:space="preserve" font-family="Chalkduster,Chalkduster" font-size="60.0" fill="#FEFFFE" transform="matrix(1.00, 0.00, -0.00, -1.00, 318.0, 669.8)">v</text><text xml:space="preserve" font-family="Chalkduster,Chalkduster" font-size="60.0" fill="#FEFFFE" transform="matrix(1.00, 0.00, -0.00, -1.00, 355.3, 669.8)">v</text><text xml:space="preserve" font-family="Chalkduster,Chalkduster" font-size="60.0" fill="#FEFFFE" transform="matrix(1.00, 0.00, -0.00, -1.00, 392.7, 669.8)">i</text><text xml:space="preserve" font-family="Chalkduster,Chalkduster" font-size="60.0" fill="#FEFFFE" transform="matrix(1.00, 0.00, -0.00, -1.00, 417.0, 669.8)">a</text><text xml:space="preserve" font-family="Chalkduster,Chalkduster" font-size="60.0" fill="#FEFFFE" transform="matrix(1.00, 0.00, -0.00, -1.00, 456.5, 669.8)">m</text><text xml:space="preserve" font-family="Chalkduster,Chalkduster" font-size="60.0" fill="#FEFFFE" transform="matrix(1.00, 0.00, -0.00, -1.00, 518.7, 669.8)">e</text><text xml:space="preserve" font-family="Chalkduster,Chalkduster" font-size="60.0" fill="#FEFFFE" transform="matrix(1.00, 0.00, -0.00, -1.00, 556.5, 669.8)">n</text><text xml:space="preserve" font-family="Chalkduster,Chalkduster" font-size="60.0" fill="#FEFFFE" transform="matrix(1.00, 0.00, -0.00, -1.00, 598.3, 669.8)">t</text><text xml:space="preserve" font-family="Chalkduster,Chalkduster" font-size="60.0" fill="#FEFFFE" transform="matrix(1.00, 0.00, -0.00, -1.00, 625.1, 669.8)">e</text><text xml:space="preserve" font-family="Chalkduster,Chalkduster" font-size="60.0" fill="#FEFFFE" transform="matrix(1.00, 0.00, -0.00, -1.00, 662.2, 669.8)"> </text><text xml:space="preserve" font-family="Chalkduster,Chalkduster" font-size="60.0" fill="#FEFFFE" transform="matrix(1.00, 0.00, -0.00, -1.00, 692.1, 669.8)">m</text><text xml:space="preserve" font-family="Chalkduster,Chalkduster" font-size="60.0" fill="#FEFFFE" transform="matrix(1.00, 0.00, -0.00, -1.00, 752.8, 669.8)">o</text><text xml:space="preserve" font-family="Chalkduster,Chalkduster" font-size="60.0" fill="#FEFFFE" transform="matrix(1.00, 0.00, -0.00, -1.00, 798.5, 669.8)">l</text><text xml:space="preserve" font-family="Chalkduster,Chalkduster" font-size="60.0" fill="#FEFFFE" transform="matrix(1.00, 0.00, -0.00, -1.00, 820.3, 669.8)">t</text><text xml:space="preserve" font-family="Chalkduster,Chalkduster" font-size="60.0" fill="#FEFFFE" transform="matrix(1.00, 0.00, -0.00, -1.00, 845.1, 669.8)">o</text><text xml:space="preserve" font-family="Chalkduster,Chalkduster" font-size="60.0" fill="#FEFFFE" transform="matrix(1.00, 0.00, -0.00, -1.00, 888.2, 669.8)"> </text><text xml:space="preserve" font-family="Chalkduster,Chalkduster" font-size="60.0" fill="#FEFFFE" transform="matrix(1.00, 0.00, -0.00, -1.00, 401.2, 592.8)">a</text><text xml:space="preserve" font-family="Chalkduster,Chalkduster" font-size="60.0" fill="#FEFFFE" transform="matrix(1.00, 0.00, -0.00, -1.00, 440.1, 592.8)">l</text><text xml:space="preserve" font-family="Chalkduster,Chalkduster" font-size="60.0" fill="#FEFFFE" transform="matrix(1.00, 0.00, -0.00, -1.00, 461.9, 592.8)">t</text><text xml:space="preserve" font-family="Chalkduster,Chalkduster" font-size="60.0" fill="#FEFFFE" transform="matrix(1.00, 0.00, -0.00, -1.00, 489.3, 592.8)">r</text><text xml:space="preserve" font-family="Chalkduster,Chalkduster" font-size="60.0" fill="#FEFFFE" transform="matrix(1.00, 0.00, -0.00, -1.00, 520.1, 592.8)">o</text><text xml:space="preserve" font-family="Chalkduster,Chalkduster" font-size="60.0" fill="#FEFFFE" transform="matrix(1.00, 0.00, -0.00, -1.00, 563.2, 592.8)">…</text><image xlink:href="../../50142469-0AEB-45DE-A4A2-AB2237BFE142/assets/4DEEB86E8592901A27491E22B30EA716.png" width="78.00" height="72.00" transform="matrix(0.26, 0.00, -0.00, -0.26, 104.0, 519.7)"></image><text xml:space="preserve" font-family="Chalkduster,Chalkduster" font-size="34.6" fill="#FEFFFE" transform="matrix(1.00, 0.00, -0.00, -1.00, 147.2, 501.2)">C</text><text xml:space="preserve" font-family="Chalkduster,Chalkduster" font-size="34.6" fill="#FEFFFE" transform="matrix(1.00, 0.00, -0.00, -1.00, 175.2, 501.2)">a</text><text xml:space="preserve" font-family="Chalkduster,Chalkduster" font-size="34.6" fill="#FEFFFE" transform="matrix(1.00, 0.00, -0.00, -1.00, 199.5, 501.2)">s</text><text xml:space="preserve" font-family="Chalkduster,Chalkduster" font-size="34.6" fill="#FEFFFE" transform="matrix(1.00, 0.00, -0.00, -1.00, 216.9, 501.2)">i</text><text xml:space="preserve" font-family="Chalkduster,Chalkduster" font-size="34.6" fill="#FEFFFE" transform="matrix(1.00, 0.00, -0.00, -1.00, 230.6, 501.2)"> </text><text xml:space="preserve" font-family="Chalkduster,Chalkduster" font-size="34.6" fill="#FEFFFE" transform="matrix(1.00, 0.00, -0.00, -1.00, 247.8, 501.2)">p</text><text xml:space="preserve" font-family="Chalkduster,Chalkduster" font-size="34.6" fill="#FEFFFE" transform="matrix(1.00, 0.00, -0.00, -1.00, 269.8, 501.2)">i</text><text xml:space="preserve" font-family="Chalkduster,Chalkduster" font-size="34.6" fill="#FEFFFE" transform="matrix(1.00, 0.00, -0.00, -1.00, 283.5, 501.2)">ù</text><text xml:space="preserve" font-family="Chalkduster,Chalkduster" font-size="34.6" fill="#FEFFFE" transform="matrix(1.00, 0.00, -0.00, -1.00, 309.7, 501.2)"> </text><text xml:space="preserve" font-family="Chalkduster,Chalkduster" font-size="34.6" fill="#FEFFFE" transform="matrix(1.00, 0.00, -0.00, -1.00, 326.9, 501.2)">c</text><text xml:space="preserve" font-family="Chalkduster,Chalkduster" font-size="34.6" fill="#FEFFFE" transform="matrix(1.00, 0.00, -0.00, -1.00, 347.6, 501.2)">o</text><text xml:space="preserve" font-family="Chalkduster,Chalkduster" font-size="34.6" fill="#FEFFFE" transform="matrix(1.00, 0.00, -0.00, -1.00, 373.5, 501.2)">m</text><text xml:space="preserve" font-family="Chalkduster,Chalkduster" font-size="34.6" fill="#FEFFFE" transform="matrix(1.00, 0.00, -0.00, -1.00, 408.5, 501.2)">p</text><text xml:space="preserve" font-family="Chalkduster,Chalkduster" font-size="34.6" fill="#FEFFFE" transform="matrix(1.00, 0.00, -0.00, -1.00, 429.8, 501.2)">l</text><text xml:space="preserve" font-family="Chalkduster,Chalkduster" font-size="34.6" fill="#FEFFFE" transform="matrix(1.00, 0.00, -0.00, -1.00, 444.1, 501.2)">e</text><text xml:space="preserve" font-family="Chalkduster,Chalkduster" font-size="34.6" fill="#FEFFFE" transform="matrix(1.00, 0.00, -0.00, -1.00, 466.3, 501.2)">s</text><text xml:space="preserve" font-family="Chalkduster,Chalkduster" font-size="34.6" fill="#FEFFFE" transform="matrix(1.00, 0.00, -0.00, -1.00, 483.8, 501.2)">s</text><text xml:space="preserve" font-family="Chalkduster,Chalkduster" font-size="34.6" fill="#FEFFFE" transform="matrix(1.00, 0.00, -0.00, -1.00, 501.2, 501.2)">i</text><text xml:space="preserve" font-family="Chalkduster,Chalkduster" font-size="34.6" fill="#FEFFFE" transform="matrix(1.00, 0.00, -0.00, -1.00, 514.9, 501.2)"> </text><text xml:space="preserve" font-family="Chalkduster,Chalkduster" font-size="34.6" fill="#FEFFFE" transform="matrix(1.00, 0.00, -0.00, -1.00, 532.1, 501.2)">(</text><text xml:space="preserve" font-family="Chalkduster,Chalkduster" font-size="34.6" fill="#FEFFFE" transform="matrix(1.00, 0.00, -0.00, -1.00, 545.9, 501.2)">e</text><text xml:space="preserve" font-family="Chalkduster,Chalkduster" font-size="34.6" fill="#FEFFFE" transform="matrix(1.00, 0.00, -0.00, -1.00, 568.1, 501.2)">s</text><text xml:space="preserve" font-family="Chalkduster,Chalkduster" font-size="34.6" fill="#FEFFFE" transform="matrix(1.00, 0.00, -0.00, -1.00, 584.8, 501.2)">.</text><text xml:space="preserve" font-family="Chalkduster,Chalkduster" font-size="34.6" fill="#FEFFFE" transform="matrix(1.00, 0.00, -0.00, -1.00, 594.7, 501.2)"> </text><text xml:space="preserve" font-family="Chalkduster,Chalkduster" font-size="34.6" fill="#FEFFFE" transform="matrix(1.00, 0.00, -0.00, -1.00, 611.9, 501.2)">m</text><text xml:space="preserve" font-family="Chalkduster,Chalkduster" font-size="34.6" fill="#FEFFFE" transform="matrix(1.00, 0.00, -0.00, -1.00, 647.7, 501.2)">e</text><text xml:space="preserve" font-family="Chalkduster,Chalkduster" font-size="34.6" fill="#FEFFFE" transform="matrix(1.00, 0.00, -0.00, -1.00, 668.8, 501.2)">r</text><text xml:space="preserve" font-family="Chalkduster,Chalkduster" font-size="34.6" fill="#FEFFFE" transform="matrix(1.00, 0.00, -0.00, -1.00, 686.5, 501.2)">g</text><text xml:space="preserve" font-family="Chalkduster,Chalkduster" font-size="34.6" fill="#FEFFFE" transform="matrix(1.00, 0.00, -0.00, -1.00, 710.6, 501.2)">e</text><text xml:space="preserve" font-family="Chalkduster,Chalkduster" font-size="34.6" fill="#FEFFFE" transform="matrix(1.00, 0.00, -0.00, -1.00, 732.0, 501.2)"> </text><text xml:space="preserve" font-family="Chalkduster,Chalkduster" font-size="34.6" fill="#FEFFFE" transform="matrix(1.00, 0.00, -0.00, -1.00, 749.2, 501.2)">v</text><text xml:space="preserve" font-family="Chalkduster,Chalkduster" font-size="34.6" fill="#FEFFFE" transform="matrix(1.00, 0.00, -0.00, -1.00, 770.7, 501.2)">s</text><text xml:space="preserve" font-family="Chalkduster,Chalkduster" font-size="34.6" fill="#FEFFFE" transform="matrix(1.00, 0.00, -0.00, -1.00, 788.1, 501.2)"> </text><text xml:space="preserve" font-family="Chalkduster,Chalkduster" font-size="34.6" fill="#FEFFFE" transform="matrix(1.00, 0.00, -0.00, -1.00, 147.2, 448.2)">r</text><text xml:space="preserve" font-family="Chalkduster,Chalkduster" font-size="34.6" fill="#FEFFFE" transform="matrix(1.00, 0.00, -0.00, -1.00, 164.7, 448.2)">e</text><text xml:space="preserve" font-family="Chalkduster,Chalkduster" font-size="34.6" fill="#FEFFFE" transform="matrix(1.00, 0.00, -0.00, -1.00, 186.2, 448.2)">b</text><text xml:space="preserve" font-family="Chalkduster,Chalkduster" font-size="34.6" fill="#FEFFFE" transform="matrix(1.00, 0.00, -0.00, -1.00, 205.4, 448.2)">a</text><text xml:space="preserve" font-family="Chalkduster,Chalkduster" font-size="34.6" fill="#FEFFFE" transform="matrix(1.00, 0.00, -0.00, -1.00, 229.7, 448.2)">s</text><text xml:space="preserve" font-family="Chalkduster,Chalkduster" font-size="34.6" fill="#FEFFFE" transform="matrix(1.00, 0.00, -0.00, -1.00, 247.1, 448.2)">e</text><text xml:space="preserve" font-family="Chalkduster,Chalkduster" font-size="34.6" fill="#FEFFFE" transform="matrix(1.00, 0.00, -0.00, -1.00, 267.7, 448.2)">,</text><text xml:space="preserve" font-family="Chalkduster,Chalkduster" font-size="34.6" fill="#FEFFFE" transform="matrix(1.00, 0.00, -0.00, -1.00, 278.5, 448.2)"> </text><text xml:space="preserve" font-family="Chalkduster,Chalkduster" font-size="34.6" fill="#FEFFFE" transform="matrix(1.00, 0.00, -0.00, -1.00, 295.6, 448.2)">m</text><text xml:space="preserve" font-family="Chalkduster,Chalkduster" font-size="34.6" fill="#FEFFFE" transform="matrix(1.00, 0.00, -0.00, -1.00, 330.6, 448.2)">a</text><text xml:space="preserve" font-family="Chalkduster,Chalkduster" font-size="34.6" fill="#FEFFFE" transform="matrix(1.00, 0.00, -0.00, -1.00, 354.4, 448.2)">n</text><text xml:space="preserve" font-family="Chalkduster,Chalkduster" font-size="34.6" fill="#FEFFFE" transform="matrix(1.00, 0.00, -0.00, -1.00, 380.6, 448.2)">u</text><text xml:space="preserve" font-family="Chalkduster,Chalkduster" font-size="34.6" fill="#FEFFFE" transform="matrix(1.00, 0.00, -0.00, -1.00, 404.4, 448.2)">a</text><text xml:space="preserve" font-family="Chalkduster,Chalkduster" font-size="34.6" fill="#FEFFFE" transform="matrix(1.00, 0.00, -0.00, -1.00, 426.8, 448.2)">l</text><text xml:space="preserve" font-family="Chalkduster,Chalkduster" font-size="34.6" fill="#FEFFFE" transform="matrix(1.00, 0.00, -0.00, -1.00, 443.0, 448.2)"> </text><text xml:space="preserve" font-family="Chalkduster,Chalkduster" font-size="34.6" fill="#FEFFFE" transform="matrix(1.00, 0.00, -0.00, -1.00, 460.2, 448.2)">c</text><text xml:space="preserve" font-family="Chalkduster,Chalkduster" font-size="34.6" fill="#FEFFFE" transform="matrix(1.00, 0.00, -0.00, -1.00, 480.8, 448.2)">o</text><text xml:space="preserve" font-family="Chalkduster,Chalkduster" font-size="34.6" fill="#FEFFFE" transform="matrix(1.00, 0.00, -0.00, -1.00, 506.6, 448.2)">n</text><text xml:space="preserve" font-family="Chalkduster,Chalkduster" font-size="34.6" fill="#FEFFFE" transform="matrix(1.00, 0.00, -0.00, -1.00, 531.9, 448.2)">f</text><text xml:space="preserve" font-family="Chalkduster,Chalkduster" font-size="34.6" fill="#FEFFFE" transform="matrix(1.00, 0.00, -0.00, -1.00, 550.3, 448.2)">l</text><text xml:space="preserve" font-family="Chalkduster,Chalkduster" font-size="34.6" fill="#FEFFFE" transform="matrix(1.00, 0.00, -0.00, -1.00, 566.9, 448.2)">i</text><text xml:space="preserve" font-family="Chalkduster,Chalkduster" font-size="34.6" fill="#FEFFFE" transform="matrix(1.00, 0.00, -0.00, -1.00, 580.9, 448.2)">c</text><text xml:space="preserve" font-family="Chalkduster,Chalkduster" font-size="34.6" fill="#FEFFFE" transform="matrix(1.00, 0.00, -0.00, -1.00, 601.4, 448.2)">t</text><text xml:space="preserve" font-family="Chalkduster,Chalkduster" font-size="34.6" fill="#FEFFFE" transform="matrix(1.00, 0.00, -0.00, -1.00, 617.2, 448.2)"> </text><text xml:space="preserve" font-family="Chalkduster,Chalkduster" font-size="34.6" fill="#FEFFFE" transform="matrix(1.00, 0.00, -0.00, -1.00, 634.4, 448.2)">r</text><text xml:space="preserve" font-family="Chalkduster,Chalkduster" font-size="34.6" fill="#FEFFFE" transform="matrix(1.00, 0.00, -0.00, -1.00, 651.9, 448.2)">e</text><text xml:space="preserve" font-family="Chalkduster,Chalkduster" font-size="34.6" fill="#FEFFFE" transform="matrix(1.00, 0.00, -0.00, -1.00, 674.1, 448.2)">s</text><text xml:space="preserve" font-family="Chalkduster,Chalkduster" font-size="34.6" fill="#FEFFFE" transform="matrix(1.00, 0.00, -0.00, -1.00, 691.6, 448.2)">o</text><text xml:space="preserve" font-family="Chalkduster,Chalkduster" font-size="34.6" fill="#FEFFFE" transform="matrix(1.00, 0.00, -0.00, -1.00, 717.8, 448.2)">l</text><text xml:space="preserve" font-family="Chalkduster,Chalkduster" font-size="34.6" fill="#FEFFFE" transform="matrix(1.00, 0.00, -0.00, -1.00, 733.7, 448.2)">u</text><text xml:space="preserve" font-family="Chalkduster,Chalkduster" font-size="34.6" fill="#FEFFFE" transform="matrix(1.00, 0.00, -0.00, -1.00, 757.1, 448.2)">t</text><text xml:space="preserve" font-family="Chalkduster,Chalkduster" font-size="34.6" fill="#FEFFFE" transform="matrix(1.00, 0.00, -0.00, -1.00, 773.1, 448.2)">i</text><text xml:space="preserve" font-family="Chalkduster,Chalkduster" font-size="34.6" fill="#FEFFFE" transform="matrix(1.00, 0.00, -0.00, -1.00, 786.8, 448.2)">o</text><text xml:space="preserve" font-family="Chalkduster,Chalkduster" font-size="34.6" fill="#FEFFFE" transform="matrix(1.00, 0.00, -0.00, -1.00, 812.5, 448.2)">n</text><text xml:space="preserve" font-family="Chalkduster,Chalkduster" font-size="34.6" fill="#FEFFFE" transform="matrix(1.00, 0.00, -0.00, -1.00, 836.7, 448.2)">,</text><text xml:space="preserve" font-family="Chalkduster,Chalkduster" font-size="34.6" fill="#FEFFFE" transform="matrix(1.00, 0.00, -0.00, -1.00, 847.5, 448.2)"> </text><text xml:space="preserve" font-family="Chalkduster,Chalkduster" font-size="34.6" fill="#FEFFFE" transform="matrix(1.00, 0.00, -0.00, -1.00, 864.6, 448.2)">…</text><text xml:space="preserve" font-family="Chalkduster,Chalkduster" font-size="34.6" fill="#FEFFFE" transform="matrix(1.00, 0.00, -0.00, -1.00, 899.0, 448.2)">)</text><text xml:space="preserve" font-family="Chalkduster,Chalkduster" font-size="34.6" fill="#FEFFFE" transform="matrix(1.00, 0.00, -0.00, -1.00, 916.4, 448.2)"> </text><image xlink:href="../../50142469-0AEB-45DE-A4A2-AB2237BFE142/assets/4DEEB86E8592901A27491E22B30EA716.png" width="78.00" height="72.00" transform="matrix(0.26, 0.00, -0.00, -0.26, 104.0, 379.1)"></image><text xml:space="preserve" font-family="Chalkduster,Chalkduster" font-size="34.6" fill="#FEFFFE" transform="matrix(1.00, 0.00, -0.00, -1.00, 147.2, 360.7)">I</text><text xml:space="preserve" font-family="Chalkduster,Chalkduster" font-size="34.6" fill="#FEFFFE" transform="matrix(1.00, 0.00, -0.00, -1.00, 167.4, 360.7)">s</text><text xml:space="preserve" font-family="Chalkduster,Chalkduster" font-size="34.6" fill="#FEFFFE" transform="matrix(1.00, 0.00, -0.00, -1.00, 184.9, 360.7)">s</text><text xml:space="preserve" font-family="Chalkduster,Chalkduster" font-size="34.6" fill="#FEFFFE" transform="matrix(1.00, 0.00, -0.00, -1.00, 202.3, 360.7)">u</text><text xml:space="preserve" font-family="Chalkduster,Chalkduster" font-size="34.6" fill="#FEFFFE" transform="matrix(1.00, 0.00, -0.00, -1.00, 226.1, 360.7)">e</text><text xml:space="preserve" font-family="Chalkduster,Chalkduster" font-size="34.6" fill="#FEFFFE" transform="matrix(1.00, 0.00, -0.00, -1.00, 247.5, 360.7)"> </text><text xml:space="preserve" font-family="Chalkduster,Chalkduster" font-size="34.6" fill="#FEFFFE" transform="matrix(1.00, 0.00, -0.00, -1.00, 264.7, 360.7)">t</text><text xml:space="preserve" font-family="Chalkduster,Chalkduster" font-size="34.6" fill="#FEFFFE" transform="matrix(1.00, 0.00, -0.00, -1.00, 280.5, 360.7)">r</text><text xml:space="preserve" font-family="Chalkduster,Chalkduster" font-size="34.6" fill="#FEFFFE" transform="matrix(1.00, 0.00, -0.00, -1.00, 298.7, 360.7)">a</text><text xml:space="preserve" font-family="Chalkduster,Chalkduster" font-size="34.6" fill="#FEFFFE" transform="matrix(1.00, 0.00, -0.00, -1.00, 321.5, 360.7)">c</text><text xml:space="preserve" font-family="Chalkduster,Chalkduster" font-size="34.6" fill="#FEFFFE" transform="matrix(1.00, 0.00, -0.00, -1.00, 341.7, 360.7)">k</text><text xml:space="preserve" font-family="Chalkduster,Chalkduster" font-size="34.6" fill="#FEFFFE" transform="matrix(1.00, 0.00, -0.00, -1.00, 368.6, 360.7)">i</text><text xml:space="preserve" font-family="Chalkduster,Chalkduster" font-size="34.6" fill="#FEFFFE" transform="matrix(1.00, 0.00, -0.00, -1.00, 382.2, 360.7)">n</text><text xml:space="preserve" font-family="Chalkduster,Chalkduster" font-size="34.6" fill="#FEFFFE" transform="matrix(1.00, 0.00, -0.00, -1.00, 406.5, 360.7)">g</text><text xml:space="preserve" font-family="Chalkduster,Chalkduster" font-size="34.6" fill="#FEFFFE" transform="matrix(1.00, 0.00, -0.00, -1.00, 429.9, 360.7)">,</text><text xml:space="preserve" font-family="Chalkduster,Chalkduster" font-size="34.6" fill="#FEFFFE" transform="matrix(1.00, 0.00, -0.00, -1.00, 440.6, 360.7)"> </text><text xml:space="preserve" font-family="Chalkduster,Chalkduster" font-size="34.6" fill="#FEFFFE" transform="matrix(1.00, 0.00, -0.00, -1.00, 457.7, 360.7)">w</text><text xml:space="preserve" font-family="Chalkduster,Chalkduster" font-size="34.6" fill="#FEFFFE" transform="matrix(1.00, 0.00, -0.00, -1.00, 487.3, 360.7)">i</text><text xml:space="preserve" font-family="Chalkduster,Chalkduster" font-size="34.6" fill="#FEFFFE" transform="matrix(1.00, 0.00, -0.00, -1.00, 500.9, 360.7)">k</text><text xml:space="preserve" font-family="Chalkduster,Chalkduster" font-size="34.6" fill="#FEFFFE" transform="matrix(1.00, 0.00, -0.00, -1.00, 527.8, 360.7)">i</text><text xml:space="preserve" font-family="Chalkduster,Chalkduster" font-size="34.6" fill="#FEFFFE" transform="matrix(1.00, 0.00, -0.00, -1.00, 541.5, 360.7)">,</text><text xml:space="preserve" font-family="Chalkduster,Chalkduster" font-size="34.6" fill="#FEFFFE" transform="matrix(1.00, 0.00, -0.00, -1.00, 552.2, 360.7)"> </text><text xml:space="preserve" font-family="Chalkduster,Chalkduster" font-size="34.6" fill="#FEFFFE" transform="matrix(1.00, 0.00, -0.00, -1.00, 569.4, 360.7)">…</text><text xml:space="preserve" font-family="Chalkduster,Chalkduster" font-size="34.6" fill="#FEFFFE" transform="matrix(1.00, 0.00, -0.00, -1.00, 603.7, 360.7)"> </text><text xml:space="preserve" font-family="Chalkduster,Chalkduster" font-size="34.6" fill="#FEFFFE" transform="matrix(1.00, 0.00, -0.00, -1.00, 620.9, 360.7)"> </text><image xlink:href="../../50142469-0AEB-45DE-A4A2-AB2237BFE142/assets/4DEEB86E8592901A27491E22B30EA716.png" width="78.00" height="72.00" transform="matrix(0.26, 0.00, -0.00, -0.26, 104.0, 291.5)"></image><text xml:space="preserve" font-family="Chalkduster,Chalkduster" font-size="34.6" fill="#FEFFFE" transform="matrix(1.00, 0.00, -0.00, -1.00, 147.2, 273.1)">N</text><text xml:space="preserve" font-family="Chalkduster,Chalkduster" font-size="34.6" fill="#FEFFFE" transform="matrix(1.00, 0.00, -0.00, -1.00, 172.8, 273.1)">o</text><text xml:space="preserve" font-family="Chalkduster,Chalkduster" font-size="34.6" fill="#FEFFFE" transform="matrix(1.00, 0.00, -0.00, -1.00, 198.5, 273.1)">n</text><text xml:space="preserve" font-family="Chalkduster,Chalkduster" font-size="34.6" fill="#FEFFFE" transform="matrix(1.00, 0.00, -0.00, -1.00, 223.9, 273.1)"> </text><text xml:space="preserve" font-family="Chalkduster,Chalkduster" font-size="34.6" fill="#FEFFFE" transform="matrix(1.00, 0.00, -0.00, -1.00, 241.1, 273.1)">è</text><text xml:space="preserve" font-family="Chalkduster,Chalkduster" font-size="34.6" fill="#FEFFFE" transform="matrix(1.00, 0.00, -0.00, -1.00, 263.8, 273.1)"> </text><text xml:space="preserve" font-family="Chalkduster,Chalkduster" font-size="34.6" fill="#FEFFFE" transform="matrix(1.00, 0.00, -0.00, -1.00, 281.0, 273.1)">s</text><text xml:space="preserve" font-family="Chalkduster,Chalkduster" font-size="34.6" fill="#FEFFFE" transform="matrix(1.00, 0.00, -0.00, -1.00, 298.4, 273.1)">o</text><text xml:space="preserve" font-family="Chalkduster,Chalkduster" font-size="34.6" fill="#FEFFFE" transform="matrix(1.00, 0.00, -0.00, -1.00, 324.7, 273.1)">l</text><text xml:space="preserve" font-family="Chalkduster,Chalkduster" font-size="34.6" fill="#FEFFFE" transform="matrix(1.00, 0.00, -0.00, -1.00, 339.6, 273.1)">o</text><text xml:space="preserve" font-family="Chalkduster,Chalkduster" font-size="34.6" fill="#FEFFFE" transform="matrix(1.00, 0.00, -0.00, -1.00, 364.4, 273.1)"> </text><text xml:space="preserve" font-family="Chalkduster,Chalkduster" font-size="34.6" fill="#FEFFFE" transform="matrix(1.00, 0.00, -0.00, -1.00, 381.6, 273.1)">u</text><text xml:space="preserve" font-family="Chalkduster,Chalkduster" font-size="34.6" fill="#FEFFFE" transform="matrix(1.00, 0.00, -0.00, -1.00, 405.9, 273.1)">n</text><text xml:space="preserve" font-family="Chalkduster,Chalkduster" font-size="34.6" fill="#FEFFFE" transform="matrix(1.00, 0.00, -0.00, -1.00, 431.2, 273.1)">a</text><text xml:space="preserve" font-family="Chalkduster,Chalkduster" font-size="34.6" fill="#FEFFFE" transform="matrix(1.00, 0.00, -0.00, -1.00, 455.0, 273.1)"> </text><text xml:space="preserve" font-family="Chalkduster,Chalkduster" font-size="34.6" fill="#FEFFFE" transform="matrix(1.00, 0.00, -0.00, -1.00, 472.2, 273.1)">q</text><text xml:space="preserve" font-family="Chalkduster,Chalkduster" font-size="34.6" fill="#FEFFFE" transform="matrix(1.00, 0.00, -0.00, -1.00, 494.5, 273.1)">u</text><text xml:space="preserve" font-family="Chalkduster,Chalkduster" font-size="34.6" fill="#FEFFFE" transform="matrix(1.00, 0.00, -0.00, -1.00, 518.3, 273.1)">e</text><text xml:space="preserve" font-family="Chalkduster,Chalkduster" font-size="34.6" fill="#FEFFFE" transform="matrix(1.00, 0.00, -0.00, -1.00, 540.5, 273.1)">s</text><text xml:space="preserve" font-family="Chalkduster,Chalkduster" font-size="34.6" fill="#FEFFFE" transform="matrix(1.00, 0.00, -0.00, -1.00, 559.0, 273.1)">t</text><text xml:space="preserve" font-family="Chalkduster,Chalkduster" font-size="34.6" fill="#FEFFFE" transform="matrix(1.00, 0.00, -0.00, -1.00, 575.0, 273.1)">i</text><text xml:space="preserve" font-family="Chalkduster,Chalkduster" font-size="34.6" fill="#FEFFFE" transform="matrix(1.00, 0.00, -0.00, -1.00, 588.7, 273.1)">o</text><text xml:space="preserve" font-family="Chalkduster,Chalkduster" font-size="34.6" fill="#FEFFFE" transform="matrix(1.00, 0.00, -0.00, -1.00, 614.4, 273.1)">n</text><text xml:space="preserve" font-family="Chalkduster,Chalkduster" font-size="34.6" fill="#FEFFFE" transform="matrix(1.00, 0.00, -0.00, -1.00, 640.2, 273.1)">e</text><text xml:space="preserve" font-family="Chalkduster,Chalkduster" font-size="34.6" fill="#FEFFFE" transform="matrix(1.00, 0.00, -0.00, -1.00, 661.7, 273.1)"> </text><text xml:space="preserve" font-family="Chalkduster,Chalkduster" font-size="34.6" fill="#FEFFFE" transform="matrix(1.00, 0.00, -0.00, -1.00, 678.9, 273.1)">d</text><text xml:space="preserve" font-family="Chalkduster,Chalkduster" font-size="34.6" fill="#FEFFFE" transform="matrix(1.00, 0.00, -0.00, -1.00, 707.3, 273.1)">i</text><text xml:space="preserve" font-family="Chalkduster,Chalkduster" font-size="34.6" fill="#FEFFFE" transform="matrix(1.00, 0.00, -0.00, -1.00, 720.9, 273.1)"> </text><text xml:space="preserve" font-family="Chalkduster,Chalkduster" font-size="34.6" fill="#FEFFFE" transform="matrix(1.00, 0.00, -0.00, -1.00, 738.1, 273.1)">t</text><text xml:space="preserve" font-family="Chalkduster,Chalkduster" font-size="34.6" fill="#FEFFFE" transform="matrix(1.00, 0.00, -0.00, -1.00, 752.4, 273.1)">o</text><text xml:space="preserve" font-family="Chalkduster,Chalkduster" font-size="34.6" fill="#FEFFFE" transform="matrix(1.00, 0.00, -0.00, -1.00, 778.5, 273.1)">o</text><text xml:space="preserve" font-family="Chalkduster,Chalkduster" font-size="34.6" fill="#FEFFFE" transform="matrix(1.00, 0.00, -0.00, -1.00, 804.8, 273.1)">l</text><text xml:space="preserve" font-family="Chalkduster,Chalkduster" font-size="34.6" fill="#FEFFFE" transform="matrix(1.00, 0.00, -0.00, -1.00, 821.0, 273.1)">s</text><text xml:space="preserve" font-family="Chalkduster,Chalkduster" font-size="34.6" fill="#FEFFFE" transform="matrix(1.00, 0.00, -0.00, -1.00, 837.2, 273.1)">,</text><text xml:space="preserve" font-family="Chalkduster,Chalkduster" font-size="34.6" fill="#FEFFFE" transform="matrix(1.00, 0.00, -0.00, -1.00, 847.9, 273.1)"> </text><text xml:space="preserve" font-family="Chalkduster,Chalkduster" font-size="34.6" fill="#FEFFFE" transform="matrix(1.00, 0.00, -0.00, -1.00, 147.2, 220.1)">m</text><text xml:space="preserve" font-family="Chalkduster,Chalkduster" font-size="34.6" fill="#FEFFFE" transform="matrix(1.00, 0.00, -0.00, -1.00, 182.2, 220.1)">a</text><text xml:space="preserve" font-family="Chalkduster,Chalkduster" font-size="34.6" fill="#FEFFFE" transform="matrix(1.00, 0.00, -0.00, -1.00, 206.0, 220.1)"> </text><text xml:space="preserve" font-family="Chalkduster,Chalkduster" font-size="34.6" fill="#FEFFFE" transform="matrix(1.00, 0.00, -0.00, -1.00, 223.2, 220.1)">a</text><text xml:space="preserve" font-family="Chalkduster,Chalkduster" font-size="34.6" fill="#FEFFFE" transform="matrix(1.00, 0.00, -0.00, -1.00, 247.0, 220.1)">n</text><text xml:space="preserve" font-family="Chalkduster,Chalkduster" font-size="34.6" fill="#FEFFFE" transform="matrix(1.00, 0.00, -0.00, -1.00, 272.3, 220.1)">c</text><text xml:space="preserve" font-family="Chalkduster,Chalkduster" font-size="34.6" fill="#FEFFFE" transform="matrix(1.00, 0.00, -0.00, -1.00, 294.1, 220.1)">h</text><text xml:space="preserve" font-family="Chalkduster,Chalkduster" font-size="34.6" fill="#FEFFFE" transform="matrix(1.00, 0.00, -0.00, -1.00, 315.4, 220.1)">e</text><text xml:space="preserve" font-family="Chalkduster,Chalkduster" font-size="34.6" fill="#FEFFFE" transform="matrix(1.00, 0.00, -0.00, -1.00, 336.8, 220.1)"> </text><text xml:space="preserve" font-family="Chalkduster,Chalkduster" font-size="34.6" fill="#FEFFFE" transform="matrix(1.00, 0.00, -0.00, -1.00, 354.0, 220.1)">d</text><text xml:space="preserve" font-family="Chalkduster,Chalkduster" font-size="34.6" fill="#FEFFFE" transform="matrix(1.00, 0.00, -0.00, -1.00, 382.4, 220.1)">i</text><text xml:space="preserve" font-family="Chalkduster,Chalkduster" font-size="34.6" fill="#FEFFFE" transform="matrix(1.00, 0.00, -0.00, -1.00, 396.1, 220.1)"> </text><text xml:space="preserve" font-family="Chalkduster,Chalkduster" font-size="34.6" fill="#A8E685" transform="matrix(1.00, 0.00, -0.00, -1.00, 413.3, 220.1)">m</text><text xml:space="preserve" font-family="Chalkduster,Chalkduster" font-size="34.6" fill="#A8E685" transform="matrix(1.00, 0.00, -0.00, -1.00, 449.2, 220.1)">e</text><text xml:space="preserve" font-family="Chalkduster,Chalkduster" font-size="34.6" fill="#A8E685" transform="matrix(1.00, 0.00, -0.00, -1.00, 470.2, 220.1)">t</text><text xml:space="preserve" font-family="Chalkduster,Chalkduster" font-size="34.6" fill="#A8E685" transform="matrix(1.00, 0.00, -0.00, -1.00, 484.5, 220.1)">o</text><text xml:space="preserve" font-family="Chalkduster,Chalkduster" font-size="34.6" fill="#A8E685" transform="matrix(1.00, 0.00, -0.00, -1.00, 511.1, 220.1)">d</text><text xml:space="preserve" font-family="Chalkduster,Chalkduster" font-size="34.6" fill="#A8E685" transform="matrix(1.00, 0.00, -0.00, -1.00, 538.1, 220.1)">o</text><text xml:space="preserve" font-family="Chalkduster,Chalkduster" font-size="34.6" fill="#FEFFFE" transform="matrix(1.00, 0.00, -0.00, -1.00, 562.8, 220.1)">:</text><text xml:space="preserve" font-family="Chalkduster,Chalkduster" font-size="34.6" fill="#FEFFFE" transform="matrix(1.00, 0.00, -0.00, -1.00, 574.2, 220.1)"> </text><text xml:space="preserve" font-family="Chalkduster,Chalkduster" font-size="34.6" fill="#FEFFFE" transform="matrix(1.00, 0.00, -0.00, -1.00, 591.4, 220.1)">a</text><text xml:space="preserve" font-family="Chalkduster,Chalkduster" font-size="34.6" fill="#FEFFFE" transform="matrix(1.00, 0.00, -0.00, -1.00, 614.1, 220.1)">d</text><text xml:space="preserve" font-family="Chalkduster,Chalkduster" font-size="34.6" fill="#FEFFFE" transform="matrix(1.00, 0.00, -0.00, -1.00, 641.1, 220.1)"> </text><text xml:space="preserve" font-family="Chalkduster,Chalkduster" font-size="34.6" fill="#FEFFFE" transform="matrix(1.00, 0.00, -0.00, -1.00, 658.3, 220.1)">e</text><text xml:space="preserve" font-family="Chalkduster,Chalkduster" font-size="34.6" fill="#FEFFFE" transform="matrix(1.00, 0.00, -0.00, -1.00, 680.6, 220.1)">s</text><text xml:space="preserve" font-family="Chalkduster,Chalkduster" font-size="34.6" fill="#FEFFFE" transform="matrix(1.00, 0.00, -0.00, -1.00, 697.3, 220.1)">.</text><text xml:space="preserve" font-family="Chalkduster,Chalkduster" font-size="34.6" fill="#FEFFFE" transform="matrix(1.00, 0.00, -0.00, -1.00, 707.2, 220.1)"> </text><text xml:space="preserve" font-family="Chalkduster,Chalkduster" font-size="34.6" fill="#FEFFFE" transform="matrix(1.00, 0.00, -0.00, -1.00, 147.2, 167.1)">C</text><text xml:space="preserve" font-family="Chalkduster,Chalkduster" font-size="34.6" fill="#FEFFFE" transform="matrix(1.00, 0.00, -0.00, -1.00, 175.2, 167.1)">o</text><text xml:space="preserve" font-family="Chalkduster,Chalkduster" font-size="34.6" fill="#FEFFFE" transform="matrix(1.00, 0.00, -0.00, -1.00, 200.9, 167.1)">n</text><text xml:space="preserve" font-family="Chalkduster,Chalkduster" font-size="34.6" fill="#FEFFFE" transform="matrix(1.00, 0.00, -0.00, -1.00, 225.0, 167.1)">t</text><text xml:space="preserve" font-family="Chalkduster,Chalkduster" font-size="34.6" fill="#FEFFFE" transform="matrix(1.00, 0.00, -0.00, -1.00, 241.0, 167.1)">i</text><text xml:space="preserve" font-family="Chalkduster,Chalkduster" font-size="34.6" fill="#FEFFFE" transform="matrix(1.00, 0.00, -0.00, -1.00, 254.6, 167.1)">n</text><text xml:space="preserve" font-family="Chalkduster,Chalkduster" font-size="34.6" fill="#FEFFFE" transform="matrix(1.00, 0.00, -0.00, -1.00, 280.8, 167.1)">u</text><text xml:space="preserve" font-family="Chalkduster,Chalkduster" font-size="34.6" fill="#FEFFFE" transform="matrix(1.00, 0.00, -0.00, -1.00, 304.6, 167.1)">o</text><text xml:space="preserve" font-family="Chalkduster,Chalkduster" font-size="34.6" fill="#FEFFFE" transform="matrix(1.00, 0.00, -0.00, -1.00, 330.5, 167.1)">u</text><text xml:space="preserve" font-family="Chalkduster,Chalkduster" font-size="34.6" fill="#FEFFFE" transform="matrix(1.00, 0.00, -0.00, -1.00, 355.2, 167.1)">s</text><text xml:space="preserve" font-family="Chalkduster,Chalkduster" font-size="34.6" fill="#FEFFFE" transform="matrix(1.00, 0.00, -0.00, -1.00, 372.7, 167.1)"> </text><text xml:space="preserve" font-family="Chalkduster,Chalkduster" font-size="34.6" fill="#FEFFFE" transform="matrix(1.00, 0.00, -0.00, -1.00, 389.9, 167.1)">I</text><text xml:space="preserve" font-family="Chalkduster,Chalkduster" font-size="34.6" fill="#FEFFFE" transform="matrix(1.00, 0.00, -0.00, -1.00, 410.4, 167.1)">n</text><text xml:space="preserve" font-family="Chalkduster,Chalkduster" font-size="34.6" fill="#FEFFFE" transform="matrix(1.00, 0.00, -0.00, -1.00, 434.5, 167.1)">t</text><text xml:space="preserve" font-family="Chalkduster,Chalkduster" font-size="34.6" fill="#FEFFFE" transform="matrix(1.00, 0.00, -0.00, -1.00, 449.9, 167.1)">e</text><text xml:space="preserve" font-family="Chalkduster,Chalkduster" font-size="34.6" fill="#FEFFFE" transform="matrix(1.00, 0.00, -0.00, -1.00, 470.3, 167.1)">g</text><text xml:space="preserve" font-family="Chalkduster,Chalkduster" font-size="34.6" fill="#FEFFFE" transform="matrix(1.00, 0.00, -0.00, -1.00, 494.8, 167.1)">r</text><text xml:space="preserve" font-family="Chalkduster,Chalkduster" font-size="34.6" fill="#FEFFFE" transform="matrix(1.00, 0.00, -0.00, -1.00, 513.0, 167.1)">a</text><text xml:space="preserve" font-family="Chalkduster,Chalkduster" font-size="34.6" fill="#FEFFFE" transform="matrix(1.00, 0.00, -0.00, -1.00, 534.5, 167.1)">t</text><text xml:space="preserve" font-family="Chalkduster,Chalkduster" font-size="34.6" fill="#FEFFFE" transform="matrix(1.00, 0.00, -0.00, -1.00, 550.5, 167.1)">i</text><text xml:space="preserve" font-family="Chalkduster,Chalkduster" font-size="34.6" fill="#FEFFFE" transform="matrix(1.00, 0.00, -0.00, -1.00, 564.1, 167.1)">o</text><text xml:space="preserve" font-family="Chalkduster,Chalkduster" font-size="34.6" fill="#FEFFFE" transform="matrix(1.00, 0.00, -0.00, -1.00, 589.8, 167.1)">n</text><text xml:space="preserve" font-family="Chalkduster,Chalkduster" font-size="34.6" fill="#FEFFFE" transform="matrix(1.00, 0.00, -0.00, -1.00, 614.1, 167.1)">,</text><text xml:space="preserve" font-family="Chalkduster,Chalkduster" font-size="34.6" fill="#FEFFFE" transform="matrix(1.00, 0.00, -0.00, -1.00, 624.8, 167.1)"> </text><text xml:space="preserve" font-family="Chalkduster,Chalkduster" font-size="34.6" fill="#FEFFFE" transform="matrix(1.00, 0.00, -0.00, -1.00, 639.6, 167.1)">A</text><text xml:space="preserve" font-family="Chalkduster,Chalkduster" font-size="34.6" fill="#FEFFFE" transform="matrix(1.00, 0.00, -0.00, -1.00, 665.2, 167.1)">g</text><text xml:space="preserve" font-family="Chalkduster,Chalkduster" font-size="34.6" fill="#FEFFFE" transform="matrix(1.00, 0.00, -0.00, -1.00, 689.9, 167.1)">i</text><text xml:space="preserve" font-family="Chalkduster,Chalkduster" font-size="34.6" fill="#FEFFFE" transform="matrix(1.00, 0.00, -0.00, -1.00, 703.9, 167.1)">l</text><text xml:space="preserve" font-family="Chalkduster,Chalkduster" font-size="34.6" fill="#FEFFFE" transform="matrix(1.00, 0.00, -0.00, -1.00, 718.2, 167.1)">e</text><text xml:space="preserve" font-family="Chalkduster,Chalkduster" font-size="34.6" fill="#FEFFFE" transform="matrix(1.00, 0.00, -0.00, -1.00, 739.7, 167.1)"> </text><text xml:space="preserve" font-family="Chalkduster,Chalkduster" font-size="34.6" fill="#FEFFFE" transform="matrix(1.00, 0.00, -0.00, -1.00, 147.2, 114.1)">d</text><text xml:space="preserve" font-family="Chalkduster,Chalkduster" font-size="34.6" fill="#FEFFFE" transform="matrix(1.00, 0.00, -0.00, -1.00, 174.2, 114.1)">e</text><text xml:space="preserve" font-family="Chalkduster,Chalkduster" font-size="34.6" fill="#FEFFFE" transform="matrix(1.00, 0.00, -0.00, -1.00, 195.4, 114.1)">v</text><text xml:space="preserve" font-family="Chalkduster,Chalkduster" font-size="34.6" fill="#FEFFFE" transform="matrix(1.00, 0.00, -0.00, -1.00, 216.7, 114.1)">e</text><text xml:space="preserve" font-family="Chalkduster,Chalkduster" font-size="34.6" fill="#FEFFFE" transform="matrix(1.00, 0.00, -0.00, -1.00, 238.1, 114.1)">l</text><text xml:space="preserve" font-family="Chalkduster,Chalkduster" font-size="34.6" fill="#FEFFFE" transform="matrix(1.00, 0.00, -0.00, -1.00, 253.0, 114.1)">o</text><text xml:space="preserve" font-family="Chalkduster,Chalkduster" font-size="34.6" fill="#FEFFFE" transform="matrix(1.00, 0.00, -0.00, -1.00, 278.2, 114.1)">p</text><text xml:space="preserve" font-family="Chalkduster,Chalkduster" font-size="34.6" fill="#FEFFFE" transform="matrix(1.00, 0.00, -0.00, -1.00, 299.5, 114.1)">m</text><text xml:space="preserve" font-family="Chalkduster,Chalkduster" font-size="34.6" fill="#FEFFFE" transform="matrix(1.00, 0.00, -0.00, -1.00, 335.3, 114.1)">e</text><text xml:space="preserve" font-family="Chalkduster,Chalkduster" font-size="34.6" fill="#FEFFFE" transform="matrix(1.00, 0.00, -0.00, -1.00, 357.1, 114.1)">n</text><text xml:space="preserve" font-family="Chalkduster,Chalkduster" font-size="34.6" fill="#FEFFFE" transform="matrix(1.00, 0.00, -0.00, -1.00, 381.1, 114.1)">t</text><text xml:space="preserve" font-family="Chalkduster,Chalkduster" font-size="34.6" fill="#FEFFFE" transform="matrix(1.00, 0.00, -0.00, -1.00, 392.4, 114.1)">,</text><text xml:space="preserve" font-family="Chalkduster,Chalkduster" font-size="34.6" fill="#FEFFFE" transform="matrix(1.00, 0.00, -0.00, -1.00, 403.1, 114.1)"> </text><text xml:space="preserve" font-family="Chalkduster,Chalkduster" font-size="34.6" fill="#FEFFFE" transform="matrix(1.00, 0.00, -0.00, -1.00, 420.3, 114.1)">e</text><text xml:space="preserve" font-family="Chalkduster,Chalkduster" font-size="34.6" fill="#FEFFFE" transform="matrix(1.00, 0.00, -0.00, -1.00, 441.4, 114.1)">t</text><text xml:space="preserve" font-family="Chalkduster,Chalkduster" font-size="34.6" fill="#FEFFFE" transform="matrix(1.00, 0.00, -0.00, -1.00, 456.0, 114.1)">c</text><text xml:space="preserve" font-family="Chalkduster,Chalkduster" font-size="34.6" fill="#FEFFFE" transform="matrix(1.00, 0.00, -0.00, -1.00, 477.7, 114.1)"> </text><text xml:space="preserve" font-family="Chalkduster,Chalkduster" font-size="34.6" fill="#FEFFFE" transform="matrix(1.00, 0.00, -0.00, -1.00, 494.9, 114.1)">e</text><text xml:space="preserve" font-family="Chalkduster,Chalkduster" font-size="34.6" fill="#FEFFFE" transform="matrix(1.00, 0.00, -0.00, -1.00, 516.0, 114.1)">t</text><text xml:space="preserve" font-family="Chalkduster,Chalkduster" font-size="34.6" fill="#FEFFFE" transform="matrix(1.00, 0.00, -0.00, -1.00, 530.7, 114.1)">c</text></g></svg>