<?xml version="1.0" encoding="UTF-8" standalone="no"?><svg xmlns="http://www.w3.org/2000/svg" xmlns:xlink="http://www.w3.org/1999/xlink" clip-rule="evenodd" stroke-miterlimit="10" viewBox="0 0 1024 768"><desc>SVG generated by Keynote</desc><defs></defs><g transform="matrix(1.00, 0.00, -0.00, -1.00, 0.0, 768.0)"><g><clipPath id="clip0x7ff6ad22d6a0"><path d="M 0.0 768.0 L 1024.0 768.0 L 1024.0 0.0 L 0.0 0.0 Z M 0.0 768.0 "></path></clipPath><g clip-path="url(#clip0x7ff6ad22d6a0)"><image xlink:href="../../2454F38C-308E-4D93-86A7-ACF877EF01F7/assets/D54D7AAA5FD1EC733BC359F041C689F1.jpeg" width="2048.00" height="1536.00" transform="matrix(0.50, 0.00, -0.00, -0.50, 0.0, 768.0)"></image></g></g><text xml:space="preserve" font-family="Chalkduster,Chalkduster" font-size="20.0" fill="#FEFFFE" transform="matrix(1.00, 0.00, -0.00, -1.00, 359.0, 21.6)">b</text><text xml:space="preserve" font-family="Chalkduster,Chalkduster" font-size="20.0" fill="#FEFFFE" transform="matrix(1.00, 0.00, -0.00, -1.00, 370.0, 21.6)">y</text><text xml:space="preserve" font-family="Chalkduster,Chalkduster" font-size="20.0" fill="#FEFFFE" transform="matrix(1.00, 0.00, -0.00, -1.00, 382.2, 21.6)"> </text><text xml:space="preserve" font-family="Chalkduster,Chalkduster" font-size="20.0" fill="#FEFFFE" transform="matrix(1.00, 0.00, -0.00, -1.00, 392.1, 21.6)">C</text><text xml:space="preserve" font-family="Chalkduster,Chalkduster" font-size="20.0" fill="#FEFFFE" transform="matrix(1.00, 0.00, -0.00, -1.00, 408.4, 21.6)">a</text><text xml:space="preserve" font-family="Chalkduster,Chalkduster" font-size="20.0" fill="#FEFFFE" transform="matrix(1.00, 0.00, -0.00, -1.00, 421.1, 21.6)">r</text><text xml:space="preserve" font-family="Chalkduster,Chalkduster" font-size="20.0" fill="#FEFFFE" transform="matrix(1.00, 0.00, -0.00, -1.00, 432.1, 21.6)">l</text><text xml:space="preserve" font-family="Chalkduster,Chalkduster" font-size="20.0" fill="#FEFFFE" transform="matrix(1.00, 0.00, -0.00, -1.00, 440.7, 21.6)">o</text><text xml:space="preserve" font-family="Chalkduster,Chalkduster" font-size="20.0" fill="#FEFFFE" transform="matrix(1.00, 0.00, -0.00, -1.00, 455.1, 21.6)"> </text><text xml:space="preserve" font-family="Chalkduster,Chalkduster" font-size="20.0" fill="#FEFFFE" transform="matrix(1.00, 0.00, -0.00, -1.00, 463.7, 21.6)">A</text><text xml:space="preserve" font-family="Chalkduster,Chalkduster" font-size="20.0" fill="#FEFFFE" transform="matrix(1.00, 0.00, -0.00, -1.00, 478.5, 21.6)">l</text><text xml:space="preserve" font-family="Chalkduster,Chalkduster" font-size="20.0" fill="#FEFFFE" transform="matrix(1.00, 0.00, -0.00, -1.00, 487.9, 21.6)">b</text><text xml:space="preserve" font-family="Chalkduster,Chalkduster" font-size="20.0" fill="#FEFFFE" transform="matrix(1.00, 0.00, -0.00, -1.00, 499.5, 21.6)">e</text><text xml:space="preserve" font-family="Chalkduster,Chalkduster" font-size="20.0" fill="#FEFFFE" transform="matrix(1.00, 0.00, -0.00, -1.00, 511.7, 21.6)">r</text><text xml:space="preserve" font-family="Chalkduster,Chalkduster" font-size="20.0" fill="#FEFFFE" transform="matrix(1.00, 0.00, -0.00, -1.00, 522.2, 21.6)">t</text><text xml:space="preserve" font-family="Chalkduster,Chalkduster" font-size="20.0" fill="#FEFFFE" transform="matrix(1.00, 0.00, -0.00, -1.00, 530.5, 21.6)">o</text><text xml:space="preserve" font-family="Chalkduster,Chalkduster" font-size="20.0" fill="#FEFFFE" transform="matrix(1.00, 0.00, -0.00, -1.00, 544.9, 21.6)"> </text><text xml:space="preserve" font-family="Chalkduster,Chalkduster" font-size="20.0" fill="#FEFFFE" transform="matrix(1.00, 0.00, -0.00, -1.00, 554.8, 21.6)">D</text><text xml:space="preserve" font-family="Chalkduster,Chalkduster" font-size="20.0" fill="#FEFFFE" transform="matrix(1.00, 0.00, -0.00, -1.00, 568.6, 21.6)">e</text><text xml:space="preserve" font-family="Chalkduster,Chalkduster" font-size="20.0" fill="#FEFFFE" transform="matrix(1.00, 0.00, -0.00, -1.00, 580.4, 21.6)">g</text><text xml:space="preserve" font-family="Chalkduster,Chalkduster" font-size="20.0" fill="#FEFFFE" transform="matrix(1.00, 0.00, -0.00, -1.00, 594.9, 21.6)">l</text><text xml:space="preserve" font-family="Chalkduster,Chalkduster" font-size="20.0" fill="#FEFFFE" transform="matrix(1.00, 0.00, -0.00, -1.00, 604.5, 21.6)">i</text><text xml:space="preserve" font-family="Chalkduster,Chalkduster" font-size="20.0" fill="#FEFFFE" transform="matrix(1.00, 0.00, -0.00, -1.00, 612.4, 21.6)"> </text><text xml:space="preserve" font-family="Chalkduster,Chalkduster" font-size="20.0" fill="#FEFFFE" transform="matrix(1.00, 0.00, -0.00, -1.00, 620.9, 21.6)">A</text><text xml:space="preserve" font-family="Chalkduster,Chalkduster" font-size="20.0" fill="#FEFFFE" transform="matrix(1.00, 0.00, -0.00, -1.00, 635.5, 21.6)">t</text><text xml:space="preserve" font-family="Chalkduster,Chalkduster" font-size="20.0" fill="#FEFFFE" transform="matrix(1.00, 0.00, -0.00, -1.00, 643.8, 21.6)">t</text><text xml:space="preserve" font-family="Chalkduster,Chalkduster" font-size="20.0" fill="#FEFFFE" transform="matrix(1.00, 0.00, -0.00, -1.00, 653.1, 21.6)">i</text><text xml:space="preserve" font-family="Chalkduster,Chalkduster" font-size="20.0" fill="#FEFFFE" transform="matrix(1.00, 0.00, -0.00, -1.00, 661.0, 21.6)"> </text><text xml:space="preserve" font-family="Chalkduster,Chalkduster" font-size="20.0" fill="#FEFFFE" transform="matrix(1.00, 0.00, -0.00, -1.00, 670.9, 21.6)">(</text><text xml:space="preserve" font-family="Chalkduster,Chalkduster" font-size="20.0" fill="#FEFFFE" transform="matrix(1.00, 0.00, -0.00, -1.00, 679.6, 21.6)">@</text><text xml:space="preserve" font-family="Chalkduster,Chalkduster" font-size="20.0" fill="#FEFFFE" transform="matrix(1.00, 0.00, -0.00, -1.00, 696.4, 21.6)">l</text><text xml:space="preserve" font-family="Chalkduster,Chalkduster" font-size="20.0" fill="#FEFFFE" transform="matrix(1.00, 0.00, -0.00, -1.00, 705.0, 21.6)">o</text><text xml:space="preserve" font-family="Chalkduster,Chalkduster" font-size="20.0" fill="#FEFFFE" transform="matrix(1.00, 0.00, -0.00, -1.00, 719.5, 21.6)">r</text><text xml:space="preserve" font-family="Chalkduster,Chalkduster" font-size="20.0" fill="#FEFFFE" transform="matrix(1.00, 0.00, -0.00, -1.00, 730.2, 21.6)">d</text><text xml:space="preserve" font-family="Chalkduster,Chalkduster" font-size="20.0" fill="#FEFFFE" transform="matrix(1.00, 0.00, -0.00, -1.00, 745.8, 21.6)">K</text><text xml:space="preserve" font-family="Chalkduster,Chalkduster" font-size="20.0" fill="#FEFFFE" transform="matrix(1.00, 0.00, -0.00, -1.00, 759.0, 21.6)">a</text><text xml:space="preserve" font-family="Chalkduster,Chalkduster" font-size="20.0" fill="#FEFFFE" transform="matrix(1.00, 0.00, -0.00, -1.00, 772.1, 21.6)">d</text><text xml:space="preserve" font-family="Chalkduster,Chalkduster" font-size="20.0" fill="#FEFFFE" transform="matrix(1.00, 0.00, -0.00, -1.00, 787.7, 21.6)">a</text><text xml:space="preserve" font-family="Chalkduster,Chalkduster" font-size="20.0" fill="#FEFFFE" transform="matrix(1.00, 0.00, -0.00, -1.00, 801.5, 21.6)">)</text><text xml:space="preserve" font-family="Chalkduster,Chalkduster" font-size="20.0" fill="#FEFFFE" transform="matrix(1.00, 0.00, -0.00, -1.00, 811.6, 21.6)"> </text><image xlink:href="../../2454F38C-308E-4D93-86A7-ACF877EF01F7/assets/6AAA538A2569BEA3BCD2D4F395995DA8.png" width="88.00" height="31.00" transform="matrix(1.09, 0.00, -0.00, -1.10, 252.0, 47.0)"></image><text xml:space="preserve" font-family="Chalkduster,Chalkduster" font-size="60.0" fill="#FEFFFE" transform="matrix(1.00, 0.00, -0.00, -1.00, 154.3, 657.8)">B</text><text xml:space="preserve" font-family="Chalkduster,Chalkduster" font-size="60.0" fill="#FEFFFE" transform="matrix(1.00, 0.00, -0.00, -1.00, 194.4, 657.8)">u</text><text xml:space="preserve" font-family="Chalkduster,Chalkduster" font-size="60.0" fill="#FEFFFE" transform="matrix(1.00, 0.00, -0.00, -1.00, 235.6, 657.8)">i</text><text xml:space="preserve" font-family="Chalkduster,Chalkduster" font-size="60.0" fill="#FEFFFE" transform="matrix(1.00, 0.00, -0.00, -1.00, 259.9, 657.8)">l</text><text xml:space="preserve" font-family="Chalkduster,Chalkduster" font-size="60.0" fill="#FEFFFE" transform="matrix(1.00, 0.00, -0.00, -1.00, 288.1, 657.8)">d</text><text xml:space="preserve" font-family="Chalkduster,Chalkduster" font-size="60.0" fill="#FEFFFE" transform="matrix(1.00, 0.00, -0.00, -1.00, 335.0, 657.8)"> </text><text xml:space="preserve" font-family="Chalkduster,Chalkduster" font-size="60.0" fill="#FEFFFE" transform="matrix(1.00, 0.00, -0.00, -1.00, 364.8, 657.8)">S</text><text xml:space="preserve" font-family="Chalkduster,Chalkduster" font-size="60.0" fill="#FEFFFE" transform="matrix(1.00, 0.00, -0.00, -1.00, 394.7, 657.8)">t</text><text xml:space="preserve" font-family="Chalkduster,Chalkduster" font-size="60.0" fill="#FEFFFE" transform="matrix(1.00, 0.00, -0.00, -1.00, 421.5, 657.8)">a</text><text xml:space="preserve" font-family="Chalkduster,Chalkduster" font-size="60.0" fill="#FEFFFE" transform="matrix(1.00, 0.00, -0.00, -1.00, 458.7, 657.8)">t</text><text xml:space="preserve" font-family="Chalkduster,Chalkduster" font-size="60.0" fill="#FEFFFE" transform="matrix(1.00, 0.00, -0.00, -1.00, 486.1, 657.8)">u</text><text xml:space="preserve" font-family="Chalkduster,Chalkduster" font-size="60.0" fill="#FEFFFE" transform="matrix(1.00, 0.00, -0.00, -1.00, 529.1, 657.8)">s</text><text xml:space="preserve" font-family="Chalkduster,Chalkduster" font-size="60.0" fill="#FEFFFE" transform="matrix(1.00, 0.00, -0.00, -1.00, 559.4, 657.8)"> </text><text xml:space="preserve" font-family="Chalkduster,Chalkduster" font-size="60.0" fill="#FEFFFE" transform="matrix(1.00, 0.00, -0.00, -1.00, 589.2, 657.8)">s</text><text xml:space="preserve" font-family="Chalkduster,Chalkduster" font-size="60.0" fill="#FEFFFE" transform="matrix(1.00, 0.00, -0.00, -1.00, 619.5, 657.8)">u</text><text xml:space="preserve" font-family="Chalkduster,Chalkduster" font-size="60.0" fill="#FEFFFE" transform="matrix(1.00, 0.00, -0.00, -1.00, 662.4, 657.8)">l</text><text xml:space="preserve" font-family="Chalkduster,Chalkduster" font-size="60.0" fill="#FEFFFE" transform="matrix(1.00, 0.00, -0.00, -1.00, 690.5, 657.8)"> </text><text xml:space="preserve" font-family="Chalkduster,Chalkduster" font-size="60.0" fill="#FEFFFE" transform="matrix(1.00, 0.00, -0.00, -1.00, 720.4, 657.8)">r</text><text xml:space="preserve" font-family="Chalkduster,Chalkduster" font-size="60.0" fill="#FEFFFE" transform="matrix(1.00, 0.00, -0.00, -1.00, 750.7, 657.8)">e</text><text xml:space="preserve" font-family="Chalkduster,Chalkduster" font-size="60.0" fill="#FEFFFE" transform="matrix(1.00, 0.00, -0.00, -1.00, 788.9, 657.8)">p</text><text xml:space="preserve" font-family="Chalkduster,Chalkduster" font-size="60.0" fill="#FEFFFE" transform="matrix(1.00, 0.00, -0.00, -1.00, 826.7, 657.8)">o</text><image xlink:href="5962DEB4B106F766291B46D177DE2389.png" width="733.00" height="791.00" transform="matrix(0.64, 0.00, -0.00, -0.64, 276.0, 594.0)"></image><path d="M 206.3 199.2 C 206.1 199.5 205.2 199.4 205.0 199.7 M 206.3 199.2 C 205.2 198.2 203.7 198.5 201.6 198.8 C 199.5 199.4 202.0 200.0 201.9 200.5 C 199.3 201.8 199.0 200.9 199.0 199.5 C 198.2 200.7 194.6 200.0 195.7 201.5 C 200.2 200.2 192.7 202.8 196.7 202.7 C 197.2 202.8 196.2 203.6 195.8 203.7 C 197.2 204.0 195.3 205.4 197.5 205.3 C 198.1 206.3 197.6 206.0 199.1 206.4 C 199.7 206.4 199.3 206.1 199.2 205.9 C 199.1 204.6 200.9 206.1 201.8 205.0 C 203.2 206.4 203.6 204.2 202.6 203.8 C 203.6 203.7 205.2 205.1 205.8 203.6 C 206.6 204.3 209.0 203.0 207.2 202.4 C 205.9 202.1 207.0 201.3 207.1 200.9 C 206.6 200.6 205.2 201.6 204.9 201.3 C 205.3 200.9 207.1 199.8 205.0 200.4 C 205.5 199.7 204.4 199.7 206.3 199.2 C 206.3 199.2 206.3 199.2 206.3 199.2 Z M 198.5 200.4 C 198.3 200.0 199.2 200.2 198.5 200.4 C 198.5 200.4 198.5 200.4 198.5 200.4 Z M 205.3 204.7 C 205.1 204.2 206.0 204.5 205.3 204.7 C 205.3 204.7 205.3 204.7 205.3 204.7 Z M 199.6 205.8 C 199.4 205.4 200.3 205.6 199.6 205.8 C 199.6 205.8 199.6 205.8 199.6 205.8 Z M 200.5 200.1 C 201.8 200.2 199.7 201.0 199.4 200.7 C 199.7 200.7 200.1 199.9 200.5 200.1 C 200.5 200.1 200.5 200.1 200.5 200.1 Z M 201.4 202.6 C 201.4 202.4 201.9 202.2 202.0 202.6 C 201.7 202.8 201.3 202.7 201.4 202.6 C 201.4 202.6 201.4 202.6 201.4 202.6 Z M 194.9 202.5 C 195.0 202.3 195.5 202.1 195.5 202.6 C 195.3 202.8 194.9 202.7 194.9 202.5 C 194.9 202.5 194.9 202.5 194.9 202.5 Z M 202.2 200.9 C 202.5 200.9 202.8 201.2 202.4 201.4 C 202.2 201.2 201.3 201.4 202.2 200.9 C 202.2 200.9 202.2 200.9 202.2 200.9 Z M 203.7 198.9 C 204.7 198.9 202.9 200.1 202.9 199.9 C 202.5 199.7 203.0 198.7 203.7 198.9 C 203.7 198.9 203.7 198.9 203.7 198.9 Z M 203.0 201.3 C 203.8 201.3 202.7 201.7 203.0 201.3 C 203.0 201.3 203.0 201.3 203.0 201.3 Z M 196.7 205.4 C 197.5 205.4 196.4 205.8 196.7 205.4 C 196.7 205.4 196.7 205.4 196.7 205.4 Z M 201.4 205.5 C 202.3 205.5 201.2 205.9 201.4 205.5 C 201.4 205.5 201.4 205.5 201.4 205.5 Z M 198.5 201.6 C 197.1 202.0 198.0 200.6 198.5 201.6 C 198.5 201.6 198.5 201.6 198.5 201.6 Z M 206.0 198.2 C 204.5 198.5 205.5 197.1 206.0 198.2 C 206.0 198.2 206.0 198.2 206.0 198.2 Z M 279.7 177.8 C 281.0 177.2 275.4 177.2 277.8 178.3 C 278.8 179.6 275.3 180.4 275.8 178.9 C 274.7 179.0 274.7 179.0 274.3 179.8 C 273.8 178.8 271.2 179.0 270.5 179.8 C 270.3 180.8 272.2 179.4 271.1 180.7 C 268.1 181.9 271.5 181.6 270.7 183.1 C 270.6 183.1 270.4 182.6 270.2 183.0 C 270.4 184.1 272.3 184.3 271.8 185.3 C 272.2 185.1 274.7 185.6 273.5 184.9 C 272.9 184.0 276.3 185.5 275.6 183.9 C 276.6 184.4 277.0 183.2 278.0 183.9 C 278.6 183.9 278.3 183.1 278.2 182.9 C 277.9 182.1 279.3 184.4 279.8 182.8 C 280.0 183.2 282.4 182.3 280.4 182.2 C 281.0 182.2 283.9 181.8 282.0 180.7 C 279.8 180.6 283.6 178.6 281.3 179.2 C 279.5 179.5 279.2 179.9 280.3 178.8 C 280.7 178.8 282.7 178.0 280.8 177.9 C 280.5 178.2 279.6 178.2 279.7 177.8 C 279.7 177.8 279.7 177.8 279.7 177.8 Z M 280.7 179.9 C 279.7 180.2 280.5 179.3 280.7 179.9 C 280.7 179.9 280.7 179.9 280.7 179.9 Z M 277.9 184.3 C 276.9 184.6 277.7 183.7 277.9 184.3 C 277.9 184.3 277.9 184.3 277.9 184.3 Z M 276.4 178.3 C 276.0 178.9 275.4 177.4 276.4 178.3 C 276.4 178.3 276.4 178.3 276.4 178.3 Z M 279.3 182.5 C 279.2 182.6 279.4 182.3 279.6 182.2 C 279.6 182.3 279.4 182.5 279.3 182.5 C 279.3 182.5 279.3 182.5 279.3 182.5 Z M 274.7 178.8 C 273.4 180.0 274.0 177.7 274.7 178.8 C 274.7 178.8 274.7 178.8 274.7 178.8 Z M 272.0 181.1 C 272.2 182.7 270.3 181.3 272.0 181.1 C 272.0 181.1 272.0 181.1 272.0 181.1 Z M 275.1 183.9 C 275.3 183.5 275.4 184.0 275.1 183.9 C 275.1 183.9 275.1 183.9 275.1 183.9 Z M 281.8 182.2 C 282.0 181.8 282.1 182.4 281.8 182.2 C 281.8 182.2 281.8 182.2 281.8 182.2 Z M 273.1 184.3 C 273.1 183.7 273.8 184.4 273.1 184.3 C 273.1 184.3 273.1 184.3 273.1 184.3 Z M 276.3 179.0 C 277.3 177.4 278.5 180.3 276.3 179.0 C 276.3 179.0 276.3 179.0 276.3 179.0 Z M 278.8 178.2 C 279.6 177.6 278.8 179.0 278.3 178.9 C 278.3 178.8 278.6 178.3 278.8 178.2 C 278.8 178.2 278.8 178.2 278.8 178.2 Z M 274.8 179.6 C 275.6 178.7 275.8 179.6 274.8 179.6 C 274.8 179.6 274.8 179.6 274.8 179.6 Z M 277.1 178.2 C 277.6 178.2 276.7 178.5 277.1 178.2 C 277.1 178.2 277.1 178.2 277.1 178.2 Z M 272.6 178.8 C 273.1 178.8 272.2 179.1 272.6 178.8 C 272.6 178.8 272.6 178.8 272.6 178.8 Z M 279.8 177.2 C 280.3 177.2 279.4 177.5 279.8 177.2 C 279.8 177.2 279.8 177.2 279.8 177.2 Z M 273.2 179.5 C 273.2 180.1 274.9 180.9 272.2 180.6 C 271.7 180.3 272.5 179.2 273.2 179.5 C 273.2 179.5 273.2 179.5 273.2 179.5 Z M 209.3 198.4 C 204.4 197.9 206.3 200.6 206.3 201.3 C 205.9 202.2 206.6 202.6 207.6 202.9 C 209.1 204.6 208.5 200.6 209.7 202.3 C 211.6 204.5 210.4 199.7 211.7 202.2 C 211.7 203.0 213.2 201.9 213.0 201.8 C 214.2 202.8 214.8 200.2 214.8 200.0 C 215.5 200.2 216.2 202.5 217.5 200.2 C 218.6 199.2 219.9 201.4 219.1 199.9 C 220.6 201.5 219.6 199.2 220.8 199.5 C 221.8 200.3 220.4 197.9 222.2 199.5 C 222.3 197.8 221.9 200.7 225.0 198.6 C 223.3 199.0 226.2 197.0 225.9 198.2 C 225.0 199.6 227.3 197.3 229.1 197.5 C 229.3 196.9 230.8 194.9 230.9 196.6 C 233.0 197.9 232.2 195.0 233.3 196.3 C 234.0 196.7 233.8 195.4 234.2 195.4 C 235.1 196.3 235.4 195.4 237.5 195.2 C 242.0 194.5 237.3 192.2 238.9 191.4 C 239.0 190.8 235.6 187.8 237.3 190.3 C 236.8 189.6 234.0 193.4 235.0 189.9 C 233.9 191.5 234.9 188.6 232.6 190.8 C 236.9 191.9 228.6 192.9 231.9 190.8 C 231.1 190.4 229.7 190.9 230.9 191.1 C 231.8 192.9 228.1 191.0 230.2 192.9 C 227.8 192.9 228.9 194.8 227.9 193.5 C 226.6 191.2 228.2 194.1 226.8 193.7 C 224.1 194.5 225.4 191.0 224.3 193.4 C 221.3 192.9 224.0 194.6 223.2 195.2 C 223.4 197.0 220.1 194.6 222.1 193.8 C 221.3 195.1 221.7 193.1 220.8 194.5 C 222.1 195.9 218.7 193.3 219.5 194.4 C 218.5 195.1 219.3 195.9 219.0 196.1 C 217.4 196.5 217.4 194.8 217.4 196.1 C 217.3 196.8 215.9 195.0 215.8 195.6 C 217.5 195.2 215.0 197.6 214.5 196.8 C 215.5 196.4 213.4 194.9 213.1 196.3 C 214.9 199.6 211.5 195.8 211.1 197.3 C 212.3 199.0 207.5 198.5 208.9 197.2 C 208.8 197.3 209.3 198.4 209.3 198.4 M 215.4 196.0 C 216.9 195.8 214.1 196.8 215.4 196.0 M 215.3 195.5 C 216.0 196.0 213.8 195.4 215.3 195.2 C 215.3 195.3 215.1 195.5 215.3 195.5 M 220.8 193.8 C 220.8 194.4 220.0 193.7 220.8 193.8 M 222.3 194.7 C 223.3 195.0 221.1 195.2 222.3 194.7 M 234.6 190.8 C 234.2 194.1 232.8 189.6 234.6 190.8 M 226.2 192.6 C 224.8 193.4 226.4 191.2 226.2 192.6 M 226.0 193.4 C 225.4 194.1 225.6 192.8 226.0 193.4 M 232.2 191.5 C 232.4 191.5 232.4 191.5 232.2 191.5 C 232.2 191.5 232.2 191.5 232.2 191.5 Z M 235.9 190.5 C 235.9 190.5 235.9 190.5 235.9 190.5 C 235.9 190.5 235.9 190.5 235.9 190.5 Z M 228.7 192.8 C 227.4 192.4 230.5 192.0 228.7 192.8 C 228.7 192.8 228.7 192.8 228.7 192.8 Z M 235.4 195.4 C 235.4 195.5 235.4 195.5 235.4 195.4 C 235.4 195.4 235.4 195.4 235.4 195.4 Z M 214.7 197.6 C 214.7 197.6 214.7 197.6 214.7 197.6 C 214.7 197.6 214.7 197.6 214.7 197.6 Z M 210.2 197.7 C 210.4 198.1 209.4 197.6 210.2 197.7 C 210.2 197.7 210.2 197.7 210.2 197.7 Z M 207.8 201.9 C 207.7 202.0 207.7 202.0 207.8 201.9 C 207.8 201.9 207.8 201.9 207.8 201.9 Z M 213.8 199.5 C 213.7 199.6 213.7 199.6 213.8 199.5 C 213.8 199.5 213.8 199.5 213.8 199.5 Z M 213.8 197.2 C 212.6 195.8 215.5 197.2 213.8 197.2 C 213.8 197.2 213.8 197.2 213.8 197.2 Z M 228.5 197.2 C 228.3 196.5 229.5 197.2 228.5 197.2 C 228.5 197.2 228.5 197.2 228.5 197.2 Z M 222.6 195.3 C 222.7 194.9 223.3 195.3 222.6 195.3 C 222.6 195.3 222.6 195.3 222.6 195.3 Z M 219.7 193.8 C 219.8 193.4 220.4 193.8 219.7 193.8 C 219.7 193.8 219.7 193.8 219.7 193.8 Z M 210.2 197.2 C 210.3 197.1 210.3 197.1 210.2 197.2 C 210.2 197.2 210.2 197.2 210.2 197.2 Z M 212.0 198.0 C 210.6 196.8 213.9 198.4 212.0 198.0 C 212.0 198.0 212.0 198.0 212.0 198.0 Z M 210.4 198.9 C 211.1 199.4 208.9 199.1 210.4 198.9 M 212.0 200.9 C 213.1 199.9 211.6 203.9 212.0 200.9 C 212.0 200.9 212.0 200.9 212.0 200.9 Z M 218.7 199.7 C 218.8 199.7 218.8 199.7 218.7 199.7 C 218.7 199.7 218.7 199.7 218.7 199.7 Z M 216.8 195.5 C 217.9 195.3 216.1 196.1 216.8 195.5 C 216.8 195.5 216.8 195.5 216.8 195.5 Z M 206.9 198.0 C 208.1 197.7 206.3 198.5 206.9 198.0 C 206.9 198.0 206.9 198.0 206.9 198.0 Z M 222.0 197.2 C 223.8 196.4 221.1 198.3 222.0 197.2 C 222.0 197.2 222.0 197.2 222.0 197.2 Z M 228.3 193.6 C 228.3 193.6 228.3 193.6 228.3 193.6 C 228.3 193.6 228.3 193.6 228.3 193.6 Z M 229.3 192.6 C 229.4 192.6 229.4 192.6 229.3 192.6 C 229.3 192.6 229.3 192.6 229.3 192.6 Z M 235.0 192.7 C 235.1 192.7 235.1 192.7 235.0 192.7 C 235.0 192.7 235.0 192.7 235.0 192.7 Z M 230.3 191.6 C 230.3 191.6 230.3 191.6 230.3 191.6 C 230.3 191.6 230.3 191.6 230.3 191.6 Z M 234.0 190.9 C 234.1 191.0 234.1 191.0 234.0 190.9 C 234.0 190.9 234.0 190.9 234.0 190.9 Z M 233.1 189.8 C 233.2 189.8 233.2 189.8 233.1 189.8 C 233.1 189.8 233.1 189.8 233.1 189.8 Z M 226.9 198.6 C 227.0 198.6 227.0 198.6 226.9 198.6 C 226.9 198.6 226.9 198.6 226.9 198.6 Z M 212.0 196.2 C 212.2 196.3 212.2 196.3 212.0 196.2 C 212.0 196.2 212.0 196.2 212.0 196.2 Z M 233.9 191.6 C 233.9 191.6 233.9 191.6 233.9 191.6 C 233.9 191.6 233.9 191.6 233.9 191.6 Z M 225.4 195.3 C 225.8 196.5 224.2 193.8 225.6 195.1 C 225.6 195.2 225.3 195.1 225.4 195.3 M 227.2 197.0 C 227.1 197.1 227.1 197.1 227.2 197.0 C 227.2 197.0 227.2 197.0 227.2 197.0 Z M 223.4 198.9 C 223.3 199.0 223.3 199.0 223.4 198.9 C 223.4 198.9 223.4 198.9 223.4 198.9 Z M 229.6 191.5 C 229.2 190.8 230.7 191.8 229.4 191.6 M 235.7 194.9 C 235.3 194.2 236.8 195.1 235.5 194.9 M 205.8 198.8 C 205.8 199.4 205.0 198.7 205.8 198.8 M 222.7 199.9 C 222.7 200.5 221.8 199.8 222.7 199.9 M 224.1 197.7 C 223.7 197.0 225.2 198.0 223.9 197.8 M 232.9 195.6 C 233.0 195.6 233.0 195.6 232.9 195.6 C 232.9 195.6 232.9 195.6 232.9 195.6 Z M 218.5 195.2 C 218.6 195.2 218.6 195.2 218.5 195.2 C 218.5 195.2 218.5 195.2 218.5 195.2 Z M 223.8 195.3 C 222.9 194.5 224.9 195.7 223.8 195.3 M 217.6 197.3 C 216.3 196.4 219.2 197.3 217.6 197.3 M 237.8 194.6 C 236.3 193.4 238.8 195.1 237.8 194.6 M 231.4 192.4 C 229.9 191.3 232.4 193.0 231.4 192.4 M 219.7 195.5 C 219.4 194.8 220.9 195.7 219.7 195.5 M 208.3 198.0 C 207.2 198.1 209.5 197.0 208.3 198.0 M 230.3 196.4 C 230.3 196.4 230.3 196.4 230.3 196.4 C 230.3 196.4 230.3 196.4 230.3 196.4 Z M 213.2 202.6 C 213.3 202.6 213.3 202.6 213.2 202.6 C 213.2 202.6 213.2 202.6 213.2 202.6 Z M 237.9 189.4 C 237.9 189.4 237.9 189.4 237.9 189.4 C 237.9 189.4 237.9 189.4 237.9 189.4 Z M 230.9 193.3 C 231.0 193.4 231.0 193.4 230.9 193.3 C 230.9 193.3 230.9 193.3 230.9 193.3 Z M 235.7 189.8 C 235.8 189.9 235.8 189.9 235.7 189.8 C 235.7 189.8 235.7 189.8 235.7 189.8 Z M 227.9 195.4 C 227.9 195.4 227.9 195.4 227.9 195.4 C 227.9 195.4 227.9 195.4 227.9 195.4 Z M 226.2 191.9 C 226.2 191.9 226.2 191.9 226.2 191.9 C 226.2 191.9 226.2 191.9 226.2 191.9 Z M 222.9 194.5 C 222.9 194.5 222.9 194.5 222.9 194.5 C 222.9 194.5 222.9 194.5 222.9 194.5 Z M 227.9 191.7 C 230.1 190.8 227.1 193.2 227.9 191.7 C 227.9 191.7 227.9 191.7 227.9 191.7 Z M 225.1 196.5 C 225.2 196.5 225.2 196.5 225.1 196.5 C 225.1 196.5 225.1 196.5 225.1 196.5 Z M 224.1 193.9 C 225.2 192.5 225.3 195.5 224.1 193.9 M 217.7 194.8 C 218.0 194.1 218.2 195.6 217.7 194.8 M 216.6 200.4 C 216.6 200.4 216.6 200.4 216.6 200.4 C 216.6 200.4 216.6 200.4 216.6 200.4 Z M 217.2 199.8 C 217.2 199.8 217.2 199.8 217.2 199.8 C 217.2 199.8 217.2 199.8 217.2 199.8 Z M 216.1 195.0 C 216.2 195.0 216.2 195.0 216.1 195.0 C 216.1 195.0 216.1 195.0 216.1 195.0 Z M 217.6 201.2 C 217.7 201.2 217.7 201.2 217.6 201.2 C 217.6 201.2 217.6 201.2 217.6 201.2 Z M 225.3 192.2 C 225.4 192.2 225.4 192.2 225.3 192.2 C 225.3 192.2 225.3 192.2 225.3 192.2 Z M 236.7 189.0 C 236.7 189.0 236.7 189.0 236.7 189.0 C 236.7 189.0 236.7 189.0 236.7 189.0 Z M 209.7 201.8 C 209.8 201.8 209.8 201.8 209.7 201.8 C 209.7 201.8 209.7 201.8 209.7 201.8 Z M 226.9 193.3 C 227.0 193.4 227.0 193.4 226.9 193.3 C 226.9 193.3 226.9 193.3 226.9 193.3 Z M 214.9 200.6 C 215.0 200.6 215.0 200.6 214.9 200.6 C 214.9 200.6 214.9 200.6 214.9 200.6 Z M 226.1 193.2 C 226.1 193.2 226.1 193.2 226.1 193.2 C 226.1 193.2 226.1 193.2 226.1 193.2 Z M 230.0 196.8 C 230.0 196.8 230.0 196.8 230.0 196.8 C 230.0 196.8 230.0 196.8 230.0 196.8 Z M 232.7 196.9 C 232.7 196.9 232.7 196.9 232.7 196.9 C 232.7 196.9 232.7 196.9 232.7 196.9 Z M 229.1 194.3 C 229.1 194.3 229.1 194.3 229.1 194.3 C 229.1 194.3 229.1 194.3 229.1 194.3 Z M 213.7 199.2 C 208.9 199.2 217.1 197.6 213.7 199.2 M 229.9 194.4 C 226.7 194.9 232.0 192.2 229.9 194.4 C 230.2 193.9 230.0 194.3 229.9 194.4 M 238.8 188.5 C 237.9 190.2 238.3 191.5 239.2 192.8 C 240.0 193.3 239.3 190.6 239.9 192.9 C 238.6 193.7 241.6 196.2 240.7 193.2 C 242.5 192.2 241.5 195.0 242.4 193.5 C 244.3 192.6 243.5 193.8 245.0 193.2 C 245.5 191.3 246.2 193.7 246.2 192.1 C 245.9 194.0 247.7 191.1 248.0 191.9 C 246.8 193.3 253.5 190.3 249.6 190.9 C 250.9 189.7 251.0 191.2 251.6 191.2 C 252.0 190.0 254.3 191.3 255.0 190.0 C 254.7 189.9 254.2 189.9 254.0 189.7 C 253.6 189.1 255.1 189.5 255.0 189.5 C 255.5 188.9 257.7 187.2 255.5 189.7 C 255.6 190.6 257.6 188.8 257.7 189.5 C 260.0 188.9 257.8 187.7 259.2 188.7 C 260.8 188.2 262.0 187.9 262.0 187.7 C 263.0 187.6 263.5 188.5 264.1 187.3 C 266.6 188.5 264.6 183.5 266.3 186.8 C 266.7 185.8 267.9 187.9 267.2 185.8 C 266.7 186.9 271.1 186.5 268.8 185.4 C 269.2 184.8 272.5 186.8 271.5 184.7 C 272.0 182.8 271.4 181.3 269.0 180.3 C 269.5 181.5 266.5 179.7 268.6 181.4 C 270.5 181.6 265.6 183.0 266.4 182.0 C 266.0 179.3 264.5 184.2 263.0 182.7 C 264.1 183.4 260.2 185.1 260.9 182.9 C 260.1 182.9 260.2 183.9 259.0 183.0 C 261.5 182.5 258.7 185.2 258.5 184.0 C 258.7 183.2 255.0 183.6 255.6 184.6 C 257.6 186.9 254.6 184.3 254.2 185.5 C 252.4 186.6 253.9 183.2 253.0 185.5 C 252.5 185.3 249.9 186.1 251.4 185.1 C 252.1 185.1 250.6 188.4 249.7 186.2 C 252.2 184.2 246.3 186.4 247.5 186.9 C 252.1 186.8 243.3 189.5 246.3 187.4 C 244.1 186.7 246.8 186.7 244.5 187.9 C 245.0 188.5 243.4 189.7 243.4 188.2 C 242.4 186.2 243.6 191.2 241.3 188.7 C 240.7 187.5 238.7 190.5 239.3 188.8 C 239.3 188.6 238.9 188.5 238.8 188.5 M 239.7 188.5 C 239.5 189.1 239.0 188.1 239.7 188.5 M 239.5 189.1 C 239.5 189.0 239.5 189.0 239.5 189.1 C 239.5 189.1 239.5 189.1 239.5 189.1 Z M 244.2 188.1 C 244.1 188.0 244.1 188.0 244.2 188.1 C 244.2 188.1 244.2 188.1 244.2 188.1 Z M 249.3 192.4 C 249.3 192.3 249.3 192.3 249.3 192.4 C 249.3 192.4 249.3 192.4 249.3 192.4 Z M 247.3 187.3 C 247.3 187.3 247.3 187.3 247.3 187.3 C 247.3 187.3 247.3 187.3 247.3 187.3 Z M 242.7 188.9 C 242.6 188.9 242.6 188.9 242.7 188.9 C 242.7 188.9 242.7 188.9 242.7 188.9 Z M 246.8 186.6 C 247.3 187.4 245.6 186.4 246.8 186.5 C 246.9 186.5 246.7 186.6 246.8 186.6 M 250.7 185.2 C 250.8 185.3 250.8 185.3 250.7 185.2 M 261.3 189.0 C 261.3 189.1 261.3 189.1 261.3 189.0 M 260.2 182.4 C 260.3 182.5 260.3 182.5 260.2 182.4 M 254.9 184.9 C 256.1 184.4 255.3 185.2 254.9 184.9 M 263.6 182.0 C 261.9 181.9 265.1 181.1 263.6 182.0 M 264.9 181.1 C 265.1 181.1 265.1 181.1 264.9 181.1 M 258.1 183.4 C 258.1 183.4 258.1 183.4 258.1 183.4 C 258.1 183.4 258.1 183.4 258.1 183.4 Z M 254.3 184.7 C 252.6 184.7 255.7 183.5 254.3 184.7 M 244.5 187.2 C 245.3 186.5 244.8 188.2 244.5 187.2 M 242.8 188.1 C 242.8 188.2 242.8 188.2 242.8 188.1 C 242.8 188.1 242.8 188.1 242.8 188.1 Z M 261.1 182.6 C 261.0 182.7 261.0 182.7 261.1 182.6 C 261.1 182.6 261.1 182.6 261.1 182.6 Z M 262.8 182.0 C 262.8 182.0 262.8 182.0 262.8 182.0 C 262.8 182.0 262.8 182.0 262.8 182.0 Z M 267.4 187.0 C 267.4 187.0 267.4 187.0 267.4 187.0 C 267.4 187.0 267.4 187.0 267.4 187.0 Z M 244.9 190.2 C 243.6 190.1 245.5 187.9 245.7 189.4 C 246.0 190.0 245.0 190.0 244.9 190.2 M 253.6 186.8 C 254.5 188.7 251.7 184.4 253.6 186.8 M 265.5 182.3 C 267.4 184.4 263.5 181.1 265.5 182.3 M 267.8 181.2 C 268.7 181.5 263.4 182.8 266.9 181.1 C 267.1 180.6 267.5 181.1 267.8 181.2 M 251.0 186.1 C 251.7 187.2 249.0 186.2 251.0 186.1 M 259.3 187.4 C 259.7 186.5 261.0 185.5 260.7 186.9 C 261.1 188.4 258.8 188.2 259.3 187.4 M 240.4 189.5 C 240.9 187.5 240.8 191.0 240.4 189.5 M 245.1 188.4 C 245.1 188.3 245.1 188.3 245.1 188.4 C 245.1 188.4 245.1 188.4 245.1 188.4 Z M 246.9 187.6 C 247.0 187.7 247.0 187.7 246.9 187.6 M 240.7 187.8 C 240.8 187.9 240.8 187.9 240.7 187.8 M 258.8 185.6 C 258.9 185.7 258.9 185.7 258.8 185.6 M 254.7 185.4 C 257.0 186.7 253.8 186.1 254.7 185.4 M 251.3 190.0 C 252.0 190.7 250.1 190.4 251.3 190.0 M 257.4 184.0 C 259.2 185.2 256.1 186.0 257.4 184.0 M 253.7 185.5 C 253.8 185.5 253.8 185.5 253.7 185.5 C 253.7 185.5 253.7 185.5 253.7 185.5 Z M 259.8 187.4 C 259.8 187.5 259.8 187.5 259.8 187.4 C 259.8 187.4 259.8 187.4 259.8 187.4 Z M 260.4 187.2 C 260.3 187.3 260.3 187.3 260.4 187.2 C 260.4 187.2 260.4 187.2 260.4 187.2 Z M 259.0 183.3 C 258.9 183.4 258.9 183.4 259.0 183.3 C 259.0 183.3 259.0 183.3 259.0 183.3 Z M 244.0 192.7 C 245.3 192.5 243.1 193.3 244.0 192.7 C 244.0 192.7 244.0 192.7 244.0 192.7 Z M 248.2 186.3 C 250.7 187.0 247.1 187.9 248.2 186.3 C 248.2 186.3 248.2 186.3 248.2 186.3 Z M 251.2 187.7 C 251.3 187.8 251.3 187.8 251.2 187.7 C 251.2 187.7 251.2 187.7 251.2 187.7 Z M 256.3 183.2 C 256.4 183.3 256.4 183.3 256.3 183.2 C 256.3 183.2 256.3 183.2 256.3 183.2 Z M 244.7 192.8 C 244.7 192.9 244.7 192.9 244.7 192.8 C 244.7 192.8 244.7 192.8 244.7 192.8 Z M 262.8 183.2 C 262.8 183.3 262.8 183.3 262.8 183.2 C 262.8 183.2 262.8 183.2 262.8 183.2 Z M 256.5 188.7 C 256.8 187.9 256.7 189.1 256.5 188.7 C 256.5 188.7 256.5 188.7 256.5 188.7 Z M 258.4 188.1 C 258.4 188.1 258.4 188.1 258.4 188.1 C 258.4 188.1 258.4 188.1 258.4 188.1 Z M 265.4 180.8 C 265.4 180.8 265.4 180.8 265.4 180.8 C 265.4 180.8 265.4 180.8 265.4 180.8 Z M 263.7 188.3 C 263.7 188.3 263.7 188.3 263.7 188.3 C 263.7 188.3 263.7 188.3 263.7 188.3 Z M 264.7 185.9 C 264.7 186.0 264.7 186.0 264.7 185.9 C 264.7 185.9 264.7 185.9 264.7 185.9 Z M 258.7 183.8 C 260.5 183.0 258.5 184.7 258.7 183.8 C 258.7 183.8 258.7 183.8 258.7 183.8 Z M 269.2 184.1 C 269.3 184.2 269.3 184.2 269.2 184.1 C 269.2 184.1 269.2 184.1 269.2 184.1 Z M 269.6 181.5 C 269.6 181.6 269.6 181.6 269.6 181.5 C 269.6 181.5 269.6 181.5 269.6 181.5 Z M 269.7 180.2 C 269.8 180.3 269.8 180.3 269.7 180.2 C 269.7 180.2 269.7 180.2 269.7 180.2 Z M 247.5 190.0 C 247.4 189.9 247.4 189.9 247.5 190.0 C 247.5 190.0 247.5 190.0 247.5 190.0 Z M 245.7 186.5 C 245.7 186.5 245.7 186.5 245.7 186.5 C 245.7 186.5 245.7 186.5 245.7 186.5 Z M 248.2 185.6 C 248.2 185.6 248.2 185.6 248.2 185.6 C 248.2 185.6 248.2 185.6 248.2 185.6 Z M 247.7 192.4 C 247.6 192.3 247.6 192.3 247.7 192.4 C 247.7 192.4 247.7 192.4 247.7 192.4 Z M 256.4 186.5 C 256.4 186.5 256.4 186.5 256.4 186.5 C 256.4 186.5 256.4 186.5 256.4 186.5 Z M 257.7 187.8 C 257.7 187.7 257.7 187.7 257.7 187.8 C 257.7 187.8 257.7 187.8 257.7 187.8 Z M 256.1 190.4 C 256.1 190.3 256.1 190.3 256.1 190.4 C 256.1 190.4 256.1 190.4 256.1 190.4 Z M 258.8 188.8 C 258.8 188.8 258.8 188.8 258.8 188.8 C 258.8 188.8 258.8 188.8 258.8 188.8 Z M 241.0 193.5 C 241.0 193.5 241.0 193.5 241.0 193.5 C 241.0 193.5 241.0 193.5 241.0 193.5 Z M 240.0 190.7 C 240.0 190.8 240.0 190.8 240.0 190.7 C 240.0 190.7 240.0 190.7 240.0 190.7 Z M 256.1 184.4 C 256.4 183.7 257.2 184.9 256.1 184.4 M 252.6 185.8 C 252.6 185.8 252.6 185.8 252.6 185.8 C 252.6 185.8 252.6 185.8 252.6 185.8 Z M 262.3 182.7 C 263.1 183.7 260.5 182.7 262.3 182.7 C 262.3 182.7 262.3 182.7 262.3 182.7 Z M 261.7 188.0 C 261.8 188.0 261.8 188.0 261.7 188.0 C 261.7 188.0 261.7 188.0 261.7 188.0 Z M 262.6 187.3 C 262.7 187.4 262.7 187.4 262.6 187.3 C 262.6 187.3 262.6 187.3 262.6 187.3 Z M 267.0 182.7 C 267.1 182.8 267.1 182.8 267.0 182.7 M 251.8 184.9 C 252.5 185.2 252.4 185.2 251.8 184.9 M 263.6 182.4 C 263.6 182.5 263.6 182.5 263.6 182.4 C 263.6 182.4 263.6 182.4 263.6 182.4 Z M 268.0 181.8 C 268.0 181.8 268.0 181.8 268.0 181.8 C 268.0 181.8 268.0 181.8 268.0 181.8 Z M 249.4 186.4 C 249.9 187.7 249.3 187.6 249.4 186.4 M 242.3 188.9 C 242.3 189.0 242.3 189.0 242.3 188.9 C 242.3 188.9 242.3 188.9 242.3 188.9 Z M 242.3 188.9 " fill="#8B2923"></path><path d="M 285.0 194.6 C 285.0 195.3 283.4 196.3 284.3 194.9 C 284.3 194.8 284.9 194.4 285.0 194.6 Z M 287.2 192.3 C 287.0 192.5 286.9 192.6 286.6 192.6 C 286.0 192.5 287.8 191.7 287.2 192.3 Z M 283.5 195.3 C 283.5 195.4 282.8 196.2 282.8 195.9 C 282.8 195.6 283.5 195.2 283.5 195.3 Z M 288.3 189.4 C 288.4 189.6 287.7 190.3 287.5 190.4 C 286.8 190.5 287.9 188.9 288.3 189.4 Z M 279.7 186.9 C 279.7 186.9 279.7 186.8 279.6 186.7 C 279.7 186.8 279.7 186.9 279.7 186.9 Z M 299.0 179.0 C 298.9 179.2 298.5 179.3 298.4 179.1 C 298.2 178.8 299.4 178.5 299.0 179.0 Z M 274.3 169.6 C 274.3 169.6 274.2 170.1 274.0 169.9 C 273.8 169.8 274.1 169.5 274.3 169.6 Z M 274.0 169.7 C 273.8 169.9 273.6 169.5 273.8 169.5 C 274.0 169.5 274.2 169.6 274.0 169.7 Z M 289.2 169.4 C 289.3 169.4 289.4 169.4 289.3 169.5 C 289.2 169.6 288.9 169.4 289.2 169.4 Z M 288.6 169.6 C 288.4 169.9 288.3 169.4 288.5 169.4 C 288.8 169.4 288.9 169.4 288.6 169.6 Z M 285.9 167.4 C 286.1 167.4 286.2 167.4 286.0 167.5 C 285.9 167.6 285.7 167.4 285.9 167.4 Z M 275.6 177.0 C 275.5 176.9 275.4 176.3 275.6 176.3 C 276.0 176.3 275.8 177.2 275.6 177.0 Z M 275.2 176.3 C 275.1 176.5 274.9 176.1 275.1 176.1 C 275.3 176.2 275.4 176.2 275.2 176.3 Z M 276.3 178.4 C 276.6 178.4 276.8 179.0 276.7 179.1 C 276.7 179.3 276.7 179.6 276.7 179.8 C 276.6 179.9 275.9 178.5 276.3 178.4 Z M 277.9 183.0 C 277.8 183.1 277.7 183.0 277.8 182.8 C 277.8 182.6 278.0 183.0 277.9 183.0 Z M 277.0 180.4 C 276.9 180.5 276.8 180.4 276.8 180.2 C 276.9 180.0 277.1 180.4 277.0 180.4 Z M 292.9 185.5 C 293.1 185.5 292.4 186.0 292.3 186.0 C 292.3 186.0 292.5 185.8 292.3 185.9 C 292.1 186.0 292.0 185.2 292.9 185.5 Z M 288.4 191.0 C 288.2 191.1 288.1 191.0 288.0 190.9 C 288.0 190.9 288.6 190.5 288.4 191.0 Z M 291.5 185.6 C 291.5 185.6 291.4 185.8 291.3 185.7 C 291.3 185.7 291.4 185.5 291.5 185.6 Z M 291.7 185.1 C 291.6 185.2 291.2 185.3 291.1 185.1 C 291.0 184.8 292.1 184.5 291.7 185.1 Z M 293.8 185.0 C 293.6 185.1 293.6 185.1 293.6 185.0 C 293.7 184.8 293.8 185.0 293.8 185.0 Z M 291.2 188.2 C 291.0 188.4 291.0 188.4 291.1 188.2 C 291.1 188.1 291.2 188.2 291.2 188.2 Z M 294.7 183.2 C 294.8 183.2 294.6 183.8 294.2 183.6 C 293.6 183.3 294.7 183.2 294.7 183.2 Z M 296.3 180.7 C 296.1 180.8 296.0 180.6 296.2 180.5 C 296.4 180.5 296.4 180.6 296.3 180.7 Z M 296.3 179.3 C 296.6 179.1 296.9 179.1 296.6 179.4 C 296.2 179.7 296.0 179.4 296.3 179.3 Z M 296.1 179.8 C 296.0 179.8 296.2 179.6 296.2 179.7 C 296.3 179.7 296.2 179.9 296.1 179.8 Z M 294.9 182.1 C 294.9 182.4 294.5 182.4 294.7 182.0 C 294.9 181.7 295.0 181.8 294.9 182.1 Z M 279.2 189.7 C 279.3 189.8 279.0 189.9 278.9 189.8 C 278.8 189.7 279.1 189.5 279.2 189.7 Z M 277.4 179.3 C 277.3 179.5 277.2 179.4 277.3 179.1 C 277.3 178.8 277.5 179.1 277.4 179.3 Z M 276.1 172.8 C 276.0 173.0 276.0 172.9 276.0 172.6 C 276.0 172.3 276.2 172.6 276.1 172.8 Z M 278.1 181.9 C 278.1 182.0 277.4 181.5 277.7 181.0 C 278.1 180.5 278.5 181.6 278.1 181.9 Z M 285.0 186.7 C 285.1 186.9 284.9 186.8 284.9 186.8 C 284.9 186.6 284.9 186.6 285.0 186.7 Z M 278.5 180.2 C 278.6 180.4 278.3 180.4 278.2 180.3 C 278.0 180.2 278.4 180.1 278.5 180.2 Z M 276.1 174.0 C 276.0 174.3 275.6 174.3 275.4 174.2 C 274.8 173.8 275.2 173.2 275.4 172.8 C 275.5 172.4 276.1 173.9 276.1 174.0 Z M 280.6 191.0 C 280.6 190.8 280.6 190.6 280.6 190.5 C 280.5 190.5 280.5 190.4 280.6 190.2 C 280.3 189.6 279.6 189.4 279.4 189.0 C 278.7 188.2 279.8 187.5 279.7 186.9 C 279.8 187.1 279.8 187.2 280.0 187.3 C 280.4 187.4 279.6 185.2 279.5 185.1 C 278.7 183.3 279.0 185.6 278.4 185.8 C 278.1 185.9 278.5 184.4 278.5 184.3 C 278.6 183.6 277.9 183.7 278.0 183.1 C 278.1 182.9 279.3 181.7 279.1 181.6 C 278.9 181.4 278.8 180.8 278.8 180.6 C 278.7 180.2 278.5 179.6 278.0 180.1 C 277.7 180.5 277.4 180.7 277.6 180.1 C 277.7 179.7 278.0 177.2 277.0 177.6 C 276.9 177.6 276.7 178.2 276.7 178.2 C 276.3 177.7 276.1 175.7 275.6 175.3 C 274.3 174.6 276.2 175.5 276.4 174.9 C 276.6 173.9 276.8 173.3 276.3 172.3 C 276.2 172.0 275.9 171.0 275.4 171.7 C 275.1 172.1 274.8 172.0 274.9 172.6 C 274.1 172.1 275.0 171.3 274.8 171.2 C 274.4 171.1 274.3 171.6 274.3 171.0 C 274.2 170.4 274.1 170.7 274.6 170.4 C 274.7 170.3 274.7 169.7 274.7 169.7 C 274.8 169.7 274.8 169.7 274.8 169.7 C 274.6 169.2 273.4 168.7 273.6 168.5 C 273.8 168.3 274.5 168.4 274.7 168.3 C 274.7 168.3 274.7 168.2 274.8 168.2 C 274.6 168.0 274.0 167.6 274.1 167.5 C 274.2 167.4 275.2 167.5 274.9 167.3 C 274.6 167.2 274.6 165.9 274.8 165.8 C 275.1 165.6 276.3 165.0 276.3 164.7 C 276.4 164.5 277.1 164.8 277.3 164.8 C 277.5 164.8 277.8 165.3 277.9 165.4 C 278.0 165.5 278.5 165.5 278.5 165.5 C 278.5 165.5 278.8 165.4 279.2 165.5 C 279.6 165.6 279.9 166.0 280.4 166.3 C 280.9 166.6 281.2 166.3 281.7 166.4 C 282.3 166.5 282.5 167.4 282.9 167.6 C 283.3 167.9 283.5 167.2 284.1 167.3 C 284.6 167.4 284.9 167.6 284.7 167.7 C 284.5 167.8 284.6 168.0 284.8 168.0 C 284.9 168.1 285.5 168.4 285.8 168.4 C 286.0 168.3 284.5 167.3 286.6 168.0 C 287.6 168.3 288.2 169.2 287.9 169.1 C 287.1 168.9 288.5 170.4 288.5 170.1 C 288.7 169.7 290.4 170.3 290.1 169.6 C 290.0 169.4 291.9 169.7 292.1 169.9 C 292.3 170.0 293.2 170.1 293.3 170.7 C 293.3 171.0 294.5 170.5 294.7 170.6 C 295.0 170.7 296.3 171.1 296.6 171.4 C 296.8 171.6 296.2 171.4 295.8 171.3 C 295.5 171.2 295.2 170.8 294.9 170.8 C 294.6 170.8 295.1 171.2 295.5 171.4 C 295.8 171.5 295.8 171.8 296.1 172.0 C 296.2 172.0 296.4 172.0 296.7 172.2 C 296.9 172.2 297.0 172.1 297.0 172.1 C 297.0 171.9 296.9 171.7 296.9 171.6 C 297.0 171.6 297.3 171.5 297.7 171.6 C 298.2 171.7 298.5 171.9 299.0 172.2 C 299.5 172.5 299.7 172.4 300.1 172.4 C 300.5 172.5 300.9 172.7 300.9 172.8 C 300.8 172.9 300.3 172.9 300.3 173.0 C 300.2 173.0 300.6 173.5 300.8 173.6 C 301.9 174.0 300.8 174.7 301.8 175.1 C 302.4 175.3 301.6 175.5 301.2 175.7 C 301.3 175.8 301.3 175.9 301.1 176.3 C 301.2 176.4 300.6 176.8 300.4 177.1 C 300.2 177.3 299.5 178.4 299.8 177.6 C 299.8 177.5 299.8 177.4 299.9 177.4 C 299.8 177.4 299.8 177.4 299.8 177.4 C 299.8 177.4 299.7 176.7 299.7 176.7 C 299.7 176.7 299.8 177.4 299.8 177.4 C 299.5 177.3 299.3 177.3 299.1 177.3 C 299.1 177.4 299.1 177.5 299.1 177.6 C 299.1 177.6 299.1 177.6 299.1 177.6 C 299.1 177.6 299.1 177.6 299.1 177.6 C 299.3 177.8 299.2 177.8 299.1 177.9 C 298.9 178.5 297.8 179.0 297.4 179.2 C 297.4 177.5 296.0 179.1 295.6 179.7 C 295.2 180.4 296.3 181.3 296.5 181.1 C 296.2 181.5 295.9 181.4 295.5 181.2 C 295.6 181.2 294.5 181.1 294.6 181.0 C 293.4 181.6 294.5 182.2 294.3 182.5 C 294.2 182.9 294.0 183.2 293.8 183.5 C 293.6 183.8 294.0 183.8 294.0 184.0 C 294.1 184.7 292.8 184.5 292.5 184.8 C 292.6 184.5 292.8 184.1 292.8 183.8 C 292.8 184.3 292.1 184.0 291.9 184.1 C 291.6 184.3 291.3 184.7 291.0 185.0 C 290.6 185.5 290.2 186.1 289.8 186.7 C 290.1 186.6 291.3 186.4 291.4 186.3 C 291.2 186.5 290.6 186.9 291.2 187.0 C 292.1 187.3 290.6 188.3 290.4 188.5 C 289.7 189.0 289.7 190.3 288.3 190.3 C 288.3 190.3 289.1 189.2 289.0 189.1 C 288.2 188.8 287.7 188.8 287.1 189.6 C 287.1 189.7 286.6 191.1 286.6 191.1 C 286.6 191.0 288.8 191.3 287.6 191.8 C 287.4 191.9 287.5 191.3 287.2 191.4 C 286.7 191.6 286.4 192.1 286.1 192.4 C 286.1 192.4 285.4 192.8 285.4 192.8 C 285.4 193.1 285.7 193.4 285.6 193.7 C 285.5 193.9 285.2 194.0 285.0 193.9 C 284.9 193.8 284.9 193.8 284.9 193.8 C 284.8 193.8 284.7 193.8 284.6 193.7 C 284.6 193.8 284.4 193.9 284.2 193.9 C 284.1 193.9 284.3 193.6 284.5 193.6 C 284.5 193.5 284.4 193.4 284.4 193.3 C 284.1 193.6 283.9 194.0 283.9 194.0 C 283.8 194.8 284.0 194.9 282.9 195.1 C 282.0 195.2 280.8 193.3 280.7 191.9 C 280.6 191.7 280.5 191.4 280.6 191.0 Z M 297.3 172.7 C 297.3 172.7 297.2 172.7 297.2 172.7 C 297.2 172.8 297.1 173.0 297.1 173.1 C 297.4 173.3 297.1 172.8 297.4 173.0 C 297.7 173.1 297.7 173.0 297.3 172.7 Z M 297.9 175.7 C 298.2 175.6 298.1 175.6 298.0 175.4 C 297.9 175.5 297.9 175.6 297.9 175.7 Z M 298.8 176.7 C 299.0 176.3 298.2 176.4 297.8 177.0 C 298.4 176.9 298.7 176.8 298.8 176.7 Z M 298.6 177.9 C 298.5 177.8 298.5 177.7 298.4 177.7 C 298.3 177.5 298.2 178.0 298.1 177.8 C 298.0 177.7 298.2 177.2 297.9 177.4 C 297.8 177.4 297.8 177.4 297.7 177.5 C 297.7 177.5 297.7 177.6 297.7 177.6 C 297.7 177.9 298.3 178.1 298.6 177.9 Z M 295.1 173.2 C 295.3 173.2 295.2 173.1 295.1 173.0 C 294.9 173.0 294.9 173.2 295.1 173.2 Z M 293.0 171.3 C 293.2 171.5 293.4 171.5 293.3 171.3 C 293.2 171.1 292.9 171.1 293.0 171.3 Z M 290.8 175.5 C 291.0 175.4 290.9 175.5 290.7 175.4 C 290.5 175.4 290.7 175.6 290.8 175.5 Z M 291.3 177.9 C 291.3 178.1 291.6 178.3 291.6 178.1 C 291.6 177.9 291.4 177.8 291.3 177.9 Z M 290.1 172.5 C 289.9 172.5 290.0 172.7 290.2 172.6 C 290.3 172.5 290.3 172.5 290.1 172.5 Z M 291.5 175.5 C 291.3 175.3 291.2 175.4 291.2 175.5 C 291.1 175.6 291.2 175.8 291.4 175.8 C 291.7 175.8 291.8 175.7 291.5 175.5 Z M 292.3 177.5 C 291.8 177.9 292.0 178.2 292.5 177.5 C 292.9 176.8 292.5 177.2 292.3 177.5 Z M 291.3 170.1 C 291.4 170.1 291.8 170.1 291.8 170.1 C 291.8 170.1 290.9 169.8 291.3 170.1 Z M 293.6 182.9 C 293.8 182.7 293.7 182.4 293.4 182.7 C 293.1 182.9 293.4 183.0 293.6 182.9 Z M 292.1 182.2 C 292.7 182.4 293.1 182.2 293.1 182.2 C 293.0 182.2 292.8 181.8 292.9 181.7 C 293.1 181.2 293.8 181.2 293.9 180.6 C 294.0 180.0 293.2 180.7 293.1 180.9 C 293.2 180.7 293.2 180.6 293.1 180.5 C 292.9 180.4 292.8 180.5 292.8 180.7 C 292.7 181.0 291.5 182.0 292.1 182.2 Z M 290.6 176.6 C 290.9 176.6 291.0 176.4 290.8 176.2 C 290.5 176.0 290.3 175.9 290.2 176.0 C 290.2 176.1 290.3 176.6 290.6 176.6 Z M 289.9 174.9 C 290.1 174.7 290.0 174.7 289.8 174.7 C 289.4 174.6 289.7 175.0 289.9 174.9 Z M 284.5 168.3 C 284.3 168.4 284.7 168.5 284.8 168.4 C 284.8 168.3 284.6 168.2 284.5 168.3 Z M 285.4 171.2 C 284.9 171.3 285.4 171.6 285.5 171.6 C 285.6 171.5 285.7 171.2 285.4 171.2 Z M 287.7 172.5 C 287.4 172.5 287.7 172.7 287.8 172.6 C 288.0 172.6 287.8 172.5 287.7 172.5 Z M 288.2 173.6 C 288.0 173.5 288.1 173.9 288.4 173.8 C 288.5 173.7 288.4 173.6 288.2 173.6 Z M 290.0 183.4 C 290.0 183.4 289.7 183.0 289.7 183.4 C 289.6 183.8 289.6 183.8 290.0 183.4 Z M 289.8 179.7 C 290.1 179.4 290.2 179.1 289.7 178.2 C 289.1 177.4 289.0 177.8 289.0 178.4 C 289.0 179.1 288.2 177.6 288.2 178.8 C 288.3 179.3 289.6 180.0 289.8 179.7 Z M 286.5 174.2 C 287.0 174.6 287.8 174.3 287.2 174.0 C 286.5 173.8 286.0 173.7 286.5 174.2 Z M 286.3 173.8 C 286.4 173.7 286.4 173.7 286.2 173.6 C 286.0 173.6 286.1 173.8 286.3 173.8 Z M 290.7 187.6 C 291.4 186.6 289.9 187.0 289.9 187.0 C 288.8 187.7 290.1 188.7 290.7 187.6 Z M 275.5 170.1 C 275.5 170.1 275.5 170.2 275.5 170.2 C 275.5 170.2 275.5 170.3 275.5 170.3 C 275.7 170.4 275.8 169.9 275.8 169.9 C 275.7 169.9 275.5 170.0 275.5 170.1 Z M 276.9 176.3 C 276.9 176.0 276.8 175.8 276.6 175.7 C 276.1 176.0 276.6 177.8 277.3 176.8 C 277.4 176.7 277.9 175.3 277.4 175.3 C 277.1 175.3 277.1 176.9 276.9 176.3 Z M 277.2 174.1 C 277.3 174.9 277.7 173.3 277.4 173.6 C 277.2 173.7 277.1 173.9 277.2 174.1 Z M 277.3 168.3 C 276.7 167.4 275.3 168.0 276.4 169.3 C 277.6 170.6 278.3 170.5 277.8 169.8 C 277.4 169.1 278.3 169.5 277.3 168.3 Z M 279.5 176.2 C 278.4 176.3 278.9 176.7 279.7 176.7 C 279.9 176.7 280.2 176.1 279.5 176.2 Z M 280.3 178.3 C 280.3 178.7 280.3 178.6 280.4 178.4 C 280.6 178.2 280.4 178.0 280.3 178.3 Z M 278.3 166.3 C 278.1 165.9 277.6 165.8 277.8 165.7 C 278.1 165.6 277.9 165.6 277.7 165.5 C 277.4 165.2 277.5 165.8 277.6 166.0 C 277.7 166.2 278.6 166.6 278.3 166.3 Z M 284.2 173.8 C 284.0 173.7 284.2 173.9 284.4 173.9 C 284.5 173.9 284.5 173.8 284.2 173.8 Z M 287.7 181.8 C 287.7 181.8 287.6 181.6 287.5 181.8 C 287.4 182.1 287.4 182.1 287.7 181.8 Z M 289.2 188.6 C 289.4 188.4 288.9 188.5 288.9 188.1 C 288.8 188.0 289.1 188.1 289.1 188.2 C 289.1 188.1 288.7 187.3 288.6 188.0 C 288.5 188.2 288.9 189.2 289.2 188.6 Z M 284.6 176.2 C 285.1 176.4 284.9 174.9 285.3 175.1 C 285.6 175.2 285.6 175.1 285.2 174.9 C 284.8 174.7 284.2 175.9 284.6 176.2 Z M 283.4 172.6 C 283.5 172.9 284.4 173.3 284.1 173.0 C 283.8 172.6 283.3 172.5 283.6 172.4 C 283.8 172.3 283.7 172.3 283.4 172.1 C 283.1 171.9 283.3 172.4 283.4 172.6 Z M 281.5 166.8 C 281.6 166.9 282.1 167.0 281.8 166.7 C 281.7 166.6 281.4 166.7 281.5 166.8 Z M 285.8 183.4 C 285.8 183.1 285.7 183.1 285.5 183.4 C 285.3 183.7 285.7 183.7 285.8 183.4 Z M 280.6 167.6 C 281.0 167.9 280.6 167.3 281.0 167.5 C 281.3 167.7 281.3 167.5 280.9 167.3 C 280.5 167.1 280.2 167.3 280.6 167.6 Z M 286.4 189.1 C 286.4 188.9 286.2 188.8 286.1 188.9 C 286.0 189.1 286.4 189.3 286.4 189.1 Z M 284.9 187.1 C 285.0 187.1 285.1 187.0 285.1 186.9 C 286.3 185.5 283.9 187.0 284.9 187.1 Z M 284.1 183.6 C 284.4 184.1 284.4 183.4 284.4 183.4 C 284.2 183.4 284.1 183.5 284.1 183.6 Z M 283.0 179.9 C 282.8 179.8 283.0 180.2 283.1 180.1 C 283.3 180.0 283.2 179.9 283.0 179.9 Z M 285.8 192.2 C 286.0 192.1 285.9 192.0 285.7 192.1 C 285.6 192.1 285.6 192.3 285.8 192.2 Z M 283.0 182.9 C 283.1 182.9 283.1 182.9 283.0 182.7 C 282.9 182.6 282.9 182.8 283.0 182.9 Z M 279.7 171.5 C 279.8 171.5 280.0 171.6 280.1 171.7 C 280.2 171.5 280.1 170.8 280.4 170.7 C 280.4 170.7 280.4 170.7 280.4 170.7 C 280.4 170.7 280.4 170.7 280.5 170.7 C 280.6 170.7 280.7 170.7 280.6 170.8 C 280.7 170.9 280.8 171.0 280.8 171.1 C 281.0 170.8 281.1 170.5 280.9 170.4 C 280.6 170.2 280.1 170.3 279.7 170.5 C 279.6 170.6 279.6 170.8 279.6 171.0 C 279.6 171.0 279.6 171.0 279.7 171.0 C 280.0 171.0 280.1 171.2 279.9 171.3 C 279.8 171.3 279.7 171.3 279.6 171.2 C 279.6 171.3 279.7 171.4 279.7 171.5 Z M 282.1 181.6 C 282.3 181.8 282.3 181.6 282.3 181.2 C 282.3 180.9 281.8 181.3 282.1 181.6 Z M 285.3 191.9 C 285.2 191.8 285.2 191.7 285.1 191.6 C 285.1 191.7 285.1 191.8 285.1 191.8 C 285.1 192.0 285.1 192.3 285.1 192.5 C 285.4 192.4 285.5 192.2 285.3 191.9 Z M 283.3 188.9 C 283.4 189.0 283.7 190.4 283.9 190.1 C 284.3 189.5 285.0 190.0 284.5 189.1 C 284.2 188.6 283.4 188.4 283.2 188.0 C 281.9 185.7 282.7 188.8 282.7 189.5 C 282.8 189.6 283.2 188.8 283.3 188.9 Z M 281.7 185.9 C 281.4 185.9 281.2 186.3 281.3 186.5 C 281.6 187.1 282.0 186.0 281.7 185.9 Z M 283.2 192.8 C 283.2 192.8 283.3 192.8 283.4 192.8 C 283.3 192.7 283.2 192.7 283.2 192.7 C 283.2 192.7 283.2 192.8 283.2 192.8 Z M 283.4 194.6 C 284.0 193.8 282.7 194.2 282.4 194.4 C 282.0 194.7 283.1 195.0 283.4 194.6 Z M 281.0 188.1 C 281.0 187.6 279.4 187.4 279.7 188.3 C 280.0 189.0 281.3 189.2 281.0 188.1 Z M 277.8 183.5 C 278.0 183.7 277.9 184.3 277.7 184.0 C 277.5 183.9 277.7 183.5 277.8 183.5 Z M 279.2 191.3 C 279.2 191.1 279.3 191.2 279.3 191.2 C 279.1 191.4 279.1 191.4 279.2 191.3 Z M 280.0 190.3 C 280.0 190.5 280.0 190.8 280.0 191.1 C 280.0 191.2 279.7 190.8 279.7 190.7 C 279.7 190.5 280.0 190.3 280.0 190.3 Z M 279.0 186.2 C 278.9 186.5 278.8 186.1 278.8 186.0 C 278.8 185.8 279.1 186.0 279.0 186.2 Z M 278.9 187.3 C 278.9 187.1 279.1 187.2 279.2 187.4 C 279.2 187.6 278.9 187.4 278.9 187.3 Z M 279.3 185.4 C 279.5 185.8 279.8 186.3 279.4 186.4 C 279.2 186.4 278.8 184.6 279.3 185.4 Z M 279.3 185.4 " fill="#8B2923"></path></g></svg>