<?xml version="1.0" encoding="UTF-8" standalone="no"?><svg xmlns="http://www.w3.org/2000/svg" xmlns:xlink="http://www.w3.org/1999/xlink" clip-rule="evenodd" stroke-miterlimit="10" viewBox="0 0 1024 768"><desc>SVG generated by Keynote</desc><defs></defs><g transform="matrix(1.00, 0.00, -0.00, -1.00, 0.0, 768.0)"><g><clipPath id="clip0x7ff6ad2cf640"><path d="M 0.0 768.0 L 1024.0 768.0 L 1024.0 0.0 L 0.0 0.0 Z M 0.0 768.0 "></path></clipPath><g clip-path="url(#clip0x7ff6ad2cf640)"><image xlink:href="../../2454F38C-308E-4D93-86A7-ACF877EF01F7/assets/D54D7AAA5FD1EC733BC359F041C689F1.jpeg" width="2048.00" height="1536.00" transform="matrix(0.50, 0.00, -0.00, -0.50, 0.0, 768.0)"></image></g></g><text xml:space="preserve" font-family="Chalkduster,Chalkduster" font-size="38.0" fill="#FEFFFE" transform="matrix(1.00, 0.00, -0.00, -1.00, 370.3, 370.5)">G</text><text xml:space="preserve" font-family="Chalkduster,Chalkduster" font-size="38.0" fill="#FEFFFE" transform="matrix(1.00, 0.00, -0.00, -1.00, 412.5, 370.5)">i</text><text xml:space="preserve" font-family="Chalkduster,Chalkduster" font-size="38.0" fill="#FEFFFE" transform="matrix(1.00, 0.00, -0.00, -1.00, 427.9, 370.5)">t</text><text xml:space="preserve" font-family="Chalkduster,Chalkduster" font-size="38.0" fill="#FEFFFE" transform="matrix(1.00, 0.00, -0.00, -1.00, 445.3, 370.5)">H</text><text xml:space="preserve" font-family="Chalkduster,Chalkduster" font-size="38.0" fill="#FEFFFE" transform="matrix(1.00, 0.00, -0.00, -1.00, 468.7, 370.5)">u</text><text xml:space="preserve" font-family="Chalkduster,Chalkduster" font-size="38.0" fill="#FEFFFE" transform="matrix(1.00, 0.00, -0.00, -1.00, 494.8, 370.5)">b</text><text xml:space="preserve" font-family="Chalkduster,Chalkduster" font-size="38.0" fill="#FEFFFE" transform="matrix(1.00, 0.00, -0.00, -1.00, 516.9, 370.5)"> </text><text xml:space="preserve" font-family="Chalkduster,Chalkduster" font-size="38.0" fill="#FEFFFE" transform="matrix(1.00, 0.00, -0.00, -1.00, 535.8, 370.5)">l</text><text xml:space="preserve" font-family="Chalkduster,Chalkduster" font-size="38.0" fill="#FEFFFE" transform="matrix(1.00, 0.00, -0.00, -1.00, 554.1, 370.5)">i</text><text xml:space="preserve" font-family="Chalkduster,Chalkduster" font-size="38.0" fill="#FEFFFE" transform="matrix(1.00, 0.00, -0.00, -1.00, 569.1, 370.5)">v</text><text xml:space="preserve" font-family="Chalkduster,Chalkduster" font-size="38.0" fill="#FEFFFE" transform="matrix(1.00, 0.00, -0.00, -1.00, 592.4, 370.5)">e</text><text xml:space="preserve" font-family="Chalkduster,Chalkduster" font-size="38.0" fill="#FEFFFE" transform="matrix(1.00, 0.00, -0.00, -1.00, 616.0, 370.5)">…</text></g></svg>