<?xml version="1.0" encoding="UTF-8" standalone="no"?><svg xmlns="http://www.w3.org/2000/svg" xmlns:xlink="http://www.w3.org/1999/xlink" clip-rule="evenodd" stroke-miterlimit="10" viewBox="0 0 1024 768"><desc>SVG generated by Keynote</desc><defs></defs><g transform="matrix(1.00, 0.00, -0.00, -1.00, 0.0, 768.0)"><g><clipPath id="clip0x7ff6ae9878b0"><path d="M 0.0 768.0 L 1024.0 768.0 L 1024.0 0.0 L 0.0 0.0 Z M 0.0 768.0 "></path></clipPath><g clip-path="url(#clip0x7ff6ae9878b0)"><image xlink:href="../../2454F38C-308E-4D93-86A7-ACF877EF01F7/assets/D54D7AAA5FD1EC733BC359F041C689F1.jpeg" width="2048.00" height="1536.00" transform="matrix(0.50, 0.00, -0.00, -0.50, 0.0, 768.0)"></image></g></g><text xml:space="preserve" font-family="Chalkduster,Chalkduster" font-size="20.0" fill="#FEFFFE" transform="matrix(1.00, 0.00, -0.00, -1.00, 359.0, 21.6)">b</text><text xml:space="preserve" font-family="Chalkduster,Chalkduster" font-size="20.0" fill="#FEFFFE" transform="matrix(1.00, 0.00, -0.00, -1.00, 370.0, 21.6)">y</text><text xml:space="preserve" font-family="Chalkduster,Chalkduster" font-size="20.0" fill="#FEFFFE" transform="matrix(1.00, 0.00, -0.00, -1.00, 382.2, 21.6)"> </text><text xml:space="preserve" font-family="Chalkduster,Chalkduster" font-size="20.0" fill="#FEFFFE" transform="matrix(1.00, 0.00, -0.00, -1.00, 392.1, 21.6)">C</text><text xml:space="preserve" font-family="Chalkduster,Chalkduster" font-size="20.0" fill="#FEFFFE" transform="matrix(1.00, 0.00, -0.00, -1.00, 408.4, 21.6)">a</text><text xml:space="preserve" font-family="Chalkduster,Chalkduster" font-size="20.0" fill="#FEFFFE" transform="matrix(1.00, 0.00, -0.00, -1.00, 421.1, 21.6)">r</text><text xml:space="preserve" font-family="Chalkduster,Chalkduster" font-size="20.0" fill="#FEFFFE" transform="matrix(1.00, 0.00, -0.00, -1.00, 432.1, 21.6)">l</text><text xml:space="preserve" font-family="Chalkduster,Chalkduster" font-size="20.0" fill="#FEFFFE" transform="matrix(1.00, 0.00, -0.00, -1.00, 440.7, 21.6)">o</text><text xml:space="preserve" font-family="Chalkduster,Chalkduster" font-size="20.0" fill="#FEFFFE" transform="matrix(1.00, 0.00, -0.00, -1.00, 455.1, 21.6)"> </text><text xml:space="preserve" font-family="Chalkduster,Chalkduster" font-size="20.0" fill="#FEFFFE" transform="matrix(1.00, 0.00, -0.00, -1.00, 463.7, 21.6)">A</text><text xml:space="preserve" font-family="Chalkduster,Chalkduster" font-size="20.0" fill="#FEFFFE" transform="matrix(1.00, 0.00, -0.00, -1.00, 478.5, 21.6)">l</text><text xml:space="preserve" font-family="Chalkduster,Chalkduster" font-size="20.0" fill="#FEFFFE" transform="matrix(1.00, 0.00, -0.00, -1.00, 487.9, 21.6)">b</text><text xml:space="preserve" font-family="Chalkduster,Chalkduster" font-size="20.0" fill="#FEFFFE" transform="matrix(1.00, 0.00, -0.00, -1.00, 499.5, 21.6)">e</text><text xml:space="preserve" font-family="Chalkduster,Chalkduster" font-size="20.0" fill="#FEFFFE" transform="matrix(1.00, 0.00, -0.00, -1.00, 511.7, 21.6)">r</text><text xml:space="preserve" font-family="Chalkduster,Chalkduster" font-size="20.0" fill="#FEFFFE" transform="matrix(1.00, 0.00, -0.00, -1.00, 522.2, 21.6)">t</text><text xml:space="preserve" font-family="Chalkduster,Chalkduster" font-size="20.0" fill="#FEFFFE" transform="matrix(1.00, 0.00, -0.00, -1.00, 530.5, 21.6)">o</text><text xml:space="preserve" font-family="Chalkduster,Chalkduster" font-size="20.0" fill="#FEFFFE" transform="matrix(1.00, 0.00, -0.00, -1.00, 544.9, 21.6)"> </text><text xml:space="preserve" font-family="Chalkduster,Chalkduster" font-size="20.0" fill="#FEFFFE" transform="matrix(1.00, 0.00, -0.00, -1.00, 554.8, 21.6)">D</text><text xml:space="preserve" font-family="Chalkduster,Chalkduster" font-size="20.0" fill="#FEFFFE" transform="matrix(1.00, 0.00, -0.00, -1.00, 568.6, 21.6)">e</text><text xml:space="preserve" font-family="Chalkduster,Chalkduster" font-size="20.0" fill="#FEFFFE" transform="matrix(1.00, 0.00, -0.00, -1.00, 580.4, 21.6)">g</text><text xml:space="preserve" font-family="Chalkduster,Chalkduster" font-size="20.0" fill="#FEFFFE" transform="matrix(1.00, 0.00, -0.00, -1.00, 594.9, 21.6)">l</text><text xml:space="preserve" font-family="Chalkduster,Chalkduster" font-size="20.0" fill="#FEFFFE" transform="matrix(1.00, 0.00, -0.00, -1.00, 604.5, 21.6)">i</text><text xml:space="preserve" font-family="Chalkduster,Chalkduster" font-size="20.0" fill="#FEFFFE" transform="matrix(1.00, 0.00, -0.00, -1.00, 612.4, 21.6)"> </text><text xml:space="preserve" font-family="Chalkduster,Chalkduster" font-size="20.0" fill="#FEFFFE" transform="matrix(1.00, 0.00, -0.00, -1.00, 620.9, 21.6)">A</text><text xml:space="preserve" font-family="Chalkduster,Chalkduster" font-size="20.0" fill="#FEFFFE" transform="matrix(1.00, 0.00, -0.00, -1.00, 635.5, 21.6)">t</text><text xml:space="preserve" font-family="Chalkduster,Chalkduster" font-size="20.0" fill="#FEFFFE" transform="matrix(1.00, 0.00, -0.00, -1.00, 643.8, 21.6)">t</text><text xml:space="preserve" font-family="Chalkduster,Chalkduster" font-size="20.0" fill="#FEFFFE" transform="matrix(1.00, 0.00, -0.00, -1.00, 653.1, 21.6)">i</text><text xml:space="preserve" font-family="Chalkduster,Chalkduster" font-size="20.0" fill="#FEFFFE" transform="matrix(1.00, 0.00, -0.00, -1.00, 661.0, 21.6)"> </text><text xml:space="preserve" font-family="Chalkduster,Chalkduster" font-size="20.0" fill="#FEFFFE" transform="matrix(1.00, 0.00, -0.00, -1.00, 670.9, 21.6)">(</text><text xml:space="preserve" font-family="Chalkduster,Chalkduster" font-size="20.0" fill="#FEFFFE" transform="matrix(1.00, 0.00, -0.00, -1.00, 679.6, 21.6)">@</text><text xml:space="preserve" font-family="Chalkduster,Chalkduster" font-size="20.0" fill="#FEFFFE" transform="matrix(1.00, 0.00, -0.00, -1.00, 696.4, 21.6)">l</text><text xml:space="preserve" font-family="Chalkduster,Chalkduster" font-size="20.0" fill="#FEFFFE" transform="matrix(1.00, 0.00, -0.00, -1.00, 705.0, 21.6)">o</text><text xml:space="preserve" font-family="Chalkduster,Chalkduster" font-size="20.0" fill="#FEFFFE" transform="matrix(1.00, 0.00, -0.00, -1.00, 719.5, 21.6)">r</text><text xml:space="preserve" font-family="Chalkduster,Chalkduster" font-size="20.0" fill="#FEFFFE" transform="matrix(1.00, 0.00, -0.00, -1.00, 730.2, 21.6)">d</text><text xml:space="preserve" font-family="Chalkduster,Chalkduster" font-size="20.0" fill="#FEFFFE" transform="matrix(1.00, 0.00, -0.00, -1.00, 745.8, 21.6)">K</text><text xml:space="preserve" font-family="Chalkduster,Chalkduster" font-size="20.0" fill="#FEFFFE" transform="matrix(1.00, 0.00, -0.00, -1.00, 759.0, 21.6)">a</text><text xml:space="preserve" font-family="Chalkduster,Chalkduster" font-size="20.0" fill="#FEFFFE" transform="matrix(1.00, 0.00, -0.00, -1.00, 772.1, 21.6)">d</text><text xml:space="preserve" font-family="Chalkduster,Chalkduster" font-size="20.0" fill="#FEFFFE" transform="matrix(1.00, 0.00, -0.00, -1.00, 787.7, 21.6)">a</text><text xml:space="preserve" font-family="Chalkduster,Chalkduster" font-size="20.0" fill="#FEFFFE" transform="matrix(1.00, 0.00, -0.00, -1.00, 801.5, 21.6)">)</text><text xml:space="preserve" font-family="Chalkduster,Chalkduster" font-size="20.0" fill="#FEFFFE" transform="matrix(1.00, 0.00, -0.00, -1.00, 811.6, 21.6)"> </text><image xlink:href="../../2454F38C-308E-4D93-86A7-ACF877EF01F7/assets/6AAA538A2569BEA3BCD2D4F395995DA8.png" width="88.00" height="31.00" transform="matrix(1.09, 0.00, -0.00, -1.10, 252.0, 47.0)"></image><text xml:space="preserve" font-family="Chalkduster,Chalkduster" font-size="60.0" fill="#FEFFFE" transform="matrix(1.00, 0.00, -0.00, -1.00, 171.2, 630.8)">A</text><text xml:space="preserve" font-family="Chalkduster,Chalkduster" font-size="60.0" fill="#FEFFFE" transform="matrix(1.00, 0.00, -0.00, -1.00, 215.6, 630.8)">r</text><text xml:space="preserve" font-family="Chalkduster,Chalkduster" font-size="60.0" fill="#FEFFFE" transform="matrix(1.00, 0.00, -0.00, -1.00, 246.3, 630.8)">g</text><text xml:space="preserve" font-family="Chalkduster,Chalkduster" font-size="60.0" fill="#FEFFFE" transform="matrix(1.00, 0.00, -0.00, -1.00, 288.6, 630.8)">o</text><text xml:space="preserve" font-family="Chalkduster,Chalkduster" font-size="60.0" fill="#FEFFFE" transform="matrix(1.00, 0.00, -0.00, -1.00, 333.6, 630.8)">m</text><text xml:space="preserve" font-family="Chalkduster,Chalkduster" font-size="60.0" fill="#FEFFFE" transform="matrix(1.00, 0.00, -0.00, -1.00, 395.8, 630.8)">e</text><text xml:space="preserve" font-family="Chalkduster,Chalkduster" font-size="60.0" fill="#FEFFFE" transform="matrix(1.00, 0.00, -0.00, -1.00, 433.6, 630.8)">n</text><text xml:space="preserve" font-family="Chalkduster,Chalkduster" font-size="60.0" fill="#FEFFFE" transform="matrix(1.00, 0.00, -0.00, -1.00, 475.4, 630.8)">t</text><text xml:space="preserve" font-family="Chalkduster,Chalkduster" font-size="60.0" fill="#FEFFFE" transform="matrix(1.00, 0.00, -0.00, -1.00, 503.1, 630.8)">i</text><text xml:space="preserve" font-family="Chalkduster,Chalkduster" font-size="60.0" fill="#FEFFFE" transform="matrix(1.00, 0.00, -0.00, -1.00, 526.8, 630.8)"> </text><text xml:space="preserve" font-family="Chalkduster,Chalkduster" font-size="60.0" fill="#FEFFFE" transform="matrix(1.00, 0.00, -0.00, -1.00, 556.7, 630.8)">c</text><text xml:space="preserve" font-family="Chalkduster,Chalkduster" font-size="60.0" fill="#FEFFFE" transform="matrix(1.00, 0.00, -0.00, -1.00, 592.5, 630.8)">o</text><text xml:space="preserve" font-family="Chalkduster,Chalkduster" font-size="60.0" fill="#FEFFFE" transform="matrix(1.00, 0.00, -0.00, -1.00, 636.3, 630.8)">r</text><text xml:space="preserve" font-family="Chalkduster,Chalkduster" font-size="60.0" fill="#FEFFFE" transform="matrix(1.00, 0.00, -0.00, -1.00, 669.8, 630.8)">r</text><text xml:space="preserve" font-family="Chalkduster,Chalkduster" font-size="60.0" fill="#FEFFFE" transform="matrix(1.00, 0.00, -0.00, -1.00, 700.1, 630.8)">e</text><text xml:space="preserve" font-family="Chalkduster,Chalkduster" font-size="60.0" fill="#FEFFFE" transform="matrix(1.00, 0.00, -0.00, -1.00, 737.3, 630.8)">l</text><text xml:space="preserve" font-family="Chalkduster,Chalkduster" font-size="60.0" fill="#FEFFFE" transform="matrix(1.00, 0.00, -0.00, -1.00, 764.2, 630.8)">a</text><text xml:space="preserve" font-family="Chalkduster,Chalkduster" font-size="60.0" fill="#FEFFFE" transform="matrix(1.00, 0.00, -0.00, -1.00, 801.4, 630.8)">t</text><text xml:space="preserve" font-family="Chalkduster,Chalkduster" font-size="60.0" fill="#FEFFFE" transform="matrix(1.00, 0.00, -0.00, -1.00, 829.2, 630.8)">i</text><image xlink:href="../../50142469-0AEB-45DE-A4A2-AB2237BFE142/assets/4DEEB86E8592901A27491E22B30EA716.png" width="78.00" height="72.00" transform="matrix(0.23, 0.00, -0.00, -0.23, 104.0, 491.0)"></image><text xml:space="preserve" font-family="Chalkduster,Chalkduster" font-size="29.9" fill="#FEFFFE" transform="matrix(1.00, 0.00, -0.00, -1.00, 141.3, 475.5)">e</text><text xml:space="preserve" font-family="Chalkduster,Chalkduster" font-size="29.9" fill="#FEFFFE" transform="matrix(1.00, 0.00, -0.00, -1.00, 159.9, 475.5)">X</text><text xml:space="preserve" font-family="Chalkduster,Chalkduster" font-size="29.9" fill="#FEFFFE" transform="matrix(1.00, 0.00, -0.00, -1.00, 177.9, 475.5)">t</text><text xml:space="preserve" font-family="Chalkduster,Chalkduster" font-size="29.9" fill="#FEFFFE" transform="matrix(1.00, 0.00, -0.00, -1.00, 191.6, 475.5)">r</text><text xml:space="preserve" font-family="Chalkduster,Chalkduster" font-size="29.9" fill="#FEFFFE" transform="matrix(1.00, 0.00, -0.00, -1.00, 206.7, 475.5)">e</text><text xml:space="preserve" font-family="Chalkduster,Chalkduster" font-size="29.9" fill="#FEFFFE" transform="matrix(1.00, 0.00, -0.00, -1.00, 225.2, 475.5)">m</text><text xml:space="preserve" font-family="Chalkduster,Chalkduster" font-size="29.9" fill="#FEFFFE" transform="matrix(1.00, 0.00, -0.00, -1.00, 256.2, 475.5)">e</text><text xml:space="preserve" font-family="Chalkduster,Chalkduster" font-size="29.9" fill="#FEFFFE" transform="matrix(1.00, 0.00, -0.00, -1.00, 274.7, 475.5)"> </text><text xml:space="preserve" font-family="Chalkduster,Chalkduster" font-size="29.9" fill="#FEFFFE" transform="matrix(1.00, 0.00, -0.00, -1.00, 289.6, 475.5)">P</text><text xml:space="preserve" font-family="Chalkduster,Chalkduster" font-size="29.9" fill="#FEFFFE" transform="matrix(1.00, 0.00, -0.00, -1.00, 310.4, 475.5)">r</text><text xml:space="preserve" font-family="Chalkduster,Chalkduster" font-size="29.9" fill="#FEFFFE" transform="matrix(1.00, 0.00, -0.00, -1.00, 325.7, 475.5)">o</text><text xml:space="preserve" font-family="Chalkduster,Chalkduster" font-size="29.9" fill="#FEFFFE" transform="matrix(1.00, 0.00, -0.00, -1.00, 347.6, 475.5)">g</text><text xml:space="preserve" font-family="Chalkduster,Chalkduster" font-size="29.9" fill="#FEFFFE" transform="matrix(1.00, 0.00, -0.00, -1.00, 368.9, 475.5)">r</text><text xml:space="preserve" font-family="Chalkduster,Chalkduster" font-size="29.9" fill="#FEFFFE" transform="matrix(1.00, 0.00, -0.00, -1.00, 384.6, 475.5)">a</text><text xml:space="preserve" font-family="Chalkduster,Chalkduster" font-size="29.9" fill="#FEFFFE" transform="matrix(1.00, 0.00, -0.00, -1.00, 404.3, 475.5)">m</text><text xml:space="preserve" font-family="Chalkduster,Chalkduster" font-size="29.9" fill="#FEFFFE" transform="matrix(1.00, 0.00, -0.00, -1.00, 435.4, 475.5)">m</text><text xml:space="preserve" font-family="Chalkduster,Chalkduster" font-size="29.9" fill="#FEFFFE" transform="matrix(1.00, 0.00, -0.00, -1.00, 466.2, 475.5)">i</text><text xml:space="preserve" font-family="Chalkduster,Chalkduster" font-size="29.9" fill="#FEFFFE" transform="matrix(1.00, 0.00, -0.00, -1.00, 478.0, 475.5)">n</text><text xml:space="preserve" font-family="Chalkduster,Chalkduster" font-size="29.9" fill="#FEFFFE" transform="matrix(1.00, 0.00, -0.00, -1.00, 498.9, 475.5)">g</text><text xml:space="preserve" font-family="Chalkduster,Chalkduster" font-size="29.9" fill="#FEFFFE" transform="matrix(1.00, 0.00, -0.00, -1.00, 519.1, 475.5)">,</text><text xml:space="preserve" font-family="Chalkduster,Chalkduster" font-size="29.9" fill="#FEFFFE" transform="matrix(1.00, 0.00, -0.00, -1.00, 528.4, 475.5)"> </text><text xml:space="preserve" font-family="Chalkduster,Chalkduster" font-size="29.9" fill="#FEFFFE" transform="matrix(1.00, 0.00, -0.00, -1.00, 543.2, 475.5)">C</text><text xml:space="preserve" font-family="Chalkduster,Chalkduster" font-size="29.9" fill="#FEFFFE" transform="matrix(1.00, 0.00, -0.00, -1.00, 567.5, 475.5)">o</text><text xml:space="preserve" font-family="Chalkduster,Chalkduster" font-size="29.9" fill="#FEFFFE" transform="matrix(1.00, 0.00, -0.00, -1.00, 589.7, 475.5)">n</text><text xml:space="preserve" font-family="Chalkduster,Chalkduster" font-size="29.9" fill="#FEFFFE" transform="matrix(1.00, 0.00, -0.00, -1.00, 610.5, 475.5)">t</text><text xml:space="preserve" font-family="Chalkduster,Chalkduster" font-size="29.9" fill="#FEFFFE" transform="matrix(1.00, 0.00, -0.00, -1.00, 624.3, 475.5)">i</text><text xml:space="preserve" font-family="Chalkduster,Chalkduster" font-size="29.9" fill="#FEFFFE" transform="matrix(1.00, 0.00, -0.00, -1.00, 636.1, 475.5)">n</text><text xml:space="preserve" font-family="Chalkduster,Chalkduster" font-size="29.9" fill="#FEFFFE" transform="matrix(1.00, 0.00, -0.00, -1.00, 658.7, 475.5)">u</text><text xml:space="preserve" font-family="Chalkduster,Chalkduster" font-size="29.9" fill="#FEFFFE" transform="matrix(1.00, 0.00, -0.00, -1.00, 679.3, 475.5)">o</text><text xml:space="preserve" font-family="Chalkduster,Chalkduster" font-size="29.9" fill="#FEFFFE" transform="matrix(1.00, 0.00, -0.00, -1.00, 701.7, 475.5)">u</text><text xml:space="preserve" font-family="Chalkduster,Chalkduster" font-size="29.9" fill="#FEFFFE" transform="matrix(1.00, 0.00, -0.00, -1.00, 723.1, 475.5)">s</text><text xml:space="preserve" font-family="Chalkduster,Chalkduster" font-size="29.9" fill="#FEFFFE" transform="matrix(1.00, 0.00, -0.00, -1.00, 738.2, 475.5)"> </text><text xml:space="preserve" font-family="Chalkduster,Chalkduster" font-size="29.9" fill="#FEFFFE" transform="matrix(1.00, 0.00, -0.00, -1.00, 141.3, 431.5)">I</text><text xml:space="preserve" font-family="Chalkduster,Chalkduster" font-size="29.9" fill="#FEFFFE" transform="matrix(1.00, 0.00, -0.00, -1.00, 159.1, 431.5)">n</text><text xml:space="preserve" font-family="Chalkduster,Chalkduster" font-size="29.9" fill="#FEFFFE" transform="matrix(1.00, 0.00, -0.00, -1.00, 179.9, 431.5)">t</text><text xml:space="preserve" font-family="Chalkduster,Chalkduster" font-size="29.9" fill="#FEFFFE" transform="matrix(1.00, 0.00, -0.00, -1.00, 193.3, 431.5)">e</text><text xml:space="preserve" font-family="Chalkduster,Chalkduster" font-size="29.9" fill="#FEFFFE" transform="matrix(1.00, 0.00, -0.00, -1.00, 210.8, 431.5)">g</text><text xml:space="preserve" font-family="Chalkduster,Chalkduster" font-size="29.9" fill="#FEFFFE" transform="matrix(1.00, 0.00, -0.00, -1.00, 232.1, 431.5)">r</text><text xml:space="preserve" font-family="Chalkduster,Chalkduster" font-size="29.9" fill="#FEFFFE" transform="matrix(1.00, 0.00, -0.00, -1.00, 247.8, 431.5)">a</text><text xml:space="preserve" font-family="Chalkduster,Chalkduster" font-size="29.9" fill="#FEFFFE" transform="matrix(1.00, 0.00, -0.00, -1.00, 266.4, 431.5)">t</text><text xml:space="preserve" font-family="Chalkduster,Chalkduster" font-size="29.9" fill="#FEFFFE" transform="matrix(1.00, 0.00, -0.00, -1.00, 280.2, 431.5)">i</text><text xml:space="preserve" font-family="Chalkduster,Chalkduster" font-size="29.9" fill="#FEFFFE" transform="matrix(1.00, 0.00, -0.00, -1.00, 292.0, 431.5)">o</text><text xml:space="preserve" font-family="Chalkduster,Chalkduster" font-size="29.9" fill="#FEFFFE" transform="matrix(1.00, 0.00, -0.00, -1.00, 314.2, 431.5)">n</text><text xml:space="preserve" font-family="Chalkduster,Chalkduster" font-size="29.9" fill="#FEFFFE" transform="matrix(1.00, 0.00, -0.00, -1.00, 335.2, 431.5)">,</text><text xml:space="preserve" font-family="Chalkduster,Chalkduster" font-size="29.9" fill="#FEFFFE" transform="matrix(1.00, 0.00, -0.00, -1.00, 344.5, 431.5)"> </text><text xml:space="preserve" font-family="Chalkduster,Chalkduster" font-size="29.9" fill="#FEFFFE" transform="matrix(1.00, 0.00, -0.00, -1.00, 357.3, 431.5)">A</text><text xml:space="preserve" font-family="Chalkduster,Chalkduster" font-size="29.9" fill="#FEFFFE" transform="matrix(1.00, 0.00, -0.00, -1.00, 379.4, 431.5)">g</text><text xml:space="preserve" font-family="Chalkduster,Chalkduster" font-size="29.9" fill="#FEFFFE" transform="matrix(1.00, 0.00, -0.00, -1.00, 400.8, 431.5)">i</text><text xml:space="preserve" font-family="Chalkduster,Chalkduster" font-size="29.9" fill="#FEFFFE" transform="matrix(1.00, 0.00, -0.00, -1.00, 412.9, 431.5)">l</text><text xml:space="preserve" font-family="Chalkduster,Chalkduster" font-size="29.9" fill="#FEFFFE" transform="matrix(1.00, 0.00, -0.00, -1.00, 425.3, 431.5)">e</text><text xml:space="preserve" font-family="Chalkduster,Chalkduster" font-size="29.9" fill="#FEFFFE" transform="matrix(1.00, 0.00, -0.00, -1.00, 443.8, 431.5)"> </text><text xml:space="preserve" font-family="Chalkduster,Chalkduster" font-size="29.9" fill="#FEFFFE" transform="matrix(1.00, 0.00, -0.00, -1.00, 458.7, 431.5)">D</text><text xml:space="preserve" font-family="Chalkduster,Chalkduster" font-size="29.9" fill="#FEFFFE" transform="matrix(1.00, 0.00, -0.00, -1.00, 479.3, 431.5)">e</text><text xml:space="preserve" font-family="Chalkduster,Chalkduster" font-size="29.9" fill="#FEFFFE" transform="matrix(1.00, 0.00, -0.00, -1.00, 497.7, 431.5)">v</text><text xml:space="preserve" font-family="Chalkduster,Chalkduster" font-size="29.9" fill="#FEFFFE" transform="matrix(1.00, 0.00, -0.00, -1.00, 516.0, 431.5)">e</text><text xml:space="preserve" font-family="Chalkduster,Chalkduster" font-size="29.9" fill="#FEFFFE" transform="matrix(1.00, 0.00, -0.00, -1.00, 534.5, 431.5)">l</text><text xml:space="preserve" font-family="Chalkduster,Chalkduster" font-size="29.9" fill="#FEFFFE" transform="matrix(1.00, 0.00, -0.00, -1.00, 547.4, 431.5)">o</text><text xml:space="preserve" font-family="Chalkduster,Chalkduster" font-size="29.9" fill="#FEFFFE" transform="matrix(1.00, 0.00, -0.00, -1.00, 569.2, 431.5)">p</text><text xml:space="preserve" font-family="Chalkduster,Chalkduster" font-size="29.9" fill="#FEFFFE" transform="matrix(1.00, 0.00, -0.00, -1.00, 587.6, 431.5)">m</text><text xml:space="preserve" font-family="Chalkduster,Chalkduster" font-size="29.9" fill="#FEFFFE" transform="matrix(1.00, 0.00, -0.00, -1.00, 618.6, 431.5)">e</text><text xml:space="preserve" font-family="Chalkduster,Chalkduster" font-size="29.9" fill="#FEFFFE" transform="matrix(1.00, 0.00, -0.00, -1.00, 637.4, 431.5)">n</text><text xml:space="preserve" font-family="Chalkduster,Chalkduster" font-size="29.9" fill="#FEFFFE" transform="matrix(1.00, 0.00, -0.00, -1.00, 658.2, 431.5)">t</text><text xml:space="preserve" font-family="Chalkduster,Chalkduster" font-size="29.9" fill="#FEFFFE" transform="matrix(1.00, 0.00, -0.00, -1.00, 671.9, 431.5)"> </text><image xlink:href="../../50142469-0AEB-45DE-A4A2-AB2237BFE142/assets/4DEEB86E8592901A27491E22B30EA716.png" width="78.00" height="72.00" transform="matrix(0.23, 0.00, -0.00, -0.23, 104.0, 373.2)"></image><text xml:space="preserve" font-family="Chalkduster,Chalkduster" font-size="29.9" fill="#FEFFFE" transform="matrix(1.00, 0.00, -0.00, -1.00, 141.3, 357.6)">T</text><text xml:space="preserve" font-family="Chalkduster,Chalkduster" font-size="29.9" fill="#FEFFFE" transform="matrix(1.00, 0.00, -0.00, -1.00, 160.3, 357.6)">e</text><text xml:space="preserve" font-family="Chalkduster,Chalkduster" font-size="29.9" fill="#FEFFFE" transform="matrix(1.00, 0.00, -0.00, -1.00, 179.5, 357.6)">s</text><text xml:space="preserve" font-family="Chalkduster,Chalkduster" font-size="29.9" fill="#FEFFFE" transform="matrix(1.00, 0.00, -0.00, -1.00, 195.6, 357.6)">t</text><text xml:space="preserve" font-family="Chalkduster,Chalkduster" font-size="29.9" fill="#FEFFFE" transform="matrix(1.00, 0.00, -0.00, -1.00, 209.4, 357.6)">i</text><text xml:space="preserve" font-family="Chalkduster,Chalkduster" font-size="29.9" fill="#FEFFFE" transform="matrix(1.00, 0.00, -0.00, -1.00, 221.2, 357.6)">n</text><text xml:space="preserve" font-family="Chalkduster,Chalkduster" font-size="29.9" fill="#FEFFFE" transform="matrix(1.00, 0.00, -0.00, -1.00, 242.2, 357.6)">g</text><text xml:space="preserve" font-family="Chalkduster,Chalkduster" font-size="29.9" fill="#FEFFFE" transform="matrix(1.00, 0.00, -0.00, -1.00, 262.5, 357.6)"> </text><text xml:space="preserve" font-family="Chalkduster,Chalkduster" font-size="29.9" fill="#FEFFFE" transform="matrix(1.00, 0.00, -0.00, -1.00, 277.4, 357.6)">(</text><text xml:space="preserve" font-family="Chalkduster,Chalkduster" font-size="29.9" fill="#FEFFFE" transform="matrix(1.00, 0.00, -0.00, -1.00, 289.3, 357.6)">e</text><text xml:space="preserve" font-family="Chalkduster,Chalkduster" font-size="29.9" fill="#FEFFFE" transform="matrix(1.00, 0.00, -0.00, -1.00, 308.5, 357.6)">s</text><text xml:space="preserve" font-family="Chalkduster,Chalkduster" font-size="29.9" fill="#FEFFFE" transform="matrix(1.00, 0.00, -0.00, -1.00, 323.0, 357.6)">.</text><text xml:space="preserve" font-family="Chalkduster,Chalkduster" font-size="29.9" fill="#FEFFFE" transform="matrix(1.00, 0.00, -0.00, -1.00, 331.5, 357.6)"> </text><text xml:space="preserve" font-family="Chalkduster,Chalkduster" font-size="29.9" fill="#FEFFFE" transform="matrix(1.00, 0.00, -0.00, -1.00, 346.4, 357.6)">u</text><text xml:space="preserve" font-family="Chalkduster,Chalkduster" font-size="29.9" fill="#FEFFFE" transform="matrix(1.00, 0.00, -0.00, -1.00, 367.3, 357.6)">n</text><text xml:space="preserve" font-family="Chalkduster,Chalkduster" font-size="29.9" fill="#FEFFFE" transform="matrix(1.00, 0.00, -0.00, -1.00, 389.8, 357.6)">i</text><text xml:space="preserve" font-family="Chalkduster,Chalkduster" font-size="29.9" fill="#FEFFFE" transform="matrix(1.00, 0.00, -0.00, -1.00, 401.9, 357.6)">t</text><text xml:space="preserve" font-family="Chalkduster,Chalkduster" font-size="29.9" fill="#FEFFFE" transform="matrix(1.00, 0.00, -0.00, -1.00, 415.6, 357.6)"> </text><text xml:space="preserve" font-family="Chalkduster,Chalkduster" font-size="29.9" fill="#FEFFFE" transform="matrix(1.00, 0.00, -0.00, -1.00, 430.4, 357.6)">t</text><text xml:space="preserve" font-family="Chalkduster,Chalkduster" font-size="29.9" fill="#FEFFFE" transform="matrix(1.00, 0.00, -0.00, -1.00, 443.8, 357.6)">e</text><text xml:space="preserve" font-family="Chalkduster,Chalkduster" font-size="29.9" fill="#FEFFFE" transform="matrix(1.00, 0.00, -0.00, -1.00, 463.0, 357.6)">s</text><text xml:space="preserve" font-family="Chalkduster,Chalkduster" font-size="29.9" fill="#FEFFFE" transform="matrix(1.00, 0.00, -0.00, -1.00, 479.0, 357.6)">t</text><text xml:space="preserve" font-family="Chalkduster,Chalkduster" font-size="29.9" fill="#FEFFFE" transform="matrix(1.00, 0.00, -0.00, -1.00, 492.8, 357.6)">i</text><text xml:space="preserve" font-family="Chalkduster,Chalkduster" font-size="29.9" fill="#FEFFFE" transform="matrix(1.00, 0.00, -0.00, -1.00, 504.6, 357.6)">n</text><text xml:space="preserve" font-family="Chalkduster,Chalkduster" font-size="29.9" fill="#FEFFFE" transform="matrix(1.00, 0.00, -0.00, -1.00, 525.6, 357.6)">g</text><text xml:space="preserve" font-family="Chalkduster,Chalkduster" font-size="29.9" fill="#FEFFFE" transform="matrix(1.00, 0.00, -0.00, -1.00, 545.8, 357.6)">,</text><text xml:space="preserve" font-family="Chalkduster,Chalkduster" font-size="29.9" fill="#FEFFFE" transform="matrix(1.00, 0.00, -0.00, -1.00, 555.0, 357.6)"> </text><text xml:space="preserve" font-family="Chalkduster,Chalkduster" font-size="29.9" fill="#FEFFFE" transform="matrix(1.00, 0.00, -0.00, -1.00, 569.9, 357.6)">t</text><text xml:space="preserve" font-family="Chalkduster,Chalkduster" font-size="29.9" fill="#FEFFFE" transform="matrix(1.00, 0.00, -0.00, -1.00, 583.2, 357.6)">e</text><text xml:space="preserve" font-family="Chalkduster,Chalkduster" font-size="29.9" fill="#FEFFFE" transform="matrix(1.00, 0.00, -0.00, -1.00, 602.4, 357.6)">s</text><text xml:space="preserve" font-family="Chalkduster,Chalkduster" font-size="29.9" fill="#FEFFFE" transform="matrix(1.00, 0.00, -0.00, -1.00, 618.5, 357.6)">t</text><text xml:space="preserve" font-family="Chalkduster,Chalkduster" font-size="29.9" fill="#FEFFFE" transform="matrix(1.00, 0.00, -0.00, -1.00, 632.1, 357.6)"> </text><text xml:space="preserve" font-family="Chalkduster,Chalkduster" font-size="29.9" fill="#FEFFFE" transform="matrix(1.00, 0.00, -0.00, -1.00, 647.0, 357.6)">d</text><text xml:space="preserve" font-family="Chalkduster,Chalkduster" font-size="29.9" fill="#FEFFFE" transform="matrix(1.00, 0.00, -0.00, -1.00, 670.3, 357.6)">r</text><text xml:space="preserve" font-family="Chalkduster,Chalkduster" font-size="29.9" fill="#FEFFFE" transform="matrix(1.00, 0.00, -0.00, -1.00, 686.9, 357.6)">i</text><text xml:space="preserve" font-family="Chalkduster,Chalkduster" font-size="29.9" fill="#FEFFFE" transform="matrix(1.00, 0.00, -0.00, -1.00, 698.7, 357.6)">v</text><text xml:space="preserve" font-family="Chalkduster,Chalkduster" font-size="29.9" fill="#FEFFFE" transform="matrix(1.00, 0.00, -0.00, -1.00, 717.1, 357.6)">e</text><text xml:space="preserve" font-family="Chalkduster,Chalkduster" font-size="29.9" fill="#FEFFFE" transform="matrix(1.00, 0.00, -0.00, -1.00, 735.9, 357.6)">n</text><text xml:space="preserve" font-family="Chalkduster,Chalkduster" font-size="29.9" fill="#FEFFFE" transform="matrix(1.00, 0.00, -0.00, -1.00, 757.8, 357.6)"> </text><text xml:space="preserve" font-family="Chalkduster,Chalkduster" font-size="29.9" fill="#FEFFFE" transform="matrix(1.00, 0.00, -0.00, -1.00, 772.7, 357.6)">d</text><text xml:space="preserve" font-family="Chalkduster,Chalkduster" font-size="29.9" fill="#FEFFFE" transform="matrix(1.00, 0.00, -0.00, -1.00, 796.0, 357.6)">e</text><text xml:space="preserve" font-family="Chalkduster,Chalkduster" font-size="29.9" fill="#FEFFFE" transform="matrix(1.00, 0.00, -0.00, -1.00, 815.2, 357.6)">s</text><text xml:space="preserve" font-family="Chalkduster,Chalkduster" font-size="29.9" fill="#FEFFFE" transform="matrix(1.00, 0.00, -0.00, -1.00, 830.3, 357.6)">i</text><text xml:space="preserve" font-family="Chalkduster,Chalkduster" font-size="29.9" fill="#FEFFFE" transform="matrix(1.00, 0.00, -0.00, -1.00, 842.1, 357.6)">g</text><text xml:space="preserve" font-family="Chalkduster,Chalkduster" font-size="29.9" fill="#FEFFFE" transform="matrix(1.00, 0.00, -0.00, -1.00, 862.9, 357.6)">n</text><text xml:space="preserve" font-family="Chalkduster,Chalkduster" font-size="29.9" fill="#FEFFFE" transform="matrix(1.00, 0.00, -0.00, -1.00, 883.9, 357.6)">,</text><text xml:space="preserve" font-family="Chalkduster,Chalkduster" font-size="29.9" fill="#FEFFFE" transform="matrix(1.00, 0.00, -0.00, -1.00, 893.2, 357.6)"> </text><text xml:space="preserve" font-family="Chalkduster,Chalkduster" font-size="29.9" fill="#FEFFFE" transform="matrix(1.00, 0.00, -0.00, -1.00, 141.3, 313.6)">…</text><text xml:space="preserve" font-family="Chalkduster,Chalkduster" font-size="29.9" fill="#FEFFFE" transform="matrix(1.00, 0.00, -0.00, -1.00, 171.0, 313.6)">)</text><text xml:space="preserve" font-family="Chalkduster,Chalkduster" font-size="29.9" fill="#FEFFFE" transform="matrix(1.00, 0.00, -0.00, -1.00, 186.0, 313.6)"> </text><image xlink:href="../../50142469-0AEB-45DE-A4A2-AB2237BFE142/assets/4DEEB86E8592901A27491E22B30EA716.png" width="78.00" height="72.00" transform="matrix(0.23, 0.00, -0.00, -0.23, 104.0, 255.3)"></image><text xml:space="preserve" font-family="Chalkduster,Chalkduster" font-size="29.9" fill="#FEFFFE" transform="matrix(1.00, 0.00, -0.00, -1.00, 141.3, 239.8)">D</text><text xml:space="preserve" font-family="Chalkduster,Chalkduster" font-size="29.9" fill="#FEFFFE" transform="matrix(1.00, 0.00, -0.00, -1.00, 162.0, 239.8)">e</text><text xml:space="preserve" font-family="Chalkduster,Chalkduster" font-size="29.9" fill="#FEFFFE" transform="matrix(1.00, 0.00, -0.00, -1.00, 181.0, 239.8)">p</text><text xml:space="preserve" font-family="Chalkduster,Chalkduster" font-size="29.9" fill="#FEFFFE" transform="matrix(1.00, 0.00, -0.00, -1.00, 199.4, 239.8)">l</text><text xml:space="preserve" font-family="Chalkduster,Chalkduster" font-size="29.9" fill="#FEFFFE" transform="matrix(1.00, 0.00, -0.00, -1.00, 212.3, 239.8)">o</text><text xml:space="preserve" font-family="Chalkduster,Chalkduster" font-size="29.9" fill="#FEFFFE" transform="matrix(1.00, 0.00, -0.00, -1.00, 234.3, 239.8)">y</text><text xml:space="preserve" font-family="Chalkduster,Chalkduster" font-size="29.9" fill="#FEFFFE" transform="matrix(1.00, 0.00, -0.00, -1.00, 252.4, 239.8)">i</text><text xml:space="preserve" font-family="Chalkduster,Chalkduster" font-size="29.9" fill="#FEFFFE" transform="matrix(1.00, 0.00, -0.00, -1.00, 264.2, 239.8)">n</text><text xml:space="preserve" font-family="Chalkduster,Chalkduster" font-size="29.9" fill="#FEFFFE" transform="matrix(1.00, 0.00, -0.00, -1.00, 285.2, 239.8)">g</text><text xml:space="preserve" font-family="Chalkduster,Chalkduster" font-size="29.9" fill="#FEFFFE" transform="matrix(1.00, 0.00, -0.00, -1.00, 305.6, 239.8)"> </text><text xml:space="preserve" font-family="Chalkduster,Chalkduster" font-size="29.9" fill="#FEFFFE" transform="matrix(1.00, 0.00, -0.00, -1.00, 320.4, 239.8)">(</text><text xml:space="preserve" font-family="Chalkduster,Chalkduster" font-size="29.9" fill="#FEFFFE" transform="matrix(1.00, 0.00, -0.00, -1.00, 332.3, 239.8)">e</text><text xml:space="preserve" font-family="Chalkduster,Chalkduster" font-size="29.9" fill="#FEFFFE" transform="matrix(1.00, 0.00, -0.00, -1.00, 351.6, 239.8)">s</text><text xml:space="preserve" font-family="Chalkduster,Chalkduster" font-size="29.9" fill="#FEFFFE" transform="matrix(1.00, 0.00, -0.00, -1.00, 366.0, 239.8)">.</text><text xml:space="preserve" font-family="Chalkduster,Chalkduster" font-size="29.9" fill="#FEFFFE" transform="matrix(1.00, 0.00, -0.00, -1.00, 374.5, 239.8)"> </text><text xml:space="preserve" font-family="Chalkduster,Chalkduster" font-size="29.9" fill="#FEFFFE" transform="matrix(1.00, 0.00, -0.00, -1.00, 389.4, 239.8)">a</text><text xml:space="preserve" font-family="Chalkduster,Chalkduster" font-size="29.9" fill="#FEFFFE" transform="matrix(1.00, 0.00, -0.00, -1.00, 410.0, 239.8)">u</text><text xml:space="preserve" font-family="Chalkduster,Chalkduster" font-size="29.9" fill="#FEFFFE" transform="matrix(1.00, 0.00, -0.00, -1.00, 430.3, 239.8)">t</text><text xml:space="preserve" font-family="Chalkduster,Chalkduster" font-size="29.9" fill="#FEFFFE" transform="matrix(1.00, 0.00, -0.00, -1.00, 442.6, 239.8)">o</text><text xml:space="preserve" font-family="Chalkduster,Chalkduster" font-size="29.9" fill="#FEFFFE" transform="matrix(1.00, 0.00, -0.00, -1.00, 465.0, 239.8)">m</text><text xml:space="preserve" font-family="Chalkduster,Chalkduster" font-size="29.9" fill="#FEFFFE" transform="matrix(1.00, 0.00, -0.00, -1.00, 495.3, 239.8)">a</text><text xml:space="preserve" font-family="Chalkduster,Chalkduster" font-size="29.9" fill="#FEFFFE" transform="matrix(1.00, 0.00, -0.00, -1.00, 513.8, 239.8)">t</text><text xml:space="preserve" font-family="Chalkduster,Chalkduster" font-size="29.9" fill="#FEFFFE" transform="matrix(1.00, 0.00, -0.00, -1.00, 527.6, 239.8)">i</text><text xml:space="preserve" font-family="Chalkduster,Chalkduster" font-size="29.9" fill="#FEFFFE" transform="matrix(1.00, 0.00, -0.00, -1.00, 539.7, 239.8)">c</text><text xml:space="preserve" font-family="Chalkduster,Chalkduster" font-size="29.9" fill="#FEFFFE" transform="matrix(1.00, 0.00, -0.00, -1.00, 558.5, 239.8)"> </text><text xml:space="preserve" font-family="Chalkduster,Chalkduster" font-size="29.9" fill="#FEFFFE" transform="matrix(1.00, 0.00, -0.00, -1.00, 573.3, 239.8)">p</text><text xml:space="preserve" font-family="Chalkduster,Chalkduster" font-size="29.9" fill="#FEFFFE" transform="matrix(1.00, 0.00, -0.00, -1.00, 591.8, 239.8)">u</text><text xml:space="preserve" font-family="Chalkduster,Chalkduster" font-size="29.9" fill="#FEFFFE" transform="matrix(1.00, 0.00, -0.00, -1.00, 612.3, 239.8)">b</text><text xml:space="preserve" font-family="Chalkduster,Chalkduster" font-size="29.9" fill="#FEFFFE" transform="matrix(1.00, 0.00, -0.00, -1.00, 630.3, 239.8)">l</text><text xml:space="preserve" font-family="Chalkduster,Chalkduster" font-size="29.9" fill="#FEFFFE" transform="matrix(1.00, 0.00, -0.00, -1.00, 644.7, 239.8)">i</text><text xml:space="preserve" font-family="Chalkduster,Chalkduster" font-size="29.9" fill="#FEFFFE" transform="matrix(1.00, 0.00, -0.00, -1.00, 656.5, 239.8)">s</text><text xml:space="preserve" font-family="Chalkduster,Chalkduster" font-size="29.9" fill="#FEFFFE" transform="matrix(1.00, 0.00, -0.00, -1.00, 671.9, 239.8)">h</text><text xml:space="preserve" font-family="Chalkduster,Chalkduster" font-size="29.9" fill="#FEFFFE" transform="matrix(1.00, 0.00, -0.00, -1.00, 690.9, 239.8)">i</text><text xml:space="preserve" font-family="Chalkduster,Chalkduster" font-size="29.9" fill="#FEFFFE" transform="matrix(1.00, 0.00, -0.00, -1.00, 702.7, 239.8)">n</text><text xml:space="preserve" font-family="Chalkduster,Chalkduster" font-size="29.9" fill="#FEFFFE" transform="matrix(1.00, 0.00, -0.00, -1.00, 723.6, 239.8)">g</text><text xml:space="preserve" font-family="Chalkduster,Chalkduster" font-size="29.9" fill="#FEFFFE" transform="matrix(1.00, 0.00, -0.00, -1.00, 745.2, 239.8)">)</text><text xml:space="preserve" font-family="Chalkduster,Chalkduster" font-size="29.9" fill="#FEFFFE" transform="matrix(1.00, 0.00, -0.00, -1.00, 760.2, 239.8)"> </text><image xlink:href="../../50142469-0AEB-45DE-A4A2-AB2237BFE142/assets/4DEEB86E8592901A27491E22B30EA716.png" width="78.00" height="72.00" transform="matrix(0.23, 0.00, -0.00, -0.23, 104.0, 181.4)"></image><text xml:space="preserve" font-family="Chalkduster,Chalkduster" font-size="29.9" fill="#FEFFFE" transform="matrix(1.00, 0.00, -0.00, -1.00, 141.3, 165.9)">I</text><text xml:space="preserve" font-family="Chalkduster,Chalkduster" font-size="29.9" fill="#FEFFFE" transform="matrix(1.00, 0.00, -0.00, -1.00, 159.1, 165.9)">n</text><text xml:space="preserve" font-family="Chalkduster,Chalkduster" font-size="29.9" fill="#FEFFFE" transform="matrix(1.00, 0.00, -0.00, -1.00, 181.0, 165.9)">f</text><text xml:space="preserve" font-family="Chalkduster,Chalkduster" font-size="29.9" fill="#FEFFFE" transform="matrix(1.00, 0.00, -0.00, -1.00, 198.2, 165.9)">r</text><text xml:space="preserve" font-family="Chalkduster,Chalkduster" font-size="29.9" fill="#FEFFFE" transform="matrix(1.00, 0.00, -0.00, -1.00, 213.9, 165.9)">a</text><text xml:space="preserve" font-family="Chalkduster,Chalkduster" font-size="29.9" fill="#FEFFFE" transform="matrix(1.00, 0.00, -0.00, -1.00, 234.9, 165.9)">s</text><text xml:space="preserve" font-family="Chalkduster,Chalkduster" font-size="29.9" fill="#FEFFFE" transform="matrix(1.00, 0.00, -0.00, -1.00, 250.9, 165.9)">t</text><text xml:space="preserve" font-family="Chalkduster,Chalkduster" font-size="29.9" fill="#FEFFFE" transform="matrix(1.00, 0.00, -0.00, -1.00, 264.5, 165.9)">r</text><text xml:space="preserve" font-family="Chalkduster,Chalkduster" font-size="29.9" fill="#FEFFFE" transform="matrix(1.00, 0.00, -0.00, -1.00, 281.1, 165.9)">u</text><text xml:space="preserve" font-family="Chalkduster,Chalkduster" font-size="29.9" fill="#FEFFFE" transform="matrix(1.00, 0.00, -0.00, -1.00, 301.7, 165.9)">c</text><text xml:space="preserve" font-family="Chalkduster,Chalkduster" font-size="29.9" fill="#FEFFFE" transform="matrix(1.00, 0.00, -0.00, -1.00, 319.4, 165.9)">t</text><text xml:space="preserve" font-family="Chalkduster,Chalkduster" font-size="29.9" fill="#FEFFFE" transform="matrix(1.00, 0.00, -0.00, -1.00, 333.0, 165.9)">u</text><text xml:space="preserve" font-family="Chalkduster,Chalkduster" font-size="29.9" fill="#FEFFFE" transform="matrix(1.00, 0.00, -0.00, -1.00, 354.0, 165.9)">r</text><text xml:space="preserve" font-family="Chalkduster,Chalkduster" font-size="29.9" fill="#FEFFFE" transform="matrix(1.00, 0.00, -0.00, -1.00, 369.2, 165.9)">e</text><text xml:space="preserve" font-family="Chalkduster,Chalkduster" font-size="29.9" fill="#FEFFFE" transform="matrix(1.00, 0.00, -0.00, -1.00, 387.7, 165.9)"> </text><text xml:space="preserve" font-family="Chalkduster,Chalkduster" font-size="29.9" fill="#FEFFFE" transform="matrix(1.00, 0.00, -0.00, -1.00, 402.5, 165.9)">(</text><text xml:space="preserve" font-family="Chalkduster,Chalkduster" font-size="29.9" fill="#FEFFFE" transform="matrix(1.00, 0.00, -0.00, -1.00, 414.4, 165.9)">e</text><text xml:space="preserve" font-family="Chalkduster,Chalkduster" font-size="29.9" fill="#FEFFFE" transform="matrix(1.00, 0.00, -0.00, -1.00, 433.7, 165.9)">s</text><text xml:space="preserve" font-family="Chalkduster,Chalkduster" font-size="29.9" fill="#FEFFFE" transform="matrix(1.00, 0.00, -0.00, -1.00, 448.1, 165.9)">.</text><text xml:space="preserve" font-family="Chalkduster,Chalkduster" font-size="29.9" fill="#FEFFFE" transform="matrix(1.00, 0.00, -0.00, -1.00, 456.6, 165.9)"> </text><text xml:space="preserve" font-family="Chalkduster,Chalkduster" font-size="29.9" fill="#FEFFFE" transform="matrix(1.00, 0.00, -0.00, -1.00, 471.5, 165.9)">I</text><text xml:space="preserve" font-family="Chalkduster,Chalkduster" font-size="29.9" fill="#FEFFFE" transform="matrix(1.00, 0.00, -0.00, -1.00, 489.3, 165.9)">n</text><text xml:space="preserve" font-family="Chalkduster,Chalkduster" font-size="29.9" fill="#FEFFFE" transform="matrix(1.00, 0.00, -0.00, -1.00, 511.2, 165.9)">f</text><text xml:space="preserve" font-family="Chalkduster,Chalkduster" font-size="29.9" fill="#FEFFFE" transform="matrix(1.00, 0.00, -0.00, -1.00, 528.3, 165.9)">r</text><text xml:space="preserve" font-family="Chalkduster,Chalkduster" font-size="29.9" fill="#FEFFFE" transform="matrix(1.00, 0.00, -0.00, -1.00, 544.1, 165.9)">a</text><text xml:space="preserve" font-family="Chalkduster,Chalkduster" font-size="29.9" fill="#FEFFFE" transform="matrix(1.00, 0.00, -0.00, -1.00, 565.0, 165.9)">s</text><text xml:space="preserve" font-family="Chalkduster,Chalkduster" font-size="29.9" fill="#FEFFFE" transform="matrix(1.00, 0.00, -0.00, -1.00, 581.0, 165.9)">t</text><text xml:space="preserve" font-family="Chalkduster,Chalkduster" font-size="29.9" fill="#FEFFFE" transform="matrix(1.00, 0.00, -0.00, -1.00, 594.7, 165.9)">r</text><text xml:space="preserve" font-family="Chalkduster,Chalkduster" font-size="29.9" fill="#FEFFFE" transform="matrix(1.00, 0.00, -0.00, -1.00, 611.3, 165.9)">u</text><text xml:space="preserve" font-family="Chalkduster,Chalkduster" font-size="29.9" fill="#FEFFFE" transform="matrix(1.00, 0.00, -0.00, -1.00, 631.8, 165.9)">c</text><text xml:space="preserve" font-family="Chalkduster,Chalkduster" font-size="29.9" fill="#FEFFFE" transform="matrix(1.00, 0.00, -0.00, -1.00, 649.5, 165.9)">t</text><text xml:space="preserve" font-family="Chalkduster,Chalkduster" font-size="29.9" fill="#FEFFFE" transform="matrix(1.00, 0.00, -0.00, -1.00, 663.2, 165.9)">u</text><text xml:space="preserve" font-family="Chalkduster,Chalkduster" font-size="29.9" fill="#FEFFFE" transform="matrix(1.00, 0.00, -0.00, -1.00, 684.2, 165.9)">r</text><text xml:space="preserve" font-family="Chalkduster,Chalkduster" font-size="29.9" fill="#FEFFFE" transform="matrix(1.00, 0.00, -0.00, -1.00, 699.3, 165.9)">e</text><text xml:space="preserve" font-family="Chalkduster,Chalkduster" font-size="29.9" fill="#FEFFFE" transform="matrix(1.00, 0.00, -0.00, -1.00, 717.8, 165.9)"> </text><text xml:space="preserve" font-family="Chalkduster,Chalkduster" font-size="29.9" fill="#FEFFFE" transform="matrix(1.00, 0.00, -0.00, -1.00, 732.7, 165.9)">a</text><text xml:space="preserve" font-family="Chalkduster,Chalkduster" font-size="29.9" fill="#FEFFFE" transform="matrix(1.00, 0.00, -0.00, -1.00, 753.6, 165.9)">s</text><text xml:space="preserve" font-family="Chalkduster,Chalkduster" font-size="29.9" fill="#FEFFFE" transform="matrix(1.00, 0.00, -0.00, -1.00, 768.7, 165.9)"> </text><text xml:space="preserve" font-family="Chalkduster,Chalkduster" font-size="29.9" fill="#FEFFFE" transform="matrix(1.00, 0.00, -0.00, -1.00, 783.6, 165.9)">C</text><text xml:space="preserve" font-family="Chalkduster,Chalkduster" font-size="29.9" fill="#FEFFFE" transform="matrix(1.00, 0.00, -0.00, -1.00, 807.8, 165.9)">o</text><text xml:space="preserve" font-family="Chalkduster,Chalkduster" font-size="29.9" fill="#FEFFFE" transform="matrix(1.00, 0.00, -0.00, -1.00, 830.8, 165.9)">d</text><text xml:space="preserve" font-family="Chalkduster,Chalkduster" font-size="29.9" fill="#FEFFFE" transform="matrix(1.00, 0.00, -0.00, -1.00, 854.1, 165.9)">e</text><text xml:space="preserve" font-family="Chalkduster,Chalkduster" font-size="29.9" fill="#FEFFFE" transform="matrix(1.00, 0.00, -0.00, -1.00, 871.4, 165.9)">)</text></g></svg>