<?xml version="1.0" encoding="UTF-8" standalone="no"?><svg xmlns="http://www.w3.org/2000/svg" xmlns:xlink="http://www.w3.org/1999/xlink" clip-rule="evenodd" stroke-miterlimit="10" viewBox="0 0 1024 768"><desc>SVG generated by Keynote</desc><defs></defs><g transform="matrix(1.00, 0.00, -0.00, -1.00, 0.0, 768.0)"><g><clipPath id="clip0x7ff6ad5ca0c0"><path d="M 0.0 768.0 L 1024.0 768.0 L 1024.0 0.0 L 0.0 0.0 Z M 0.0 768.0 "></path></clipPath><g clip-path="url(#clip0x7ff6ad5ca0c0)"><image xlink:href="../../2454F38C-308E-4D93-86A7-ACF877EF01F7/assets/D54D7AAA5FD1EC733BC359F041C689F1.jpeg" width="2048.00" height="1536.00" transform="matrix(0.50, 0.00, -0.00, -0.50, 0.0, 768.0)"></image></g></g><text xml:space="preserve" font-family="Chalkduster,Chalkduster" font-size="20.0" fill="#FEFFFE" transform="matrix(1.00, 0.00, -0.00, -1.00, 359.0, 21.6)">b</text><text xml:space="preserve" font-family="Chalkduster,Chalkduster" font-size="20.0" fill="#FEFFFE" transform="matrix(1.00, 0.00, -0.00, -1.00, 370.0, 21.6)">y</text><text xml:space="preserve" font-family="Chalkduster,Chalkduster" font-size="20.0" fill="#FEFFFE" transform="matrix(1.00, 0.00, -0.00, -1.00, 382.2, 21.6)"> </text><text xml:space="preserve" font-family="Chalkduster,Chalkduster" font-size="20.0" fill="#FEFFFE" transform="matrix(1.00, 0.00, -0.00, -1.00, 392.1, 21.6)">C</text><text xml:space="preserve" font-family="Chalkduster,Chalkduster" font-size="20.0" fill="#FEFFFE" transform="matrix(1.00, 0.00, -0.00, -1.00, 408.4, 21.6)">a</text><text xml:space="preserve" font-family="Chalkduster,Chalkduster" font-size="20.0" fill="#FEFFFE" transform="matrix(1.00, 0.00, -0.00, -1.00, 421.1, 21.6)">r</text><text xml:space="preserve" font-family="Chalkduster,Chalkduster" font-size="20.0" fill="#FEFFFE" transform="matrix(1.00, 0.00, -0.00, -1.00, 432.1, 21.6)">l</text><text xml:space="preserve" font-family="Chalkduster,Chalkduster" font-size="20.0" fill="#FEFFFE" transform="matrix(1.00, 0.00, -0.00, -1.00, 440.7, 21.6)">o</text><text xml:space="preserve" font-family="Chalkduster,Chalkduster" font-size="20.0" fill="#FEFFFE" transform="matrix(1.00, 0.00, -0.00, -1.00, 455.1, 21.6)"> </text><text xml:space="preserve" font-family="Chalkduster,Chalkduster" font-size="20.0" fill="#FEFFFE" transform="matrix(1.00, 0.00, -0.00, -1.00, 463.7, 21.6)">A</text><text xml:space="preserve" font-family="Chalkduster,Chalkduster" font-size="20.0" fill="#FEFFFE" transform="matrix(1.00, 0.00, -0.00, -1.00, 478.5, 21.6)">l</text><text xml:space="preserve" font-family="Chalkduster,Chalkduster" font-size="20.0" fill="#FEFFFE" transform="matrix(1.00, 0.00, -0.00, -1.00, 487.9, 21.6)">b</text><text xml:space="preserve" font-family="Chalkduster,Chalkduster" font-size="20.0" fill="#FEFFFE" transform="matrix(1.00, 0.00, -0.00, -1.00, 499.5, 21.6)">e</text><text xml:space="preserve" font-family="Chalkduster,Chalkduster" font-size="20.0" fill="#FEFFFE" transform="matrix(1.00, 0.00, -0.00, -1.00, 511.7, 21.6)">r</text><text xml:space="preserve" font-family="Chalkduster,Chalkduster" font-size="20.0" fill="#FEFFFE" transform="matrix(1.00, 0.00, -0.00, -1.00, 522.2, 21.6)">t</text><text xml:space="preserve" font-family="Chalkduster,Chalkduster" font-size="20.0" fill="#FEFFFE" transform="matrix(1.00, 0.00, -0.00, -1.00, 530.5, 21.6)">o</text><text xml:space="preserve" font-family="Chalkduster,Chalkduster" font-size="20.0" fill="#FEFFFE" transform="matrix(1.00, 0.00, -0.00, -1.00, 544.9, 21.6)"> </text><text xml:space="preserve" font-family="Chalkduster,Chalkduster" font-size="20.0" fill="#FEFFFE" transform="matrix(1.00, 0.00, -0.00, -1.00, 554.8, 21.6)">D</text><text xml:space="preserve" font-family="Chalkduster,Chalkduster" font-size="20.0" fill="#FEFFFE" transform="matrix(1.00, 0.00, -0.00, -1.00, 568.6, 21.6)">e</text><text xml:space="preserve" font-family="Chalkduster,Chalkduster" font-size="20.0" fill="#FEFFFE" transform="matrix(1.00, 0.00, -0.00, -1.00, 580.4, 21.6)">g</text><text xml:space="preserve" font-family="Chalkduster,Chalkduster" font-size="20.0" fill="#FEFFFE" transform="matrix(1.00, 0.00, -0.00, -1.00, 594.9, 21.6)">l</text><text xml:space="preserve" font-family="Chalkduster,Chalkduster" font-size="20.0" fill="#FEFFFE" transform="matrix(1.00, 0.00, -0.00, -1.00, 604.5, 21.6)">i</text><text xml:space="preserve" font-family="Chalkduster,Chalkduster" font-size="20.0" fill="#FEFFFE" transform="matrix(1.00, 0.00, -0.00, -1.00, 612.4, 21.6)"> </text><text xml:space="preserve" font-family="Chalkduster,Chalkduster" font-size="20.0" fill="#FEFFFE" transform="matrix(1.00, 0.00, -0.00, -1.00, 620.9, 21.6)">A</text><text xml:space="preserve" font-family="Chalkduster,Chalkduster" font-size="20.0" fill="#FEFFFE" transform="matrix(1.00, 0.00, -0.00, -1.00, 635.5, 21.6)">t</text><text xml:space="preserve" font-family="Chalkduster,Chalkduster" font-size="20.0" fill="#FEFFFE" transform="matrix(1.00, 0.00, -0.00, -1.00, 643.8, 21.6)">t</text><text xml:space="preserve" font-family="Chalkduster,Chalkduster" font-size="20.0" fill="#FEFFFE" transform="matrix(1.00, 0.00, -0.00, -1.00, 653.1, 21.6)">i</text><text xml:space="preserve" font-family="Chalkduster,Chalkduster" font-size="20.0" fill="#FEFFFE" transform="matrix(1.00, 0.00, -0.00, -1.00, 661.0, 21.6)"> </text><text xml:space="preserve" font-family="Chalkduster,Chalkduster" font-size="20.0" fill="#FEFFFE" transform="matrix(1.00, 0.00, -0.00, -1.00, 670.9, 21.6)">(</text><text xml:space="preserve" font-family="Chalkduster,Chalkduster" font-size="20.0" fill="#FEFFFE" transform="matrix(1.00, 0.00, -0.00, -1.00, 679.6, 21.6)">@</text><text xml:space="preserve" font-family="Chalkduster,Chalkduster" font-size="20.0" fill="#FEFFFE" transform="matrix(1.00, 0.00, -0.00, -1.00, 696.4, 21.6)">l</text><text xml:space="preserve" font-family="Chalkduster,Chalkduster" font-size="20.0" fill="#FEFFFE" transform="matrix(1.00, 0.00, -0.00, -1.00, 705.0, 21.6)">o</text><text xml:space="preserve" font-family="Chalkduster,Chalkduster" font-size="20.0" fill="#FEFFFE" transform="matrix(1.00, 0.00, -0.00, -1.00, 719.5, 21.6)">r</text><text xml:space="preserve" font-family="Chalkduster,Chalkduster" font-size="20.0" fill="#FEFFFE" transform="matrix(1.00, 0.00, -0.00, -1.00, 730.2, 21.6)">d</text><text xml:space="preserve" font-family="Chalkduster,Chalkduster" font-size="20.0" fill="#FEFFFE" transform="matrix(1.00, 0.00, -0.00, -1.00, 745.8, 21.6)">K</text><text xml:space="preserve" font-family="Chalkduster,Chalkduster" font-size="20.0" fill="#FEFFFE" transform="matrix(1.00, 0.00, -0.00, -1.00, 759.0, 21.6)">a</text><text xml:space="preserve" font-family="Chalkduster,Chalkduster" font-size="20.0" fill="#FEFFFE" transform="matrix(1.00, 0.00, -0.00, -1.00, 772.1, 21.6)">d</text><text xml:space="preserve" font-family="Chalkduster,Chalkduster" font-size="20.0" fill="#FEFFFE" transform="matrix(1.00, 0.00, -0.00, -1.00, 787.7, 21.6)">a</text><text xml:space="preserve" font-family="Chalkduster,Chalkduster" font-size="20.0" fill="#FEFFFE" transform="matrix(1.00, 0.00, -0.00, -1.00, 801.5, 21.6)">)</text><text xml:space="preserve" font-family="Chalkduster,Chalkduster" font-size="20.0" fill="#FEFFFE" transform="matrix(1.00, 0.00, -0.00, -1.00, 811.6, 21.6)"> </text><image xlink:href="../../2454F38C-308E-4D93-86A7-ACF877EF01F7/assets/6AAA538A2569BEA3BCD2D4F395995DA8.png" width="88.00" height="31.00" transform="matrix(1.09, 0.00, -0.00, -1.10, 252.0, 47.0)"></image><text xml:space="preserve" font-family="Chalkduster,Chalkduster" font-size="60.0" fill="#FEFFFE" transform="matrix(1.00, 0.00, -0.00, -1.00, 440.1, 362.8)">Q</text><text xml:space="preserve" font-family="Chalkduster,Chalkduster" font-size="60.0" fill="#FEFFFE" transform="matrix(1.00, 0.00, -0.00, -1.00, 484.6, 362.8)">&amp;</text><text xml:space="preserve" font-family="Chalkduster,Chalkduster" font-size="60.0" fill="#FEFFFE" transform="matrix(1.00, 0.00, -0.00, -1.00, 539.6, 362.8)">A</text></g></svg>