<?xml version="1.0" encoding="UTF-8" standalone="no"?><svg xmlns="http://www.w3.org/2000/svg" xmlns:xlink="http://www.w3.org/1999/xlink" clip-rule="evenodd" stroke-miterlimit="10" viewBox="0 0 1024 768"><desc>SVG generated by Keynote</desc><defs></defs><g transform="matrix(1.00, 0.00, -0.00, -1.00, 0.0, 768.0)"><g><clipPath id="clip0x7ff6cab56f10"><path d="M 0.0 768.0 L 1024.0 768.0 L 1024.0 0.0 L 0.0 0.0 Z M 0.0 768.0 "></path></clipPath><g clip-path="url(#clip0x7ff6cab56f10)"><image xlink:href="../../2454F38C-308E-4D93-86A7-ACF877EF01F7/assets/D54D7AAA5FD1EC733BC359F041C689F1.jpeg" width="2048.00" height="1536.00" transform="matrix(0.50, 0.00, -0.00, -0.50, 0.0, 768.0)"></image></g></g><text xml:space="preserve" font-family="Chalkduster,Chalkduster" font-size="20.0" fill="#FEFFFE" transform="matrix(1.00, 0.00, -0.00, -1.00, 359.0, 21.6)">b</text><text xml:space="preserve" font-family="Chalkduster,Chalkduster" font-size="20.0" fill="#FEFFFE" transform="matrix(1.00, 0.00, -0.00, -1.00, 370.0, 21.6)">y</text><text xml:space="preserve" font-family="Chalkduster,Chalkduster" font-size="20.0" fill="#FEFFFE" transform="matrix(1.00, 0.00, -0.00, -1.00, 382.2, 21.6)"> </text><text xml:space="preserve" font-family="Chalkduster,Chalkduster" font-size="20.0" fill="#FEFFFE" transform="matrix(1.00, 0.00, -0.00, -1.00, 392.1, 21.6)">C</text><text xml:space="preserve" font-family="Chalkduster,Chalkduster" font-size="20.0" fill="#FEFFFE" transform="matrix(1.00, 0.00, -0.00, -1.00, 408.4, 21.6)">a</text><text xml:space="preserve" font-family="Chalkduster,Chalkduster" font-size="20.0" fill="#FEFFFE" transform="matrix(1.00, 0.00, -0.00, -1.00, 421.1, 21.6)">r</text><text xml:space="preserve" font-family="Chalkduster,Chalkduster" font-size="20.0" fill="#FEFFFE" transform="matrix(1.00, 0.00, -0.00, -1.00, 432.1, 21.6)">l</text><text xml:space="preserve" font-family="Chalkduster,Chalkduster" font-size="20.0" fill="#FEFFFE" transform="matrix(1.00, 0.00, -0.00, -1.00, 440.7, 21.6)">o</text><text xml:space="preserve" font-family="Chalkduster,Chalkduster" font-size="20.0" fill="#FEFFFE" transform="matrix(1.00, 0.00, -0.00, -1.00, 455.1, 21.6)"> </text><text xml:space="preserve" font-family="Chalkduster,Chalkduster" font-size="20.0" fill="#FEFFFE" transform="matrix(1.00, 0.00, -0.00, -1.00, 463.7, 21.6)">A</text><text xml:space="preserve" font-family="Chalkduster,Chalkduster" font-size="20.0" fill="#FEFFFE" transform="matrix(1.00, 0.00, -0.00, -1.00, 478.5, 21.6)">l</text><text xml:space="preserve" font-family="Chalkduster,Chalkduster" font-size="20.0" fill="#FEFFFE" transform="matrix(1.00, 0.00, -0.00, -1.00, 487.9, 21.6)">b</text><text xml:space="preserve" font-family="Chalkduster,Chalkduster" font-size="20.0" fill="#FEFFFE" transform="matrix(1.00, 0.00, -0.00, -1.00, 499.5, 21.6)">e</text><text xml:space="preserve" font-family="Chalkduster,Chalkduster" font-size="20.0" fill="#FEFFFE" transform="matrix(1.00, 0.00, -0.00, -1.00, 511.7, 21.6)">r</text><text xml:space="preserve" font-family="Chalkduster,Chalkduster" font-size="20.0" fill="#FEFFFE" transform="matrix(1.00, 0.00, -0.00, -1.00, 522.2, 21.6)">t</text><text xml:space="preserve" font-family="Chalkduster,Chalkduster" font-size="20.0" fill="#FEFFFE" transform="matrix(1.00, 0.00, -0.00, -1.00, 530.5, 21.6)">o</text><text xml:space="preserve" font-family="Chalkduster,Chalkduster" font-size="20.0" fill="#FEFFFE" transform="matrix(1.00, 0.00, -0.00, -1.00, 544.9, 21.6)"> </text><text xml:space="preserve" font-family="Chalkduster,Chalkduster" font-size="20.0" fill="#FEFFFE" transform="matrix(1.00, 0.00, -0.00, -1.00, 554.8, 21.6)">D</text><text xml:space="preserve" font-family="Chalkduster,Chalkduster" font-size="20.0" fill="#FEFFFE" transform="matrix(1.00, 0.00, -0.00, -1.00, 568.6, 21.6)">e</text><text xml:space="preserve" font-family="Chalkduster,Chalkduster" font-size="20.0" fill="#FEFFFE" transform="matrix(1.00, 0.00, -0.00, -1.00, 580.4, 21.6)">g</text><text xml:space="preserve" font-family="Chalkduster,Chalkduster" font-size="20.0" fill="#FEFFFE" transform="matrix(1.00, 0.00, -0.00, -1.00, 594.9, 21.6)">l</text><text xml:space="preserve" font-family="Chalkduster,Chalkduster" font-size="20.0" fill="#FEFFFE" transform="matrix(1.00, 0.00, -0.00, -1.00, 604.5, 21.6)">i</text><text xml:space="preserve" font-family="Chalkduster,Chalkduster" font-size="20.0" fill="#FEFFFE" transform="matrix(1.00, 0.00, -0.00, -1.00, 612.4, 21.6)"> </text><text xml:space="preserve" font-family="Chalkduster,Chalkduster" font-size="20.0" fill="#FEFFFE" transform="matrix(1.00, 0.00, -0.00, -1.00, 620.9, 21.6)">A</text><text xml:space="preserve" font-family="Chalkduster,Chalkduster" font-size="20.0" fill="#FEFFFE" transform="matrix(1.00, 0.00, -0.00, -1.00, 635.5, 21.6)">t</text><text xml:space="preserve" font-family="Chalkduster,Chalkduster" font-size="20.0" fill="#FEFFFE" transform="matrix(1.00, 0.00, -0.00, -1.00, 643.8, 21.6)">t</text><text xml:space="preserve" font-family="Chalkduster,Chalkduster" font-size="20.0" fill="#FEFFFE" transform="matrix(1.00, 0.00, -0.00, -1.00, 653.1, 21.6)">i</text><text xml:space="preserve" font-family="Chalkduster,Chalkduster" font-size="20.0" fill="#FEFFFE" transform="matrix(1.00, 0.00, -0.00, -1.00, 661.0, 21.6)"> </text><text xml:space="preserve" font-family="Chalkduster,Chalkduster" font-size="20.0" fill="#FEFFFE" transform="matrix(1.00, 0.00, -0.00, -1.00, 670.9, 21.6)">(</text><text xml:space="preserve" font-family="Chalkduster,Chalkduster" font-size="20.0" fill="#FEFFFE" transform="matrix(1.00, 0.00, -0.00, -1.00, 679.6, 21.6)">@</text><text xml:space="preserve" font-family="Chalkduster,Chalkduster" font-size="20.0" fill="#FEFFFE" transform="matrix(1.00, 0.00, -0.00, -1.00, 696.4, 21.6)">l</text><text xml:space="preserve" font-family="Chalkduster,Chalkduster" font-size="20.0" fill="#FEFFFE" transform="matrix(1.00, 0.00, -0.00, -1.00, 705.0, 21.6)">o</text><text xml:space="preserve" font-family="Chalkduster,Chalkduster" font-size="20.0" fill="#FEFFFE" transform="matrix(1.00, 0.00, -0.00, -1.00, 719.5, 21.6)">r</text><text xml:space="preserve" font-family="Chalkduster,Chalkduster" font-size="20.0" fill="#FEFFFE" transform="matrix(1.00, 0.00, -0.00, -1.00, 730.2, 21.6)">d</text><text xml:space="preserve" font-family="Chalkduster,Chalkduster" font-size="20.0" fill="#FEFFFE" transform="matrix(1.00, 0.00, -0.00, -1.00, 745.8, 21.6)">K</text><text xml:space="preserve" font-family="Chalkduster,Chalkduster" font-size="20.0" fill="#FEFFFE" transform="matrix(1.00, 0.00, -0.00, -1.00, 759.0, 21.6)">a</text><text xml:space="preserve" font-family="Chalkduster,Chalkduster" font-size="20.0" fill="#FEFFFE" transform="matrix(1.00, 0.00, -0.00, -1.00, 772.1, 21.6)">d</text><text xml:space="preserve" font-family="Chalkduster,Chalkduster" font-size="20.0" fill="#FEFFFE" transform="matrix(1.00, 0.00, -0.00, -1.00, 787.7, 21.6)">a</text><text xml:space="preserve" font-family="Chalkduster,Chalkduster" font-size="20.0" fill="#FEFFFE" transform="matrix(1.00, 0.00, -0.00, -1.00, 801.5, 21.6)">)</text><text xml:space="preserve" font-family="Chalkduster,Chalkduster" font-size="20.0" fill="#FEFFFE" transform="matrix(1.00, 0.00, -0.00, -1.00, 811.6, 21.6)"> </text><image xlink:href="../../2454F38C-308E-4D93-86A7-ACF877EF01F7/assets/6AAA538A2569BEA3BCD2D4F395995DA8.png" width="88.00" height="31.00" transform="matrix(1.09, 0.00, -0.00, -1.10, 252.0, 47.0)"></image><text xml:space="preserve" font-family="Chalkduster,Chalkduster" font-size="60.0" fill="#FEFFFE" transform="matrix(1.00, 0.00, -0.00, -1.00, 127.3, 630.8)">C</text><text xml:space="preserve" font-family="Chalkduster,Chalkduster" font-size="60.0" fill="#FEFFFE" transform="matrix(1.00, 0.00, -0.00, -1.00, 176.0, 630.8)">o</text><text xml:space="preserve" font-family="Chalkduster,Chalkduster" font-size="60.0" fill="#FEFFFE" transform="matrix(1.00, 0.00, -0.00, -1.00, 220.6, 630.8)">n</text><text xml:space="preserve" font-family="Chalkduster,Chalkduster" font-size="60.0" fill="#FEFFFE" transform="matrix(1.00, 0.00, -0.00, -1.00, 264.6, 630.8)">f</text><text xml:space="preserve" font-family="Chalkduster,Chalkduster" font-size="60.0" fill="#FEFFFE" transform="matrix(1.00, 0.00, -0.00, -1.00, 296.6, 630.8)">l</text><text xml:space="preserve" font-family="Chalkduster,Chalkduster" font-size="60.0" fill="#FEFFFE" transform="matrix(1.00, 0.00, -0.00, -1.00, 325.4, 630.8)">i</text><text xml:space="preserve" font-family="Chalkduster,Chalkduster" font-size="60.0" fill="#FEFFFE" transform="matrix(1.00, 0.00, -0.00, -1.00, 349.7, 630.8)">c</text><text xml:space="preserve" font-family="Chalkduster,Chalkduster" font-size="60.0" fill="#FEFFFE" transform="matrix(1.00, 0.00, -0.00, -1.00, 385.3, 630.8)">t</text><text xml:space="preserve" font-family="Chalkduster,Chalkduster" font-size="60.0" fill="#FEFFFE" transform="matrix(1.00, 0.00, -0.00, -1.00, 412.7, 630.8)"> </text><text xml:space="preserve" font-family="Chalkduster,Chalkduster" font-size="60.0" fill="#FEFFFE" transform="matrix(1.00, 0.00, -0.00, -1.00, 442.5, 630.8)">&amp;</text><text xml:space="preserve" font-family="Chalkduster,Chalkduster" font-size="60.0" fill="#FEFFFE" transform="matrix(1.00, 0.00, -0.00, -1.00, 497.5, 630.8)"> </text><text xml:space="preserve" font-family="Chalkduster,Chalkduster" font-size="60.0" fill="#FEFFFE" transform="matrix(1.00, 0.00, -0.00, -1.00, 527.3, 630.8)">R</text><text xml:space="preserve" font-family="Chalkduster,Chalkduster" font-size="60.0" fill="#FEFFFE" transform="matrix(1.00, 0.00, -0.00, -1.00, 574.0, 630.8)">e</text><text xml:space="preserve" font-family="Chalkduster,Chalkduster" font-size="60.0" fill="#FEFFFE" transform="matrix(1.00, 0.00, -0.00, -1.00, 612.6, 630.8)">s</text><text xml:space="preserve" font-family="Chalkduster,Chalkduster" font-size="60.0" fill="#FEFFFE" transform="matrix(1.00, 0.00, -0.00, -1.00, 642.9, 630.8)">o</text><text xml:space="preserve" font-family="Chalkduster,Chalkduster" font-size="60.0" fill="#FEFFFE" transform="matrix(1.00, 0.00, -0.00, -1.00, 688.5, 630.8)">l</text><text xml:space="preserve" font-family="Chalkduster,Chalkduster" font-size="60.0" fill="#FEFFFE" transform="matrix(1.00, 0.00, -0.00, -1.00, 716.1, 630.8)">u</text><text xml:space="preserve" font-family="Chalkduster,Chalkduster" font-size="60.0" fill="#FEFFFE" transform="matrix(1.00, 0.00, -0.00, -1.00, 756.7, 630.8)">t</text><text xml:space="preserve" font-family="Chalkduster,Chalkduster" font-size="60.0" fill="#FEFFFE" transform="matrix(1.00, 0.00, -0.00, -1.00, 784.5, 630.8)">i</text><text xml:space="preserve" font-family="Chalkduster,Chalkduster" font-size="60.0" fill="#FEFFFE" transform="matrix(1.00, 0.00, -0.00, -1.00, 808.2, 630.8)">o</text><text xml:space="preserve" font-family="Chalkduster,Chalkduster" font-size="60.0" fill="#FEFFFE" transform="matrix(1.00, 0.00, -0.00, -1.00, 852.8, 630.8)">n</text><image xlink:href="../../8FD30753-B203-4069-9B27-74642F6BE1D2/assets/3B5C670785719DE85639E8117F6650DB.png" width="778.00" height="237.00" transform="matrix(0.81, 0.00, -0.00, -0.81, 237.0, 262.0)"></image><text xml:space="preserve" font-family="Chalkduster,Chalkduster" font-size="23.0" fill="#FEFFFE" transform="matrix(1.00, 0.00, -0.00, -1.00, 597.8, 511.0)">H</text><text xml:space="preserve" font-family="Chalkduster,Chalkduster" font-size="23.0" fill="#FEFFFE" transform="matrix(1.00, 0.00, -0.00, -1.00, 611.9, 511.0)">e</text><text xml:space="preserve" font-family="Chalkduster,Chalkduster" font-size="23.0" fill="#FEFFFE" transform="matrix(1.00, 0.00, -0.00, -1.00, 626.0, 511.0)">r</text><text xml:space="preserve" font-family="Chalkduster,Chalkduster" font-size="23.0" fill="#FEFFFE" transform="matrix(1.00, 0.00, -0.00, -1.00, 637.6, 511.0)">e</text><text xml:space="preserve" font-family="Chalkduster,Chalkduster" font-size="23.0" fill="#FEFFFE" transform="matrix(1.00, 0.00, -0.00, -1.00, 651.9, 511.0)"> </text><text xml:space="preserve" font-family="Chalkduster,Chalkduster" font-size="23.0" fill="#FEFFFE" transform="matrix(1.00, 0.00, -0.00, -1.00, 663.3, 511.0)">i</text><text xml:space="preserve" font-family="Chalkduster,Chalkduster" font-size="23.0" fill="#FEFFFE" transform="matrix(1.00, 0.00, -0.00, -1.00, 672.4, 511.0)">s</text><text xml:space="preserve" font-family="Chalkduster,Chalkduster" font-size="23.0" fill="#FEFFFE" transform="matrix(1.00, 0.00, -0.00, -1.00, 684.0, 511.0)"> </text><text xml:space="preserve" font-family="Chalkduster,Chalkduster" font-size="23.0" fill="#FEFFFE" transform="matrix(1.00, 0.00, -0.00, -1.00, 695.4, 511.0)">t</text><text xml:space="preserve" font-family="Chalkduster,Chalkduster" font-size="23.0" fill="#FEFFFE" transform="matrix(1.00, 0.00, -0.00, -1.00, 706.4, 511.0)">h</text><text xml:space="preserve" font-family="Chalkduster,Chalkduster" font-size="23.0" fill="#FEFFFE" transform="matrix(1.00, 0.00, -0.00, -1.00, 720.6, 511.0)">e</text><text xml:space="preserve" font-family="Chalkduster,Chalkduster" font-size="23.0" fill="#FEFFFE" transform="matrix(1.00, 0.00, -0.00, -1.00, 734.9, 511.0)"> </text><text xml:space="preserve" font-family="Chalkduster,Chalkduster" font-size="23.0" fill="#FEFFFE" transform="matrix(1.00, 0.00, -0.00, -1.00, 746.3, 511.0)">o</text><text xml:space="preserve" font-family="Chalkduster,Chalkduster" font-size="23.0" fill="#FEFFFE" transform="matrix(1.00, 0.00, -0.00, -1.00, 763.1, 511.0)">r</text><text xml:space="preserve" font-family="Chalkduster,Chalkduster" font-size="23.0" fill="#FEFFFE" transform="matrix(1.00, 0.00, -0.00, -1.00, 775.8, 511.0)">i</text><text xml:space="preserve" font-family="Chalkduster,Chalkduster" font-size="23.0" fill="#FEFFFE" transform="matrix(1.00, 0.00, -0.00, -1.00, 784.9, 511.0)">g</text><text xml:space="preserve" font-family="Chalkduster,Chalkduster" font-size="23.0" fill="#FEFFFE" transform="matrix(1.00, 0.00, -0.00, -1.00, 801.4, 511.0)">i</text><text xml:space="preserve" font-family="Chalkduster,Chalkduster" font-size="23.0" fill="#FEFFFE" transform="matrix(1.00, 0.00, -0.00, -1.00, 810.5, 511.0)">n</text><text xml:space="preserve" font-family="Chalkduster,Chalkduster" font-size="23.0" fill="#FEFFFE" transform="matrix(1.00, 0.00, -0.00, -1.00, 827.3, 511.0)">a</text><text xml:space="preserve" font-family="Chalkduster,Chalkduster" font-size="23.0" fill="#FEFFFE" transform="matrix(1.00, 0.00, -0.00, -1.00, 842.3, 511.0)">l</text><text xml:space="preserve" font-family="Chalkduster,Chalkduster" font-size="23.0" fill="#FEFFFE" transform="matrix(1.00, 0.00, -0.00, -1.00, 853.0, 511.0)"> </text><text xml:space="preserve" font-family="Chalkduster,Chalkduster" font-size="23.0" fill="#FEFFFE" transform="matrix(1.00, 0.00, -0.00, -1.00, 864.5, 511.0)">c</text><text xml:space="preserve" font-family="Chalkduster,Chalkduster" font-size="23.0" fill="#FEFFFE" transform="matrix(1.00, 0.00, -0.00, -1.00, 879.0, 511.0)">h</text><text xml:space="preserve" font-family="Chalkduster,Chalkduster" font-size="23.0" fill="#FEFFFE" transform="matrix(1.00, 0.00, -0.00, -1.00, 893.2, 511.0)">a</text><text xml:space="preserve" font-family="Chalkduster,Chalkduster" font-size="23.0" fill="#FEFFFE" transform="matrix(1.00, 0.00, -0.00, -1.00, 909.0, 511.0)">n</text><text xml:space="preserve" font-family="Chalkduster,Chalkduster" font-size="23.0" fill="#FEFFFE" transform="matrix(1.00, 0.00, -0.00, -1.00, 925.2, 511.0)">g</text><text xml:space="preserve" font-family="Chalkduster,Chalkduster" font-size="23.0" fill="#FEFFFE" transform="matrix(1.00, 0.00, -0.00, -1.00, 941.2, 511.0)">e</text><text xml:space="preserve" font-family="Chalkduster,Chalkduster" font-size="23.0" fill="#FEFFFE" transform="matrix(1.00, 0.00, -0.00, -1.00, 954.6, 511.0)">.</text><text xml:space="preserve" font-family="Chalkduster,Chalkduster" font-size="23.0" fill="#FEFFFE" transform="matrix(1.00, 0.00, -0.00, -1.00, 103.7, 403.9)">H</text><text xml:space="preserve" font-family="Chalkduster,Chalkduster" font-size="23.0" fill="#FEFFFE" transform="matrix(1.00, 0.00, -0.00, -1.00, 117.9, 403.9)">e</text><text xml:space="preserve" font-family="Chalkduster,Chalkduster" font-size="23.0" fill="#FEFFFE" transform="matrix(1.00, 0.00, -0.00, -1.00, 131.9, 403.9)">r</text><text xml:space="preserve" font-family="Chalkduster,Chalkduster" font-size="23.0" fill="#FEFFFE" transform="matrix(1.00, 0.00, -0.00, -1.00, 143.6, 403.9)">e</text><text xml:space="preserve" font-family="Chalkduster,Chalkduster" font-size="23.0" fill="#FEFFFE" transform="matrix(1.00, 0.00, -0.00, -1.00, 157.8, 403.9)"> </text><text xml:space="preserve" font-family="Chalkduster,Chalkduster" font-size="23.0" fill="#FEFFFE" transform="matrix(1.00, 0.00, -0.00, -1.00, 169.3, 403.9)">i</text><text xml:space="preserve" font-family="Chalkduster,Chalkduster" font-size="23.0" fill="#FEFFFE" transform="matrix(1.00, 0.00, -0.00, -1.00, 178.3, 403.9)">s</text><text xml:space="preserve" font-family="Chalkduster,Chalkduster" font-size="23.0" fill="#FEFFFE" transform="matrix(1.00, 0.00, -0.00, -1.00, 190.0, 403.9)"> </text><text xml:space="preserve" font-family="Chalkduster,Chalkduster" font-size="23.0" fill="#FEFFFE" transform="matrix(1.00, 0.00, -0.00, -1.00, 201.4, 403.9)">t</text><text xml:space="preserve" font-family="Chalkduster,Chalkduster" font-size="23.0" fill="#FEFFFE" transform="matrix(1.00, 0.00, -0.00, -1.00, 212.4, 403.9)">h</text><text xml:space="preserve" font-family="Chalkduster,Chalkduster" font-size="23.0" fill="#FEFFFE" transform="matrix(1.00, 0.00, -0.00, -1.00, 226.6, 403.9)">e</text><text xml:space="preserve" font-family="Chalkduster,Chalkduster" font-size="23.0" fill="#FEFFFE" transform="matrix(1.00, 0.00, -0.00, -1.00, 240.8, 403.9)"> </text><text xml:space="preserve" font-family="Chalkduster,Chalkduster" font-size="23.0" fill="#FEFFFE" transform="matrix(1.00, 0.00, -0.00, -1.00, 252.3, 403.9)">m</text><text xml:space="preserve" font-family="Chalkduster,Chalkduster" font-size="23.0" fill="#FEFFFE" transform="matrix(1.00, 0.00, -0.00, -1.00, 275.6, 403.9)">o</text><text xml:space="preserve" font-family="Chalkduster,Chalkduster" font-size="23.0" fill="#FEFFFE" transform="matrix(1.00, 0.00, -0.00, -1.00, 293.2, 403.9)">d</text><text xml:space="preserve" font-family="Chalkduster,Chalkduster" font-size="23.0" fill="#FEFFFE" transform="matrix(1.00, 0.00, -0.00, -1.00, 312.2, 403.9)">i</text><text xml:space="preserve" font-family="Chalkduster,Chalkduster" font-size="23.0" fill="#FEFFFE" transform="matrix(1.00, 0.00, -0.00, -1.00, 320.1, 403.9)">f</text><text xml:space="preserve" font-family="Chalkduster,Chalkduster" font-size="23.0" fill="#FEFFFE" transform="matrix(1.00, 0.00, -0.00, -1.00, 332.4, 403.9)">i</text><text xml:space="preserve" font-family="Chalkduster,Chalkduster" font-size="23.0" fill="#FEFFFE" transform="matrix(1.00, 0.00, -0.00, -1.00, 341.5, 403.9)">e</text><text xml:space="preserve" font-family="Chalkduster,Chalkduster" font-size="23.0" fill="#FEFFFE" transform="matrix(1.00, 0.00, -0.00, -1.00, 356.5, 403.9)">d</text><text xml:space="preserve" font-family="Chalkduster,Chalkduster" font-size="23.0" fill="#FEFFFE" transform="matrix(1.00, 0.00, -0.00, -1.00, 374.4, 403.9)"> </text><text xml:space="preserve" font-family="Chalkduster,Chalkduster" font-size="23.0" fill="#FEFFFE" transform="matrix(1.00, 0.00, -0.00, -1.00, 385.9, 403.9)">c</text><text xml:space="preserve" font-family="Chalkduster,Chalkduster" font-size="23.0" fill="#FEFFFE" transform="matrix(1.00, 0.00, -0.00, -1.00, 400.3, 403.9)">h</text><text xml:space="preserve" font-family="Chalkduster,Chalkduster" font-size="23.0" fill="#FEFFFE" transform="matrix(1.00, 0.00, -0.00, -1.00, 414.5, 403.9)">a</text><text xml:space="preserve" font-family="Chalkduster,Chalkduster" font-size="23.0" fill="#FEFFFE" transform="matrix(1.00, 0.00, -0.00, -1.00, 430.4, 403.9)">n</text><text xml:space="preserve" font-family="Chalkduster,Chalkduster" font-size="23.0" fill="#FEFFFE" transform="matrix(1.00, 0.00, -0.00, -1.00, 446.6, 403.9)">g</text><text xml:space="preserve" font-family="Chalkduster,Chalkduster" font-size="23.0" fill="#FEFFFE" transform="matrix(1.00, 0.00, -0.00, -1.00, 462.6, 403.9)">e</text><text xml:space="preserve" font-family="Chalkduster,Chalkduster" font-size="23.0" fill="#FEFFFE" transform="matrix(1.00, 0.00, -0.00, -1.00, 476.0, 403.9)">.</text><text xml:space="preserve" font-family="Chalkduster,Chalkduster" font-size="33.0" fill="#FFE181" transform="matrix(1.00, 0.00, -0.00, -1.00, 61.5, 508.4)">P</text><text xml:space="preserve" font-family="Chalkduster,Chalkduster" font-size="33.0" fill="#FFE181" transform="matrix(1.00, 0.00, -0.00, -1.00, 82.8, 508.4)">a</text><text xml:space="preserve" font-family="Chalkduster,Chalkduster" font-size="33.0" fill="#FFE181" transform="matrix(1.00, 0.00, -0.00, -1.00, 105.5, 508.4)">o</text><text xml:space="preserve" font-family="Chalkduster,Chalkduster" font-size="33.0" fill="#FFE181" transform="matrix(1.00, 0.00, -0.00, -1.00, 130.6, 508.4)">l</text><text xml:space="preserve" font-family="Chalkduster,Chalkduster" font-size="33.0" fill="#FFE181" transform="matrix(1.00, 0.00, -0.00, -1.00, 144.8, 508.4)">o</text><text xml:space="preserve" font-family="Chalkduster,Chalkduster" font-size="33.0" fill="#FFE181" transform="matrix(1.00, 0.00, -0.00, -1.00, 168.6, 508.4)"> </text><text xml:space="preserve" font-family="Chalkduster,Chalkduster" font-size="33.0" fill="#FFE181" transform="matrix(1.00, 0.00, -0.00, -1.00, 185.0, 508.4)">m</text><text xml:space="preserve" font-family="Chalkduster,Chalkduster" font-size="33.0" fill="#FFE181" transform="matrix(1.00, 0.00, -0.00, -1.00, 218.4, 508.4)">o</text><text xml:space="preserve" font-family="Chalkduster,Chalkduster" font-size="33.0" fill="#FFE181" transform="matrix(1.00, 0.00, -0.00, -1.00, 243.7, 508.4)">d</text><text xml:space="preserve" font-family="Chalkduster,Chalkduster" font-size="33.0" fill="#FFE181" transform="matrix(1.00, 0.00, -0.00, -1.00, 270.9, 508.4)">i</text><text xml:space="preserve" font-family="Chalkduster,Chalkduster" font-size="33.0" fill="#FFE181" transform="matrix(1.00, 0.00, -0.00, -1.00, 282.3, 508.4)">f</text><text xml:space="preserve" font-family="Chalkduster,Chalkduster" font-size="33.0" fill="#FFE181" transform="matrix(1.00, 0.00, -0.00, -1.00, 299.9, 508.4)">i</text><text xml:space="preserve" font-family="Chalkduster,Chalkduster" font-size="33.0" fill="#FFE181" transform="matrix(1.00, 0.00, -0.00, -1.00, 313.3, 508.4)">c</text><text xml:space="preserve" font-family="Chalkduster,Chalkduster" font-size="33.0" fill="#FFE181" transform="matrix(1.00, 0.00, -0.00, -1.00, 332.8, 508.4)">a</text><text xml:space="preserve" font-family="Chalkduster,Chalkduster" font-size="33.0" fill="#FFE181" transform="matrix(1.00, 0.00, -0.00, -1.00, 355.5, 508.4)"> </text><text xml:space="preserve" font-family="Chalkduster,Chalkduster" font-size="33.0" fill="#FFE181" transform="matrix(1.00, 0.00, -0.00, -1.00, 366.4, 508.4)">“</text><text xml:space="preserve" font-family="Chalkduster,Chalkduster" font-size="33.0" fill="#FFE181" transform="matrix(1.00, 0.00, -0.00, -1.00, 380.3, 508.4)">f</text><text xml:space="preserve" font-family="Chalkduster,Chalkduster" font-size="33.0" fill="#FFE181" transform="matrix(1.00, 0.00, -0.00, -1.00, 397.9, 508.4)">i</text><text xml:space="preserve" font-family="Chalkduster,Chalkduster" font-size="33.0" fill="#FFE181" transform="matrix(1.00, 0.00, -0.00, -1.00, 411.2, 508.4)">l</text><text xml:space="preserve" font-family="Chalkduster,Chalkduster" font-size="33.0" fill="#FFE181" transform="matrix(1.00, 0.00, -0.00, -1.00, 424.9, 508.4)">e</text><text xml:space="preserve" font-family="Chalkduster,Chalkduster" font-size="33.0" fill="#FFE181" transform="matrix(1.00, 0.00, -0.00, -1.00, 444.1, 508.4)">.</text><text xml:space="preserve" font-family="Chalkduster,Chalkduster" font-size="33.0" fill="#FFE181" transform="matrix(1.00, 0.00, -0.00, -1.00, 455.3, 508.4)">t</text><text xml:space="preserve" font-family="Chalkduster,Chalkduster" font-size="33.0" fill="#FFE181" transform="matrix(1.00, 0.00, -0.00, -1.00, 470.4, 508.4)">x</text><text xml:space="preserve" font-family="Chalkduster,Chalkduster" font-size="33.0" fill="#FFE181" transform="matrix(1.00, 0.00, -0.00, -1.00, 491.4, 508.4)">t</text><text xml:space="preserve" font-family="Chalkduster,Chalkduster" font-size="33.0" fill="#FFE181" transform="matrix(1.00, 0.00, -0.00, -1.00, 506.5, 508.4)">”</text><image xlink:href="../../8FD30753-B203-4069-9B27-74642F6BE1D2/assets/A28CF069EC5292A3CB17C5AF54618FEE.png" width="53.00" height="53.00" transform="matrix(1.00, 0.00, -0.00, -1.00, 530.9, 542.3)" opacity="0.50"></image><g><clipPath id="clip0x7ff6ca858130"><path d="M 551.0 509.0 L 551.0 494.3 L 578.9 515.8 L 551.0 537.3 L 551.0 523.0 L 536.0 523.0 L 536.0 509.0 Z M 551.4 509.0 "></path></clipPath><g clip-path="url(#clip0x7ff6ca858130)"><image xlink:href="../../91A5F4D2-F11B-4FD2-BB84-9207B9EA5371/assets/012B48B79F4F9BA149C15F1DC5C53BAF.jpeg" width="800.00" height="800.00" transform="matrix(0.50, 0.00, -0.00, -0.50, 536.0, 537.3)"></image></g></g><text xml:space="preserve" font-family="Chalkduster,Chalkduster" font-size="33.0" fill="#FFE181" transform="matrix(1.00, 0.00, -0.00, -1.00, 630.7, 406.7)">A</text><text xml:space="preserve" font-family="Chalkduster,Chalkduster" font-size="33.0" fill="#FFE181" transform="matrix(1.00, 0.00, -0.00, -1.00, 655.1, 406.7)">n</text><text xml:space="preserve" font-family="Chalkduster,Chalkduster" font-size="33.0" fill="#FFE181" transform="matrix(1.00, 0.00, -0.00, -1.00, 679.3, 406.7)">c</text><text xml:space="preserve" font-family="Chalkduster,Chalkduster" font-size="33.0" fill="#FFE181" transform="matrix(1.00, 0.00, -0.00, -1.00, 700.1, 406.7)">h</text><text xml:space="preserve" font-family="Chalkduster,Chalkduster" font-size="33.0" fill="#FFE181" transform="matrix(1.00, 0.00, -0.00, -1.00, 720.5, 406.7)">e</text><text xml:space="preserve" font-family="Chalkduster,Chalkduster" font-size="33.0" fill="#FFE181" transform="matrix(1.00, 0.00, -0.00, -1.00, 740.9, 406.7)"> </text><text xml:space="preserve" font-family="Chalkduster,Chalkduster" font-size="33.0" fill="#FFE181" transform="matrix(1.00, 0.00, -0.00, -1.00, 757.3, 406.7)">M</text><text xml:space="preserve" font-family="Chalkduster,Chalkduster" font-size="33.0" fill="#FFE181" transform="matrix(1.00, 0.00, -0.00, -1.00, 785.1, 406.7)">a</text><text xml:space="preserve" font-family="Chalkduster,Chalkduster" font-size="33.0" fill="#FFE181" transform="matrix(1.00, 0.00, -0.00, -1.00, 806.1, 406.7)">r</text><text xml:space="preserve" font-family="Chalkduster,Chalkduster" font-size="33.0" fill="#FFE181" transform="matrix(1.00, 0.00, -0.00, -1.00, 824.4, 406.7)">i</text><text xml:space="preserve" font-family="Chalkduster,Chalkduster" font-size="33.0" fill="#FFE181" transform="matrix(1.00, 0.00, -0.00, -1.00, 837.4, 406.7)">o</text><text xml:space="preserve" font-family="Chalkduster,Chalkduster" font-size="33.0" fill="#FFE181" transform="matrix(1.00, 0.00, -0.00, -1.00, 861.1, 406.7)">!</text><text xml:space="preserve" font-family="Chalkduster,Chalkduster" font-size="33.0" fill="#FFE181" transform="matrix(1.00, 0.00, -0.00, -1.00, 872.7, 406.7)">!</text><image xlink:href="../../8FD30753-B203-4069-9B27-74642F6BE1D2/assets/5BF6C22B0470AC725B5ADA424E3F8CE6.png" width="53.00" height="53.00" transform="matrix(1.00, 0.00, -0.00, -1.00, 525.6, 441.4)" opacity="0.50"></image><g><clipPath id="clip0x7ff6cab5e360"><path d="M 558.0 408.0 L 558.0 393.4 L 530.6 414.9 L 558.0 436.4 L 558.0 422.0 L 574.0 422.0 L 574.0 408.0 Z M 558.1 408.0 "></path></clipPath><g clip-path="url(#clip0x7ff6cab5e360)"><image xlink:href="../../91A5F4D2-F11B-4FD2-BB84-9207B9EA5371/assets/012B48B79F4F9BA149C15F1DC5C53BAF.jpeg" width="800.00" height="800.00" transform="matrix(0.50, 0.00, -0.00, -0.50, 530.6, 436.4)"></image></g></g><image xlink:href="../../8FD30753-B203-4069-9B27-74642F6BE1D2/assets/13F328BB0C94068E9991F151DDD72781.png" width="53.00" height="53.00" transform="matrix(0.00, 1.00, 1.00, -0.00, 525.6, 289.4)" opacity="0.50"></image><path d="M 559.0 322.0 L 573.6 322.0 L 552.1 294.4 L 530.6 322.0 L 545.0 322.0 L 545.0 337.0 L 559.0 337.0 Z M 559.0 321.9 " fill="#C03520"></path><image xlink:href="../../8FD30753-B203-4069-9B27-74642F6BE1D2/assets/3BC2F62BCB87EBF30B24896A3250F270.png" width="180.00" height="76.00" transform="matrix(0.24, 0.00, -0.00, -0.24, 530.6, 294.4)"></image></g></svg>