<?xml version="1.0" encoding="UTF-8" standalone="no"?><svg xmlns="http://www.w3.org/2000/svg" xmlns:xlink="http://www.w3.org/1999/xlink" clip-rule="evenodd" stroke-miterlimit="10" viewBox="0 0 1024 768"><desc>SVG generated by Keynote</desc><defs></defs><g transform="matrix(1.00, 0.00, -0.00, -1.00, 0.0, 768.0)"><g><clipPath id="clip0x7ff6ad218050"><path d="M 0.0 768.0 L 1024.0 768.0 L 1024.0 0.0 L 0.0 0.0 Z M 0.0 768.0 "></path></clipPath><g clip-path="url(#clip0x7ff6ad218050)"><image xlink:href="../../2454F38C-308E-4D93-86A7-ACF877EF01F7/assets/D54D7AAA5FD1EC733BC359F041C689F1.jpeg" width="2048.00" height="1536.00" transform="matrix(0.50, 0.00, -0.00, -0.50, 0.0, 768.0)"></image></g></g><text xml:space="preserve" font-family="Chalkduster,Chalkduster" font-size="20.0" fill="#FEFFFE" transform="matrix(1.00, 0.00, -0.00, -1.00, 359.0, 21.6)">b</text><text xml:space="preserve" font-family="Chalkduster,Chalkduster" font-size="20.0" fill="#FEFFFE" transform="matrix(1.00, 0.00, -0.00, -1.00, 370.0, 21.6)">y</text><text xml:space="preserve" font-family="Chalkduster,Chalkduster" font-size="20.0" fill="#FEFFFE" transform="matrix(1.00, 0.00, -0.00, -1.00, 382.2, 21.6)"> </text><text xml:space="preserve" font-family="Chalkduster,Chalkduster" font-size="20.0" fill="#FEFFFE" transform="matrix(1.00, 0.00, -0.00, -1.00, 392.1, 21.6)">C</text><text xml:space="preserve" font-family="Chalkduster,Chalkduster" font-size="20.0" fill="#FEFFFE" transform="matrix(1.00, 0.00, -0.00, -1.00, 408.4, 21.6)">a</text><text xml:space="preserve" font-family="Chalkduster,Chalkduster" font-size="20.0" fill="#FEFFFE" transform="matrix(1.00, 0.00, -0.00, -1.00, 421.1, 21.6)">r</text><text xml:space="preserve" font-family="Chalkduster,Chalkduster" font-size="20.0" fill="#FEFFFE" transform="matrix(1.00, 0.00, -0.00, -1.00, 432.1, 21.6)">l</text><text xml:space="preserve" font-family="Chalkduster,Chalkduster" font-size="20.0" fill="#FEFFFE" transform="matrix(1.00, 0.00, -0.00, -1.00, 440.7, 21.6)">o</text><text xml:space="preserve" font-family="Chalkduster,Chalkduster" font-size="20.0" fill="#FEFFFE" transform="matrix(1.00, 0.00, -0.00, -1.00, 455.1, 21.6)"> </text><text xml:space="preserve" font-family="Chalkduster,Chalkduster" font-size="20.0" fill="#FEFFFE" transform="matrix(1.00, 0.00, -0.00, -1.00, 463.7, 21.6)">A</text><text xml:space="preserve" font-family="Chalkduster,Chalkduster" font-size="20.0" fill="#FEFFFE" transform="matrix(1.00, 0.00, -0.00, -1.00, 478.5, 21.6)">l</text><text xml:space="preserve" font-family="Chalkduster,Chalkduster" font-size="20.0" fill="#FEFFFE" transform="matrix(1.00, 0.00, -0.00, -1.00, 487.9, 21.6)">b</text><text xml:space="preserve" font-family="Chalkduster,Chalkduster" font-size="20.0" fill="#FEFFFE" transform="matrix(1.00, 0.00, -0.00, -1.00, 499.5, 21.6)">e</text><text xml:space="preserve" font-family="Chalkduster,Chalkduster" font-size="20.0" fill="#FEFFFE" transform="matrix(1.00, 0.00, -0.00, -1.00, 511.7, 21.6)">r</text><text xml:space="preserve" font-family="Chalkduster,Chalkduster" font-size="20.0" fill="#FEFFFE" transform="matrix(1.00, 0.00, -0.00, -1.00, 522.2, 21.6)">t</text><text xml:space="preserve" font-family="Chalkduster,Chalkduster" font-size="20.0" fill="#FEFFFE" transform="matrix(1.00, 0.00, -0.00, -1.00, 530.5, 21.6)">o</text><text xml:space="preserve" font-family="Chalkduster,Chalkduster" font-size="20.0" fill="#FEFFFE" transform="matrix(1.00, 0.00, -0.00, -1.00, 544.9, 21.6)"> </text><text xml:space="preserve" font-family="Chalkduster,Chalkduster" font-size="20.0" fill="#FEFFFE" transform="matrix(1.00, 0.00, -0.00, -1.00, 554.8, 21.6)">D</text><text xml:space="preserve" font-family="Chalkduster,Chalkduster" font-size="20.0" fill="#FEFFFE" transform="matrix(1.00, 0.00, -0.00, -1.00, 568.6, 21.6)">e</text><text xml:space="preserve" font-family="Chalkduster,Chalkduster" font-size="20.0" fill="#FEFFFE" transform="matrix(1.00, 0.00, -0.00, -1.00, 580.4, 21.6)">g</text><text xml:space="preserve" font-family="Chalkduster,Chalkduster" font-size="20.0" fill="#FEFFFE" transform="matrix(1.00, 0.00, -0.00, -1.00, 594.9, 21.6)">l</text><text xml:space="preserve" font-family="Chalkduster,Chalkduster" font-size="20.0" fill="#FEFFFE" transform="matrix(1.00, 0.00, -0.00, -1.00, 604.5, 21.6)">i</text><text xml:space="preserve" font-family="Chalkduster,Chalkduster" font-size="20.0" fill="#FEFFFE" transform="matrix(1.00, 0.00, -0.00, -1.00, 612.4, 21.6)"> </text><text xml:space="preserve" font-family="Chalkduster,Chalkduster" font-size="20.0" fill="#FEFFFE" transform="matrix(1.00, 0.00, -0.00, -1.00, 620.9, 21.6)">A</text><text xml:space="preserve" font-family="Chalkduster,Chalkduster" font-size="20.0" fill="#FEFFFE" transform="matrix(1.00, 0.00, -0.00, -1.00, 635.5, 21.6)">t</text><text xml:space="preserve" font-family="Chalkduster,Chalkduster" font-size="20.0" fill="#FEFFFE" transform="matrix(1.00, 0.00, -0.00, -1.00, 643.8, 21.6)">t</text><text xml:space="preserve" font-family="Chalkduster,Chalkduster" font-size="20.0" fill="#FEFFFE" transform="matrix(1.00, 0.00, -0.00, -1.00, 653.1, 21.6)">i</text><text xml:space="preserve" font-family="Chalkduster,Chalkduster" font-size="20.0" fill="#FEFFFE" transform="matrix(1.00, 0.00, -0.00, -1.00, 661.0, 21.6)"> </text><text xml:space="preserve" font-family="Chalkduster,Chalkduster" font-size="20.0" fill="#FEFFFE" transform="matrix(1.00, 0.00, -0.00, -1.00, 670.9, 21.6)">(</text><text xml:space="preserve" font-family="Chalkduster,Chalkduster" font-size="20.0" fill="#FEFFFE" transform="matrix(1.00, 0.00, -0.00, -1.00, 679.6, 21.6)">@</text><text xml:space="preserve" font-family="Chalkduster,Chalkduster" font-size="20.0" fill="#FEFFFE" transform="matrix(1.00, 0.00, -0.00, -1.00, 696.4, 21.6)">l</text><text xml:space="preserve" font-family="Chalkduster,Chalkduster" font-size="20.0" fill="#FEFFFE" transform="matrix(1.00, 0.00, -0.00, -1.00, 705.0, 21.6)">o</text><text xml:space="preserve" font-family="Chalkduster,Chalkduster" font-size="20.0" fill="#FEFFFE" transform="matrix(1.00, 0.00, -0.00, -1.00, 719.5, 21.6)">r</text><text xml:space="preserve" font-family="Chalkduster,Chalkduster" font-size="20.0" fill="#FEFFFE" transform="matrix(1.00, 0.00, -0.00, -1.00, 730.2, 21.6)">d</text><text xml:space="preserve" font-family="Chalkduster,Chalkduster" font-size="20.0" fill="#FEFFFE" transform="matrix(1.00, 0.00, -0.00, -1.00, 745.8, 21.6)">K</text><text xml:space="preserve" font-family="Chalkduster,Chalkduster" font-size="20.0" fill="#FEFFFE" transform="matrix(1.00, 0.00, -0.00, -1.00, 759.0, 21.6)">a</text><text xml:space="preserve" font-family="Chalkduster,Chalkduster" font-size="20.0" fill="#FEFFFE" transform="matrix(1.00, 0.00, -0.00, -1.00, 772.1, 21.6)">d</text><text xml:space="preserve" font-family="Chalkduster,Chalkduster" font-size="20.0" fill="#FEFFFE" transform="matrix(1.00, 0.00, -0.00, -1.00, 787.7, 21.6)">a</text><text xml:space="preserve" font-family="Chalkduster,Chalkduster" font-size="20.0" fill="#FEFFFE" transform="matrix(1.00, 0.00, -0.00, -1.00, 801.5, 21.6)">)</text><text xml:space="preserve" font-family="Chalkduster,Chalkduster" font-size="20.0" fill="#FEFFFE" transform="matrix(1.00, 0.00, -0.00, -1.00, 811.6, 21.6)"> </text><image xlink:href="../../2454F38C-308E-4D93-86A7-ACF877EF01F7/assets/6AAA538A2569BEA3BCD2D4F395995DA8.png" width="88.00" height="31.00" transform="matrix(1.09, 0.00, -0.00, -1.10, 252.0, 47.0)"></image><text xml:space="preserve" font-family="Chalkduster,Chalkduster" font-size="60.0" fill="#FEFFFE" transform="matrix(1.00, 0.00, -0.00, -1.00, 396.3, 630.8)">G</text><text xml:space="preserve" font-family="Chalkduster,Chalkduster" font-size="60.0" fill="#FEFFFE" transform="matrix(1.00, 0.00, -0.00, -1.00, 462.9, 630.8)">i</text><text xml:space="preserve" font-family="Chalkduster,Chalkduster" font-size="60.0" fill="#FEFFFE" transform="matrix(1.00, 0.00, -0.00, -1.00, 487.2, 630.8)">t</text><text xml:space="preserve" font-family="Chalkduster,Chalkduster" font-size="60.0" fill="#FEFFFE" transform="matrix(1.00, 0.00, -0.00, -1.00, 514.7, 630.8)">H</text><text xml:space="preserve" font-family="Chalkduster,Chalkduster" font-size="60.0" fill="#FEFFFE" transform="matrix(1.00, 0.00, -0.00, -1.00, 551.6, 630.8)">u</text><text xml:space="preserve" font-family="Chalkduster,Chalkduster" font-size="60.0" fill="#FEFFFE" transform="matrix(1.00, 0.00, -0.00, -1.00, 592.9, 630.8)">b</text><image xlink:href="../../50142469-0AEB-45DE-A4A2-AB2237BFE142/assets/4DEEB86E8592901A27491E22B30EA716.png" width="78.00" height="72.00" transform="matrix(0.25, 0.00, -0.00, -0.25, 104.0, 523.3)"></image><text xml:space="preserve" font-family="Chalkduster,Chalkduster" font-size="33.1" fill="#FEFFFE" transform="matrix(1.00, 0.00, -0.00, -1.00, 145.4, 505.8)">E</text><text xml:space="preserve" font-family="Chalkduster,Chalkduster" font-size="33.1" fill="#FEFFFE" transform="matrix(1.00, 0.00, -0.00, -1.00, 169.9, 505.8)">’</text><text xml:space="preserve" font-family="Chalkduster,Chalkduster" font-size="33.1" fill="#FEFFFE" transform="matrix(1.00, 0.00, -0.00, -1.00, 178.9, 505.8)"> </text><text xml:space="preserve" font-family="Chalkduster,Chalkduster" font-size="33.1" fill="#FEFFFE" transform="matrix(1.00, 0.00, -0.00, -1.00, 195.4, 505.8)">u</text><text xml:space="preserve" font-family="Chalkduster,Chalkduster" font-size="33.1" fill="#FEFFFE" transform="matrix(1.00, 0.00, -0.00, -1.00, 218.6, 505.8)">n</text><text xml:space="preserve" font-family="Chalkduster,Chalkduster" font-size="33.1" fill="#FEFFFE" transform="matrix(1.00, 0.00, -0.00, -1.00, 242.9, 505.8)"> </text><text xml:space="preserve" font-family="Chalkduster,Chalkduster" font-size="33.1" fill="#FEFFFE" transform="matrix(1.00, 0.00, -0.00, -1.00, 259.4, 505.8)">s</text><text xml:space="preserve" font-family="Chalkduster,Chalkduster" font-size="33.1" fill="#FEFFFE" transform="matrix(1.00, 0.00, -0.00, -1.00, 276.1, 505.8)">e</text><text xml:space="preserve" font-family="Chalkduster,Chalkduster" font-size="33.1" fill="#FEFFFE" transform="matrix(1.00, 0.00, -0.00, -1.00, 296.3, 505.8)">r</text><text xml:space="preserve" font-family="Chalkduster,Chalkduster" font-size="33.1" fill="#FEFFFE" transform="matrix(1.00, 0.00, -0.00, -1.00, 316.0, 505.8)">v</text><text xml:space="preserve" font-family="Chalkduster,Chalkduster" font-size="33.1" fill="#FEFFFE" transform="matrix(1.00, 0.00, -0.00, -1.00, 336.6, 505.8)">i</text><text xml:space="preserve" font-family="Chalkduster,Chalkduster" font-size="33.1" fill="#FEFFFE" transform="matrix(1.00, 0.00, -0.00, -1.00, 349.7, 505.8)">z</text><text xml:space="preserve" font-family="Chalkduster,Chalkduster" font-size="33.1" fill="#FEFFFE" transform="matrix(1.00, 0.00, -0.00, -1.00, 371.2, 505.8)">i</text><text xml:space="preserve" font-family="Chalkduster,Chalkduster" font-size="33.1" fill="#FEFFFE" transform="matrix(1.00, 0.00, -0.00, -1.00, 384.2, 505.8)">o</text><text xml:space="preserve" font-family="Chalkduster,Chalkduster" font-size="33.1" fill="#FEFFFE" transform="matrix(1.00, 0.00, -0.00, -1.00, 408.0, 505.8)"> </text><text xml:space="preserve" font-family="Chalkduster,Chalkduster" font-size="33.1" fill="#FEFFFE" transform="matrix(1.00, 0.00, -0.00, -1.00, 424.5, 505.8)">w</text><text xml:space="preserve" font-family="Chalkduster,Chalkduster" font-size="33.1" fill="#FEFFFE" transform="matrix(1.00, 0.00, -0.00, -1.00, 451.6, 505.8)">e</text><text xml:space="preserve" font-family="Chalkduster,Chalkduster" font-size="33.1" fill="#FEFFFE" transform="matrix(1.00, 0.00, -0.00, -1.00, 472.1, 505.8)">b</text><text xml:space="preserve" font-family="Chalkduster,Chalkduster" font-size="33.1" fill="#FEFFFE" transform="matrix(1.00, 0.00, -0.00, -1.00, 491.4, 505.8)">-</text><text xml:space="preserve" font-family="Chalkduster,Chalkduster" font-size="33.1" fill="#FEFFFE" transform="matrix(1.00, 0.00, -0.00, -1.00, 509.8, 505.8)">b</text><text xml:space="preserve" font-family="Chalkduster,Chalkduster" font-size="33.1" fill="#FEFFFE" transform="matrix(1.00, 0.00, -0.00, -1.00, 528.3, 505.8)">a</text><text xml:space="preserve" font-family="Chalkduster,Chalkduster" font-size="33.1" fill="#FEFFFE" transform="matrix(1.00, 0.00, -0.00, -1.00, 551.5, 505.8)">s</text><text xml:space="preserve" font-family="Chalkduster,Chalkduster" font-size="33.1" fill="#FEFFFE" transform="matrix(1.00, 0.00, -0.00, -1.00, 568.3, 505.8)">e</text><text xml:space="preserve" font-family="Chalkduster,Chalkduster" font-size="33.1" fill="#FEFFFE" transform="matrix(1.00, 0.00, -0.00, -1.00, 589.8, 505.8)">d</text><text xml:space="preserve" font-family="Chalkduster,Chalkduster" font-size="33.1" fill="#FEFFFE" transform="matrix(1.00, 0.00, -0.00, -1.00, 615.7, 505.8)"> </text><text xml:space="preserve" font-family="Chalkduster,Chalkduster" font-size="33.1" fill="#FEFFFE" transform="matrix(1.00, 0.00, -0.00, -1.00, 632.2, 505.8)">(</text><text xml:space="preserve" font-family="Chalkduster,Chalkduster" font-size="33.1" fill="#FEFFFE" transform="matrix(1.00, 0.00, -0.00, -1.00, 646.7, 505.8)">m</text><text xml:space="preserve" font-family="Chalkduster,Chalkduster" font-size="33.1" fill="#FEFFFE" transform="matrix(1.00, 0.00, -0.00, -1.00, 680.2, 505.8)">a</text><text xml:space="preserve" font-family="Chalkduster,Chalkduster" font-size="33.1" fill="#FEFFFE" transform="matrix(1.00, 0.00, -0.00, -1.00, 703.0, 505.8)"> </text><text xml:space="preserve" font-family="Chalkduster,Chalkduster" font-size="33.1" fill="#FEFFFE" transform="matrix(1.00, 0.00, -0.00, -1.00, 719.5, 505.8)">a</text><text xml:space="preserve" font-family="Chalkduster,Chalkduster" font-size="33.1" fill="#FEFFFE" transform="matrix(1.00, 0.00, -0.00, -1.00, 742.3, 505.8)">n</text><text xml:space="preserve" font-family="Chalkduster,Chalkduster" font-size="33.1" fill="#FEFFFE" transform="matrix(1.00, 0.00, -0.00, -1.00, 766.6, 505.8)">c</text><text xml:space="preserve" font-family="Chalkduster,Chalkduster" font-size="33.1" fill="#FEFFFE" transform="matrix(1.00, 0.00, -0.00, -1.00, 787.4, 505.8)">h</text><text xml:space="preserve" font-family="Chalkduster,Chalkduster" font-size="33.1" fill="#FEFFFE" transform="matrix(1.00, 0.00, -0.00, -1.00, 807.9, 505.8)">e</text><text xml:space="preserve" font-family="Chalkduster,Chalkduster" font-size="33.1" fill="#FEFFFE" transform="matrix(1.00, 0.00, -0.00, -1.00, 828.4, 505.8)"> </text><text xml:space="preserve" font-family="Chalkduster,Chalkduster" font-size="33.1" fill="#FEFFFE" transform="matrix(1.00, 0.00, -0.00, -1.00, 145.4, 456.8)">d</text><text xml:space="preserve" font-family="Chalkduster,Chalkduster" font-size="33.1" fill="#FEFFFE" transform="matrix(1.00, 0.00, -0.00, -1.00, 171.3, 456.8)">e</text><text xml:space="preserve" font-family="Chalkduster,Chalkduster" font-size="33.1" fill="#FEFFFE" transform="matrix(1.00, 0.00, -0.00, -1.00, 192.6, 456.8)">s</text><text xml:space="preserve" font-family="Chalkduster,Chalkduster" font-size="33.1" fill="#FEFFFE" transform="matrix(1.00, 0.00, -0.00, -1.00, 209.3, 456.8)">k</text><text xml:space="preserve" font-family="Chalkduster,Chalkduster" font-size="33.1" fill="#FEFFFE" transform="matrix(1.00, 0.00, -0.00, -1.00, 235.1, 456.8)">t</text><text xml:space="preserve" font-family="Chalkduster,Chalkduster" font-size="33.1" fill="#FEFFFE" transform="matrix(1.00, 0.00, -0.00, -1.00, 248.7, 456.8)">o</text><text xml:space="preserve" font-family="Chalkduster,Chalkduster" font-size="33.1" fill="#FEFFFE" transform="matrix(1.00, 0.00, -0.00, -1.00, 272.9, 456.8)">p</text><text xml:space="preserve" font-family="Chalkduster,Chalkduster" font-size="33.1" fill="#FEFFFE" transform="matrix(1.00, 0.00, -0.00, -1.00, 293.3, 456.8)"> </text><text xml:space="preserve" font-family="Chalkduster,Chalkduster" font-size="33.1" fill="#FEFFFE" transform="matrix(1.00, 0.00, -0.00, -1.00, 309.8, 456.8)">e</text><text xml:space="preserve" font-family="Chalkduster,Chalkduster" font-size="33.1" fill="#FEFFFE" transform="matrix(1.00, 0.00, -0.00, -1.00, 330.3, 456.8)"> </text><text xml:space="preserve" font-family="Chalkduster,Chalkduster" font-size="33.1" fill="#FEFFFE" transform="matrix(1.00, 0.00, -0.00, -1.00, 346.8, 456.8)">m</text><text xml:space="preserve" font-family="Chalkduster,Chalkduster" font-size="33.1" fill="#FEFFFE" transform="matrix(1.00, 0.00, -0.00, -1.00, 380.3, 456.8)">o</text><text xml:space="preserve" font-family="Chalkduster,Chalkduster" font-size="33.1" fill="#FEFFFE" transform="matrix(1.00, 0.00, -0.00, -1.00, 404.1, 456.8)">b</text><text xml:space="preserve" font-family="Chalkduster,Chalkduster" font-size="33.1" fill="#FEFFFE" transform="matrix(1.00, 0.00, -0.00, -1.00, 423.4, 456.8)">i</text><text xml:space="preserve" font-family="Chalkduster,Chalkduster" font-size="33.1" fill="#FEFFFE" transform="matrix(1.00, 0.00, -0.00, -1.00, 436.8, 456.8)">l</text><text xml:space="preserve" font-family="Chalkduster,Chalkduster" font-size="33.1" fill="#FEFFFE" transform="matrix(1.00, 0.00, -0.00, -1.00, 450.5, 456.8)">e</text><text xml:space="preserve" font-family="Chalkduster,Chalkduster" font-size="33.1" fill="#FEFFFE" transform="matrix(1.00, 0.00, -0.00, -1.00, 469.7, 456.8)">)</text><text xml:space="preserve" font-family="Chalkduster,Chalkduster" font-size="33.1" fill="#FEFFFE" transform="matrix(1.00, 0.00, -0.00, -1.00, 486.4, 456.8)"> </text><text xml:space="preserve" font-family="Chalkduster,Chalkduster" font-size="33.1" fill="#FEFFFE" transform="matrix(1.00, 0.00, -0.00, -1.00, 502.8, 456.8)">c</text><text xml:space="preserve" font-family="Chalkduster,Chalkduster" font-size="33.1" fill="#FEFFFE" transform="matrix(1.00, 0.00, -0.00, -1.00, 523.7, 456.8)">h</text><text xml:space="preserve" font-family="Chalkduster,Chalkduster" font-size="33.1" fill="#FEFFFE" transform="matrix(1.00, 0.00, -0.00, -1.00, 544.1, 456.8)">e</text><text xml:space="preserve" font-family="Chalkduster,Chalkduster" font-size="33.1" fill="#FEFFFE" transform="matrix(1.00, 0.00, -0.00, -1.00, 564.7, 456.8)"> </text><text xml:space="preserve" font-family="Chalkduster,Chalkduster" font-size="33.1" fill="#FEFFFE" transform="matrix(1.00, 0.00, -0.00, -1.00, 581.1, 456.8)">f</text><text xml:space="preserve" font-family="Chalkduster,Chalkduster" font-size="33.1" fill="#FEFFFE" transform="matrix(1.00, 0.00, -0.00, -1.00, 597.7, 456.8)">o</text><text xml:space="preserve" font-family="Chalkduster,Chalkduster" font-size="33.1" fill="#FEFFFE" transform="matrix(1.00, 0.00, -0.00, -1.00, 621.9, 456.8)">r</text><text xml:space="preserve" font-family="Chalkduster,Chalkduster" font-size="33.1" fill="#FEFFFE" transform="matrix(1.00, 0.00, -0.00, -1.00, 640.1, 456.8)">n</text><text xml:space="preserve" font-family="Chalkduster,Chalkduster" font-size="33.1" fill="#FEFFFE" transform="matrix(1.00, 0.00, -0.00, -1.00, 664.9, 456.8)">i</text><text xml:space="preserve" font-family="Chalkduster,Chalkduster" font-size="33.1" fill="#FEFFFE" transform="matrix(1.00, 0.00, -0.00, -1.00, 678.0, 456.8)">s</text><text xml:space="preserve" font-family="Chalkduster,Chalkduster" font-size="33.1" fill="#FEFFFE" transform="matrix(1.00, 0.00, -0.00, -1.00, 695.4, 456.8)">c</text><text xml:space="preserve" font-family="Chalkduster,Chalkduster" font-size="33.1" fill="#FEFFFE" transform="matrix(1.00, 0.00, -0.00, -1.00, 715.5, 456.8)">e</text><text xml:space="preserve" font-family="Chalkduster,Chalkduster" font-size="33.1" fill="#FEFFFE" transform="matrix(1.00, 0.00, -0.00, -1.00, 736.0, 456.8)"> </text><text xml:space="preserve" font-family="Chalkduster,Chalkduster" font-size="33.1" fill="#FEFFFE" transform="matrix(1.00, 0.00, -0.00, -1.00, 752.5, 456.8)">G</text><text xml:space="preserve" font-family="Chalkduster,Chalkduster" font-size="33.1" fill="#FEFFFE" transform="matrix(1.00, 0.00, -0.00, -1.00, 789.2, 456.8)">i</text><text xml:space="preserve" font-family="Chalkduster,Chalkduster" font-size="33.1" fill="#FEFFFE" transform="matrix(1.00, 0.00, -0.00, -1.00, 802.7, 456.8)">t</text><text xml:space="preserve" font-family="Chalkduster,Chalkduster" font-size="33.1" fill="#FEFFFE" transform="matrix(1.00, 0.00, -0.00, -1.00, 817.8, 456.8)"> </text><image xlink:href="../../50142469-0AEB-45DE-A4A2-AB2237BFE142/assets/4DEEB86E8592901A27491E22B30EA716.png" width="78.00" height="72.00" transform="matrix(0.25, 0.00, -0.00, -0.25, 104.0, 392.2)"></image><text xml:space="preserve" font-family="Chalkduster,Chalkduster" font-size="33.1" fill="#FEFFFE" transform="matrix(1.00, 0.00, -0.00, -1.00, 145.4, 374.7)">A</text><text xml:space="preserve" font-family="Chalkduster,Chalkduster" font-size="33.1" fill="#FEFFFE" transform="matrix(1.00, 0.00, -0.00, -1.00, 169.9, 374.7)">g</text><text xml:space="preserve" font-family="Chalkduster,Chalkduster" font-size="33.1" fill="#FEFFFE" transform="matrix(1.00, 0.00, -0.00, -1.00, 193.0, 374.7)">g</text><text xml:space="preserve" font-family="Chalkduster,Chalkduster" font-size="33.1" fill="#FEFFFE" transform="matrix(1.00, 0.00, -0.00, -1.00, 216.7, 374.7)">i</text><text xml:space="preserve" font-family="Chalkduster,Chalkduster" font-size="33.1" fill="#FEFFFE" transform="matrix(1.00, 0.00, -0.00, -1.00, 229.8, 374.7)">u</text><text xml:space="preserve" font-family="Chalkduster,Chalkduster" font-size="33.1" fill="#FEFFFE" transform="matrix(1.00, 0.00, -0.00, -1.00, 253.1, 374.7)">n</text><text xml:space="preserve" font-family="Chalkduster,Chalkduster" font-size="33.1" fill="#FEFFFE" transform="matrix(1.00, 0.00, -0.00, -1.00, 276.3, 374.7)">g</text><text xml:space="preserve" font-family="Chalkduster,Chalkduster" font-size="33.1" fill="#FEFFFE" transform="matrix(1.00, 0.00, -0.00, -1.00, 299.4, 374.7)">e</text><text xml:space="preserve" font-family="Chalkduster,Chalkduster" font-size="33.1" fill="#FEFFFE" transform="matrix(1.00, 0.00, -0.00, -1.00, 320.0, 374.7)"> </text><text xml:space="preserve" font-family="Chalkduster,Chalkduster" font-size="33.1" fill="#FEFFFE" transform="matrix(1.00, 0.00, -0.00, -1.00, 336.4, 374.7)">f</text><text xml:space="preserve" font-family="Chalkduster,Chalkduster" font-size="33.1" fill="#FEFFFE" transform="matrix(1.00, 0.00, -0.00, -1.00, 354.0, 374.7)">u</text><text xml:space="preserve" font-family="Chalkduster,Chalkduster" font-size="33.1" fill="#FEFFFE" transform="matrix(1.00, 0.00, -0.00, -1.00, 377.3, 374.7)">n</text><text xml:space="preserve" font-family="Chalkduster,Chalkduster" font-size="33.1" fill="#FEFFFE" transform="matrix(1.00, 0.00, -0.00, -1.00, 401.6, 374.7)">z</text><text xml:space="preserve" font-family="Chalkduster,Chalkduster" font-size="33.1" fill="#FEFFFE" transform="matrix(1.00, 0.00, -0.00, -1.00, 423.1, 374.7)">i</text><text xml:space="preserve" font-family="Chalkduster,Chalkduster" font-size="33.1" fill="#FEFFFE" transform="matrix(1.00, 0.00, -0.00, -1.00, 436.1, 374.7)">o</text><text xml:space="preserve" font-family="Chalkduster,Chalkduster" font-size="33.1" fill="#FEFFFE" transform="matrix(1.00, 0.00, -0.00, -1.00, 460.8, 374.7)">n</text><text xml:space="preserve" font-family="Chalkduster,Chalkduster" font-size="33.1" fill="#FEFFFE" transform="matrix(1.00, 0.00, -0.00, -1.00, 485.0, 374.7)">a</text><text xml:space="preserve" font-family="Chalkduster,Chalkduster" font-size="33.1" fill="#FEFFFE" transform="matrix(1.00, 0.00, -0.00, -1.00, 506.5, 374.7)">l</text><text xml:space="preserve" font-family="Chalkduster,Chalkduster" font-size="33.1" fill="#FEFFFE" transform="matrix(1.00, 0.00, -0.00, -1.00, 522.4, 374.7)">i</text><text xml:space="preserve" font-family="Chalkduster,Chalkduster" font-size="33.1" fill="#FEFFFE" transform="matrix(1.00, 0.00, -0.00, -1.00, 535.9, 374.7)">t</text><text xml:space="preserve" font-family="Chalkduster,Chalkduster" font-size="33.1" fill="#FEFFFE" transform="matrix(1.00, 0.00, -0.00, -1.00, 551.0, 374.7)">à</text><text xml:space="preserve" font-family="Chalkduster,Chalkduster" font-size="33.1" fill="#FEFFFE" transform="matrix(1.00, 0.00, -0.00, -1.00, 572.0, 374.7)"> </text><text xml:space="preserve" font-family="Chalkduster,Chalkduster" font-size="33.1" fill="#FEFFFE" transform="matrix(1.00, 0.00, -0.00, -1.00, 583.0, 374.7)">“</text><text xml:space="preserve" font-family="Chalkduster,Chalkduster" font-size="33.1" fill="#FEFFFE" transform="matrix(1.00, 0.00, -0.00, -1.00, 599.1, 374.7)">p</text><text xml:space="preserve" font-family="Chalkduster,Chalkduster" font-size="33.1" fill="#FEFFFE" transform="matrix(1.00, 0.00, -0.00, -1.00, 619.5, 374.7)">r</text><text xml:space="preserve" font-family="Chalkduster,Chalkduster" font-size="33.1" fill="#FEFFFE" transform="matrix(1.00, 0.00, -0.00, -1.00, 636.5, 374.7)">o</text><text xml:space="preserve" font-family="Chalkduster,Chalkduster" font-size="33.1" fill="#FEFFFE" transform="matrix(1.00, 0.00, -0.00, -1.00, 660.6, 374.7)">p</text><text xml:space="preserve" font-family="Chalkduster,Chalkduster" font-size="33.1" fill="#FEFFFE" transform="matrix(1.00, 0.00, -0.00, -1.00, 681.0, 374.7)">r</text><text xml:space="preserve" font-family="Chalkduster,Chalkduster" font-size="33.1" fill="#FEFFFE" transform="matrix(1.00, 0.00, -0.00, -1.00, 699.4, 374.7)">i</text><text xml:space="preserve" font-family="Chalkduster,Chalkduster" font-size="33.1" fill="#FEFFFE" transform="matrix(1.00, 0.00, -0.00, -1.00, 712.4, 374.7)">e</text><text xml:space="preserve" font-family="Chalkduster,Chalkduster" font-size="33.1" fill="#FEFFFE" transform="matrix(1.00, 0.00, -0.00, -1.00, 732.6, 374.7)">t</text><text xml:space="preserve" font-family="Chalkduster,Chalkduster" font-size="33.1" fill="#FEFFFE" transform="matrix(1.00, 0.00, -0.00, -1.00, 747.4, 374.7)">a</text><text xml:space="preserve" font-family="Chalkduster,Chalkduster" font-size="33.1" fill="#FEFFFE" transform="matrix(1.00, 0.00, -0.00, -1.00, 768.5, 374.7)">r</text><text xml:space="preserve" font-family="Chalkduster,Chalkduster" font-size="33.1" fill="#FEFFFE" transform="matrix(1.00, 0.00, -0.00, -1.00, 786.8, 374.7)">i</text><text xml:space="preserve" font-family="Chalkduster,Chalkduster" font-size="33.1" fill="#FEFFFE" transform="matrix(1.00, 0.00, -0.00, -1.00, 799.9, 374.7)">e</text><text xml:space="preserve" font-family="Chalkduster,Chalkduster" font-size="33.1" fill="#FEFFFE" transform="matrix(1.00, 0.00, -0.00, -1.00, 818.4, 374.7)">”</text><text xml:space="preserve" font-family="Chalkduster,Chalkduster" font-size="33.1" fill="#FEFFFE" transform="matrix(1.00, 0.00, -0.00, -1.00, 835.1, 374.7)">:</text><text xml:space="preserve" font-family="Chalkduster,Chalkduster" font-size="33.1" fill="#FEFFFE" transform="matrix(1.00, 0.00, -0.00, -1.00, 846.0, 374.7)"> </text><text xml:space="preserve" font-family="Chalkduster,Chalkduster" font-size="33.1" fill="#FEFFFE" transform="matrix(1.00, 0.00, -0.00, -1.00, 145.4, 325.7)">A</text><text xml:space="preserve" font-family="Chalkduster,Chalkduster" font-size="33.1" fill="#FEFFFE" transform="matrix(1.00, 0.00, -0.00, -1.00, 169.4, 325.7)">c</text><text xml:space="preserve" font-family="Chalkduster,Chalkduster" font-size="33.1" fill="#FEFFFE" transform="matrix(1.00, 0.00, -0.00, -1.00, 188.8, 325.7)">c</text><text xml:space="preserve" font-family="Chalkduster,Chalkduster" font-size="33.1" fill="#FEFFFE" transform="matrix(1.00, 0.00, -0.00, -1.00, 208.8, 325.7)">e</text><text xml:space="preserve" font-family="Chalkduster,Chalkduster" font-size="33.1" fill="#FEFFFE" transform="matrix(1.00, 0.00, -0.00, -1.00, 230.1, 325.7)">s</text><text xml:space="preserve" font-family="Chalkduster,Chalkduster" font-size="33.1" fill="#FEFFFE" transform="matrix(1.00, 0.00, -0.00, -1.00, 246.8, 325.7)">s</text><text xml:space="preserve" font-family="Chalkduster,Chalkduster" font-size="33.1" fill="#FEFFFE" transform="matrix(1.00, 0.00, -0.00, -1.00, 263.6, 325.7)"> </text><text xml:space="preserve" font-family="Chalkduster,Chalkduster" font-size="33.1" fill="#FEFFFE" transform="matrix(1.00, 0.00, -0.00, -1.00, 280.0, 325.7)">C</text><text xml:space="preserve" font-family="Chalkduster,Chalkduster" font-size="33.1" fill="#FEFFFE" transform="matrix(1.00, 0.00, -0.00, -1.00, 306.9, 325.7)">o</text><text xml:space="preserve" font-family="Chalkduster,Chalkduster" font-size="33.1" fill="#FEFFFE" transform="matrix(1.00, 0.00, -0.00, -1.00, 331.5, 325.7)">n</text><text xml:space="preserve" font-family="Chalkduster,Chalkduster" font-size="33.1" fill="#FEFFFE" transform="matrix(1.00, 0.00, -0.00, -1.00, 354.6, 325.7)">t</text><text xml:space="preserve" font-family="Chalkduster,Chalkduster" font-size="33.1" fill="#FEFFFE" transform="matrix(1.00, 0.00, -0.00, -1.00, 369.7, 325.7)">r</text><text xml:space="preserve" font-family="Chalkduster,Chalkduster" font-size="33.1" fill="#FEFFFE" transform="matrix(1.00, 0.00, -0.00, -1.00, 386.7, 325.7)">o</text><text xml:space="preserve" font-family="Chalkduster,Chalkduster" font-size="33.1" fill="#FEFFFE" transform="matrix(1.00, 0.00, -0.00, -1.00, 411.9, 325.7)">l</text><text xml:space="preserve" font-family="Chalkduster,Chalkduster" font-size="33.1" fill="#FEFFFE" transform="matrix(1.00, 0.00, -0.00, -1.00, 425.9, 325.7)">,</text><text xml:space="preserve" font-family="Chalkduster,Chalkduster" font-size="33.1" fill="#FEFFFE" transform="matrix(1.00, 0.00, -0.00, -1.00, 436.2, 325.7)"> </text><text xml:space="preserve" font-family="Chalkduster,Chalkduster" font-size="33.1" fill="#FEFFFE" transform="matrix(1.00, 0.00, -0.00, -1.00, 450.0, 325.7)">W</text><text xml:space="preserve" font-family="Chalkduster,Chalkduster" font-size="33.1" fill="#FEFFFE" transform="matrix(1.00, 0.00, -0.00, -1.00, 480.1, 325.7)">i</text><text xml:space="preserve" font-family="Chalkduster,Chalkduster" font-size="33.1" fill="#FEFFFE" transform="matrix(1.00, 0.00, -0.00, -1.00, 493.2, 325.7)">k</text><text xml:space="preserve" font-family="Chalkduster,Chalkduster" font-size="33.1" fill="#FEFFFE" transform="matrix(1.00, 0.00, -0.00, -1.00, 518.9, 325.7)">i</text><text xml:space="preserve" font-family="Chalkduster,Chalkduster" font-size="33.1" fill="#FEFFFE" transform="matrix(1.00, 0.00, -0.00, -1.00, 532.0, 325.7)">,</text><text xml:space="preserve" font-family="Chalkduster,Chalkduster" font-size="33.1" fill="#FEFFFE" transform="matrix(1.00, 0.00, -0.00, -1.00, 542.3, 325.7)"> </text><text xml:space="preserve" font-family="Chalkduster,Chalkduster" font-size="33.1" fill="#FEFFFE" transform="matrix(1.00, 0.00, -0.00, -1.00, 556.0, 325.7)">T</text><text xml:space="preserve" font-family="Chalkduster,Chalkduster" font-size="33.1" fill="#FEFFFE" transform="matrix(1.00, 0.00, -0.00, -1.00, 578.2, 325.7)">a</text><text xml:space="preserve" font-family="Chalkduster,Chalkduster" font-size="33.1" fill="#FEFFFE" transform="matrix(1.00, 0.00, -0.00, -1.00, 601.4, 325.7)">s</text><text xml:space="preserve" font-family="Chalkduster,Chalkduster" font-size="33.1" fill="#FEFFFE" transform="matrix(1.00, 0.00, -0.00, -1.00, 618.1, 325.7)">k</text><text xml:space="preserve" font-family="Chalkduster,Chalkduster" font-size="33.1" fill="#FEFFFE" transform="matrix(1.00, 0.00, -0.00, -1.00, 643.9, 325.7)"> </text><text xml:space="preserve" font-family="Chalkduster,Chalkduster" font-size="33.1" fill="#FEFFFE" transform="matrix(1.00, 0.00, -0.00, -1.00, 660.4, 325.7)">M</text><text xml:space="preserve" font-family="Chalkduster,Chalkduster" font-size="33.1" fill="#FEFFFE" transform="matrix(1.00, 0.00, -0.00, -1.00, 688.2, 325.7)">a</text><text xml:space="preserve" font-family="Chalkduster,Chalkduster" font-size="33.1" fill="#FEFFFE" transform="matrix(1.00, 0.00, -0.00, -1.00, 711.0, 325.7)">n</text><text xml:space="preserve" font-family="Chalkduster,Chalkduster" font-size="33.1" fill="#FEFFFE" transform="matrix(1.00, 0.00, -0.00, -1.00, 735.3, 325.7)">a</text><text xml:space="preserve" font-family="Chalkduster,Chalkduster" font-size="33.1" fill="#FEFFFE" transform="matrix(1.00, 0.00, -0.00, -1.00, 756.4, 325.7)">g</text><text xml:space="preserve" font-family="Chalkduster,Chalkduster" font-size="33.1" fill="#FEFFFE" transform="matrix(1.00, 0.00, -0.00, -1.00, 779.5, 325.7)">e</text><text xml:space="preserve" font-family="Chalkduster,Chalkduster" font-size="33.1" fill="#FEFFFE" transform="matrix(1.00, 0.00, -0.00, -1.00, 800.0, 325.7)">m</text><text xml:space="preserve" font-family="Chalkduster,Chalkduster" font-size="33.1" fill="#FEFFFE" transform="matrix(1.00, 0.00, -0.00, -1.00, 834.4, 325.7)">e</text><text xml:space="preserve" font-family="Chalkduster,Chalkduster" font-size="33.1" fill="#FEFFFE" transform="matrix(1.00, 0.00, -0.00, -1.00, 855.3, 325.7)">n</text><text xml:space="preserve" font-family="Chalkduster,Chalkduster" font-size="33.1" fill="#FEFFFE" transform="matrix(1.00, 0.00, -0.00, -1.00, 878.3, 325.7)">t</text><text xml:space="preserve" font-family="Chalkduster,Chalkduster" font-size="33.1" fill="#FEFFFE" transform="matrix(1.00, 0.00, -0.00, -1.00, 889.1, 325.7)">,</text><text xml:space="preserve" font-family="Chalkduster,Chalkduster" font-size="33.1" fill="#FEFFFE" transform="matrix(1.00, 0.00, -0.00, -1.00, 899.4, 325.7)"> </text><text xml:space="preserve" font-family="Chalkduster,Chalkduster" font-size="33.1" fill="#FEFFFE" transform="matrix(1.00, 0.00, -0.00, -1.00, 145.4, 276.7)">B</text><text xml:space="preserve" font-family="Chalkduster,Chalkduster" font-size="33.1" fill="#FEFFFE" transform="matrix(1.00, 0.00, -0.00, -1.00, 167.5, 276.7)">u</text><text xml:space="preserve" font-family="Chalkduster,Chalkduster" font-size="33.1" fill="#FEFFFE" transform="matrix(1.00, 0.00, -0.00, -1.00, 190.3, 276.7)">g</text><text xml:space="preserve" font-family="Chalkduster,Chalkduster" font-size="33.1" fill="#FEFFFE" transform="matrix(1.00, 0.00, -0.00, -1.00, 212.9, 276.7)"> </text><text xml:space="preserve" font-family="Chalkduster,Chalkduster" font-size="33.1" fill="#FEFFFE" transform="matrix(1.00, 0.00, -0.00, -1.00, 226.6, 276.7)">T</text><text xml:space="preserve" font-family="Chalkduster,Chalkduster" font-size="33.1" fill="#FEFFFE" transform="matrix(1.00, 0.00, -0.00, -1.00, 249.3, 276.7)">r</text><text xml:space="preserve" font-family="Chalkduster,Chalkduster" font-size="33.1" fill="#FEFFFE" transform="matrix(1.00, 0.00, -0.00, -1.00, 266.8, 276.7)">a</text><text xml:space="preserve" font-family="Chalkduster,Chalkduster" font-size="33.1" fill="#FEFFFE" transform="matrix(1.00, 0.00, -0.00, -1.00, 288.6, 276.7)">c</text><text xml:space="preserve" font-family="Chalkduster,Chalkduster" font-size="33.1" fill="#FEFFFE" transform="matrix(1.00, 0.00, -0.00, -1.00, 308.0, 276.7)">k</text><text xml:space="preserve" font-family="Chalkduster,Chalkduster" font-size="33.1" fill="#FEFFFE" transform="matrix(1.00, 0.00, -0.00, -1.00, 333.8, 276.7)">i</text><text xml:space="preserve" font-family="Chalkduster,Chalkduster" font-size="33.1" fill="#FEFFFE" transform="matrix(1.00, 0.00, -0.00, -1.00, 346.8, 276.7)">n</text><text xml:space="preserve" font-family="Chalkduster,Chalkduster" font-size="33.1" fill="#FEFFFE" transform="matrix(1.00, 0.00, -0.00, -1.00, 370.1, 276.7)">g</text><text xml:space="preserve" font-family="Chalkduster,Chalkduster" font-size="33.1" fill="#FEFFFE" transform="matrix(1.00, 0.00, -0.00, -1.00, 392.5, 276.7)">,</text><text xml:space="preserve" font-family="Chalkduster,Chalkduster" font-size="33.1" fill="#FEFFFE" transform="matrix(1.00, 0.00, -0.00, -1.00, 402.7, 276.7)"> </text><text xml:space="preserve" font-family="Chalkduster,Chalkduster" font-size="33.1" fill="#FEFFFE" transform="matrix(1.00, 0.00, -0.00, -1.00, 419.2, 276.7)">F</text><text xml:space="preserve" font-family="Chalkduster,Chalkduster" font-size="33.1" fill="#FEFFFE" transform="matrix(1.00, 0.00, -0.00, -1.00, 442.4, 276.7)">e</text><text xml:space="preserve" font-family="Chalkduster,Chalkduster" font-size="33.1" fill="#FEFFFE" transform="matrix(1.00, 0.00, -0.00, -1.00, 462.9, 276.7)">a</text><text xml:space="preserve" font-family="Chalkduster,Chalkduster" font-size="33.1" fill="#FEFFFE" transform="matrix(1.00, 0.00, -0.00, -1.00, 483.5, 276.7)">t</text><text xml:space="preserve" font-family="Chalkduster,Chalkduster" font-size="33.1" fill="#FEFFFE" transform="matrix(1.00, 0.00, -0.00, -1.00, 498.6, 276.7)">u</text><text xml:space="preserve" font-family="Chalkduster,Chalkduster" font-size="33.1" fill="#FEFFFE" transform="matrix(1.00, 0.00, -0.00, -1.00, 521.9, 276.7)">r</text><text xml:space="preserve" font-family="Chalkduster,Chalkduster" font-size="33.1" fill="#FEFFFE" transform="matrix(1.00, 0.00, -0.00, -1.00, 538.6, 276.7)">e</text><text xml:space="preserve" font-family="Chalkduster,Chalkduster" font-size="33.1" fill="#FEFFFE" transform="matrix(1.00, 0.00, -0.00, -1.00, 559.2, 276.7)"> </text><text xml:space="preserve" font-family="Chalkduster,Chalkduster" font-size="33.1" fill="#FEFFFE" transform="matrix(1.00, 0.00, -0.00, -1.00, 575.6, 276.7)">R</text><text xml:space="preserve" font-family="Chalkduster,Chalkduster" font-size="33.1" fill="#FEFFFE" transform="matrix(1.00, 0.00, -0.00, -1.00, 601.4, 276.7)">e</text><text xml:space="preserve" font-family="Chalkduster,Chalkduster" font-size="33.1" fill="#FEFFFE" transform="matrix(1.00, 0.00, -0.00, -1.00, 621.9, 276.7)">q</text><text xml:space="preserve" font-family="Chalkduster,Chalkduster" font-size="33.1" fill="#FEFFFE" transform="matrix(1.00, 0.00, -0.00, -1.00, 643.3, 276.7)">u</text><text xml:space="preserve" font-family="Chalkduster,Chalkduster" font-size="33.1" fill="#FEFFFE" transform="matrix(1.00, 0.00, -0.00, -1.00, 666.1, 276.7)">e</text><text xml:space="preserve" font-family="Chalkduster,Chalkduster" font-size="33.1" fill="#FEFFFE" transform="matrix(1.00, 0.00, -0.00, -1.00, 687.4, 276.7)">s</text><text xml:space="preserve" font-family="Chalkduster,Chalkduster" font-size="33.1" fill="#FEFFFE" transform="matrix(1.00, 0.00, -0.00, -1.00, 705.1, 276.7)">t</text><text xml:space="preserve" font-family="Chalkduster,Chalkduster" font-size="33.1" fill="#FEFFFE" transform="matrix(1.00, 0.00, -0.00, -1.00, 720.3, 276.7)">s</text><text xml:space="preserve" font-family="Chalkduster,Chalkduster" font-size="33.1" fill="#FEFFFE" transform="matrix(1.00, 0.00, -0.00, -1.00, 737.0, 276.7)"> </text><image xlink:href="../../50142469-0AEB-45DE-A4A2-AB2237BFE142/assets/4DEEB86E8592901A27491E22B30EA716.png" width="78.00" height="72.00" transform="matrix(0.25, 0.00, -0.00, -0.25, 104.0, 212.1)"></image><text xml:space="preserve" font-family="Chalkduster,Chalkduster" font-size="33.1" fill="#FEFFFE" transform="matrix(1.00, 0.00, -0.00, -1.00, 145.4, 194.6)">P</text><text xml:space="preserve" font-family="Chalkduster,Chalkduster" font-size="33.1" fill="#FEFFFE" transform="matrix(1.00, 0.00, -0.00, -1.00, 168.4, 194.6)">r</text><text xml:space="preserve" font-family="Chalkduster,Chalkduster" font-size="33.1" fill="#FEFFFE" transform="matrix(1.00, 0.00, -0.00, -1.00, 186.8, 194.6)">i</text><text xml:space="preserve" font-family="Chalkduster,Chalkduster" font-size="33.1" fill="#FEFFFE" transform="matrix(1.00, 0.00, -0.00, -1.00, 199.9, 194.6)">v</text><text xml:space="preserve" font-family="Chalkduster,Chalkduster" font-size="33.1" fill="#FEFFFE" transform="matrix(1.00, 0.00, -0.00, -1.00, 218.7, 194.6)">a</text><text xml:space="preserve" font-family="Chalkduster,Chalkduster" font-size="33.1" fill="#FEFFFE" transform="matrix(1.00, 0.00, -0.00, -1.00, 239.3, 194.6)">t</text><text xml:space="preserve" font-family="Chalkduster,Chalkduster" font-size="33.1" fill="#FEFFFE" transform="matrix(1.00, 0.00, -0.00, -1.00, 254.1, 194.6)">e</text><text xml:space="preserve" font-family="Chalkduster,Chalkduster" font-size="33.1" fill="#FEFFFE" transform="matrix(1.00, 0.00, -0.00, -1.00, 274.6, 194.6)"> </text><text xml:space="preserve" font-family="Chalkduster,Chalkduster" font-size="33.1" fill="#FEFFFE" transform="matrix(1.00, 0.00, -0.00, -1.00, 291.1, 194.6)">&amp;</text><text xml:space="preserve" font-family="Chalkduster,Chalkduster" font-size="33.1" fill="#FEFFFE" transform="matrix(1.00, 0.00, -0.00, -1.00, 321.4, 194.6)"> </text><text xml:space="preserve" font-family="Chalkduster,Chalkduster" font-size="33.1" fill="#FEFFFE" transform="matrix(1.00, 0.00, -0.00, -1.00, 337.9, 194.6)">P</text><text xml:space="preserve" font-family="Chalkduster,Chalkduster" font-size="33.1" fill="#FEFFFE" transform="matrix(1.00, 0.00, -0.00, -1.00, 361.4, 194.6)">u</text><text xml:space="preserve" font-family="Chalkduster,Chalkduster" font-size="33.1" fill="#FEFFFE" transform="matrix(1.00, 0.00, -0.00, -1.00, 384.2, 194.6)">b</text><text xml:space="preserve" font-family="Chalkduster,Chalkduster" font-size="33.1" fill="#FEFFFE" transform="matrix(1.00, 0.00, -0.00, -1.00, 404.1, 194.6)">l</text><text xml:space="preserve" font-family="Chalkduster,Chalkduster" font-size="33.1" fill="#FEFFFE" transform="matrix(1.00, 0.00, -0.00, -1.00, 420.1, 194.6)">i</text><text xml:space="preserve" font-family="Chalkduster,Chalkduster" font-size="33.1" fill="#FEFFFE" transform="matrix(1.00, 0.00, -0.00, -1.00, 433.5, 194.6)">c</text><text xml:space="preserve" font-family="Chalkduster,Chalkduster" font-size="33.1" fill="#FEFFFE" transform="matrix(1.00, 0.00, -0.00, -1.00, 454.3, 194.6)"> </text><text xml:space="preserve" font-family="Chalkduster,Chalkduster" font-size="33.1" fill="#FEFFFE" transform="matrix(1.00, 0.00, -0.00, -1.00, 470.7, 194.6)">R</text><text xml:space="preserve" font-family="Chalkduster,Chalkduster" font-size="33.1" fill="#FEFFFE" transform="matrix(1.00, 0.00, -0.00, -1.00, 496.5, 194.6)">e</text><text xml:space="preserve" font-family="Chalkduster,Chalkduster" font-size="33.1" fill="#FEFFFE" transform="matrix(1.00, 0.00, -0.00, -1.00, 517.6, 194.6)">p</text><text xml:space="preserve" font-family="Chalkduster,Chalkduster" font-size="33.1" fill="#FEFFFE" transform="matrix(1.00, 0.00, -0.00, -1.00, 538.4, 194.6)">o</text><text xml:space="preserve" font-family="Chalkduster,Chalkduster" font-size="33.1" fill="#FEFFFE" transform="matrix(1.00, 0.00, -0.00, -1.00, 562.6, 194.6)">s</text><text xml:space="preserve" font-family="Chalkduster,Chalkduster" font-size="33.1" fill="#FEFFFE" transform="matrix(1.00, 0.00, -0.00, -1.00, 579.3, 194.6)">i</text><text xml:space="preserve" font-family="Chalkduster,Chalkduster" font-size="33.1" fill="#FEFFFE" transform="matrix(1.00, 0.00, -0.00, -1.00, 592.7, 194.6)">t</text><text xml:space="preserve" font-family="Chalkduster,Chalkduster" font-size="33.1" fill="#FEFFFE" transform="matrix(1.00, 0.00, -0.00, -1.00, 606.4, 194.6)">o</text><text xml:space="preserve" font-family="Chalkduster,Chalkduster" font-size="33.1" fill="#FEFFFE" transform="matrix(1.00, 0.00, -0.00, -1.00, 630.5, 194.6)">r</text><text xml:space="preserve" font-family="Chalkduster,Chalkduster" font-size="33.1" fill="#FEFFFE" transform="matrix(1.00, 0.00, -0.00, -1.00, 648.9, 194.6)">i</text><text xml:space="preserve" font-family="Chalkduster,Chalkduster" font-size="33.1" fill="#FEFFFE" transform="matrix(1.00, 0.00, -0.00, -1.00, 661.9, 194.6)">e</text><text xml:space="preserve" font-family="Chalkduster,Chalkduster" font-size="33.1" fill="#FEFFFE" transform="matrix(1.00, 0.00, -0.00, -1.00, 683.2, 194.6)">s</text><text xml:space="preserve" font-family="Chalkduster,Chalkduster" font-size="33.1" fill="#FEFFFE" transform="matrix(1.00, 0.00, -0.00, -1.00, 700.0, 194.6)"> </text><image xlink:href="../../50142469-0AEB-45DE-A4A2-AB2237BFE142/assets/4DEEB86E8592901A27491E22B30EA716.png" width="78.00" height="72.00" transform="matrix(0.25, 0.00, -0.00, -0.25, 104.0, 130.0)"></image><text xml:space="preserve" font-family="Chalkduster,Chalkduster" font-size="33.1" fill="#FEFFFE" transform="matrix(1.00, 0.00, -0.00, -1.00, 145.4, 112.4)">3</text><text xml:space="preserve" font-family="Chalkduster,Chalkduster" font-size="33.1" fill="#FEFFFE" transform="matrix(1.00, 0.00, -0.00, -1.00, 167.0, 112.4)">.</text><text xml:space="preserve" font-family="Chalkduster,Chalkduster" font-size="33.1" fill="#FEFFFE" transform="matrix(1.00, 0.00, -0.00, -1.00, 177.0, 112.4)">4</text><text xml:space="preserve" font-family="Chalkduster,Chalkduster" font-size="33.1" fill="#FEFFFE" transform="matrix(1.00, 0.00, -0.00, -1.00, 209.0, 112.4)">M</text><text xml:space="preserve" font-family="Chalkduster,Chalkduster" font-size="33.1" fill="#FEFFFE" transform="matrix(1.00, 0.00, -0.00, -1.00, 236.8, 112.4)"> </text><text xml:space="preserve" font-family="Chalkduster,Chalkduster" font-size="33.1" fill="#FEFFFE" transform="matrix(1.00, 0.00, -0.00, -1.00, 253.3, 112.4)">u</text><text xml:space="preserve" font-family="Chalkduster,Chalkduster" font-size="33.1" fill="#FEFFFE" transform="matrix(1.00, 0.00, -0.00, -1.00, 277.0, 112.4)">s</text><text xml:space="preserve" font-family="Chalkduster,Chalkduster" font-size="33.1" fill="#FEFFFE" transform="matrix(1.00, 0.00, -0.00, -1.00, 293.8, 112.4)">e</text><text xml:space="preserve" font-family="Chalkduster,Chalkduster" font-size="33.1" fill="#FEFFFE" transform="matrix(1.00, 0.00, -0.00, -1.00, 314.0, 112.4)">r</text><text xml:space="preserve" font-family="Chalkduster,Chalkduster" font-size="33.1" fill="#FEFFFE" transform="matrix(1.00, 0.00, -0.00, -1.00, 331.0, 112.4)">s</text><text xml:space="preserve" font-family="Chalkduster,Chalkduster" font-size="33.1" fill="#FEFFFE" transform="matrix(1.00, 0.00, -0.00, -1.00, 346.5, 112.4)">,</text><text xml:space="preserve" font-family="Chalkduster,Chalkduster" font-size="33.1" fill="#FEFFFE" transform="matrix(1.00, 0.00, -0.00, -1.00, 356.7, 112.4)"> </text><text xml:space="preserve" font-family="Chalkduster,Chalkduster" font-size="33.1" fill="#FEFFFE" transform="matrix(1.00, 0.00, -0.00, -1.00, 373.2, 112.4)">1</text><text xml:space="preserve" font-family="Chalkduster,Chalkduster" font-size="33.1" fill="#FEFFFE" transform="matrix(1.00, 0.00, -0.00, -1.00, 391.6, 112.4)">6</text><text xml:space="preserve" font-family="Chalkduster,Chalkduster" font-size="33.1" fill="#FEFFFE" transform="matrix(1.00, 0.00, -0.00, -1.00, 413.6, 112.4)">.</text><text xml:space="preserve" font-family="Chalkduster,Chalkduster" font-size="33.1" fill="#FEFFFE" transform="matrix(1.00, 0.00, -0.00, -1.00, 422.1, 112.4)">7</text><text xml:space="preserve" font-family="Chalkduster,Chalkduster" font-size="33.1" fill="#FEFFFE" transform="matrix(1.00, 0.00, -0.00, -1.00, 441.8, 112.4)">M</text><text xml:space="preserve" font-family="Chalkduster,Chalkduster" font-size="33.1" fill="#FEFFFE" transform="matrix(1.00, 0.00, -0.00, -1.00, 469.7, 112.4)"> </text><text xml:space="preserve" font-family="Chalkduster,Chalkduster" font-size="33.1" fill="#FEFFFE" transform="matrix(1.00, 0.00, -0.00, -1.00, 486.1, 112.4)">r</text><text xml:space="preserve" font-family="Chalkduster,Chalkduster" font-size="33.1" fill="#FEFFFE" transform="matrix(1.00, 0.00, -0.00, -1.00, 502.9, 112.4)">e</text><text xml:space="preserve" font-family="Chalkduster,Chalkduster" font-size="33.1" fill="#FEFFFE" transform="matrix(1.00, 0.00, -0.00, -1.00, 524.0, 112.4)">p</text><text xml:space="preserve" font-family="Chalkduster,Chalkduster" font-size="33.1" fill="#FEFFFE" transform="matrix(1.00, 0.00, -0.00, -1.00, 544.8, 112.4)">o</text><text xml:space="preserve" font-family="Chalkduster,Chalkduster" font-size="33.1" fill="#FEFFFE" transform="matrix(1.00, 0.00, -0.00, -1.00, 569.0, 112.4)">s</text><text xml:space="preserve" font-family="Chalkduster,Chalkduster" font-size="33.1" fill="#FEFFFE" transform="matrix(1.00, 0.00, -0.00, -1.00, 585.7, 112.4)"> </text></g></svg>