<?xml version="1.0" encoding="UTF-8" standalone="no"?><svg xmlns="http://www.w3.org/2000/svg" xmlns:xlink="http://www.w3.org/1999/xlink" clip-rule="evenodd" stroke-miterlimit="10" viewBox="0 0 634 43"><desc>SVG generated by Keynote</desc><defs></defs><g transform="matrix(1.00, 0.00, -0.00, -1.00, 0.0, 43.0)"><text xml:space="preserve" font-family="Chalkduster,Chalkduster" font-size="30.0" fill="#FEFFFE" transform="matrix(1.00, 0.00, -0.00, -1.00, 0.9, 9.7)">-</text><text xml:space="preserve" font-family="Chalkduster,Chalkduster" font-size="30.0" fill="#FEFFFE" transform="matrix(1.00, 0.00, -0.00, -1.00, 38.4, 12.7)">C</text><text xml:space="preserve" font-family="Chalkduster,Chalkduster" font-size="30.0" fill="#FEFFFE" transform="matrix(1.00, 0.00, -0.00, -1.00, 62.7, 12.7)">o</text><text xml:space="preserve" font-family="Chalkduster,Chalkduster" font-size="30.0" fill="#FEFFFE" transform="matrix(1.00, 0.00, -0.00, -1.00, 85.2, 12.7)">m</text><text xml:space="preserve" font-family="Chalkduster,Chalkduster" font-size="30.0" fill="#FEFFFE" transform="matrix(1.00, 0.00, -0.00, -1.00, 116.3, 12.7)">e</text><text xml:space="preserve" font-family="Chalkduster,Chalkduster" font-size="30.0" fill="#FEFFFE" transform="matrix(1.00, 0.00, -0.00, -1.00, 134.9, 12.7)"> </text><text xml:space="preserve" font-family="Chalkduster,Chalkduster" font-size="30.0" fill="#FEFFFE" transform="matrix(1.00, 0.00, -0.00, -1.00, 149.8, 12.7)">f</text><text xml:space="preserve" font-family="Chalkduster,Chalkduster" font-size="30.0" fill="#FEFFFE" transform="matrix(1.00, 0.00, -0.00, -1.00, 164.8, 12.7)">a</text><text xml:space="preserve" font-family="Chalkduster,Chalkduster" font-size="30.0" fill="#FEFFFE" transform="matrix(1.00, 0.00, -0.00, -1.00, 184.6, 12.7)">c</text><text xml:space="preserve" font-family="Chalkduster,Chalkduster" font-size="30.0" fill="#FEFFFE" transform="matrix(1.00, 0.00, -0.00, -1.00, 202.1, 12.7)">c</text><text xml:space="preserve" font-family="Chalkduster,Chalkduster" font-size="30.0" fill="#FEFFFE" transform="matrix(1.00, 0.00, -0.00, -1.00, 221.0, 12.7)">i</text><text xml:space="preserve" font-family="Chalkduster,Chalkduster" font-size="30.0" fill="#FEFFFE" transform="matrix(1.00, 0.00, -0.00, -1.00, 232.8, 12.7)">o</text><text xml:space="preserve" font-family="Chalkduster,Chalkduster" font-size="30.0" fill="#FEFFFE" transform="matrix(1.00, 0.00, -0.00, -1.00, 254.4, 12.7)"> </text><text xml:space="preserve" font-family="Chalkduster,Chalkduster" font-size="30.0" fill="#FEFFFE" transform="matrix(1.00, 0.00, -0.00, -1.00, 269.3, 12.7)">a</text><text xml:space="preserve" font-family="Chalkduster,Chalkduster" font-size="30.0" fill="#FEFFFE" transform="matrix(1.00, 0.00, -0.00, -1.00, 290.0, 12.7)"> </text><text xml:space="preserve" font-family="Chalkduster,Chalkduster" font-size="30.0" fill="#FEFFFE" transform="matrix(1.00, 0.00, -0.00, -1.00, 304.9, 12.7)">c</text><text xml:space="preserve" font-family="Chalkduster,Chalkduster" font-size="30.0" fill="#FEFFFE" transform="matrix(1.00, 0.00, -0.00, -1.00, 322.8, 12.7)">o</text><text xml:space="preserve" font-family="Chalkduster,Chalkduster" font-size="30.0" fill="#FEFFFE" transform="matrix(1.00, 0.00, -0.00, -1.00, 344.7, 12.7)">r</text><text xml:space="preserve" font-family="Chalkduster,Chalkduster" font-size="30.0" fill="#FEFFFE" transform="matrix(1.00, 0.00, -0.00, -1.00, 361.4, 12.7)">r</text><text xml:space="preserve" font-family="Chalkduster,Chalkduster" font-size="30.0" fill="#FEFFFE" transform="matrix(1.00, 0.00, -0.00, -1.00, 376.6, 12.7)">e</text><text xml:space="preserve" font-family="Chalkduster,Chalkduster" font-size="30.0" fill="#FEFFFE" transform="matrix(1.00, 0.00, -0.00, -1.00, 394.3, 12.7)">g</text><text xml:space="preserve" font-family="Chalkduster,Chalkduster" font-size="30.0" fill="#FEFFFE" transform="matrix(1.00, 0.00, -0.00, -1.00, 415.2, 12.7)">g</text><text xml:space="preserve" font-family="Chalkduster,Chalkduster" font-size="30.0" fill="#FEFFFE" transform="matrix(1.00, 0.00, -0.00, -1.00, 436.1, 12.7)">e</text><text xml:space="preserve" font-family="Chalkduster,Chalkduster" font-size="30.0" fill="#FEFFFE" transform="matrix(1.00, 0.00, -0.00, -1.00, 454.4, 12.7)">r</text><text xml:space="preserve" font-family="Chalkduster,Chalkduster" font-size="30.0" fill="#FEFFFE" transform="matrix(1.00, 0.00, -0.00, -1.00, 469.6, 12.7)">e</text><text xml:space="preserve" font-family="Chalkduster,Chalkduster" font-size="30.0" fill="#FEFFFE" transform="matrix(1.00, 0.00, -0.00, -1.00, 488.2, 12.7)"> </text><text xml:space="preserve" font-family="Chalkduster,Chalkduster" font-size="30.0" fill="#FEFFFE" transform="matrix(1.00, 0.00, -0.00, -1.00, 503.1, 12.7)">u</text><text xml:space="preserve" font-family="Chalkduster,Chalkduster" font-size="30.0" fill="#FEFFFE" transform="matrix(1.00, 0.00, -0.00, -1.00, 524.1, 12.7)">n</text><text xml:space="preserve" font-family="Chalkduster,Chalkduster" font-size="30.0" fill="#FEFFFE" transform="matrix(1.00, 0.00, -0.00, -1.00, 546.1, 12.7)"> </text><text xml:space="preserve" font-family="Chalkduster,Chalkduster" font-size="30.0" fill="#FEFFFE" transform="matrix(1.00, 0.00, -0.00, -1.00, 561.1, 12.7)">b</text><text xml:space="preserve" font-family="Chalkduster,Chalkduster" font-size="30.0" fill="#FEFFFE" transform="matrix(1.00, 0.00, -0.00, -1.00, 578.5, 12.7)">u</text><text xml:space="preserve" font-family="Chalkduster,Chalkduster" font-size="30.0" fill="#FEFFFE" transform="matrix(1.00, 0.00, -0.00, -1.00, 599.2, 12.7)">g</text><text xml:space="preserve" font-family="Chalkduster,Chalkduster" font-size="30.0" fill="#FEFFFE" transform="matrix(1.00, 0.00, -0.00, -1.00, 618.3, 12.7)">?</text></g></svg>