<?xml version="1.0" encoding="UTF-8" standalone="no"?><svg xmlns="http://www.w3.org/2000/svg" xmlns:xlink="http://www.w3.org/1999/xlink" clip-rule="evenodd" stroke-miterlimit="10" viewBox="0 0 441 47"><desc>SVG generated by Keynote</desc><defs></defs><g transform="matrix(1.00, 0.00, -0.00, -1.00, 0.0, 47.0)"><text xml:space="preserve" font-family="Chalkduster,Chalkduster" font-size="30.0" fill="#FEFFFE" transform="matrix(1.00, 0.00, -0.00, -1.00, 0.9, 15.7)">-</text><text xml:space="preserve" font-family="Chalkduster,Chalkduster" font-size="30.0" fill="#FEFFFE" transform="matrix(1.00, 0.00, -0.00, -1.00, 38.4, 18.7)">C</text><text xml:space="preserve" font-family="Chalkduster,Chalkduster" font-size="30.0" fill="#FEFFFE" transform="matrix(1.00, 0.00, -0.00, -1.00, 62.7, 18.7)">o</text><text xml:space="preserve" font-family="Chalkduster,Chalkduster" font-size="30.0" fill="#FEFFFE" transform="matrix(1.00, 0.00, -0.00, -1.00, 84.5, 18.7)">s</text><text xml:space="preserve" font-family="Chalkduster,Chalkduster" font-size="30.0" fill="#FEFFFE" transform="matrix(1.00, 0.00, -0.00, -1.00, 99.7, 18.7)">a</text><text xml:space="preserve" font-family="Chalkduster,Chalkduster" font-size="30.0" fill="#FEFFFE" transform="matrix(1.00, 0.00, -0.00, -1.00, 120.4, 18.7)"> </text><text xml:space="preserve" font-family="Chalkduster,Chalkduster" font-size="30.0" fill="#FEFFFE" transform="matrix(1.00, 0.00, -0.00, -1.00, 135.3, 18.7)">è</text><text xml:space="preserve" font-family="Chalkduster,Chalkduster" font-size="30.0" fill="#FEFFFE" transform="matrix(1.00, 0.00, -0.00, -1.00, 155.0, 18.7)"> </text><text xml:space="preserve" font-family="Chalkduster,Chalkduster" font-size="30.0" fill="#FEFFFE" transform="matrix(1.00, 0.00, -0.00, -1.00, 169.9, 18.7)">s</text><text xml:space="preserve" font-family="Chalkduster,Chalkduster" font-size="30.0" fill="#FEFFFE" transform="matrix(1.00, 0.00, -0.00, -1.00, 185.1, 18.7)">u</text><text xml:space="preserve" font-family="Chalkduster,Chalkduster" font-size="30.0" fill="#FEFFFE" transform="matrix(1.00, 0.00, -0.00, -1.00, 205.7, 18.7)">c</text><text xml:space="preserve" font-family="Chalkduster,Chalkduster" font-size="30.0" fill="#FEFFFE" transform="matrix(1.00, 0.00, -0.00, -1.00, 223.3, 18.7)">c</text><text xml:space="preserve" font-family="Chalkduster,Chalkduster" font-size="30.0" fill="#FEFFFE" transform="matrix(1.00, 0.00, -0.00, -1.00, 241.4, 18.7)">e</text><text xml:space="preserve" font-family="Chalkduster,Chalkduster" font-size="30.0" fill="#FEFFFE" transform="matrix(1.00, 0.00, -0.00, -1.00, 260.7, 18.7)">s</text><text xml:space="preserve" font-family="Chalkduster,Chalkduster" font-size="30.0" fill="#FEFFFE" transform="matrix(1.00, 0.00, -0.00, -1.00, 275.8, 18.7)">s</text><text xml:space="preserve" font-family="Chalkduster,Chalkduster" font-size="30.0" fill="#FEFFFE" transform="matrix(1.00, 0.00, -0.00, -1.00, 291.0, 18.7)">o</text><text xml:space="preserve" font-family="Chalkduster,Chalkduster" font-size="30.0" fill="#FEFFFE" transform="matrix(1.00, 0.00, -0.00, -1.00, 312.6, 18.7)"> </text><text xml:space="preserve" font-family="Chalkduster,Chalkduster" font-size="30.0" fill="#FEFFFE" transform="matrix(1.00, 0.00, -0.00, -1.00, 327.5, 18.7)">p</text><text xml:space="preserve" font-family="Chalkduster,Chalkduster" font-size="30.0" fill="#FEFFFE" transform="matrix(1.00, 0.00, -0.00, -1.00, 346.0, 18.7)">r</text><text xml:space="preserve" font-family="Chalkduster,Chalkduster" font-size="30.0" fill="#FEFFFE" transform="matrix(1.00, 0.00, -0.00, -1.00, 362.6, 18.7)">i</text><text xml:space="preserve" font-family="Chalkduster,Chalkduster" font-size="30.0" fill="#FEFFFE" transform="matrix(1.00, 0.00, -0.00, -1.00, 374.5, 18.7)">m</text><text xml:space="preserve" font-family="Chalkduster,Chalkduster" font-size="30.0" fill="#FEFFFE" transform="matrix(1.00, 0.00, -0.00, -1.00, 404.8, 18.7)">a</text><text xml:space="preserve" font-family="Chalkduster,Chalkduster" font-size="30.0" fill="#FEFFFE" transform="matrix(1.00, 0.00, -0.00, -1.00, 425.5, 18.7)">?</text></g></svg>