<?xml version="1.0" encoding="UTF-8" standalone="no"?><svg xmlns="http://www.w3.org/2000/svg" xmlns:xlink="http://www.w3.org/1999/xlink" clip-rule="evenodd" stroke-miterlimit="10" viewBox="0 0 767 190"><desc>SVG generated by Keynote</desc><defs></defs><g transform="matrix(1.00, 0.00, -0.00, -1.00, 0.0, 190.0)"><text xml:space="preserve" font-family="Chalkduster,Chalkduster" font-size="50.4" fill="#FEFFFE" transform="matrix(1.00, 0.00, -0.00, -1.00, 16.8, 144.9)">M</text><text xml:space="preserve" font-family="Chalkduster,Chalkduster" font-size="50.4" fill="#FEFFFE" transform="matrix(1.00, 0.00, -0.00, -1.00, 59.2, 144.9)">a</text><text xml:space="preserve" font-family="Chalkduster,Chalkduster" font-size="50.4" fill="#FEFFFE" transform="matrix(1.00, 0.00, -0.00, -1.00, 93.9, 144.9)"> </text><text xml:space="preserve" font-family="Chalkduster,Chalkduster" font-size="50.4" fill="#FEFFFE" transform="matrix(1.00, 0.00, -0.00, -1.00, 119.0, 144.9)">l</text><text xml:space="preserve" font-family="Chalkduster,Chalkduster" font-size="50.4" fill="#FEFFFE" transform="matrix(1.00, 0.00, -0.00, -1.00, 141.5, 144.9)">a</text><text xml:space="preserve" font-family="Chalkduster,Chalkduster" font-size="50.4" fill="#FEFFFE" transform="matrix(1.00, 0.00, -0.00, -1.00, 176.3, 144.9)"> </text><text xml:space="preserve" font-family="Chalkduster,Chalkduster" font-size="50.4" fill="#FEFFFE" transform="matrix(1.00, 0.00, -0.00, -1.00, 201.3, 144.9)">v</text><text xml:space="preserve" font-family="Chalkduster,Chalkduster" font-size="50.4" fill="#FEFFFE" transform="matrix(1.00, 0.00, -0.00, -1.00, 232.3, 144.9)">e</text><text xml:space="preserve" font-family="Chalkduster,Chalkduster" font-size="50.4" fill="#FEFFFE" transform="matrix(1.00, 0.00, -0.00, -1.00, 263.0, 144.9)">r</text><text xml:space="preserve" font-family="Chalkduster,Chalkduster" font-size="50.4" fill="#FEFFFE" transform="matrix(1.00, 0.00, -0.00, -1.00, 289.1, 144.9)">s</text><text xml:space="preserve" font-family="Chalkduster,Chalkduster" font-size="50.4" fill="#FEFFFE" transform="matrix(1.00, 0.00, -0.00, -1.00, 314.5, 144.9)">i</text><text xml:space="preserve" font-family="Chalkduster,Chalkduster" font-size="50.4" fill="#FEFFFE" transform="matrix(1.00, 0.00, -0.00, -1.00, 334.4, 144.9)">o</text><text xml:space="preserve" font-family="Chalkduster,Chalkduster" font-size="50.4" fill="#FEFFFE" transform="matrix(1.00, 0.00, -0.00, -1.00, 371.9, 144.9)">n</text><text xml:space="preserve" font-family="Chalkduster,Chalkduster" font-size="50.4" fill="#FEFFFE" transform="matrix(1.00, 0.00, -0.00, -1.00, 409.6, 144.9)">e</text><text xml:space="preserve" font-family="Chalkduster,Chalkduster" font-size="50.4" fill="#FEFFFE" transform="matrix(1.00, 0.00, -0.00, -1.00, 440.9, 144.9)"> </text><text xml:space="preserve" font-family="Chalkduster,Chalkduster" font-size="50.4" fill="#FEFFFE" transform="matrix(1.00, 0.00, -0.00, -1.00, 466.0, 144.9)">è</text><text xml:space="preserve" font-family="Chalkduster,Chalkduster" font-size="50.4" fill="#FEFFFE" transform="matrix(1.00, 0.00, -0.00, -1.00, 499.1, 144.9)"> </text><text xml:space="preserve" font-family="Chalkduster,Chalkduster" font-size="50.4" fill="#FEFFFE" transform="matrix(1.00, 0.00, -0.00, -1.00, 524.1, 144.9)">s</text><text xml:space="preserve" font-family="Chalkduster,Chalkduster" font-size="50.4" fill="#FEFFFE" transform="matrix(1.00, 0.00, -0.00, -1.00, 549.6, 144.9)">o</text><text xml:space="preserve" font-family="Chalkduster,Chalkduster" font-size="50.4" fill="#FEFFFE" transform="matrix(1.00, 0.00, -0.00, -1.00, 587.9, 144.9)">l</text><text xml:space="preserve" font-family="Chalkduster,Chalkduster" font-size="50.4" fill="#FEFFFE" transform="matrix(1.00, 0.00, -0.00, -1.00, 609.6, 144.9)">o</text><text xml:space="preserve" font-family="Chalkduster,Chalkduster" font-size="50.4" fill="#FEFFFE" transform="matrix(1.00, 0.00, -0.00, -1.00, 645.8, 144.9)"> </text><text xml:space="preserve" font-family="Chalkduster,Chalkduster" font-size="50.4" fill="#FEFFFE" transform="matrix(1.00, 0.00, -0.00, -1.00, 670.9, 144.9)">u</text><text xml:space="preserve" font-family="Chalkduster,Chalkduster" font-size="50.4" fill="#FEFFFE" transform="matrix(1.00, 0.00, -0.00, -1.00, 706.3, 144.9)">n</text><text xml:space="preserve" font-family="Chalkduster,Chalkduster" font-size="50.4" fill="#FEFFFE" transform="matrix(1.00, 0.00, -0.00, -1.00, 743.2, 144.9)"> </text><text xml:space="preserve" font-family="Chalkduster,Chalkduster" font-size="50.4" fill="#FEFFFE" transform="matrix(1.00, 0.00, -0.00, -1.00, -2.5, 80.9)">p</text><text xml:space="preserve" font-family="Chalkduster,Chalkduster" font-size="50.4" fill="#FEFFFE" transform="matrix(1.00, 0.00, -0.00, -1.00, 28.7, 80.9)">r</text><text xml:space="preserve" font-family="Chalkduster,Chalkduster" font-size="50.4" fill="#FEFFFE" transform="matrix(1.00, 0.00, -0.00, -1.00, 54.2, 80.9)">e</text><text xml:space="preserve" font-family="Chalkduster,Chalkduster" font-size="50.4" fill="#FEFFFE" transform="matrix(1.00, 0.00, -0.00, -1.00, 86.2, 80.9)">c</text><text xml:space="preserve" font-family="Chalkduster,Chalkduster" font-size="50.4" fill="#FEFFFE" transform="matrix(1.00, 0.00, -0.00, -1.00, 117.9, 80.9)">i</text><text xml:space="preserve" font-family="Chalkduster,Chalkduster" font-size="50.4" fill="#FEFFFE" transform="matrix(1.00, 0.00, -0.00, -1.00, 137.8, 80.9)">s</text><text xml:space="preserve" font-family="Chalkduster,Chalkduster" font-size="50.4" fill="#FEFFFE" transform="matrix(1.00, 0.00, -0.00, -1.00, 163.3, 80.9)">o</text><text xml:space="preserve" font-family="Chalkduster,Chalkduster" font-size="50.4" fill="#FEFFFE" transform="matrix(1.00, 0.00, -0.00, -1.00, 199.5, 80.9)"> </text><text xml:space="preserve" font-family="Chalkduster,Chalkduster" font-size="50.4" fill="#FEFFFE" transform="matrix(1.00, 0.00, -0.00, -1.00, 224.6, 80.9)">i</text><text xml:space="preserve" font-family="Chalkduster,Chalkduster" font-size="50.4" fill="#FEFFFE" transform="matrix(1.00, 0.00, -0.00, -1.00, 244.5, 80.9)">s</text><text xml:space="preserve" font-family="Chalkduster,Chalkduster" font-size="50.4" fill="#FEFFFE" transform="matrix(1.00, 0.00, -0.00, -1.00, 271.5, 80.9)">t</text><text xml:space="preserve" font-family="Chalkduster,Chalkduster" font-size="50.4" fill="#FEFFFE" transform="matrix(1.00, 0.00, -0.00, -1.00, 294.0, 80.9)">a</text><text xml:space="preserve" font-family="Chalkduster,Chalkduster" font-size="50.4" fill="#FEFFFE" transform="matrix(1.00, 0.00, -0.00, -1.00, 328.7, 80.9)">n</text><text xml:space="preserve" font-family="Chalkduster,Chalkduster" font-size="50.4" fill="#FEFFFE" transform="matrix(1.00, 0.00, -0.00, -1.00, 363.8, 80.9)">t</text><text xml:space="preserve" font-family="Chalkduster,Chalkduster" font-size="50.4" fill="#FEFFFE" transform="matrix(1.00, 0.00, -0.00, -1.00, 386.3, 80.9)">e</text><text xml:space="preserve" font-family="Chalkduster,Chalkduster" font-size="50.4" fill="#FEFFFE" transform="matrix(1.00, 0.00, -0.00, -1.00, 417.5, 80.9)"> </text><text xml:space="preserve" font-family="Chalkduster,Chalkduster" font-size="50.4" fill="#FEFFFE" transform="matrix(1.00, 0.00, -0.00, -1.00, 442.6, 80.9)">n</text><text xml:space="preserve" font-family="Chalkduster,Chalkduster" font-size="50.4" fill="#FEFFFE" transform="matrix(1.00, 0.00, -0.00, -1.00, 480.4, 80.9)">e</text><text xml:space="preserve" font-family="Chalkduster,Chalkduster" font-size="50.4" fill="#FEFFFE" transform="matrix(1.00, 0.00, -0.00, -1.00, 511.6, 80.9)">l</text><text xml:space="preserve" font-family="Chalkduster,Chalkduster" font-size="50.4" fill="#FEFFFE" transform="matrix(1.00, 0.00, -0.00, -1.00, 534.5, 80.9)">l</text><text xml:space="preserve" font-family="Chalkduster,Chalkduster" font-size="50.4" fill="#FEFFFE" transform="matrix(1.00, 0.00, -0.00, -1.00, 557.0, 80.9)">a</text><text xml:space="preserve" font-family="Chalkduster,Chalkduster" font-size="50.4" fill="#FEFFFE" transform="matrix(1.00, 0.00, -0.00, -1.00, 591.8, 80.9)"> </text><text xml:space="preserve" font-family="Chalkduster,Chalkduster" font-size="50.4" fill="#FEFFFE" transform="matrix(1.00, 0.00, -0.00, -1.00, 608.4, 80.9)">“</text><text xml:space="preserve" font-family="Chalkduster,Chalkduster" font-size="50.4" fill="#FEFFFE" transform="matrix(1.00, 0.00, -0.00, -1.00, 632.9, 80.9)">v</text><text xml:space="preserve" font-family="Chalkduster,Chalkduster" font-size="50.4" fill="#FEFFFE" transform="matrix(1.00, 0.00, -0.00, -1.00, 664.3, 80.9)">i</text><text xml:space="preserve" font-family="Chalkduster,Chalkduster" font-size="50.4" fill="#FEFFFE" transform="matrix(1.00, 0.00, -0.00, -1.00, 684.8, 80.9)">t</text><text xml:space="preserve" font-family="Chalkduster,Chalkduster" font-size="50.4" fill="#FEFFFE" transform="matrix(1.00, 0.00, -0.00, -1.00, 707.3, 80.9)">a</text><text xml:space="preserve" font-family="Chalkduster,Chalkduster" font-size="50.4" fill="#FEFFFE" transform="matrix(1.00, 0.00, -0.00, -1.00, 742.0, 80.9)">”</text><text xml:space="preserve" font-family="Chalkduster,Chalkduster" font-size="50.4" fill="#FEFFFE" transform="matrix(1.00, 0.00, -0.00, -1.00, 762.4, 80.9)"> </text><text xml:space="preserve" font-family="Chalkduster,Chalkduster" font-size="50.4" fill="#FEFFFE" transform="matrix(1.00, 0.00, -0.00, -1.00, 168.3, 16.9)">d</text><text xml:space="preserve" font-family="Chalkduster,Chalkduster" font-size="50.4" fill="#FEFFFE" transform="matrix(1.00, 0.00, -0.00, -1.00, 209.8, 16.9)">i</text><text xml:space="preserve" font-family="Chalkduster,Chalkduster" font-size="50.4" fill="#FEFFFE" transform="matrix(1.00, 0.00, -0.00, -1.00, 229.7, 16.9)"> </text><text xml:space="preserve" font-family="Chalkduster,Chalkduster" font-size="50.4" fill="#FEFFFE" transform="matrix(1.00, 0.00, -0.00, -1.00, 254.7, 16.9)">u</text><text xml:space="preserve" font-family="Chalkduster,Chalkduster" font-size="50.4" fill="#FEFFFE" transform="matrix(1.00, 0.00, -0.00, -1.00, 290.1, 16.9)">n</text><text xml:space="preserve" font-family="Chalkduster,Chalkduster" font-size="50.4" fill="#FEFFFE" transform="matrix(1.00, 0.00, -0.00, -1.00, 327.1, 16.9)"> </text><text xml:space="preserve" font-family="Chalkduster,Chalkduster" font-size="50.4" fill="#FEFFFE" transform="matrix(1.00, 0.00, -0.00, -1.00, 352.2, 16.9)">s</text><text xml:space="preserve" font-family="Chalkduster,Chalkduster" font-size="50.4" fill="#FEFFFE" transform="matrix(1.00, 0.00, -0.00, -1.00, 377.6, 16.9)">o</text><text xml:space="preserve" font-family="Chalkduster,Chalkduster" font-size="50.4" fill="#FEFFFE" transform="matrix(1.00, 0.00, -0.00, -1.00, 413.8, 16.9)">f</text><text xml:space="preserve" font-family="Chalkduster,Chalkduster" font-size="50.4" fill="#FEFFFE" transform="matrix(1.00, 0.00, -0.00, -1.00, 438.7, 16.9)">t</text><text xml:space="preserve" font-family="Chalkduster,Chalkduster" font-size="50.4" fill="#FEFFFE" transform="matrix(1.00, 0.00, -0.00, -1.00, 461.8, 16.9)">w</text><text xml:space="preserve" font-family="Chalkduster,Chalkduster" font-size="50.4" fill="#FEFFFE" transform="matrix(1.00, 0.00, -0.00, -1.00, 502.9, 16.9)">a</text><text xml:space="preserve" font-family="Chalkduster,Chalkduster" font-size="50.4" fill="#FEFFFE" transform="matrix(1.00, 0.00, -0.00, -1.00, 535.0, 16.9)">r</text><text xml:space="preserve" font-family="Chalkduster,Chalkduster" font-size="50.4" fill="#FEFFFE" transform="matrix(1.00, 0.00, -0.00, -1.00, 560.5, 16.9)">e</text></g></svg>